<svg xmlns="http://www.w3.org/2000/svg" width="26.658" height="26.652" viewBox="0 0 26.658 26.652">
  <path id="Icon_awesome-instagram" data-name="Icon awesome-instagram" d="M13.327,8.73a6.833,6.833,0,1,0,6.833,6.833A6.822,6.822,0,0,0,13.327,8.73Zm0,11.276a4.442,4.442,0,1,1,4.442-4.442A4.451,4.451,0,0,1,13.327,20.006ZM22.033,8.451a1.594,1.594,0,1,1-1.594-1.594A1.59,1.59,0,0,1,22.033,8.451Zm4.526,1.618a7.887,7.887,0,0,0-2.153-5.584,7.939,7.939,0,0,0-5.584-2.153c-2.2-.125-8.8-.125-11,0A7.928,7.928,0,0,0,2.241,4.478,7.913,7.913,0,0,0,.088,10.063c-.125,2.2-.125,8.8,0,11a7.887,7.887,0,0,0,2.153,5.584A7.949,7.949,0,0,0,7.826,28.8c2.2.125,8.8.125,11,0a7.887,7.887,0,0,0,5.584-2.153,7.939,7.939,0,0,0,2.153-5.584c.125-2.2.125-8.79,0-10.99ZM23.716,23.42a4.5,4.5,0,0,1-2.533,2.533c-1.754.7-5.917.535-7.856.535s-6.108.155-7.856-.535A4.5,4.5,0,0,1,2.937,23.42c-.7-1.754-.535-5.917-.535-7.856s-.155-6.108.535-7.856A4.5,4.5,0,0,1,5.47,5.174c1.754-.7,5.917-.535,7.856-.535s6.108-.155,7.856.535a4.5,4.5,0,0,1,2.533,2.533c.7,1.754.535,5.917.535,7.856S24.412,21.671,23.716,23.42Z" transform="translate(0.005 -2.238)" fill="#1f1f1f"/>
</svg>
