<svg xmlns="http://www.w3.org/2000/svg" width="23.103" height="23.102" viewBox="0 0 23.103 23.102">
  <path id="Icon_awesome-linkedin-in" data-name="Icon awesome-linkedin-in" d="M5.171,23.1H.382V7.679h4.79ZM2.774,5.575a2.787,2.787,0,1,1,2.774-2.8A2.8,2.8,0,0,1,2.774,5.575ZM23.1,23.1H18.318V15.594c0-1.789-.036-4.084-2.49-4.084-2.49,0-2.872,1.944-2.872,3.955V23.1H8.171V7.679h4.594v2.1h.067a5.033,5.033,0,0,1,4.532-2.491c4.847,0,5.739,3.192,5.739,7.338V23.1Z" transform="translate(0 -0.001)" fill="#1f1f1f"/>
</svg>
