<svg xmlns="http://www.w3.org/2000/svg" width="25.103" height="20.388" viewBox="0 0 25.103 20.388">
  <path id="Icon_awesome-twitter" data-name="Icon awesome-twitter" d="M22.522,8.462c.016.223.016.446.016.669A14.538,14.538,0,0,1,7.9,23.769,14.539,14.539,0,0,1,0,21.459a10.643,10.643,0,0,0,1.242.064,10.3,10.3,0,0,0,6.387-2.2,5.154,5.154,0,0,1-4.81-3.568,6.488,6.488,0,0,0,.972.08,5.441,5.441,0,0,0,1.354-.175,5.145,5.145,0,0,1-4.125-5.049v-.064a5.181,5.181,0,0,0,2.325.653A5.152,5.152,0,0,1,1.752,4.32,14.624,14.624,0,0,0,12.36,9.7a5.808,5.808,0,0,1-.127-1.179,5.15,5.15,0,0,1,8.9-3.52A10.129,10.129,0,0,0,24.4,3.763,5.131,5.131,0,0,1,22.14,6.6,10.314,10.314,0,0,0,25.1,5.8a11.059,11.059,0,0,1-2.58,2.66Z" transform="translate(0 -3.381)" fill="#1f1f1f"/>
</svg>
