<svg xmlns="http://www.w3.org/2000/svg" width="86.492" height="86.499" viewBox="0 0 86.492 86.499">
  <g id="Group_412" data-name="Group 412" transform="translate(-271.754 -6776.751)">
    <circle id="Ellipse_40" data-name="Ellipse 40" cx="29" cy="29" r="29" transform="translate(286 6794)" fill="rgba(232,176,52,0.4)"/>
    <g id="bank-money-protection-security-protect" transform="translate(269.751 6774.75)">
      <path id="Path_453" data-name="Path 453" d="M87.878,31.092,46.07,2.259a1.432,1.432,0,0,0-1.643,0L2.619,31.092a1.442,1.442,0,0,0,.822,2.624H7.766v1.442a4.338,4.338,0,0,0,4.325,4.325v1.442a4.339,4.339,0,0,0,2.883,4.065v20.7a4.339,4.339,0,0,0-2.883,4.065V71.2a4.338,4.338,0,0,0-4.325,4.325v1.7a4.339,4.339,0,0,0-2.883,4.065v5.767A1.442,1.442,0,0,0,6.324,88.5H84.173a1.442,1.442,0,0,0,1.442-1.442V81.291a4.339,4.339,0,0,0-2.883-4.065v-1.7A4.338,4.338,0,0,0,78.407,71.2V69.758a4.339,4.339,0,0,0-2.883-4.065V44.99a4.339,4.339,0,0,0,2.883-4.065V39.483a4.338,4.338,0,0,0,4.325-4.325V33.716h4.325a1.442,1.442,0,0,0,.822-2.624Zm-72.9,38.665a1.442,1.442,0,0,1,1.442-1.442h8.65a1.442,1.442,0,0,1,1.442,1.442V71.2H14.974ZM63.99,44.99v20.7a4.339,4.339,0,0,0-2.883,4.065V71.2H29.39V69.758a4.339,4.339,0,0,0-2.883-4.065V44.99a4.339,4.339,0,0,0,2.883-4.065V39.483H61.107v1.442A4.339,4.339,0,0,0,63.99,44.99ZM74.082,68.316a1.442,1.442,0,0,1,1.442,1.442V71.2H63.99V69.758a1.442,1.442,0,0,1,1.442-1.442Zm-7.208-2.883V45.249H72.64V65.433ZM26.507,40.925a1.442,1.442,0,0,1-1.442,1.442h-8.65a1.442,1.442,0,0,1-1.442-1.442V39.483H26.507Zm-2.883,4.325V65.433H17.857V45.249ZM82.731,81.291v4.325H7.766V81.291a1.442,1.442,0,0,1,1.442-1.442H81.29A1.442,1.442,0,0,1,82.731,81.291Zm-4.325-7.208a1.442,1.442,0,0,1,1.442,1.442v1.442h-69.2V75.524a1.442,1.442,0,0,1,1.442-1.442ZM75.523,40.925a1.442,1.442,0,0,1-1.442,1.442h-8.65a1.442,1.442,0,0,1-1.442-1.442V39.483H75.523Zm4.325-5.767A1.442,1.442,0,0,1,78.407,36.6H12.091a1.442,1.442,0,0,1-1.442-1.442V33.716h69.2ZM8.068,30.833,45.249,5.186l37.18,25.647Z" transform="translate(0 0)" fill="#1f1f1f"/>
      <path id="Path_454" data-name="Path 454" d="M33.325,15.208a1.442,1.442,0,1,1,1.442-1.442H37.65a4.325,4.325,0,0,0-2.883-4.06V8H31.883V9.707a4.315,4.315,0,0,0,1.442,8.385,1.442,1.442,0,1,1-1.442,1.442H29a4.325,4.325,0,0,0,2.883,4.06V25.3h2.883V23.593a4.315,4.315,0,0,0-1.442-8.385Z" transform="translate(11.924 2.65)" fill="#1f1f1f"/>
      <path id="Path_455" data-name="Path 455" d="M46.193,34.441,36.1,30.116a1.452,1.452,0,0,0-1.136,0L24.874,34.441A1.442,1.442,0,0,0,24,35.766v5.067a10.027,10.027,0,0,0,2.957,7.136l7.557,7.557a1.442,1.442,0,0,0,2.038,0L44.11,47.97a10.027,10.027,0,0,0,2.957-7.136V35.766a1.442,1.442,0,0,0-.873-1.325Zm-2.01,6.392a7.166,7.166,0,0,1-2.112,5.1l-6.538,6.538L29,45.931a7.166,7.166,0,0,1-2.112-5.1V36.716l8.65-3.706,8.65,3.706Z" transform="translate(9.715 12.367)" fill="#1f1f1f"/>
      <path id="Path_456" data-name="Path 456" d="M31.331,38.176l-2.038,2.038L32.176,43.1a1.442,1.442,0,0,0,2.038,0l5.767-5.767-2.039-2.038L33.2,40.04Z" transform="translate(11.053 14.704)" fill="#1f1f1f"/>
    </g>
  </g>
</svg>
