<svg xmlns="http://www.w3.org/2000/svg" width="99.455" height="86" viewBox="0 0 99.455 86">
  <g id="Group_412" data-name="Group 412" transform="translate(-265.273 -6780)">
    <circle id="Ellipse_40" data-name="Ellipse 40" cx="29" cy="29" r="29" transform="translate(286 6794)" fill="rgba(232,176,52,0.4)"/>
    <circle id="Ellipse_55" data-name="Ellipse 55" cx="43" cy="43" r="43" transform="translate(272 6780)" fill="none"/>
    <g id="Group_411" data-name="Group 411" transform="translate(53.438 6444.735)">
      <path id="Path_2" data-name="Path 2" d="M378.137,386.936v1.115h-.279v-.836h-.093l.093-.279Z" transform="translate(-77.722 -13.268)" fill="#1f1f1f" fill-rule="evenodd"/>
      <path id="Path_3" data-name="Path 3" d="M379.513,387.133a.5.5,0,0,0,.465.465c.186,0,.279,0,.372-.093a.428.428,0,0,1-.651.186l-.093.279c.093.093,1.023.185,1.023-.651a.605.605,0,0,0-.651-.558v.186c.186,0,.372.093.372.186,0,.186-.186.279-.372.279-.093,0-.186-.093-.186-.279a.2.2,0,0,1,.186-.186v-.186c-.186,0-.465.186-.465.372Z" transform="translate(-78.541 -13.185)" fill="#1f1f1f" fill-rule="evenodd"/>
      <path id="Path_4" data-name="Path 4" d="M382.6,388.062a.712.712,0,0,1-.465-.186l.186-.186c0,.093.185.093.279.093,0,0,.186,0,.186-.093s-.093-.186-.279-.186v-.186c.279,0,.279-.093.279-.186s-.093-.093-.186-.093a.341.341,0,0,0-.279.093l-.186-.186a.711.711,0,0,1,.465-.186.425.425,0,0,1,.465.372c0,.093-.093.186-.186.279.093,0,.186.186.186.279a.425.425,0,0,1-.465.372Z" transform="translate(-79.769 -13.185)" fill="#1f1f1f" fill-rule="evenodd"/>
      <path id="Path_5" data-name="Path 5" d="M384.874,388.062c-.186,0-.372-.186-.465-.186l.186-.186a.34.34,0,0,0,.279.093c.093,0,.279,0,.279-.093s-.093-.186-.372-.186v-.186c.279,0,.372-.093.372-.186s-.093-.093-.279-.093a.288.288,0,0,0-.186.093l-.186-.186a.482.482,0,0,1,.372-.186.425.425,0,0,1,.465.372.341.341,0,0,1-.093.279c.093,0,.093.186.093.279a.425.425,0,0,1-.465.372Z" transform="translate(-80.834 -13.185)" fill="#1f1f1f" fill-rule="evenodd"/>
      <path id="Path_6" data-name="Path 6" d="M377.962,402.072v-.744h-.186v.837h.465v-.279h.186v.279h.465v-.837h.186c.279,0,.279.186.372.186.186,0,.186-.186.279-.186s.092.186.186.186c.186,0,.186-.186.279-.186s.093.186.186.186c.186,0,.279-.186.465-.186s.186.093.186.279a.514.514,0,0,0,1.023,0v-.744a.6.6,0,0,0-.465-.465v.186a.3.3,0,0,1,.279.279.79.79,0,0,0,0,.744.3.3,0,0,1-.279.279.246.246,0,0,1-.279-.279.79.79,0,0,0,0-.744.247.247,0,0,1,.279-.279V400.4a.6.6,0,0,0-.558.465c0,.186,0,.279-.186.279s-.279-.186-.465-.186c-.092,0-.092.186-.186.186s-.093-.186-.279-.186c-.093,0-.093.186-.186.186s-.093-.186-.279-.186c-.093,0-.093.186-.372.186H377.59v.186H378.8v.744h-.186V401.7h-.465v.372Z" transform="translate(-77.64 -19.573)" fill="#1f1f1f" fill-rule="evenodd"/>
      <path id="Path_7" data-name="Path 7" d="M382.936,391.055A6.01,6.01,0,0,1,376.895,397v-.279a5.67,5.67,0,1,0-5.67-5.67,5.713,5.713,0,0,0,5.67,5.67V397a6,6,0,1,1,6.042-5.949Z" transform="translate(-74.528 -12.367)" fill="#1f1f1f" fill-rule="evenodd"/>
      <path id="Path_8" data-name="Path 8" d="M382.876,390.809a6.181,6.181,0,1,0-6.228,6.135v.093a6.274,6.274,0,1,1,6.321-6.228,6.228,6.228,0,0,1-6.321,6.228v-.093a6.209,6.209,0,0,0,6.228-6.135Z" transform="translate(-74.282 -12.121)" fill="#1f1f1f" fill-rule="evenodd"/>
      <path id="Path_9" data-name="Path 9" d="M382.907,388.6a8.529,8.529,0,0,1-8.551,8.551v.279a8.83,8.83,0,1,0-8.83-8.83,8.906,8.906,0,0,0,8.83,8.83v-.279a8.551,8.551,0,1,1,8.551-8.551Z" transform="translate(-71.989 -9.91)" fill="#1f1f1f" fill-rule="evenodd"/>
      <path id="Path_10" data-name="Path 10" d="M383.13,389.007a8.365,8.365,0,0,0-16.73,0,8.45,8.45,0,0,0,8.365,8.365v-.186a8.226,8.226,0,0,1,0-16.452,8.226,8.226,0,1,1,0,16.452v.186a8.39,8.39,0,0,0,8.365-8.365Z" transform="translate(-72.398 -10.319)" fill="#1f1f1f" fill-rule="evenodd"/>
      <path id="Path_11" data-name="Path 11" d="M378.929,381.866l.651,1.115a.341.341,0,0,1-.279.093l-.186-.186-.371.093.093-.372h.186l-.186-.279v.279l-.093.372v.186c-.093,0-.186.093-.279.093l.093-1.3.372-.093Z" transform="translate(-78.049 -10.893)" fill="#1f1f1f" fill-rule="evenodd"/>
      <path id="Path_12" data-name="Path 12" d="M391.89,386.062l-.372.372c-.093,0-.093.093-.093.186l.279.279-.093.186-.372-.465-.186.186.372.558h.279l.372-.372V386.9l-.279-.372.186-.093.372.372.186-.186-.465-.465a.286.286,0,0,0-.186-.093Z" transform="translate(-83.946 -12.858)" fill="#1f1f1f" fill-rule="evenodd"/>
      <path id="Path_13" data-name="Path 13" d="M369.974,389.975c-.092,0-.092.093-.185.186l-1.115-.558.372-.744.279.186-.279.465.186.093.186-.372.279.093-.186.372.465.279Z" transform="translate(-73.463 -14.169)" fill="#1f1f1f" fill-rule="evenodd"/>
      <path id="Path_14" data-name="Path 14" d="M390.719,384.8c.093,0,.093.186,0,.186l-.558.743a.174.174,0,0,1-.279,0l-.186-.185c-.093,0-.186-.093-.279-.186-.093,0-.093-.093,0-.186l.558-.743a.174.174,0,0,1,.279,0l-.093.279-.465.558.279.186.465-.558-.279-.186.093-.279.465.372Z" transform="translate(-83.148 -12.06)" fill="#1f1f1f" fill-rule="evenodd"/>
      <path id="Path_15" data-name="Path 15" d="M376.153,383.4l-.186.093-.186-.279.279-.093a.091.091,0,0,0,.092-.093l-.092-.093h-.093l-.279.093.093.186.186.279.186.465c-.092,0-.186.093-.279.093l-.558-1.115.744-.372c.092,0,.186,0,.186.093l.186.372a.091.091,0,0,1-.093.093h0v.093a.129.129,0,0,1,.186,0c0,.093.186.279.186.372a.091.091,0,0,0,.092.092h0c-.092,0-.186.093-.279.093s-.093,0-.093-.093a.931.931,0,0,1-.093-.279Z" transform="translate(-76.575 -11.22)" fill="#1f1f1f" fill-rule="evenodd"/>
      <path id="Path_16" data-name="Path 16" d="M381.749,382.817v-.279h-.558v-1.023h-.279l.093,1.3Z" transform="translate(-79.196 -10.729)" fill="#1f1f1f" fill-rule="evenodd"/>
      <path id="Path_17" data-name="Path 17" d="M371.023,387.669l.186.186c-.093.186-.279.372-.465.651l-1.022-.744.465-.651.279.186-.372.372.186.186.279-.372.279.092-.279.372.186.186.279-.465Z" transform="translate(-73.954 -13.349)" fill="#1f1f1f" fill-rule="evenodd"/>
      <path id="Path_18" data-name="Path 18" d="M372.05,386.788l-.93-.929.186-.093.279.093.465.558.279-.372-.465-.465-.279.279-.279-.093.372-.465a.174.174,0,0,1,.279,0l.651.651a.174.174,0,0,1,0,.279l-.186.186c-.093,0-.279.279-.372.372Z" transform="translate(-74.609 -12.469)" fill="#1f1f1f" fill-rule="evenodd"/>
      <path id="Path_19" data-name="Path 19" d="M374.427,384.533l.186.279a2.823,2.823,0,0,0-.65.465l-.744-1.115.651-.372.185.186-.465.279.186.186.372-.279.093.279-.372.279.185.186.372-.372Z" transform="translate(-75.592 -11.793)" fill="#1f1f1f" fill-rule="evenodd"/>
      <path id="Path_20" data-name="Path 20" d="M383.535,382.817l.186-1.3.186.093.093.279-.186.743h.465l.093-.651-.372-.092-.093-.279.651.093c.093,0,.093.093.093.186l-.186.929c0,.093-.093.186-.186.093H384a4.04,4.04,0,0,0-.465-.093Z" transform="translate(-80.424 -10.729)" fill="#1f1f1f" fill-rule="evenodd"/>
      <path id="Path_21" data-name="Path 21" d="M386.644,383.424l-.093.279a6.334,6.334,0,0,0-.744-.279l.465-1.208.744.279-.093.279-.465-.186-.093.186.372.186-.093.279-.372-.186-.093.186.465.186Z" transform="translate(-81.489 -11.057)" fill="#1f1f1f" fill-rule="evenodd"/>
      <path id="Path_22" data-name="Path 22" d="M388.021,383.834l.186-.186.279.093c0,.093.093,0,.093,0v-.186l-.279-.093-.093.186-.186.186-.186.465c-.093,0-.186-.093-.279-.093l.651-1.115.744.372a.129.129,0,0,1,0,.186l-.279.465s-.092.093-.092,0l-.558-.279Z" transform="translate(-82.308 -11.466)" fill="#1f1f1f" fill-rule="evenodd"/>
      <path id="Path_23" data-name="Path 23" d="M392.452,388.554l1.022-.743.093.279-1.022.651a.091.091,0,0,0-.093-.093v-.093Z" transform="translate(-84.601 -13.677)" fill="#1f1f1f" fill-rule="evenodd"/>
      <path id="Path_24" data-name="Path 24" d="M394.174,389.511l-.93.465v-.186a.091.091,0,0,1-.093-.093l.837-.465-.093-.186.279-.186.372.744-.279.093-.093-.186Z" transform="translate(-84.929 -14.169)" fill="#1f1f1f" fill-rule="evenodd"/>
      <path id="Path_25" data-name="Path 25" d="M368.356,392.182v.279l.372.186-.372.093v.279l-.186-.279-.372.093.186-.279-.093-.279.279.093.186-.186Z" transform="translate(-73.053 -15.725)" fill="#1f1f1f" fill-rule="evenodd"/>
      <path id="Path_26" data-name="Path 26" d="M395.271,392.182v.279l-.372.186.372.093v.279l.186-.279.372.093-.279-.279.186-.279-.279.093-.186-.186Z" transform="translate(-85.748 -15.725)" fill="#1f1f1f" fill-rule="evenodd"/>
      <path id="Path_27" data-name="Path 27" d="M376.109,408.416v.093l-.372-.186.279-.651.372.186v.093l.186.092.093-.186c0-.093,0-.186-.093-.186-.093-.093-.279-.093-.279-.186a.717.717,0,0,1-.279-.093c-.093,0-.186,0-.186.093l-.372.837c-.093.093,0,.186.093.279l.465.185a.178.178,0,0,0,.279-.093l.093-.092-.279-.186Z" transform="translate(-76.623 -22.849)" fill="#1f1f1f" fill-rule="evenodd"/>
      <path id="Path_28" data-name="Path 28" d="M368.75,395.526l-1.3-.093v-.279l1.3.093v.279Z" transform="translate(-72.89 -17.117)" fill="#1f1f1f" fill-rule="evenodd"/>
      <path id="Path_29" data-name="Path 29" d="M368.821,398.826l-.465.093c-.093,0-.093.093-.093.186l.093.372-.186.093-.186-.558-.186.093.093.651c.093.093.093.093.186.093l.558-.093c0-.093.093-.093,0-.185l-.093-.372.279-.093.092.558.279-.092-.186-.651c0-.093-.093-.093-.186-.093Z" transform="translate(-73.054 -18.837)" fill="#1f1f1f" fill-rule="evenodd"/>
      <path id="Path_30" data-name="Path 30" d="M368.007,397.215l.743-.093v.279l-1.208.092v-.185l.743-.651-.836.093v-.279l1.3-.093v.279l-.743.558Z" transform="translate(-72.89 -17.69)" fill="#1f1f1f" fill-rule="evenodd"/>
      <path id="Path_31" data-name="Path 31" d="M368.777,401.782c0,.093.093.093.186.093l1.022-.465-.093-.186-.929.372-.186-.372.93-.372-.093-.279-1.022.465c-.093,0-.093.093-.093.185l.279.558Z" transform="translate(-73.381 -19.655)" fill="#1f1f1f" fill-rule="evenodd"/>
      <path id="Path_32" data-name="Path 32" d="M371.306,405.782l.186-.093.279-.186.279-.093-.093.279-.186-.186-.279.186.279.279-.093.186.186.186.651-1.115-.279-.279-1.115.651.186.186Z" transform="translate(-74.61 -21.703)" fill="#1f1f1f" fill-rule="evenodd"/>
      <path id="Path_33" data-name="Path 33" d="M371.127,403.324c0,.093,0,.186-.093.186l-.279.279h-.186v.093a.7.7,0,0,1-.372.186c0,.093-.093.093,0,.186h0l-.186-.279v-.093c.093,0,.186-.093.279-.186,0,0,.092-.093,0-.093l-.093-.279.185-.093.186.186a.091.091,0,0,0,.093.093l.093-.093v-.093l-.186-.279-.186.186-.185.093-.465.372-.186-.279,1.115-.744a1.676,1.676,0,0,0,.465.651Z" transform="translate(-73.873 -20.639)" fill="#1f1f1f" fill-rule="evenodd"/>
      <path id="Path_34" data-name="Path 34" d="M378.437,408.558l.093-.279a2.877,2.877,0,0,1-.744-.186l-.372,1.208.837.186V409.3l-.465-.186.093-.186.372.092.093-.279-.465-.093.093-.186.465.093Z" transform="translate(-77.558 -23.177)" fill="#1f1f1f" fill-rule="evenodd"/>
      <path id="Path_35" data-name="Path 35" d="M373.973,407.017l.372-.558c.093,0,.093,0,.185.093h.093l-.743,1.115-.186-.186v-.929l-.465.651-.186-.186.744-1.022a.091.091,0,0,0,.093.093.091.091,0,0,1,.092.092v.837Z" transform="translate(-75.51 -22.195)" fill="#1f1f1f" fill-rule="evenodd"/>
      <path id="Path_36" data-name="Path 36" d="M383.289,409.918c-.093,0-.186,0-.186-.092l-.093-.93c0-.093,0-.186.093-.186a.7.7,0,0,1,.372-.093h.279c.093,0,.186,0,.186.093l.093.93c0,.093,0,.186-.093.186l-.186-.186-.093-.744-.372.093.092.651h.372l.186.186-.651.092Z" transform="translate(-80.179 -23.423)" fill="#1f1f1f" fill-rule="evenodd"/>
      <path id="Path_37" data-name="Path 37" d="M388.125,406.869c.093,0,.093,0,.186.093l.186.465c.092.093.092.093,0,.186l-.465.279-.186-.279.279-.186c.093,0,.093,0,.093-.093h-.093a.091.091,0,0,0-.093-.093l-.279.186.093.186.186.279.186.372c-.093.093-.186.093-.279.186l-.558-1.115a3.245,3.245,0,0,0,.744-.465Z" transform="translate(-82.226 -22.604)" fill="#1f1f1f" fill-rule="evenodd"/>
      <path id="Path_38" data-name="Path 38" d="M394.627,401.6l-.929-.465-.093.279-.279-.093a2.429,2.429,0,0,0,.279-.744l.279.093-.093.279.93.372-.093.279Z" transform="translate(-85.011 -19.655)" fill="#1f1f1f" fill-rule="evenodd"/>
      <path id="Path_39" data-name="Path 39" d="M381.481,409.722v.093l-.465-.093.093-.651h.372v.093h.279v-.186a.2.2,0,0,0-.186-.186h-.558c-.093,0-.186,0-.186.093l-.093.93a.2.2,0,0,0,.186.186l.651.093a.2.2,0,0,0,.186-.186v-.186Z" transform="translate(-79.114 -23.505)" fill="#1f1f1f" fill-rule="evenodd"/>
      <path id="Path_40" data-name="Path 40" d="M385.945,407.918a.091.091,0,0,1,.093.093l.186.372a.325.325,0,0,1-.093.186h0c.093,0,.093,0,.093.093.092.093.092.279.185.372a.091.091,0,0,0,.093.093h0l-.372.093v-.093a.458.458,0,0,1-.093-.279c0-.093-.093-.093-.186-.093l-.186.093-.092-.279.279-.093v-.186h-.093l-.279.093.093.186.092.279.093.465-.279.093-.372-1.208.837-.279Z" transform="translate(-81.161 -23.095)" fill="#1f1f1f" fill-rule="evenodd"/>
      <path id="Path_41" data-name="Path 41" d="M390.255,407.039a.174.174,0,0,1-.279,0l-.558-.744c-.093-.093-.093-.186,0-.186.092-.093.279-.186.279-.279l.186-.186a.341.341,0,0,1,.279.093l.558.744c.093,0,.093.093,0,.186l-.279-.093-.465-.65-.279.278.465.558.279-.186.279.093-.465.372Z" transform="translate(-83.148 -22.031)" fill="#1f1f1f" fill-rule="evenodd"/>
      <path id="Path_42" data-name="Path 42" d="M391.611,404.01c0-.093.093-.093.093,0l.372.279v.093h.186c0,.093.186.279.186.279.093,0,.093.093.186,0h0l-.186.279c-.093,0-.093,0-.093-.093-.093,0-.186-.093-.279-.186h-.092l-.186.279-.186-.279.186-.186v-.093l-.093-.093a.091.091,0,0,0-.093.093l-.186.186.186.092.186.279.372.279-.185.186-.93-.836.558-.558Z" transform="translate(-83.946 -21.232)" fill="#1f1f1f" fill-rule="evenodd"/>
      <path id="Path_43" data-name="Path 43" d="M393.649,403.7l-.186-.186-.186-.186-.186-.279.372.093-.186.186.186.186.279-.279h.186l.186-.186-1.3-.372-.186.279.837,1.022.186-.279Z" transform="translate(-84.683 -20.638)" fill="#1f1f1f" fill-rule="evenodd"/>
      <path id="Path_44" data-name="Path 44" d="M394.118,399.7l1.209.372-.093.279-1.208-.372c0-.093.092-.093.092-.186V399.7Z" transform="translate(-85.338 -19.246)" fill="#1f1f1f" fill-rule="evenodd"/>
      <path id="Path_45" data-name="Path 45" d="M395.294,395.258l-.651.093c0-.093,0-.093-.093-.186v-.093l1.3-.093v.279l-.744.558h.744v.279h-1.208v-.279l.651-.558Z" transform="translate(-85.584 -17.035)" fill="#1f1f1f" fill-rule="evenodd"/>
      <path id="Path_46" data-name="Path 46" d="M395.676,398.5c0,.093-.093.093-.186.093l-.93-.093c-.093-.093-.186-.186-.186-.279s.093-.186.093-.279v-.279c0-.093.093-.186.186-.093l.929.093a.2.2,0,0,1,.186.186l-.279.093-.744-.093-.093.372.744.093.093-.372.279-.093-.093.65Z" transform="translate(-85.502 -18.229)" fill="#1f1f1f" fill-rule="evenodd"/>
      <path id="Path_47" data-name="Path 47" d="M378.557,391.237a.2.2,0,0,0,.186-.186c0-.093-.093-.093-.186-.093s-.093,0-.093.093,0,.186.093.186Z" transform="translate(-78.049 -15.151)" fill="#1f1f1f" fill-rule="evenodd"/>
      <path id="Path_48" data-name="Path 48" d="M378.23,391.308l-.465,1.766h.093l.372-1.3v1.3h.093v-1.3l.279,1.3h-.836a.511.511,0,0,0,.465.279.663.663,0,0,0,.558-.279l-.465-1.766Z" transform="translate(-77.722 -15.315)" fill="#1f1f1f" fill-rule="evenodd"/>
      <path id="Path_49" data-name="Path 49" d="M380.334,389.734l.279.093h0c-.186,0-.186.186-.186.372a.325.325,0,0,0,.186.093,3.993,3.993,0,0,1,.465-.093c.279,0,.558.093.743.093a.544.544,0,0,0,.372-.093.2.2,0,0,1,.186.186c0,.093-.093.093-.186.093a.544.544,0,0,0-.372-.093c-.186,0-.465.093-.743.093a3.993,3.993,0,0,1-.465-.093.2.2,0,0,0-.186.186l.093.092-.186.372-.186-.372.186-.092a.2.2,0,0,0-.186-.186,3.993,3.993,0,0,1-.465.093c-.279,0-.558-.093-.744-.093a1.893,1.893,0,0,0-.465.093s-.186,0-.186-.093.186-.186.186-.186a1.893,1.893,0,0,0,.465.093c.186,0,.465-.093.744-.093a3.993,3.993,0,0,1,.465.093.325.325,0,0,0,.186-.093c0-.186-.093-.372-.186-.372h0l.186-.093Z" transform="translate(-77.967 -14.578)" fill="#1f1f1f" fill-rule="evenodd"/>
      <path id="Path_50" data-name="Path 50" d="M385.644,391.237a.2.2,0,0,1-.186-.186c0-.093.093-.093.186-.093s.093,0,.093.093,0,.186-.093.186Z" transform="translate(-81.325 -15.151)" fill="#1f1f1f" fill-rule="evenodd"/>
      <path id="Path_51" data-name="Path 51" d="M385.317,391.308l.465,1.766h-.093l-.372-1.3v1.3h-.093v-1.3l-.372,1.3h.93a.512.512,0,0,1-.465.279.662.662,0,0,1-.558-.279l.465-1.766Z" transform="translate(-80.998 -15.315)" fill="#1f1f1f" fill-rule="evenodd"/>
      <path id="Path_52" data-name="Path 52" d="M376.459,390.27c.093,0,.093,0,.093-.093s0-.093-.093-.093-.093,0-.093.093,0,.093.093.093Z" transform="translate(-77.066 -14.742)" fill="#1f1f1f" fill-rule="evenodd"/>
      <path id="Path_53" data-name="Path 53" d="M375.678,391.062a.325.325,0,0,0,.093-.186l-.093-.093a.325.325,0,0,0-.186.093.2.2,0,0,0,.186.186Z" transform="translate(-76.657 -15.069)" fill="#1f1f1f" fill-rule="evenodd"/>
      <path id="Path_54" data-name="Path 54" d="M377.251,391.062a.325.325,0,0,0,.093-.186l-.093-.093a.325.325,0,0,0-.186.093.2.2,0,0,0,.186.186Z" transform="translate(-77.394 -15.069)" fill="#1f1f1f" fill-rule="evenodd"/>
      <path id="Path_55" data-name="Path 55" d="M376.459,391.843c.093,0,.093,0,.093-.093s0-.093-.093-.093-.093,0-.093.093,0,.093.093.093Z" transform="translate(-77.066 -15.479)" fill="#1f1f1f" fill-rule="evenodd"/>
      <path id="Path_56" data-name="Path 56" d="M378.033,390.27c.093,0,.093,0,.093-.093s0-.093-.093-.093-.092,0-.092.093,0,.093.092.093Z" transform="translate(-77.804 -14.742)" fill="#1f1f1f" fill-rule="evenodd"/>
      <path id="Path_57" data-name="Path 57" d="M386.25,390.27c.093,0,.093,0,.093-.093s0-.093-.093-.093-.093,0-.093.093,0,.093.093.093Z" transform="translate(-81.653 -14.742)" fill="#1f1f1f" fill-rule="evenodd"/>
      <path id="Path_58" data-name="Path 58" d="M388,390.27c.093,0,.093,0,.093-.093s0-.093-.093-.093-.093,0-.093.093,0,.093.093.093Z" transform="translate(-82.472 -14.742)" fill="#1f1f1f" fill-rule="evenodd"/>
      <path id="Path_59" data-name="Path 59" d="M378.033,391.761a.091.091,0,0,0,.093-.093c0-.093,0-.186-.093-.186s-.092.093-.092.186a.091.091,0,0,0,.092.093Z" transform="translate(-77.804 -15.397)" fill="#1f1f1f" fill-rule="evenodd"/>
      <path id="Path_60" data-name="Path 60" d="M379.7,393.416a.093.093,0,1,0,0-.185c-.093,0-.186,0-.186.093s.093.092.186.092Z" transform="translate(-78.541 -16.216)" fill="#1f1f1f" fill-rule="evenodd"/>
      <path id="Path_61" data-name="Path 61" d="M380.573,394.116a.093.093,0,1,0,0-.186c-.093,0-.186,0-.186.093s.093.093.186.093Z" transform="translate(-78.95 -16.543)" fill="#1f1f1f" fill-rule="evenodd"/>
      <path id="Path_62" data-name="Path 62" d="M377.251,392.636a.325.325,0,0,0,.093-.186l-.093-.092a.325.325,0,0,0-.186.092.2.2,0,0,0,.186.186Z" transform="translate(-77.394 -15.807)" fill="#1f1f1f" fill-rule="evenodd"/>
      <path id="Path_63" data-name="Path 63" d="M376.459,393.335a.091.091,0,0,0,.093-.092c0-.093,0-.186-.093-.186s-.093.093-.093.186a.091.091,0,0,0,.093.092Z" transform="translate(-77.066 -16.134)" fill="#1f1f1f" fill-rule="evenodd"/>
      <path id="Path_64" data-name="Path 64" d="M377.251,394.209a.325.325,0,0,0,.093-.186.091.091,0,0,0-.093-.093c-.093,0-.186,0-.186.093a.2.2,0,0,0,.186.186Z" transform="translate(-77.394 -16.543)" fill="#1f1f1f" fill-rule="evenodd"/>
      <path id="Path_65" data-name="Path 65" d="M378.907,395.783a.091.091,0,0,0,.093-.093c0-.093,0-.186-.093-.186s-.093.093-.093.186a.091.091,0,0,0,.093.093Z" transform="translate(-78.213 -17.281)" fill="#1f1f1f" fill-rule="evenodd"/>
      <path id="Path_66" data-name="Path 66" d="M376.459,394.909a.091.091,0,0,0,.093-.093c0-.093,0-.185-.093-.185s-.093.092-.093.185a.091.091,0,0,0,.093.093Z" transform="translate(-77.066 -16.871)" fill="#1f1f1f" fill-rule="evenodd"/>
      <path id="Path_67" data-name="Path 67" d="M376.459,396.564c.093,0,.093,0,.093-.093s0-.093-.093-.093-.093,0-.093.093,0,.093.093.093Z" transform="translate(-77.066 -17.69)" fill="#1f1f1f" fill-rule="evenodd"/>
      <path id="Path_68" data-name="Path 68" d="M376.459,398.138c.093,0,.093,0,.093-.093s0-.093-.093-.093-.093,0-.093.093,0,.093.093.093Z" transform="translate(-77.066 -18.427)" fill="#1f1f1f" fill-rule="evenodd"/>
      <path id="Path_69" data-name="Path 69" d="M377.333,397.357c.093,0,.093-.093.093-.186a.093.093,0,0,0-.186,0c0,.093,0,.186.093.186Z" transform="translate(-77.476 -18.018)" fill="#1f1f1f" fill-rule="evenodd"/>
      <path id="Path_70" data-name="Path 70" d="M378.126,396.564a.093.093,0,1,0,0-.186c-.093,0-.186,0-.186.093s.092.093.186.093Z" transform="translate(-77.804 -17.69)" fill="#1f1f1f" fill-rule="evenodd"/>
      <path id="Path_71" data-name="Path 71" d="M377.333,395.783c.093,0,.093-.093.093-.186a.093.093,0,0,0-.186,0c0,.093,0,.186.093.186Z" transform="translate(-77.476 -17.281)" fill="#1f1f1f" fill-rule="evenodd"/>
      <path id="Path_72" data-name="Path 72" d="M375.678,398.93l.093-.093a.325.325,0,0,0-.093-.186.2.2,0,0,0-.186.186.325.325,0,0,0,.186.093Z" transform="translate(-76.657 -18.755)" fill="#1f1f1f" fill-rule="evenodd"/>
      <path id="Path_73" data-name="Path 73" d="M379.7,391.761l.093-.093a.325.325,0,0,0-.093-.186.2.2,0,0,0-.186.186.325.325,0,0,0,.186.093Z" transform="translate(-78.541 -15.397)" fill="#1f1f1f" fill-rule="evenodd"/>
      <path id="Path_74" data-name="Path 74" d="M380.48,392.636a.2.2,0,0,0,.186-.186.325.325,0,0,0-.186-.092.091.091,0,0,0-.093.092c0,.093,0,.186.093.186Z" transform="translate(-78.95 -15.807)" fill="#1f1f1f" fill-rule="evenodd"/>
      <path id="Path_75" data-name="Path 75" d="M381.355,393.335a.091.091,0,0,0,.093-.092c0-.093,0-.186-.093-.186s-.093.093-.093.186a.091.091,0,0,0,.093.092Z" transform="translate(-79.36 -16.134)" fill="#1f1f1f" fill-rule="evenodd"/>
      <path id="Path_76" data-name="Path 76" d="M381.355,391.761a.091.091,0,0,0,.093-.093c0-.093,0-.186-.093-.186s-.093.093-.093.186a.091.091,0,0,0,.093.093Z" transform="translate(-79.36 -15.397)" fill="#1f1f1f" fill-rule="evenodd"/>
      <path id="Path_77" data-name="Path 77" d="M382.147,392.636a.325.325,0,0,0,.093-.186l-.093-.092a.325.325,0,0,0-.186.092.2.2,0,0,0,.186.186Z" transform="translate(-79.687 -15.807)" fill="#1f1f1f" fill-rule="evenodd"/>
      <path id="Path_78" data-name="Path 78" d="M382.928,391.761a.091.091,0,0,0,.093-.093c0-.093,0-.186-.093-.186s-.093.093-.093.186a.091.091,0,0,0,.093.093Z" transform="translate(-80.097 -15.397)" fill="#1f1f1f" fill-rule="evenodd"/>
      <path id="Path_79" data-name="Path 79" d="M383.8,392.636a.2.2,0,0,0,.186-.186.325.325,0,0,0-.186-.092l-.093.092a.325.325,0,0,0,.093.186Z" transform="translate(-80.506 -15.807)" fill="#1f1f1f" fill-rule="evenodd"/>
      <path id="Path_80" data-name="Path 80" d="M384.677,391.843c.093,0,.093,0,.093-.093s0-.093-.093-.093-.093,0-.093.093,0,.093.093.093Z" transform="translate(-80.916 -15.479)" fill="#1f1f1f" fill-rule="evenodd"/>
      <path id="Path_81" data-name="Path 81" d="M383.021,393.416a.093.093,0,1,0,0-.185c-.093,0-.186,0-.186.093s.093.092.186.092Z" transform="translate(-80.097 -16.216)" fill="#1f1f1f" fill-rule="evenodd"/>
      <path id="Path_82" data-name="Path 82" d="M383.9,394.209l.093-.093a.325.325,0,0,0-.093-.186.2.2,0,0,0-.186.186.325.325,0,0,0,.186.093Z" transform="translate(-80.506 -16.543)" fill="#1f1f1f" fill-rule="evenodd"/>
      <path id="Path_83" data-name="Path 83" d="M384.677,393.416c.093,0,.186,0,.186-.092s-.093-.093-.186-.093-.093,0-.093.093,0,.092.093.092Z" transform="translate(-80.916 -16.216)" fill="#1f1f1f" fill-rule="evenodd"/>
      <path id="Path_84" data-name="Path 84" d="M387.125,391.062a.091.091,0,0,0,.092-.093c0-.093,0-.186-.092-.186s-.093.093-.093.186a.091.091,0,0,0,.093.093Z" transform="translate(-82.062 -15.069)" fill="#1f1f1f" fill-rule="evenodd"/>
      <path id="Path_85" data-name="Path 85" d="M388.7,390.969c.093,0,.186,0,.186-.093s-.093-.093-.186-.093a.093.093,0,0,0,0,.186Z" transform="translate(-82.799 -15.069)" fill="#1f1f1f" fill-rule="evenodd"/>
      <path id="Path_86" data-name="Path 86" d="M387.917,391.843a.093.093,0,0,0,0-.186c-.093,0-.186,0-.186.093s.093.093.186.093Z" transform="translate(-82.39 -15.479)" fill="#1f1f1f" fill-rule="evenodd"/>
      <path id="Path_87" data-name="Path 87" d="M387.043,392.636a.091.091,0,0,0,.092-.093c0-.093,0-.186-.092-.186a.2.2,0,0,0-.186.186.325.325,0,0,0,.186.093Z" transform="translate(-81.981 -15.807)" fill="#1f1f1f" fill-rule="evenodd"/>
      <path id="Path_88" data-name="Path 88" d="M387.043,394.209a.091.091,0,0,0,.092-.093c0-.093,0-.186-.092-.186a.2.2,0,0,0-.186.186.325.325,0,0,0,.186.093Z" transform="translate(-81.981 -16.543)" fill="#1f1f1f" fill-rule="evenodd"/>
      <path id="Path_89" data-name="Path 89" d="M387.917,393.51a.325.325,0,0,0,.093-.185l-.093-.093a.325.325,0,0,0-.186.093.2.2,0,0,0,.186.185Z" transform="translate(-82.39 -16.216)" fill="#1f1f1f" fill-rule="evenodd"/>
      <path id="Path_90" data-name="Path 90" d="M388.092,395.083a.325.325,0,0,0,.093-.186l-.093-.093a.325.325,0,0,0-.186.093.2.2,0,0,0,.186.186Z" transform="translate(-82.472 -16.953)" fill="#1f1f1f" fill-rule="evenodd"/>
      <path id="Path_91" data-name="Path 91" d="M387.218,395.865a.093.093,0,1,0,0-.186c-.092,0-.186,0-.186.093s.093.092.186.092Z" transform="translate(-82.062 -17.363)" fill="#1f1f1f" fill-rule="evenodd"/>
      <path id="Path_92" data-name="Path 92" d="M385.551,395.865c.093,0,.093,0,.093-.092s0-.093-.093-.093-.093,0-.093.093,0,.092.093.092Z" transform="translate(-81.325 -17.363)" fill="#1f1f1f" fill-rule="evenodd"/>
      <path id="Path_93" data-name="Path 93" d="M386.425,396.657a.091.091,0,0,0,.093-.093c0-.093,0-.186-.093-.186s-.093.093-.093.186a.091.091,0,0,0,.093.093Z" transform="translate(-81.735 -17.69)" fill="#1f1f1f" fill-rule="evenodd"/>
      <path id="Path_94" data-name="Path 94" d="M387.125,397.357a.091.091,0,0,0,.092-.093c0-.093,0-.185-.092-.185s-.093.093-.093.185a.091.091,0,0,0,.093.093Z" transform="translate(-82.062 -18.018)" fill="#1f1f1f" fill-rule="evenodd"/>
      <path id="Path_95" data-name="Path 95" d="M388,398.231a.2.2,0,0,0,.186-.185.325.325,0,0,0-.186-.093l-.093.093a.323.323,0,0,0,.093.185Z" transform="translate(-82.472 -18.427)" fill="#1f1f1f" fill-rule="evenodd"/>
      <path id="Path_96" data-name="Path 96" d="M377.158,402.509c.093,0,.186,0,.186-.093s-.093-.093-.186-.093a.093.093,0,1,0,0,.186Z" transform="translate(-77.394 -20.475)" fill="#1f1f1f" fill-rule="evenodd"/>
      <path id="Path_97" data-name="Path 97" d="M378.825,400.853a.325.325,0,0,0,.093-.186l-.093-.093a.325.325,0,0,0-.186.093.2.2,0,0,0,.186.186Z" transform="translate(-78.131 -19.655)" fill="#1f1f1f" fill-rule="evenodd"/>
      <path id="Path_98" data-name="Path 98" d="M379.606,400.061c.093,0,.093,0,.093-.093s0-.093-.093-.093-.093,0-.093.093,0,.093.093.093Z" transform="translate(-78.541 -19.328)" fill="#1f1f1f" fill-rule="evenodd"/>
      <path id="Path_99" data-name="Path 99" d="M380.48,399.28c.093,0,.093-.093.093-.186a.093.093,0,0,0-.186,0c0,.093,0,.186.093.186Z" transform="translate(-78.95 -18.919)" fill="#1f1f1f" fill-rule="evenodd"/>
      <path id="Path_100" data-name="Path 100" d="M381.273,398.406l.093-.093a.325.325,0,0,0-.093-.186.2.2,0,0,0-.186.186.325.325,0,0,0,.186.093Z" transform="translate(-79.278 -18.509)" fill="#1f1f1f" fill-rule="evenodd"/>
      <path id="Path_101" data-name="Path 101" d="M382.054,397.613c.093,0,.093,0,.093-.093s0-.093-.093-.093-.093,0-.093.093,0,.093.093.093Z" transform="translate(-79.687 -18.181)" fill="#1f1f1f" fill-rule="evenodd"/>
      <path id="Path_102" data-name="Path 102" d="M382.928,398.406a.091.091,0,0,0,.093-.093c0-.092,0-.186-.093-.186s-.093.093-.093.186a.091.091,0,0,0,.093.093Z" transform="translate(-80.097 -18.509)" fill="#1f1f1f" fill-rule="evenodd"/>
      <path id="Path_103" data-name="Path 103" d="M383.8,399.186c.093,0,.093,0,.093-.093s0-.093-.093-.093-.093,0-.093.093,0,.093.093.093Z" transform="translate(-80.506 -18.919)" fill="#1f1f1f" fill-rule="evenodd"/>
      <path id="Path_104" data-name="Path 104" d="M384.5,399.979a.322.322,0,0,0,.186-.093.2.2,0,0,0-.186-.186.325.325,0,0,0-.093.186l.093.093Z" transform="translate(-80.834 -19.246)" fill="#1f1f1f" fill-rule="evenodd"/>
      <path id="Path_105" data-name="Path 105" d="M382.928,400.061c.093,0,.093,0,.093-.093s0-.093-.093-.093-.093,0-.093.093,0,.093.093.093Z" transform="translate(-80.097 -19.328)" fill="#1f1f1f" fill-rule="evenodd"/>
      <path id="Path_106" data-name="Path 106" d="M382.054,399.28a.2.2,0,0,0,.186-.186.325.325,0,0,0-.186-.093l-.093.093a.325.325,0,0,0,.093.186Z" transform="translate(-79.687 -18.919)" fill="#1f1f1f" fill-rule="evenodd"/>
      <path id="Path_107" data-name="Path 107" d="M381.273,400.061a.093.093,0,1,0,0-.186c-.093,0-.186,0-.186.093s.093.093.186.093Z" transform="translate(-79.278 -19.328)" fill="#1f1f1f" fill-rule="evenodd"/>
      <path id="Path_108" data-name="Path 108" d="M380.48,400.853a.091.091,0,0,0,.093-.093c0-.093,0-.186-.093-.186s-.093.093-.093.186a.091.091,0,0,0,.093.093Z" transform="translate(-78.95 -19.655)" fill="#1f1f1f" fill-rule="evenodd"/>
      <path id="Path_109" data-name="Path 109" d="M382.054,400.853a.325.325,0,0,0,.186-.093.2.2,0,0,0-.186-.186.325.325,0,0,0-.093.186l.093.093Z" transform="translate(-79.687 -19.655)" fill="#1f1f1f" fill-rule="evenodd"/>
      <path id="Path_110" data-name="Path 110" d="M383.628,400.853a.325.325,0,0,0,.186-.093.2.2,0,0,0-.186-.186.326.326,0,0,0-.093.186l.093.093Z" transform="translate(-80.424 -19.655)" fill="#1f1f1f" fill-rule="evenodd"/>
      <path id="Path_111" data-name="Path 111" d="M386.169,401.553a.091.091,0,0,0,.093-.093.325.325,0,0,0-.093-.186.2.2,0,0,0-.186.186c0,.093.092.093.186.093Z" transform="translate(-81.571 -19.983)" fill="#1f1f1f" fill-rule="evenodd"/>
      <path id="Path_112" data-name="Path 112" d="M387.043,402.427a.325.325,0,0,0,.092-.186.091.091,0,0,0-.092-.093c-.093,0-.186,0-.186.093a.2.2,0,0,0,.186.186Z" transform="translate(-81.981 -20.393)" fill="#1f1f1f" fill-rule="evenodd"/>
      <path id="Path_113" data-name="Path 113" d="M386.25,403.208c.093,0,.093,0,.093-.093s0-.093-.093-.093-.093,0-.093.093,0,.093.093.093Z" transform="translate(-81.653 -20.802)" fill="#1f1f1f" fill-rule="evenodd"/>
      <path id="Path_114" data-name="Path 114" d="M382.928,403.208c.093,0,.186,0,.186-.093s-.093-.093-.186-.093-.093,0-.093.093,0,.093.093.093Z" transform="translate(-80.097 -20.802)" fill="#1f1f1f" fill-rule="evenodd"/>
      <path id="Path_115" data-name="Path 115" d="M381.273,403.208a.093.093,0,1,0,0-.186c-.093,0-.186,0-.186.093s.093.093.186.093Z" transform="translate(-79.278 -20.802)" fill="#1f1f1f" fill-rule="evenodd"/>
      <path id="Path_116" data-name="Path 116" d="M383.721,404l.093-.093a.325.325,0,0,0-.093-.186.2.2,0,0,0-.186.186.323.323,0,0,0,.186.093Z" transform="translate(-80.424 -21.13)" fill="#1f1f1f" fill-rule="evenodd"/>
      <path id="Path_117" data-name="Path 117" d="M382.054,404a.325.325,0,0,0,.186-.093.2.2,0,0,0-.186-.186.325.325,0,0,0-.093.186l.093.093Z" transform="translate(-79.687 -21.13)" fill="#1f1f1f" fill-rule="evenodd"/>
      <path id="Path_118" data-name="Path 118" d="M380.48,404a.091.091,0,0,0,.093-.093c0-.093,0-.186-.093-.186s-.093.093-.093.186a.091.091,0,0,0,.093.093Z" transform="translate(-78.95 -21.13)" fill="#1f1f1f" fill-rule="evenodd"/>
      <path id="Path_119" data-name="Path 119" d="M382.4,390.407c.186.092.558.465.372.743-.837-.279-1.023.372-1.023.744,0,.93.651,1.3.651,2.881a3.15,3.15,0,0,1-2.7,3.067,4.25,4.25,0,0,0-1.952.837v-.186a5.8,5.8,0,0,1,2.138-.836,3.113,3.113,0,0,0,2.417-2.882c0-1.115-.465-1.951-.929-1.951-.186,0-.093.186,0,.372.093.093.093.186,0,.186-.186,0-.372,0-.372.185h.279c.186,0,.372.093.372.186,0,.186-.186.093-.186.186s.558.465.558,1.022c0,.093-.093.093-.093,0a.42.42,0,0,0-.279-.279c-.093,0-.093.093-.093.186.093,0,.186.279.186.651a1.947,1.947,0,0,1-.372,1.022c-.093.093-.093,0-.093,0-.093-.092-.093-.186-.186-.186s0,.651-1.58,1.115a4.188,4.188,0,0,0-1.766.744,3.951,3.951,0,0,0-1.673-.744c-1.58-.465-1.487-1.115-1.58-1.115a.2.2,0,0,0-.186.186s0,.093-.093,0a2.061,2.061,0,0,1-.465-1.022c0-.372.186-.651.279-.651,0-.093,0-.186-.186-.186-.093,0-.186.186-.186.279-.093.093-.093.093-.093,0,0-.558.558-.929.558-1.022s-.186,0-.186-.186c0-.093.186-.186.372-.186h.279c0-.185-.186-.185-.372-.185s-.093-.093,0-.186c.093-.186.186-.372,0-.372-.465,0-.93.836-.93,1.951a3.114,3.114,0,0,0,2.417,2.882,5.5,5.5,0,0,1,2.045.836v.186a3.63,3.63,0,0,0-1.859-.837c-2.6-.65-2.7-2.51-2.7-3.067,0-1.58.651-1.951.651-2.881,0-.372-.186-1.022-1.022-.744-.186-.279.186-.651.372-.743-.092-.186.558-1.023,1.673-1.023.651,0,1.208.372,1.859.372a1.873,1.873,0,0,0,1.022-.279v.093a1.948,1.948,0,0,1-1.022.372c-.651,0-1.208-.372-1.859-.372a1.606,1.606,0,0,0-1.208.465h.186c.093.093,0,.186,0,.093-.093,0-.186-.093-.279-.093,0,.093-.093.093-.093.186h.372c.093.093,0,.186-.093.093-.093,0-.186-.093-.372,0v.279c-.093,0-.465.093-.372.372.093-.093.929-.093.929.836,0,.186.093.093.093.093a1,1,0,0,0-.558-1.022c-.093-.093-.093-.186.093-.093a1.02,1.02,0,0,1,.558.929v.372a1.129,1.129,0,0,0,.093-.465,1.019,1.019,0,0,0-.837-1.022v-.186a1.154,1.154,0,0,1,1.022,1.3,2.076,2.076,0,0,1-.279.93c.186,0,.558,0,.279.558.465.093.372.558.186.558s-.186-.093-.372-.093c-.093,0-.186.093-.093.093.093.093.186.093.186.186,0,.186-.279.093-.558.651h.186c.093,0,.186,0,.186.093,0,.186-.186.279-.186.837a1.774,1.774,0,0,0,.279.744.341.341,0,0,1,.279-.093c.279,0,.186.186.186.279a1.973,1.973,0,0,0,1.3.836,3.78,3.78,0,0,1,1.766.744,4.612,4.612,0,0,1,1.859-.744,1.975,1.975,0,0,0,1.3-.836c0-.093-.093-.279.186-.279a.341.341,0,0,1,.279.093,6.4,6.4,0,0,0,.279-.744c0-.558-.186-.651-.186-.837,0-.093.093-.093.186-.093h.186c-.279-.558-.558-.465-.558-.651,0-.093.093-.093.186-.186.093,0,0-.093-.093-.093-.186,0-.186.093-.372.093s-.279-.465.186-.558c-.279-.558.093-.558.279-.558a2.078,2.078,0,0,1-.279-.93,1.369,1.369,0,0,1,.558-1.208l-.092-.092c-.093-.093,0-.186,0-.093.092,0,.092.093.186.186a.091.091,0,0,0,.093-.092l-.093-.093c-.093-.093-.093-.186,0-.093.093,0,.093,0,.186.186h.186v.186a1.019,1.019,0,0,0-.837,1.022,1.129,1.129,0,0,0,.093.465v-.372a1.02,1.02,0,0,1,.558-.929c.186-.093.186,0,.093.093a1,1,0,0,0-.558,1.022s.093.093.093-.093c0-.929.836-.929.929-.836.093-.279-.279-.372-.372-.372v-.186a1.553,1.553,0,0,0-1.487-.837c-.651,0-1.208.372-1.859.372a2.639,2.639,0,0,1-1.115-.372v-.093a2.473,2.473,0,0,0,1.115.279c.651,0,1.208-.372,1.859-.372a1.842,1.842,0,0,1,1.673,1.023Z" transform="translate(-75.384 -14.414)" fill="#1f1f1f" fill-rule="evenodd"/>
      <path id="Path_120" data-name="Path 120" d="M383.112,405.072a5.775,5.775,0,0,1,1.487-.651c.279,0,.186.093,0,.093-.651.186-1.394.558-1.487.558,0,.093-.186.093,0,0Z" transform="translate(-80.188 -21.457)" fill="#1f1f1f" fill-rule="evenodd"/>
      <path id="Path_121" data-name="Path 121" d="M380.178,405.292a4.533,4.533,0,0,0-1.487-.558c-.186-.093-.186,0,0,0a5.317,5.317,0,0,1,1.394.558c.093.093.186.093.093,0Z" transform="translate(-78.09 -21.585)" fill="#1f1f1f" fill-rule="evenodd"/>
      <path id="Path_122" data-name="Path 122" d="M378.7,393.416l3.9,3.811c.092,0,0-.093,0-.186l-3.9-3.81-3.811,3.81a.288.288,0,0,0-.093.186l3.9-3.811Z" transform="translate(-76.329 -16.216)" fill="#1f1f1f" fill-rule="evenodd"/>
      <path id="Path_123" data-name="Path 123" d="M379.351,396.657l3.16,3.067.093-.186-3.253-3.16-3.16,3.16.093.186,3.067-3.067Z" transform="translate(-76.985 -17.69)" fill="#1f1f1f" fill-rule="evenodd"/>
      <path id="Path_124" data-name="Path 124" d="M378.778,395.138l3.439,3.253c.279.186.465-.465.465-.651l-3.9-3.811-3.811,3.811.372.279v-.186l-.093-.186.186-.093.093-.093.093.093.279-.093v-.185l-.093-.186.186-.093.093-.093.093.093.279-.093v-.186l-.093-.186h.186l.092-.186.093.186.279-.186v-.186l-.093-.093.186-.093.093-.186.092.186.279-.093V395.7l-.186-.186.186-.093.186-.093.092.093.279-.093v-.186l-.186-.186.186-.093.186-.093.093.093.186-.093v-.186l-.093-.186h.186l.093-.185.186.185h.186l-.186.186v.186l.093.186.186-.093.093-.093.186.093.186.093-.186.186v.186l.279.093.093-.093.093.093.186.093-.093.186v.186l.279.093.093-.186.093.186.186.093-.093.093v.186l.279.186.093-.186.093.186h.186l-.093.186v.186l.279.093.092-.093.093.093.186.093-.093.186v.185l.279.093.093-.093.093.093.186.093-.093.186v.186l-.186-.092-.186.092v-.186l-.093-.186.186-.093-.279-.093-.186-.093-.186.093v-.185l-.093-.186.186-.093-.279-.093h-.372v-.186l-.093-.186h.186l-.279-.186h-.372v-.186l-.092-.093.186-.093-.279-.093-.186-.093-.186.093V395.7l-.093-.186.186-.093-.279-.093-.186-.093-.186.093v-.186l-.092-.186-.093-.186-.186-.093-.186.093-.186.093.186.093-.093.186v.186l-.186-.093-.186.093-.279.093.186.093-.093.186v.186l-.186-.093-.186.093-.279.093.186.093-.093.093v.186h-.372l-.279.186h.186l-.093.186v.186h-.372l-.279.093.186.093-.093.186v.185l-.186-.093-.186.093-.279.093.186.093-.093.186v.186l-.186-.092-.186.092-.372-.279c0,.186.186.837.465.651l3.346-3.253Z" transform="translate(-76.411 -16.543)" fill="#1f1f1f" fill-rule="evenodd"/>
      <path id="Path_125" data-name="Path 125" d="M221.78,368.9v6.414h10.875v8.365H221.78v14.965h-9.945V360.534h21.936V368.9Z" transform="translate(0 -0.901)" fill="#1f1f1f" fill-rule="evenodd"/>
      <path id="Path_126" data-name="Path 126" d="M256.6,360.534v38.109h9.852V368.9h2.324c6.414,0,10.875,3.811,10.875,10.689,0,7.436-5.019,10.6-10.968,10.6h-2.231v8.458h4.183a19.057,19.057,0,1,0,0-38.109Z" transform="translate(-20.966 -0.901)" fill="#1f1f1f" fill-rule="evenodd"/>
      <path id="Path_127" data-name="Path 127" d="M321.988,398.643h9.945V360.534h-9.945v38.109Z" transform="translate(-51.596 -0.901)" fill="#1f1f1f" fill-rule="evenodd"/>
      <path id="Path_128" data-name="Path 128" d="M372.331,372.368a10.879,10.879,0,0,0-8.737-4.183c-6.042,0-10.132,4.648-10.132,10.6,0,6.042,4.183,10.317,10.317,10.317a11.5,11.5,0,0,0,8.551-4V397c-3.253.93-5.67,1.766-8.737,1.766a21.073,21.073,0,0,1-14.314-5.67,18.716,18.716,0,0,1-6.135-14.407,20.008,20.008,0,0,1,5.67-13.942,20.635,20.635,0,0,1,14.5-6.135,23.472,23.472,0,0,1,9.016,1.952v11.8Z" transform="translate(-61.506 0)" fill="#1f1f1f" fill-rule="evenodd"/>
    </g>
  </g>
</svg>
