<svg xmlns="http://www.w3.org/2000/svg" width="66.354" height="66.354" viewBox="0 0 66.354 66.354">
  <g id="_60-minutes" data-name="60-minutes" transform="translate(0.25 0.25)">
    <path id="Subtraction_1" data-name="Subtraction 1" d="M32.671,65.342A32.679,32.679,0,0,1,19.954,2.567,32.679,32.679,0,0,1,45.388,62.774,32.465,32.465,0,0,1,32.671,65.342Zm0-63.749a31.086,31.086,0,0,0-12.1,59.713A31.085,31.085,0,0,0,44.768,4.035,30.88,30.88,0,0,0,32.671,1.593Z" transform="translate(0.256 0.265)" fill="#e5dbc5"/>
    <path id="Path_321" data-name="Path 321" d="M60.785,21.972l-.122.133-2,2.118a1.346,1.346,0,0,1-1.988.135,1.33,1.33,0,0,1-.228-1.367L57.81,21.6l2.159-1.728,1.145,1.158.1.407" transform="translate(-11.447 -4.037)" fill="#e5dbc5"/>
    <path id="Path_322" data-name="Path 322" d="M342.5,5166.9s-.794,0-.242,0c-.018-.155-.623-.2-.623-.2a26.173,26.173,0,0,1-2.907,0,1.613,1.613,0,0,0-1.991,1.063c-.3,1,1.2,1.371,1.2,1.371h3.032l1.584-.341" transform="translate(-286.481 -5135.592)" fill="#e5dbc5"/>
    <path id="Path_326" data-name="Path 326" d="M39.928,69.018H42.29V64.753a.921.921,0,0,0-.982-.948,1.144,1.144,0,0,0-1.38,1.229C39.9,65.745,39.928,69.018,39.928,69.018Z" transform="translate(-8.109 -12.961)" fill="#e5dbc5"/>
    <path id="Path_327" data-name="Path 327" d="M32.064,42.175s2.871-.5,3.5.46,1.107,2.626-.3,3.095-2.454,1.187-2.944-.441A7.859,7.859,0,0,1,32.064,42.175Z" transform="translate(-6.503 -8.542)" fill="#e5dbc5"/>
    <path id="Path_325" data-name="Path 325" d="M20.388,60.657l2.394-2.833s.823-.73,1.562-.192a1.109,1.109,0,0,1,.27,1.7,36.971,36.971,0,0,1-2.886,2.617Z" transform="translate(-4.142 -11.668)" fill="#e5dbc5"/>
    <path id="Path_323" data-name="Path 323" d="M5.854,2.12a14.435,14.435,0,0,1-1.584.341H1.238s-1.5-.372-1.2-1.372A1.613,1.613,0,0,1,2.032.026a26.3,26.3,0,0,0,2.907,0s.605.044.623.2c-.552,0,.3-.044.3-.044l.1,1.665" transform="translate(45.903 44.423) rotate(50)" fill="#e5dbc5"/>
    <path id="Path_328" data-name="Path 328" d="M48.448,37.9c.394,1.259,0,4.874,0,4.874a2.246,2.246,0,0,1-1.387,2.217c-1.477.474-2.456-.209-2.68-.962a49.738,49.738,0,0,1,0-5.813s.4-1.315,1.117-1.486S48.054,36.639,48.448,37.9Z" transform="translate(-8.996 -7.448)" fill="#e5dbc5"/>
    <path id="Path_324" data-name="Path 324" d="M12.306,39.3l-.056,1.878,4.594.262s1.273-.293,1.351-1.212-.57-1.368-1.536-1.257S12.306,39.3,12.306,39.3Z" transform="translate(-2.489 -7.913)" fill="#e5dbc5"/>
    <path id="Path_320" data-name="Path 320" d="M40.227,12.313c.022-.032-.379,3.39-.379,3.39s.019,2.186,1.382,1.79,1.013-2.968,1.013-2.968l-.349-2.212S40.205,12.345,40.227,12.313Z" transform="translate(-8.095 -2.501)" fill="#e5dbc5"/>
    <path id="Path_319" data-name="Path 319" d="M21.026,21.368h0L23.5,23.9s1.1.887,1.034,1.49a1.28,1.28,0,0,1-1.645,1.189c-1-.361-2.52-2.334-2.689-2.48a14.916,14.916,0,0,1-.9-1.314L20.4,21.562" transform="translate(-4.136 -4.692)" fill="#e5dbc5"/>
    <path id="Path_283" data-name="Path 283" d="M32.927,0A32.927,32.927,0,1,0,65.854,32.927,32.964,32.964,0,0,0,32.927,0Zm0,63.458A30.531,30.531,0,1,1,63.458,32.927,30.566,30.566,0,0,1,32.927,63.458Zm0,0" fill="none" stroke="#1f1f1f" stroke-width="0.5"/>
    <path id="Path_284" data-name="Path 284" d="M69.372,44.2a25.186,25.186,0,0,0-25.133,24.38,1.134,1.134,0,0,0-.04.2.993.993,0,0,0,.024.119c0,.16-.024.315-.024.476A25.173,25.173,0,1,0,69.372,44.2ZM85.95,84.943l-2.892-2.8a1.2,1.2,0,1,0-1.665,1.721L84.222,86.6a22.656,22.656,0,0,1-13.6,5.481V88.431a1.2,1.2,0,1,0-2.395,0v3.659a22.653,22.653,0,0,1-13.675-5.462l2.287-2.363a1.2,1.2,0,1,0-1.72-1.666l-2.3,2.371a22.666,22.666,0,0,1-6.2-15h4.232a1.2,1.2,0,0,0,0-2.395H46.685a22.654,22.654,0,0,1,4.973-12.5l3.059,2.961a1.2,1.2,0,0,0,1.665-1.722l-3.128-3.028a22.7,22.7,0,0,1,14.97-6.643V50.21a1.2,1.2,0,1,0,2.395,0V46.654a22.655,22.655,0,0,1,13.808,5.665L81.7,55.137A1.2,1.2,0,0,0,83.419,56.8L86.134,54A22.657,22.657,0,0,1,92.06,67.577H87.985a1.2,1.2,0,1,0,0,2.395H92.12A22.669,22.669,0,0,1,85.95,84.943Zm0,0" transform="translate(-36.446 -36.442)" fill="none" stroke="#1f1f1f" stroke-width="0.5"/>
    <path id="Path_285" data-name="Path 285" d="M191.848,152.582a4.479,4.479,0,0,0-4.473,4.474v4.368a4.474,4.474,0,0,0,8.947,0v-4.368A4.479,4.479,0,0,0,191.848,152.582Zm2.078,8.842a2.078,2.078,0,1,1-4.157,0v-4.368a2.078,2.078,0,1,1,4.157,0Zm0,0" transform="translate(-154.505 -125.816)" fill="none" stroke="#1f1f1f" stroke-width="0.5"/>
    <path id="Path_286" data-name="Path 286" d="M135.821,143.438h-2.078v-.9a3.955,3.955,0,0,1,3.95-3.95,1.2,1.2,0,0,0,0-2.4,6.353,6.353,0,0,0-6.345,6.346v5.37a4.471,4.471,0,0,0,4.481,4.473,4.59,4.59,0,0,0,.794-.069,4.473,4.473,0,0,0,2.625-7.279A4.462,4.462,0,0,0,135.821,143.438Zm2.045,4.86a2.1,2.1,0,0,1-1.658,1.658,2.082,2.082,0,0,1-2.466-2.045v-2.078h2.078a2.082,2.082,0,0,1,2.045,2.465Zm0,0" transform="translate(-108.306 -112.304)" fill="none" stroke="#1f1f1f" stroke-width="0.5"/>
  </g>
</svg>
