<svg xmlns="http://www.w3.org/2000/svg" width="65.19" height="65.205" viewBox="0 0 65.19 65.205">
  <g id="bank" transform="translate(0.25 0.291)">
    <path id="Path_312" data-name="Path 312" d="M37.807,40.326s-5.061.858-6.843,4.652-1.273,8.705,1.029,10.7,6.045,4.16,10.826,1.952,5.534-5.954,5.257-8.706-1.267-5.649-3.5-6.636-2.538-1.555-3.832-1.747A26.439,26.439,0,0,0,37.807,40.326Z" transform="translate(-6.608 -8.742)" fill="#e5dbc5"/>
    <path id="Path_313" data-name="Path 313" d="M40.006,43.885c-.077,1.339-.233.695-.233.695s-1.618-.1-2.142.844-1.268,3.554-.612,4.448,2.438,1.825,2.988,1.679-.233,3.309-.233,3.309a.583.583,0,0,1-.783-.373c-.2-.6-.253-1.237-.553-1.4s-1.329-.517-1.419.5-.181,1.417.114,1.747,1.217,1.461,2.32,1.4-.183,1.42.884,1.385.847.465,1.136-.2a1.879,1.879,0,0,0,.134-1.189s2.279-.057,2.647-1.4a14.018,14.018,0,0,0,.142-3.784s-.824-1.741-2.083-1.813-.488,0-.488,0V46.463a.8.8,0,0,1,.834.735c.049.751.317,1.117,1.02,1.021s1.175-.5.959-1.329a2.865,2.865,0,0,0-1.449-2.012,8.564,8.564,0,0,0-1.836-.3l.119-1.295S40.082,42.545,40.006,43.885Z" transform="translate(-8.424 -9.872)" fill="#fff"/>
    <path id="Path_308" data-name="Path 308" d="M281.006,5158.752l2.361,3.418h6.564l2.552-3.418Z" transform="translate(-274.372 -5134.311)" fill="#e5dbc5"/>
    <path id="Path_311" data-name="Path 311" d="M281.006,5162.17l2.361-3.418h6.564l2.552,3.418Z" transform="translate(-274.372 -5105.019)" fill="#e5dbc5"/>
    <path id="Path_309" data-name="Path 309" d="M281.006,5158.752l2.361,3.418h6.564l2.552-3.418Z" transform="translate(-234.289 -5134.311)" fill="#e5dbc5"/>
    <path id="Path_310" data-name="Path 310" d="M281.006,5162.17l2.361-3.418h6.564l2.552,3.418Z" transform="translate(-234.289 -5105.019)" fill="#e5dbc5"/>
    <path id="Path_314" data-name="Path 314" d="M43.278,54.358c-.269.236-.1,3.045-.1,3.045a1.036,1.036,0,0,0,1.109-1.171C44.232,54.993,43.547,54.122,43.278,54.358Z" transform="translate(-9.882 -12.448)" fill="#e5dbc5"/>
    <path id="Path_316" data-name="Path 316" d="M2.747,24.145s-1.535,4,2.439,3.925,56.448-.08,56.448-.08,1.388-.277,1.678-1.242a6.07,6.07,0,0,0,0-2.4Z" transform="translate(-0.563 -5.533)" fill="#e5dbc5"/>
    <path id="Path_317" data-name="Path 317" d="M2.749,24.145s-1.541,4,2.45,3.925,56.689-.08,56.689-.08,1.394-.277,1.685-1.242a6.045,6.045,0,0,0,0-2.4Z" transform="translate(-0.806 34.908)" fill="#e5dbc5"/>
    <circle id="Ellipse_31" data-name="Ellipse 31" cx="2.5" cy="2.5" r="2.5" transform="translate(29.984 7.343)" fill="#e5dbc5"/>
    <path id="Path_315" data-name="Path 315" d="M40.413,47.622c.011,0-.071,3.115-.071,3.115s-1.05-.308-1.1-1.214a2.6,2.6,0,0,1,.3-1.563C39.654,47.779,40.4,47.618,40.413,47.622Z" transform="translate(-8.99 -10.913)" fill="#e5dbc5"/>
    <path id="Path_287" data-name="Path 287" d="M34.277,37.628a.948.948,0,1,0,1.9,0,2.789,2.789,0,0,0-2.88-2.891v-.524a.948.948,0,1,0-1.9,0v.524a2.787,2.787,0,0,0-2.88,2.891v1.3a2.788,2.788,0,0,0,2.88,2.891V45.1a.9.9,0,0,1-.984-1,.948.948,0,0,0-1.9,0A2.792,2.792,0,0,0,31.4,47v.524a.948.948,0,0,0,1.9,0V47a2.8,2.8,0,0,0,2.88-2.891v-1.3a2.787,2.787,0,0,0-2.88-2.891V36.632a.9.9,0,0,1,.984,1ZM31.4,39.92a.9.9,0,0,1-.984-1v-1.3a.906.906,0,0,1,.984-1Zm2.88,2.891v1.3c-.008.622-.457,1.1-.984,1V41.816A.9.9,0,0,1,34.277,42.812ZM36.7,10.184a4.359,4.359,0,1,0-4.359,4.359A4.364,4.364,0,0,0,36.7,10.184Zm-6.823,0a2.464,2.464,0,1,1,2.464,2.464A2.467,2.467,0,0,1,29.881,10.184ZM32.345,30.01A10.858,10.858,0,1,0,43.2,40.868,10.87,10.87,0,0,0,32.345,30.01Zm0,19.821a8.963,8.963,0,1,1,8.963-8.963,8.973,8.973,0,0,1-8.963,8.963Zm28.1-25.281a3.881,3.881,0,0,0,4.249-3.79V17.917a.952.952,0,0,0-.5-.834L34.642.7a4.711,4.711,0,0,0-4.594,0L18.125,7.311a.948.948,0,1,0,.919,1.658L30.966,2.359a2.827,2.827,0,0,1,2.757,0L60.078,16.969H4.611l10.522-5.833a.948.948,0,1,0-.919-1.658L.5,17.083a.961.961,0,0,0-.5.834V20.76a3.847,3.847,0,0,0,4.249,3.79l3.332,4.69V52.5l-3.332,4.69H2.211A2.214,2.214,0,0,0,0,59.4v3.159a2.214,2.214,0,0,0,2.211,2.211H62.478a2.214,2.214,0,0,0,2.211-2.211V59.4a2.214,2.214,0,0,0-2.211-2.211H60.441L57.109,52.5V29.24Zm-56.65-1.9a1.9,1.9,0,0,1-1.9-1.9v-1.9h60.9v1.9a1.9,1.9,0,0,1-1.9,1.9ZM48.548,41.682a.948.948,0,0,0,.948-.948V29.885h5.717V51.851H49.5V45.156a.948.948,0,1,0-1.9,0V52.5l-3.332,4.69H20.421L17.089,52.5V29.24l3.332-4.69H44.269L47.6,29.24V40.734A.947.947,0,0,0,48.548,41.682ZM6.574,24.55H18.1l-2.444,3.44H9.018Zm8.62,5.335V51.851H9.476V29.885ZM9.018,53.746h6.634l2.444,3.44H6.574Zm53.461,5.335a.316.316,0,0,1,.316.316v3.159a.316.316,0,0,1-.316.316H2.211a.316.316,0,0,1-.316-.316V59.4a.316.316,0,0,1,.316-.316Zm-4.362-1.9H46.594l2.444-3.44h6.634Zm-2.444-29.2H49.038l-2.444-3.44H58.116Z" transform="translate(0 -0.103)" fill="none" stroke="#1f1f1f" stroke-width="0.5"/>
  </g>
</svg>
