<svg xmlns="http://www.w3.org/2000/svg" width="64.983" height="64.977" viewBox="0 0 64.983 64.977">
  <g id="Group_331" data-name="Group 331" transform="translate(-228.4 -4932.393)">
    <path id="Path_299" data-name="Path 299" d="M252.371,4935.73l-3.286,3.469a5.732,5.732,0,0,0,6.729,0C256,4938.879,252.371,4935.73,252.371,4935.73Z" transform="translate(-4.908 -0.792)" fill="#ccb88c" opacity="0.5"/>
    <path id="Path_300" data-name="Path 300" d="M3.286,0,0,3.469A5.773,5.773,0,0,0,3.286,4.56,5.8,5.8,0,0,0,6.729,3.469C6.913,3.148,3.286,0,3.286,0Z" transform="matrix(0.035, -0.999, 0.999, 0.035, 234.468, 4951.185)" fill="#ccb88c" opacity="0.5"/>
    <path id="Path_301" data-name="Path 301" d="M3.286,0,0,3.469A5.773,5.773,0,0,0,3.286,4.56,5.8,5.8,0,0,0,6.729,3.469C6.913,3.148,3.286,0,3.286,0Z" transform="matrix(-0.999, -0.035, 0.035, -0.999, 260.746, 4970.89)" fill="#ccb88c" opacity="0.5"/>
    <path id="Path_303" data-name="Path 303" d="M256.84,4953.189v-.145a3.984,3.984,0,0,0-2.635,2.018c-.74,1.633-1,2.553-.735,3.734a5.088,5.088,0,0,0,4.043,3.863,4.666,4.666,0,0,0,4.616-1.436,7.623,7.623,0,0,0,1.4-2.682c-.025-.311-2.4-.7-2.657-.864a9.911,9.911,0,0,1-2.407-1.583,9.585,9.585,0,0,1-1.374-2.338A1.324,1.324,0,0,0,256.84,4953.189Z" transform="translate(-5.925 -4.9)" fill="#e5dbc5"/>
    <path id="Path_304" data-name="Path 304" d="M49.422-55.485v14.31h5.714v-14.31Z" transform="translate(236.061 4994.275)" fill="#e5dbc5"/>
    <path id="Path_307" data-name="Path 307" d="M55.137-55.485v14.31H49.422v-14.31Z" transform="translate(181.458 5033.937)" fill="#e5dbc5"/>
    <path id="Path_305" data-name="Path 305" d="M49.422-55.485v12.119h3.44V-55.485Z" transform="translate(231.035 4996.466)" fill="#e5dbc5"/>
    <path id="Path_306" data-name="Path 306" d="M52.577-55.485v12.119H49.422V-55.485Z" transform="translate(188.758 5033.937)" fill="#e5dbc5"/>
    <path id="Path_302" data-name="Path 302" d="M277.75,4965.39a2.2,2.2,0,0,0,.073,1.972c.533,1.235.793,1.686.793,1.686l2.181-2.1Z" transform="translate(-11.666 -7.829)" fill="#e5dbc5"/>
    <g id="payment-method" transform="translate(228.4 4932.393)">
      <g id="Group_310" data-name="Group 310" transform="translate(19.893 49.222)">
        <g id="Group_309" data-name="Group 309" transform="translate(0 0)">
          <g id="Path_288" data-name="Path 288" transform="translate(-152.75 -383.857)" fill="none">
            <path d="M154.262,384.471a.8.8,0,0,0-.044-.144.775.775,0,0,0-.07-.131.743.743,0,0,0-.211-.211.754.754,0,0,0-.132-.07.718.718,0,0,0-.143-.044.752.752,0,0,0-.3,0,.741.741,0,0,0-.144.044.775.775,0,0,0-.131.07.743.743,0,0,0-.211.211.724.724,0,0,0-.07.131.739.739,0,0,0-.044.144.734.734,0,0,0,0,.3.717.717,0,0,0,.044.143.705.705,0,0,0,.07.132.742.742,0,0,0,.211.211.771.771,0,0,0,.131.07.745.745,0,0,0,.144.044.736.736,0,0,0,.3,0,.722.722,0,0,0,.143-.044.755.755,0,0,0,.132-.07.742.742,0,0,0,.211-.211.753.753,0,0,0,.07-.132.772.772,0,0,0,.044-.143.734.734,0,0,0,0-.3Z" stroke="none"/>
            <path d="M 153.5134429931641 384.4569702148438 C 153.5035095214844 384.4569702148438 153.4936981201172 384.4579467773438 153.4842681884766 384.4598693847656 L 153.47998046875 384.4607543945312 L 153.4756622314453 384.4615478515625 C 153.4752960205078 384.4616088867188 153.4665679931641 384.4633178710938 153.4518585205078 384.4693298339844 C 153.4416961669922 384.4735412597656 153.4315338134766 384.4789733886719 153.4187316894531 384.4874877929688 C 153.4120178222656 384.4919128417969 153.4049072265625 384.4977722167969 153.3978881835938 384.5047912597656 C 153.3894195556641 384.5132751464844 153.3840942382812 384.5204772949219 153.381103515625 384.5250244140625 L 153.3776550292969 384.5303039550781 L 153.3740844726562 384.5355224609375 C 153.3733062744141 384.5366516113281 153.3691101074219 384.5430908203125 153.3639678955078 384.555419921875 C 153.356689453125 384.5731506347656 153.3550872802734 384.5814819335938 153.3550262451172 384.5818481445312 L 153.3541564941406 384.5864562988281 L 153.3532257080078 384.591064453125 C 153.3504028320312 384.6049194335938 153.3499755859375 384.6153564453125 153.3499755859375 384.620361328125 C 153.3499755859375 384.6253662109375 153.3504028320312 384.6358337402344 153.3532104492188 384.649658203125 L 153.3541564941406 384.6542663574219 L 153.3550262451172 384.6589050292969 C 153.3550262451172 384.6589965820312 153.3565063476562 384.6666259765625 153.364013671875 384.6846618652344 C 153.3697967529297 384.6987915039062 153.3735504150391 384.7044372558594 153.3739624023438 384.7050476074219 L 153.3776550292969 384.7103881835938 L 153.3812103271484 384.7158508300781 C 153.3841705322266 384.7203674316406 153.3894653320312 384.7275390625 153.39794921875 384.7360229492188 C 153.4065246582031 384.7445678710938 153.4137878417969 384.7499694824219 153.4183959960938 384.7529602050781 L 153.4208526611328 384.7545776367188 L 153.4232940673828 384.7562255859375 C 153.4320526123047 384.7620544433594 153.4420318603516 384.7673950195312 153.4484405517578 384.7700805664062 C 153.4666900634766 384.7775573730469 153.4755401611328 384.7792663574219 153.4759063720703 384.7793273925781 L 153.4800262451172 384.7800903320312 L 153.484130859375 384.7809448242188 C 153.4944458007812 384.7830200195312 153.5049591064453 384.7841796875 153.5137329101562 384.7841796875 C 153.5225067138672 384.7841796875 153.5330352783203 384.7830200195312 153.5433502197266 384.7809448242188 L 153.5474395751953 384.7800903320312 L 153.5515441894531 384.7793273925781 C 153.5518798828125 384.7792663574219 153.5598297119141 384.7777404785156 153.5777435302734 384.7702941894531 C 153.5869293212891 384.7665100097656 153.5960083007812 384.7616577148438 153.6047210693359 384.7558288574219 L 153.6068878173828 384.75439453125 L 153.6090698242188 384.7529602050781 C 153.6136474609375 384.7499694824219 153.6209564208984 384.7445678710938 153.62939453125 384.7361450195312 C 153.6379852294922 384.7275390625 153.6433258056641 384.7203369140625 153.6463012695312 384.7157592773438 L 153.6477661132812 384.7135314941406 L 153.6492462158203 384.7113342285156 C 153.6549072265625 384.7028503417969 153.6596832275391 384.6938781738281 153.6647796630859 384.6814575195312 C 153.6686248779297 384.6722106933594 153.6718902587891 384.6612854003906 153.6742095947266 384.6498718261719 C 153.6770477294922 384.6359252929688 153.6774597167969 384.6253967285156 153.6774597167969 384.620361328125 C 153.6774597167969 384.6153564453125 153.6770477294922 384.6048278808594 153.6742095947266 384.5908813476562 C 153.6717071533203 384.5785827636719 153.6681060791016 384.566650390625 153.6647796630859 384.5585327148438 C 153.6605682373047 384.5484008789062 153.6551666259766 384.5382690429688 153.6464080810547 384.5251159667969 C 153.6434020996094 384.5205078125 153.6380310058594 384.5132751464844 153.6294555664062 384.5046691894531 C 153.6208038330078 384.4960327148438 153.6134185791016 384.4905700683594 153.6050567626953 384.4850769042969 C 153.5963897705078 384.4792785644531 153.5872955322266 384.4744567871094 153.5746154785156 384.46923828125 C 153.5599365234375 384.463134765625 153.5521087646484 384.4616088867188 153.5517730712891 384.4615478515625 L 153.5479278564453 384.4608154296875 L 153.5440979003906 384.4600524902344 C 153.5339965820312 384.4580078125 153.523681640625 384.4569702148438 153.5134429931641 384.4569702148438 M 153.5134429931641 383.8569946289062 C 153.5633850097656 383.8569946289062 153.6134033203125 383.8619384765625 153.6626586914062 383.8718872070312 C 153.7115325927734 383.8810729980469 153.7596588134766 383.8963317871094 153.8054809570312 383.9154357910156 C 153.8520660400391 383.9345092773438 153.8963623046875 383.9581909179688 153.9376068115234 383.9856567382812 C 153.9796142578125 384.01318359375 154.0185546875 384.0452575683594 154.0537109375 384.0804138183594 C 154.0888366699219 384.1155090332031 154.1209106445312 384.1544799804688 154.1484069824219 384.1964721679688 C 154.1759033203125 384.2377319335938 154.1995849609375 384.2820129394531 154.2186737060547 384.3278503417969 C 154.2377624511719 384.3744201660156 154.2522735595703 384.4225769042969 154.26220703125 384.4714660644531 C 154.2721252441406 384.5203247070312 154.2774658203125 384.5707397460938 154.2774658203125 384.620361328125 C 154.2774658203125 384.6700134277344 154.2721252441406 384.7204284667969 154.26220703125 384.769287109375 C 154.2522735595703 384.8181762695312 154.2377624511719 384.8662719726562 154.2186737060547 384.912109375 C 154.1995849609375 384.9587097167969 154.1759033203125 385.0030212402344 154.1484069824219 385.0442504882812 C 154.1209106445312 385.0862731933594 154.0888366699219 385.1252136230469 154.0537109375 385.1603393554688 C 154.0185546875 385.1954650878906 153.9796142578125 385.2275390625 153.9376068115234 385.2550354003906 C 153.8963623046875 385.2825317382812 153.8520660400391 385.3062744140625 153.8054809570312 385.3253784179688 C 153.7596588134766 385.3444519042969 153.7115325927734 385.3597412109375 153.6626586914062 385.3689575195312 C 153.61376953125 385.3788757324219 153.5633697509766 385.3841857910156 153.5137329101562 385.3841857910156 C 153.4640960693359 385.3841857910156 153.4136810302734 385.3788757324219 153.3648071289062 385.3689575195312 C 153.31591796875 385.3597412109375 153.2678070068359 385.3444519042969 153.2212066650391 385.3253784179688 C 153.1753845214844 385.3062744140625 153.1310882568359 385.2825927734375 153.0898590087891 385.2550354003906 C 153.0478515625 385.2275390625 153.0088806152344 385.1954650878906 152.9737548828125 385.1603393554688 C 152.9386291503906 385.1252136230469 152.9065399169922 385.0862731933594 152.8790588378906 385.0442504882812 C 152.8507995605469 385.0030212402344 152.827880859375 384.9587097167969 152.8087921142578 384.912109375 C 152.7897033691406 384.8662719726562 152.7744140625 384.8181762695312 152.7652587890625 384.769287109375 C 152.7553253173828 384.7204284667969 152.7499847412109 384.6700134277344 152.7499847412109 384.620361328125 C 152.7499847412109 384.5707397460938 152.7553253173828 384.5203247070312 152.7652587890625 384.4714660644531 C 152.7744140625 384.4225769042969 152.7897033691406 384.3744201660156 152.8087921142578 384.3278503417969 C 152.827880859375 384.2820129394531 152.8507995605469 384.2377319335938 152.8790588378906 384.1964721679688 C 152.9065399169922 384.1544799804688 152.9386291503906 384.1155090332031 152.9737548828125 384.0804138183594 C 153.0088806152344 384.0452575683594 153.0478515625 384.01318359375 153.0898590087891 383.9856567382812 C 153.1310882568359 383.9581909179688 153.1753845214844 383.9345092773438 153.2212066650391 383.9154357910156 C 153.2678070068359 383.8963317871094 153.31591796875 383.8810729980469 153.3648071289062 383.8718872070312 C 153.4136810302734 383.8619384765625 153.4635162353516 383.8569946289062 153.5134429931641 383.8569946289062 Z" stroke="none" fill="#1f1f1f"/>
          </g>
        </g>
      </g>
      <g id="Group_312" data-name="Group 312" transform="translate(0 39.332)">
        <g id="Group_311" data-name="Group 311">
          <g id="Path_289" data-name="Path 289" transform="translate(0 -309.922)" fill="none">
            <path d="M58.383,320.718l-.015-.038c-1.168-2.733-3.908-3.744-7.15-2.636l-8.842,2.445a5.8,5.8,0,0,0-3.589-3.535l-.034-.012-9.72-3.3a10.025,10.025,0,0,0-8.088-3.721c-3.316,0-6.249,2.275-7.927,4.754H1.269A1.269,1.269,0,0,0,0,315.945v16a1.269,1.269,0,0,0,1.269,1.269H8.816a1.269,1.269,0,0,0,1.269-1.269v-1.1h3.539a1.269,1.269,0,0,0,1.269-1.269v-.365a9,9,0,0,1,4.636,1.664,76.8,76.8,0,0,0,7.625,3.893l.056.023a11.393,11.393,0,0,0,4.083.77,10.116,10.116,0,0,0,4.205-.9l19.545-7c.035-.012.069-.026.1-.042C57.013,326.767,59.8,324.345,58.383,320.718Zm-50.836,9.96H2.538V317.214H7.546Zm4.808-2.365h-2.27v-11.1h2.27ZM54.131,325.3,34.6,332.293l-.057.022-.051.022a8.226,8.226,0,0,1-6.321.108,73.53,73.53,0,0,1-7.369-3.764,11.424,11.424,0,0,0-5.9-2.008V316.451c1.2-1.972,3.536-3.99,6.051-3.99a7.324,7.324,0,0,1,6.213,2.919,1.269,1.269,0,0,0,.673.537l10.087,3.424a2.848,2.848,0,0,1,2.071,3.36,2.473,2.473,0,0,1-3.038,1.707l-11.371-3.6a1.269,1.269,0,1,0-.767,2.42l11.391,3.61.036.011a4.982,4.982,0,0,0,3.81-.443,4.978,4.978,0,0,0,2.381-3.007q.044-.154.078-.308l9.53-2.64c1.376-.47,3.183-.64,3.987,1.213C56.858,323.834,54.694,325.03,54.131,325.3Z" stroke="none"/>
            <path d="M 20.94415664672852 310.4219970703125 C 17.66749572753906 310.4219970703125 14.91467666625977 312.7642822265625 13.43103790283203 314.9563293457031 L 13.28230667114258 315.1760559082031 L 13.0169677734375 315.1760559082031 L 1.269207000732422 315.1760559082031 C 0.8450660705566406 315.1760559082031 0.4999961853027344 315.5211181640625 0.4999961853027344 315.9452514648438 L 0.4999961853027344 331.947021484375 C 0.4999961853027344 332.3711547851562 0.8450660705566406 332.7162170410156 1.269207000732422 332.7162170410156 L 8.815517425537109 332.7162170410156 C 9.239654541015625 332.7162170410156 9.584716796875 332.3711547851562 9.584716796875 331.947021484375 L 9.584716796875 330.8511962890625 L 9.584716796875 330.3511962890625 L 10.084716796875 330.3511962890625 L 13.62363815307617 330.3511962890625 C 14.04777526855469 330.3511962890625 14.39284515380859 330.006103515625 14.39284515380859 329.5819702148438 L 14.39284515380859 329.2166748046875 L 14.39284515380859 328.671142578125 L 14.93630599975586 328.7185668945312 C 17.10954666137695 328.9081726074219 17.83629608154297 329.3272705078125 19.77876663208008 330.4473876953125 C 21.22704696655273 331.2825317382812 23.41569519042969 332.5446166992188 27.35897827148438 334.3175964355469 C 27.37019729614258 334.3226318359375 27.38157653808594 334.3274536132812 27.39274597167969 334.3318481445312 C 28.09063720703125 334.6063842773438 29.52535629272461 335.0669250488281 31.29312705993652 335.0669250488281 C 32.69365692138672 335.0669250488281 34.03897857666016 334.7789916992188 35.29169464111328 334.2111206054688 L 35.31032562255859 334.2026977539062 L 35.32957458496094 334.19580078125 L 54.87418746948242 327.1979370117188 C 54.89524841308594 327.1903991699219 54.91593551635742 327.1819458007812 54.93631744384766 327.1725463867188 C 56.00248718261719 326.6820068359375 56.98873519897461 325.8471374511719 57.57453536987305 324.9392700195312 C 58.36749649047852 323.7103576660156 58.48260498046875 322.3511657714844 57.9166374206543 320.8993835449219 C 57.91379547119141 320.89208984375 57.91091537475586 320.8848571777344 57.90739822387695 320.8766784667969 C 57.14280700683594 319.0875549316406 55.64727783203125 318.1022338867188 53.6961555480957 318.1021423339844 C 52.96420669555664 318.1021423339844 52.18445587158203 318.2417297363281 51.37858581542969 318.5169677734375 L 51.36454772949219 318.5217590332031 L 51.35024642944336 318.5256958007812 L 42.5079460144043 320.9709167480469 L 42.04915618896484 321.0978088378906 L 41.89989471435547 320.6457824707031 C 41.42100524902344 319.1955871582031 40.22234725952148 318.0209350585938 38.61318588256836 317.4237670898438 C 38.60610580444336 317.421142578125 38.59902572631836 317.4185791015625 38.59090423583984 317.4158325195312 L 28.8712158203125 314.1169128417969 L 28.72860717773438 314.0685119628906 L 28.63644599914551 313.9493713378906 C 27.81594657897949 312.8887939453125 25.42391586303711 310.4219970703125 20.94415664672852 310.4219970703125 M 37.6136474609375 324.9974060058594 C 37.34581756591797 324.9974060058594 37.07779693603516 324.9608459472656 36.81702423095703 324.8887023925781 L 36.8081169128418 324.88623046875 L 36.79929733276367 324.8834228515625 L 25.42815780639648 321.2799377441406 C 25.35206604003906 321.2558288574219 25.27367782592773 321.2435913085938 25.19517517089844 321.2435913085938 C 24.85870742797852 321.2435913085938 24.56424713134766 321.45947265625 24.46243667602539 321.7808227539062 C 24.33428573608398 322.1851196289062 24.55902481079102 322.6183166503906 24.96335601806641 322.7465209960938 L 36.35295867919922 326.3558044433594 C 36.36016845703125 326.3580627441406 36.36736679077148 326.3603515625 36.37637710571289 326.3628845214844 C 36.78285598754883 326.4784851074219 37.20045471191406 326.537109375 37.61756896972656 326.537109375 C 38.37687683105469 326.537109375 39.1336555480957 326.3390502929688 39.80614471435547 325.9642944335938 C 40.85875701904297 325.3778686523438 41.61992645263672 324.4165344238281 41.94940567016602 323.257568359375 C 41.97584533691406 323.1644287109375 41.99941635131836 323.0706787109375 42.01948547363281 322.9789123535156 L 42.08388519287109 322.6843566894531 L 42.37445831298828 322.6038513183594 L 51.8900260925293 319.9677734375 C 52.54143142700195 319.7466125488281 53.14964294433594 319.6344909667969 53.6978759765625 319.6344909667969 C 55.00184631347656 319.6344909667969 55.96512603759766 320.265625 56.48359680175781 321.459716796875 L 56.48798751831055 321.4698181152344 L 56.49192810058594 321.4801025390625 C 56.99996566772461 322.8072814941406 56.70309448242188 324.6259460449219 54.34630584716797 325.7499389648438 L 54.32344818115234 325.7608337402344 L 54.29960632324219 325.7693786621094 L 34.76294708251953 332.764404296875 C 34.75194549560547 332.768310546875 34.73706817626953 332.7742614746094 34.72688674926758 332.7783813476562 C 34.71632385253906 332.78271484375 34.70575714111328 332.7872314453125 34.69561767578125 332.7918701171875 C 33.63030624389648 333.2814636230469 32.48233795166016 333.5297241210938 31.2835865020752 333.5297241210938 C 29.79745674133301 333.5297241210938 28.57902717590332 333.1422729492188 27.98500633239746 332.9113464355469 L 27.97287559509277 332.9066162109375 L 27.96101570129395 332.9012756347656 C 24.10779571533203 331.1674194335938 22.05014801025391 329.9809265136719 20.54667663574219 329.114013671875 C 18.50030517578125 327.9340209960938 17.56633758544922 327.3954467773438 14.8516960144043 327.1712341308594 L 14.39284515380859 327.1333618164062 L 14.39284515380859 326.6729431152344 L 14.39284515380859 316.4505310058594 L 14.39284515380859 316.3100280761719 L 14.46601486206055 316.1900939941406 C 15.14258575439453 315.0812377929688 16.09052658081055 314.0582275390625 17.13522720336914 313.3095397949219 C 18.36694717407227 312.4268493652344 19.68410491943359 311.9602661132812 20.94428634643555 311.9602661132812 C 25.527587890625 311.9602661132812 27.49797821044922 314.9825439453125 27.57960510253906 315.1112060546875 L 27.58150482177734 315.1141967773438 L 27.58336639404297 315.1172180175781 C 27.67706680297852 315.2696228027344 27.82197570800781 315.3852233886719 27.99143600463867 315.4427185058594 L 38.07843780517578 318.8662414550781 L 38.08597564697266 318.8688049316406 L 38.09343719482422 318.8716125488281 C 39.95754623413086 319.5712890625 40.93471527099609 321.2017517089844 40.46977615356445 322.8365783691406 C 40.25263595581055 323.6004028320312 39.75100708007812 324.2339172363281 39.05725860595703 324.6204528808594 C 38.61459732055664 324.8670654296875 38.11540603637695 324.9974060058594 37.6136474609375 324.9974060058594 M 8.046306610107422 331.1777038574219 L 7.546306610107422 331.1777038574219 L 2.538406372070312 331.1777038574219 L 2.038406372070312 331.1777038574219 L 2.038406372070312 330.6777038574219 L 2.038406372070312 317.21435546875 L 2.038406372070312 316.71435546875 L 2.538406372070312 316.71435546875 L 7.546306610107422 316.71435546875 L 8.046306610107422 316.71435546875 L 8.046306610107422 317.21435546875 L 8.046306610107422 330.6777038574219 L 8.046306610107422 331.1777038574219 M 12.85443496704102 328.8126220703125 L 12.35443496704102 328.8126220703125 L 10.084716796875 328.8126220703125 L 9.584716796875 328.8126220703125 L 9.584716796875 328.3126220703125 L 9.584716796875 317.21435546875 L 9.584716796875 316.71435546875 L 10.084716796875 316.71435546875 L 12.35443496704102 316.71435546875 L 12.85443496704102 316.71435546875 L 12.85443496704102 317.21435546875 L 12.85443496704102 328.3126220703125 L 12.85443496704102 328.8126220703125 M 20.94415664672852 309.9219970703125 C 25.68882751464844 309.9219970703125 28.22291564941406 312.5977172851562 29.03191566467285 313.6434326171875 L 38.75160598754883 316.9423522949219 C 38.76290893554688 316.9461669921875 38.77407836914062 316.9501953125 38.78523635864258 316.9542846679688 C 40.58827590942383 317.6234130859375 41.86344909667969 318.9408569335938 42.37467575073242 320.489013671875 L 51.21697616577148 318.0437927246094 C 52.08652496337891 317.7467956542969 52.9196891784668 317.6021423339844 53.69631958007812 317.6021728515625 C 55.81552886962891 317.6022338867188 57.51227951049805 318.6797790527344 58.36716461181641 320.68017578125 C 58.37249755859375 320.6925659179688 58.37756729125977 320.7051391601562 58.38252639770508 320.7178649902344 C 59.79667663574219 324.3453674316406 57.01317596435547 326.7673950195312 55.14529800415039 327.6267700195312 C 55.11177825927734 327.6422424316406 55.07750701904297 327.6562194824219 55.0427360534668 327.6686706542969 L 35.49812698364258 334.6665344238281 C 34.01493835449219 335.3388671875 32.5699462890625 335.5669250488281 31.29312705993652 335.5669250488281 C 29.4587459564209 335.5669250488281 27.97085571289062 335.0965576171875 27.209716796875 334.7971496582031 C 27.19105529785156 334.789794921875 27.17239761352539 334.7819213867188 27.15399551391602 334.7736511230469 C 23.18823623657227 332.9905700683594 20.98604583740234 331.7207336425781 19.52899551391602 330.8805236816406 C 17.63432693481445 329.7879638671875 16.95581817626953 329.3966674804688 14.89284515380859 329.2166748046875 L 14.89284515380859 329.5819702148438 C 14.89284515380859 330.282958984375 14.32462692260742 330.8511962890625 13.62363815307617 330.8511962890625 L 10.084716796875 330.8511962890625 L 10.084716796875 331.947021484375 C 10.084716796875 332.6480102539062 9.516494750976562 333.2162170410156 8.815517425537109 333.2162170410156 L 1.269207000732422 333.2162170410156 C 0.5682182312011719 333.2162170410156 -3.814697265625e-06 332.6480102539062 -3.814697265625e-06 331.947021484375 L -3.814697265625e-06 315.9452514648438 C -3.814697265625e-06 315.2442626953125 0.5682182312011719 314.6760559082031 1.269207000732422 314.6760559082031 L 13.0169677734375 314.6760559082031 C 14.69510650634766 312.1966552734375 17.62836456298828 309.9219970703125 20.94415664672852 309.9219970703125 Z M 37.61363983154297 324.4974060058594 C 38.02945709228516 324.4974060058594 38.44069290161133 324.3916015625 38.81391906738281 324.1836547851562 C 39.39089584350586 323.8621826171875 39.8082160949707 323.335205078125 39.98882675170898 322.6998596191406 C 40.3801155090332 321.3240356445312 39.52873611450195 319.9443969726562 37.9177360534668 319.3397216796875 L 27.83073616027832 315.9161987304688 C 27.55062484741211 315.8211364746094 27.31238555908203 315.6311340332031 27.15742492675781 315.3790893554688 C 27.08558654785156 315.265869140625 25.25780487060547 312.4602661132812 20.94428634643555 312.4602661132812 C 18.42897796630859 312.4602661132812 16.09592819213867 314.4786987304688 14.89284515380859 316.4505310058594 L 14.89284515380859 326.6729431152344 C 17.71936798095703 326.9063720703125 18.72012710571289 327.4835815429688 20.79705810546875 328.6812133789062 C 22.29091644287109 329.5426025390625 24.33547592163086 330.7215881347656 28.16618728637695 332.4453125 C 28.76089096069336 332.676513671875 29.89656639099121 333.0297241210938 31.28358459472656 333.0297241210938 C 32.26054000854492 333.0297241210938 33.36240768432617 332.8543090820312 34.48682403564453 332.3375549316406 C 34.50371551513672 332.3298034667969 34.52084732055664 332.3224487304688 34.53797912597656 332.3154602050781 C 34.55485534667969 332.30859375 34.57808685302734 332.2994689941406 34.59521484375 332.2933654785156 L 54.13106536865234 325.2986450195312 C 54.69358825683594 325.0303649902344 56.85756683349609 323.8338928222656 56.02496719360352 321.6588439941406 C 55.52323532104492 320.5033264160156 54.63180541992188 320.1344909667969 53.69787216186523 320.1344909667969 C 53.13444137573242 320.1344909667969 52.55540084838867 320.2688293457031 52.03751754760742 320.4457397460938 L 42.5079460144043 323.085693359375 C 42.4854736328125 323.1884765625 42.45958709716797 323.2912902832031 42.43039703369141 323.3941040039062 C 42.06435394287109 324.6817016601562 41.21880722045898 325.7496337890625 40.04949569702148 326.4010925292969 C 39.29329681396484 326.8224792480469 38.46006774902344 327.037109375 37.61756896972656 327.037109375 C 37.15735626220703 327.037109375 36.69434356689453 326.97314453125 36.23959732055664 326.8438110351562 C 36.2274055480957 326.8403930664062 36.21534729003906 326.836669921875 36.20329666137695 326.8328857421875 L 24.81231689453125 323.22314453125 C 24.14407730102539 323.0112915039062 23.77397537231445 322.2980346679688 23.98580551147461 321.6297607421875 C 24.15710067749023 321.0890808105469 24.65653610229492 320.7435913085938 25.1951789855957 320.7435913085938 C 25.32223129272461 320.7435913085938 25.45155715942383 320.7628479003906 25.57916641235352 320.8032836914062 L 36.95034790039062 324.4067993164062 C 37.16939544677734 324.4674072265625 37.39215850830078 324.4974060058594 37.61363983154297 324.4974060058594 Z M 7.546306610107422 330.6777038574219 L 7.546306610107422 317.21435546875 L 2.538406372070312 317.21435546875 L 2.538406372070312 330.6777038574219 L 7.546306610107422 330.6777038574219 Z M 12.35443496704102 328.3126220703125 L 12.35443496704102 317.21435546875 L 10.084716796875 317.21435546875 L 10.084716796875 328.3126220703125 L 12.35443496704102 328.3126220703125 Z" stroke="none" fill="#1f1f1f"/>
          </g>
        </g>
      </g>
      <g id="Group_314" data-name="Group 314" transform="translate(43.566 16.179)">
        <g id="Group_313" data-name="Group 313" transform="translate(0 0)">
          <g id="Path_290" data-name="Path 290" transform="translate(-339.25 -123.498)" fill="none">
            <path d="M340.758,124.11a.741.741,0,0,0-.044-.143.751.751,0,0,0-.28-.341.77.77,0,0,0-.131-.07.758.758,0,0,0-.44-.043.715.715,0,0,0-.142.043.75.75,0,0,0-.132.07.739.739,0,0,0-.21.21.773.773,0,0,0-.07.131.736.736,0,0,0-.043.143.731.731,0,0,0,0,.3.714.714,0,0,0,.043.142.753.753,0,0,0,.07.132.739.739,0,0,0,.21.21.751.751,0,0,0,.132.07.77.77,0,0,0,.142.043.75.75,0,0,0,.148.015.763.763,0,0,0,.149-.015.807.807,0,0,0,.142-.043.771.771,0,0,0,.131-.07.74.74,0,0,0,.21-.21.707.707,0,0,0,.07-.132.718.718,0,0,0,.044-.142.771.771,0,0,0,0-.3Z" stroke="none"/>
            <path d="M 340.0116271972656 124.0980072021484 C 340.0014343261719 124.0980072021484 339.9912719726562 124.0990142822266 339.9813842773438 124.1010055541992 L 339.9774169921875 124.101806640625 L 339.9734802246094 124.1025466918945 C 339.973388671875 124.1025619506836 339.9656982421875 124.1040420532227 339.9480285644531 124.1114044189453 C 339.9389038085938 124.1151428222656 339.9300842285156 124.1198425292969 339.9217834472656 124.1253814697266 L 339.9194946289062 124.1269073486328 L 339.9171752929688 124.1284027099609 C 339.9127502441406 124.1313247680664 339.9056396484375 124.1365737915039 339.8973388671875 124.1448669433594 C 339.8888854980469 124.1533355712891 339.8835754394531 124.1604919433594 339.8780822753906 124.1688842773438 C 339.8720397949219 124.1779251098633 339.8666687011719 124.1879806518555 339.86376953125 124.1949157714844 C 339.8566284179688 124.2123641967773 339.8550109863281 124.2207107543945 339.85498046875 124.2208023071289 L 339.8541564941406 124.2253112792969 L 339.8532409667969 124.2298126220703 C 339.8504333496094 124.2436676025391 339.8500061035156 124.2539672851562 339.8500061035156 124.2588653564453 C 339.8500061035156 124.2637710571289 339.8504333496094 124.2740707397461 339.8532409667969 124.287971496582 L 339.8541564941406 124.2925643920898 L 339.85498046875 124.296875 C 339.85498046875 124.2969436645508 339.8564453125 124.3044128417969 339.8638305664062 124.3222122192383 C 339.8675537109375 124.3312759399414 339.8723449707031 124.3402557373047 339.880615234375 124.3527221679688 C 339.8835754394531 124.3572311401367 339.8888854980469 124.3644027709961 339.8971557617188 124.372673034668 C 339.9056396484375 124.3811569213867 339.9127502441406 124.3864059448242 339.9171752929688 124.3893203735352 L 339.9194946289062 124.3908233642578 L 339.9217834472656 124.3923416137695 C 339.9300842285156 124.3978805541992 339.9389038085938 124.402587890625 339.951171875 124.4076232910156 C 339.960205078125 124.4113922119141 339.970947265625 124.4145812988281 339.9822082519531 124.4168853759766 C 339.9960632324219 124.4196929931641 340.00634765625 124.4201126098633 340.01123046875 124.4201126098633 C 340.0162963867188 124.4201126098633 340.0271606445312 124.4196548461914 340.0392150878906 124.4172439575195 C 340.051513671875 124.4147109985352 340.0639953613281 124.4109268188477 340.0721130371094 124.407600402832 C 340.0821228027344 124.403434753418 340.092041015625 124.3981475830078 340.1007995605469 124.3923034667969 L 340.1029968261719 124.3908233642578 L 340.1052551269531 124.3893508911133 C 340.1096801757812 124.3864517211914 340.1167602539062 124.381233215332 340.1250610351562 124.3729248046875 C 340.1335754394531 124.3644027709961 340.1388854980469 124.3572311401367 340.141845703125 124.3527221679688 L 340.1452941894531 124.3474578857422 L 340.1488342285156 124.3422546386719 C 340.1492614746094 124.3416519165039 340.1530151367188 124.3359909057617 340.158935546875 124.3216018676758 L 340.1611022949219 124.3163223266602 L 340.1633605957031 124.3110961914062 C 340.1644592285156 124.3085556030273 340.1673278808594 124.3011779785156 340.1699829101562 124.2880935668945 C 340.1707458496094 124.2844314575195 340.1724548339844 124.2742614746094 340.1724548339844 124.2588653564453 C 340.1724548339844 124.2434616088867 340.1707458496094 124.2333374023438 340.1701049804688 124.2301177978516 C 340.1679077148438 124.2193832397461 340.1651611328125 124.2101364135742 340.1602783203125 124.1985931396484 C 340.153564453125 124.1825408935547 340.1493530273438 124.1762008666992 340.1488952636719 124.175537109375 L 340.1452941894531 124.1703033447266 L 340.141845703125 124.1650009155273 C 340.1388854980469 124.1604919433594 340.1335754394531 124.1533355712891 340.1251220703125 124.1448669433594 C 340.1167602539062 124.1364974975586 340.1096801757812 124.1312713623047 340.1052551269531 124.1283721923828 L 340.1029968261719 124.1269073486328 L 340.1007995605469 124.1254272460938 C 340.092041015625 124.1195831298828 340.0821228027344 124.1142959594727 340.0751953125 124.1113967895508 C 340.0571899414062 124.1040267944336 340.0481567382812 124.1022415161133 340.0480651855469 124.1022262573242 L 340.0449523925781 124.1016311645508 L 340.0418090820312 124.1010055541992 C 340.0319519042969 124.0990142822266 340.0217895507812 124.0980072021484 340.0116271972656 124.0980072021484 M 340.0116271972656 123.4980010986328 C 340.0614929199219 123.4980010986328 340.1113586425781 123.5029525756836 340.1604309082031 123.5128479003906 C 340.2083740234375 123.5219879150391 340.25634765625 123.5372009277344 340.3027954101562 123.5562438964844 C 340.3484802246094 123.5752716064453 340.3926391601562 123.5988616943359 340.4337158203125 123.6262664794922 C 340.4756164550781 123.6536712646484 340.5144348144531 123.6856460571289 340.5494384765625 123.7206649780273 C 340.5844421386719 123.7556762695312 340.6164245605469 123.7945022583008 340.6438293457031 123.8363723754883 C 340.6719970703125 123.8774871826172 340.69482421875 123.921630859375 340.7138977050781 123.9673004150391 C 340.7337036132812 124.0137405395508 340.7481079101562 124.0616912841797 340.7580261230469 124.1104278564453 C 340.7679138183594 124.1591339111328 340.7724609375 124.2093811035156 340.7724609375 124.2588653564453 C 340.7724609375 124.3083419799805 340.7679138183594 124.3585815429688 340.7580261230469 124.4073104858398 C 340.7481079101562 124.4560165405273 340.7337036132812 124.5039749145508 340.7138977050781 124.5496673583984 C 340.69482421875 124.5960922241211 340.6719970703125 124.6402359008789 340.6438293457031 124.6813507080078 C 340.6164245605469 124.7232208251953 340.5844421386719 124.7620468139648 340.5494384765625 124.7970657348633 C 340.5144348144531 124.8320846557617 340.4756164550781 124.8640518188477 340.4337158203125 124.8914642333984 C 340.3926391601562 124.9188613891602 340.3484802246094 124.9424514770508 340.3027954101562 124.9614868164062 C 340.25634765625 124.9805145263672 340.2083740234375 124.994987487793 340.1604309082031 125.0048751831055 C 340.1109619140625 125.0147705078125 340.0607299804688 125.0201110839844 340.01123046875 125.0201110839844 C 339.9617614746094 125.0201110839844 339.9115295410156 125.0147705078125 339.86279296875 125.0048751831055 C 339.8140869140625 124.994987487793 339.76611328125 124.9805145263672 339.7204284667969 124.9614868164062 C 339.6740112304688 124.9424514770508 339.6298522949219 124.9188613891602 339.5887756347656 124.8914642333984 C 339.546875 124.8640518188477 339.508056640625 124.8320846557617 339.4730224609375 124.7970657348633 C 339.4380187988281 124.7620468139648 339.4060363769531 124.7232208251953 339.3786315917969 124.6813507080078 C 339.3512573242188 124.6402359008789 339.32763671875 124.5960922241211 339.3086242675781 124.5496673583984 C 339.2895812988281 124.5039749145508 339.2743530273438 124.4560165405273 339.2652282714844 124.4073104858398 C 339.2553405761719 124.3585815429688 339.25 124.3083419799805 339.25 124.2588653564453 C 339.25 124.2093811035156 339.2553405761719 124.1591339111328 339.2652282714844 124.1104278564453 C 339.2743530273438 124.0616912841797 339.2895812988281 124.0137405395508 339.3086242675781 123.9673004150391 C 339.32763671875 123.921630859375 339.3512573242188 123.8774871826172 339.3786315917969 123.8363723754883 C 339.4060363769531 123.7945022583008 339.4380187988281 123.7556762695312 339.4730224609375 123.7206649780273 C 339.508056640625 123.6856460571289 339.546875 123.6536712646484 339.5887756347656 123.6262664794922 C 339.6298522949219 123.5988616943359 339.6740112304688 123.5752716064453 339.7204284667969 123.5562438964844 C 339.76611328125 123.5372009277344 339.8140869140625 123.5219879150391 339.86279296875 123.5128479003906 C 339.9118957519531 123.5029525756836 339.9617614746094 123.4980010986328 340.0116271972656 123.4980010986328 Z" stroke="none" fill="#1f1f1f"/>
          </g>
        </g>
      </g>
      <g id="Group_316" data-name="Group 316" transform="translate(3.768 0)">
        <g id="Group_315" data-name="Group 315">
          <g id="Path_291" data-name="Path 291" transform="translate(-29.691 -0.023)" fill="none">
            <path d="M89.636,4.322H82.09a1.269,1.269,0,0,0-1.269,1.269v1.1H77.282a1.269,1.269,0,0,0-1.269,1.269v.365a9,9,0,0,1-4.636-1.664,76.8,76.8,0,0,0-7.625-3.893L63.7,2.741a10.8,10.8,0,0,0-8.288.13L50.3,4.7,46,.395a1.269,1.269,0,0,0-1.795,0L30.067,14.528a1.259,1.259,0,0,0,0,1.8L54.219,40.475a1.371,1.371,0,0,0,1.8,0l12.9-12.9c.335.029.684.045,1.044.045,3.316,0,6.249-2.275,7.927-4.754H89.636a1.269,1.269,0,0,0,1.269-1.269v-16A1.269,1.269,0,0,0,89.636,4.322ZM45.1,3.087,47.991,5.98a5.533,5.533,0,0,1-5.786,0ZM35.652,18.319,32.76,15.426l2.893-2.893a5.534,5.534,0,0,1,0,5.786ZM55.116,37.782,52.224,34.89a5.526,5.526,0,0,1,5.784,0Zm4.721-4.721a8.066,8.066,0,0,0-9.442,0L37.481,20.147a8.066,8.066,0,0,0,0-9.443l2.9-2.9a8.066,8.066,0,0,0,9.443,0l2.745,2.745a5.031,5.031,0,0,0-3.777,2.767,7.234,7.234,0,1,0,8.317,8.955l4.285,1.454a8.1,8.1,0,0,0,1.344,6.433ZM52.12,20.584l.034.012,2.538.861a4.7,4.7,0,1,1-6.375-5.364A5.619,5.619,0,0,0,52.12,20.584Zm12.444,7.751a5.551,5.551,0,0,1-.811-2.639,9.869,9.869,0,0,0,2.238,1.212Zm11.448-7.247c-1.2,1.972-3.536,3.991-6.051,3.991a9.238,9.238,0,0,1-1.324-.093h0a7.27,7.27,0,0,1-4.7-2.573c-.026-.038-.136-.182-.153-.206a1.265,1.265,0,0,0-.7-.582L52.988,18.2a2.848,2.848,0,0,1-2.071-3.359v-.006a2.473,2.473,0,0,1,3.037-1.7l11.371,3.6a1.269,1.269,0,0,0,.767-2.42l-9.044-2.866-.079-.079,0,0L52.286,6.685,56.31,5.244l.044-.017.013-.005.051-.022a8.226,8.226,0,0,1,6.321-.108,73.521,73.521,0,0,1,7.369,3.764,11.422,11.422,0,0,0,5.9,2.008Zm4.808-.763h-2.27V9.225h2.27Zm7.546,0H83.359V6.86h5.008Z" stroke="none"/>
            <path d="M 45.0982666015625 0.5232505798339844 C 44.89279174804688 0.5232505798339844 44.69963836669922 0.6032524108886719 44.55436706542969 0.7485313415527344 L 30.42080688476562 14.88196182250977 C 30.15342712402344 15.1494026184082 30.08030700683594 15.62948226928711 30.42075347900391 15.96993255615234 L 54.57213592529297 40.12131118774414 C 54.66299438476562 40.21219253540039 54.87879180908203 40.31001281738281 55.13790893554688 40.31001281738281 C 55.26237487792969 40.31001281738281 55.4957275390625 40.28548049926758 55.66000366210938 40.12124252319336 L 68.56338500976562 27.21800231933594 L 68.72798156738281 27.05340194702148 L 68.95991516113281 27.07341194152832 C 69.288330078125 27.10174179077148 69.62525939941406 27.11611175537109 69.96135711669922 27.11611175537109 C 73.23804473876953 27.11611175537109 75.99078369140625 24.77389144897461 77.47434997558594 22.58193206787109 L 77.62307739257812 22.3621826171875 L 77.888427734375 22.3621826171875 L 89.63643646240234 22.3621826171875 C 90.06057739257812 22.3621826171875 90.4056396484375 22.01711273193359 90.4056396484375 21.59297180175781 L 90.4056396484375 5.590961456298828 C 90.4056396484375 5.166820526123047 90.06057739257812 4.821762084960938 89.63643646240234 4.821762084960938 L 82.09012603759766 4.821762084960938 C 81.66598510742188 4.821762084960938 81.3209228515625 5.166820526123047 81.3209228515625 5.590961456298828 L 81.3209228515625 6.686790466308594 L 81.3209228515625 7.186790466308594 L 80.8209228515625 7.186790466308594 L 77.28199768066406 7.186790466308594 C 76.85785675048828 7.186790466308594 76.51279449462891 7.5318603515625 76.51279449462891 7.956001281738281 L 76.51279449462891 8.321281433105469 L 76.51279449462891 8.866832733154297 L 75.96930694580078 8.819393157958984 C 73.79576110839844 8.629631042480469 73.06908416748047 8.210582733154297 71.12698364257812 7.090621948242188 C 69.67877197265625 6.2554931640625 67.49021911621094 4.993431091308594 63.54430389404297 3.219310760498047 C 63.53447723388672 3.214832305908203 63.52454376220703 3.210731506347656 63.51271438598633 3.206123352050781 C 62.8150749206543 2.931610107421875 61.38066482543945 2.471103668212891 59.61232376098633 2.471103668212891 C 58.21208572387695 2.471103668212891 56.86698532104492 2.758930206298828 55.61440277099609 3.326591491699219 L 55.59579467773438 3.335033416748047 L 55.57656860351562 3.341922760009766 L 50.46928405761719 5.17059326171875 L 50.17112731933594 5.277339935302734 L 49.94718170166016 5.053413391113281 L 45.64215850830078 0.7485198974609375 C 45.49689483642578 0.6032524108886719 45.30373382568359 0.5232505798339844 45.0982666015625 0.5232505798339844 M 45.09814453125 7.296451568603516 C 43.97600555419922 7.296451568603516 42.88474273681641 6.988300323486328 41.94233703613281 6.405323028564453 L 41.4052734375 6.073093414306641 L 41.85182189941406 5.626552581787109 L 44.74459838867188 2.733779907226562 L 45.09814453125 2.380222320556641 L 45.45169830322266 2.733779907226562 L 48.34446716308594 5.626552581787109 L 48.79106903076172 6.073143005371094 L 48.25390625 6.405353546142578 C 47.31128692626953 6.988311767578125 46.22004699707031 7.296451568603516 45.09814453125 7.296451568603516 M 69.96134948730469 25.57744216918945 C 69.48619079589844 25.57744216918945 69.01662445068359 25.54436111450195 68.56241607666016 25.47864151000977 L 68.55873870849609 25.47807693481445 C 65.65586853027344 25.05588531494141 64.08079528808594 23.40880584716797 63.53822708129883 22.72015190124512 L 63.52669525146484 22.70511245727539 L 63.51803588867188 22.69264221191406 C 63.50382614135742 22.67216110229492 63.46916580200195 22.62629127502441 63.43874359130859 22.58573150634766 C 63.40448379516602 22.54005241394043 63.3742561340332 22.49913215637207 63.36554718017578 22.48637199401855 L 63.35296630859375 22.46795272827148 L 63.34207534790039 22.4484920501709 C 63.24921417236328 22.28253173828125 63.09869384765625 22.15740203857422 62.91826629638672 22.09614181518555 L 52.82706451416016 18.67119216918945 L 52.81952667236328 18.66863250732422 L 52.81207275390625 18.66584205627441 C 50.94902801513672 17.96660232543945 49.97165679931641 16.33684158325195 50.4349365234375 14.70381164550781 L 50.43499755859375 14.70360374450684 L 50.43525695800781 14.70258140563965 L 50.43727874755859 14.69553184509277 C 50.65533447265625 13.93405151367188 51.15642547607422 13.30242156982422 51.84819793701172 12.91704177856445 C 52.29085540771484 12.67036247253418 52.78994750976562 12.53997230529785 53.29150390625 12.53996086120605 C 53.55953216552734 12.53996086120605 53.8277587890625 12.57664108276367 54.08870697021484 12.64897155761719 L 54.09749603271484 12.65140151977539 L 54.10619354248047 12.65416145324707 L 65.47757720947266 16.25762176513672 C 65.5535888671875 16.28174209594727 65.63191223144531 16.29397201538086 65.71037292480469 16.29397201538086 C 66.04679870605469 16.29397201538086 66.34123229980469 16.07806205749512 66.44304656982422 15.75669097900391 C 66.57114410400391 15.35236167907715 66.34642028808594 14.91913223266602 65.94215393066406 14.79098129272461 L 56.89844512939453 11.92511177062988 L 56.78219604492188 11.88827133178711 L 56.69595718383789 11.80205154418945 L 56.62755966186523 11.7336540222168 L 56.62748718261719 11.73359107971191 L 56.61457443237305 11.72067260742188 L 51.93247222900391 7.038570404052734 L 51.37429809570312 6.480400085449219 L 52.11746215820312 6.214290618896484 L 56.13919830322266 4.774200439453125 C 56.14754486083984 4.771160125732422 56.15786743164062 4.767410278320312 56.16525268554688 4.764423370361328 L 56.17603302001953 4.760124206542969 L 56.17615509033203 4.76007080078125 L 56.18008422851562 4.758480072021484 C 56.19019317626953 4.754390716552734 56.20016479492188 4.750072479248047 56.20988464355469 4.745613098144531 C 57.27519607543945 4.2559814453125 58.42318725585938 4.007720947265625 59.62194442749023 4.007720947265625 C 61.10821533203125 4.007720947265625 62.32650375366211 4.39520263671875 62.92042541503906 4.626171112060547 L 62.93252563476562 4.630870819091797 L 62.94436645507812 4.636199951171875 C 66.79867553710938 6.370460510253906 68.85609436035156 7.556842803955078 70.35837554931641 8.423110961914062 C 72.40492248535156 9.603351593017578 73.3389892578125 10.14202117919922 76.05381774902344 10.3662109375 L 76.51266479492188 10.40410232543945 L 76.51266479492188 10.86451148986816 L 76.51266479492188 21.08694267272949 L 76.51266479492188 21.22740173339844 L 76.43951416015625 21.34732246398926 C 75.76305389404297 22.45629119873047 74.81513977050781 23.4793815612793 73.77040100097656 24.2281322479248 C 72.53871154785156 25.11086273193359 71.22156524658203 25.57744216918945 69.96134948730469 25.57744216918945 M 88.86723327636719 20.82351112365723 L 88.36723327636719 20.82351112365723 L 83.35932922363281 20.82351112365723 L 82.85932922363281 20.82351112365723 L 82.85932922363281 20.32351112365723 L 82.85932922363281 6.860172271728516 L 82.85932922363281 6.360172271728516 L 83.35932922363281 6.360172271728516 L 88.36723327636719 6.360172271728516 L 88.86723327636719 6.360172271728516 L 88.86723327636719 6.860172271728516 L 88.86723327636719 20.32351112365723 L 88.86723327636719 20.82351112365723 M 50.10718536376953 27.1663703918457 C 51.90838623046875 27.1663703918457 53.59968566894531 26.46703147888184 54.86954498291016 25.19717216491699 C 55.71513366699219 24.35160255432129 56.32108306884766 23.29772186279297 56.62190628051758 22.14947128295898 L 56.7579460144043 21.63019180297852 L 57.26627731323242 21.80271148681641 L 61.55160522460938 23.2570915222168 L 61.97371673583984 23.40034103393555 L 61.87965393066406 23.83606147766113 C 61.42694473266602 25.93325042724609 61.88662719726562 28.13273239135742 63.14082717895508 29.87054061889648 L 63.38993453979492 30.21571159362793 L 63.08893585205078 30.51670074462891 L 60.19045639038086 33.41518020629883 L 59.88872528076172 33.71692276000977 L 59.54331588745117 33.46636199951172 C 58.25309371948242 32.53043365478516 56.72218704223633 32.03572082519531 55.11609649658203 32.03572082519531 C 53.51000213623047 32.03572082519531 51.97909545898438 32.53043365478516 50.68888854980469 33.46636199951172 L 50.34347534179688 33.71692276000977 L 50.04173278808594 33.41518020629883 L 37.12744903564453 20.50077247619629 L 36.82537841796875 20.19870185852051 L 37.07660675048828 19.85318183898926 C 38.01253509521484 18.56596183776855 38.50723266601562 17.03503227233887 38.50723266601562 15.42590141296387 C 38.50723266601562 13.81660270690918 38.01253509521484 12.28568267822266 37.07662200927734 10.9986515045166 L 36.82535552978516 10.65312194824219 L 37.12745666503906 10.35103225708008 L 40.02340698242188 7.455211639404297 L 40.32548522949219 7.153152465820312 L 40.67099761962891 7.404373168945312 C 41.95820617675781 8.340290069580078 43.4891357421875 8.834991455078125 45.0982666015625 8.834991455078125 C 46.70740509033203 8.834991455078125 48.23833465576172 8.340290069580078 49.52553558349609 7.404373168945312 L 49.87105560302734 7.153141021728516 L 50.17312622070312 7.455223083496094 L 52.91829681396484 10.20038223266602 L 53.62129211425781 10.90337181091309 L 52.63777923583984 11.0485725402832 C 52.09954833984375 11.12803268432617 51.58200836181641 11.30465126037598 51.09950256347656 11.57352256774902 C 50.28426361083984 12.02778244018555 49.640625 12.70743179321289 49.23816680908203 13.53900146484375 L 49.12794494628906 13.76675224304199 L 48.87915802001953 13.81282234191895 C 47.53480529785156 14.06178092956543 46.31265258789062 14.70488166809082 45.34483337402344 15.67258262634277 C 42.71898651123047 18.29854202270508 42.71904754638672 22.57126235961914 45.34495544433594 25.19718170166016 C 46.61480712890625 26.46703147888184 48.30606842041016 27.1663703918457 50.10718536376953 27.1663703918457 M 81.3209228515625 20.82351112365723 L 80.8209228515625 20.82351112365723 L 78.55120849609375 20.82351112365723 L 78.05120849609375 20.82351112365723 L 78.05120849609375 20.32351112365723 L 78.05120849609375 9.225202560424805 L 78.05120849609375 8.725200653076172 L 78.55120849609375 8.725200653076172 L 80.8209228515625 8.725200653076172 L 81.3209228515625 8.725200653076172 L 81.3209228515625 9.225202560424805 L 81.3209228515625 20.32351112365723 L 81.3209228515625 20.82351112365723 M 35.74547576904297 19.11894226074219 L 35.29890441894531 18.6723518371582 L 32.40613555908203 15.77945137023926 L 32.05259704589844 15.4258918762207 L 32.40614318847656 15.07235145568848 L 35.29891204833984 12.1795825958252 L 35.74550628662109 11.73298263549805 L 36.07771301269531 12.2701416015625 C 36.66067504882812 13.21276092529297 36.96881866455078 14.30400085449219 36.96881866455078 15.42590141296387 C 36.96881866455078 16.54798126220703 36.66067504882812 17.6392822265625 36.07769775390625 18.58181190490723 L 35.74547576904297 19.11894226074219 M 50.10708618164062 25.62913131713867 C 48.71762847900391 25.62913131713867 47.41276550292969 25.08939170837402 46.43289184570312 24.1093921661377 C 45.45279693603516 23.12935256958008 44.91302490234375 21.82443237304688 44.91302490234375 20.43499183654785 C 44.91302490234375 19.04556274414062 45.45278167724609 17.7406120300293 46.43278503417969 16.76062202453613 C 46.91988372802734 16.27323150634766 47.48983764648438 15.8929615020752 48.12677764892578 15.63036155700684 L 48.73526763916016 15.37950134277344 L 48.81378173828125 16.03297233581543 C 49.03025817871094 17.83442115783691 50.36393737792969 19.3985424041748 52.29160308837891 20.11392211914062 C 52.29896545410156 20.11660194396973 52.30631256103516 20.11932182312012 52.31472778320312 20.12216186523438 L 54.85263824462891 20.98357200622559 L 55.27705383300781 21.12762260437012 L 55.18009185791016 21.5652027130127 C 54.96677398681641 22.52798271179199 54.48324584960938 23.4077320098877 53.78171539306641 24.10940170288086 C 52.80154418945312 25.08941268920898 51.49654388427734 25.62913131713867 50.10708618164062 25.62913131713867 M 64.46956634521484 29.13596153259277 L 64.13804626464844 28.59574127197266 C 63.60753631591797 27.73128128051758 63.30178451538086 26.73628234863281 63.25383377075195 25.71830177307129 L 63.20500564575195 24.68141174316406 L 64.04622650146484 25.28958129882812 C 64.69850158691406 25.76115226745605 65.41351318359375 26.14826202392578 66.17137145996094 26.44016265869141 L 66.88897705078125 26.716552734375 L 66.34521484375 27.26030158996582 L 64.91773986816406 28.68777084350586 L 64.46956634521484 29.13596153259277 M 55.11610412597656 38.48942184448242 L 54.76254272460938 38.13586044311523 L 51.87028503417969 35.24360275268555 L 51.42324829101562 34.79656982421875 L 51.96125793457031 34.46455383300781 C 52.90665435791016 33.88112258911133 53.99753570556641 33.5727424621582 55.11598205566406 33.5727424621582 C 56.23443603515625 33.5727424621582 57.32535552978516 33.88112258911133 58.27080535888672 34.46454238891602 L 58.8088264465332 34.79655075073242 L 58.36179733276367 35.24360275268555 L 55.46965789794922 38.13586044311523 L 55.11610412597656 38.48942184448242 M 45.0982666015625 0.02325057983398438 C 45.42308807373047 0.02325057983398438 45.74790191650391 0.14715576171875 45.99571228027344 0.3949699401855469 L 50.30073547363281 4.699851989746094 L 55.40801239013672 2.871181488037109 C 56.89123916625977 2.198989868164062 58.33545303344727 1.971103668212891 59.61232376098633 1.971103668212891 C 61.44626617431641 1.971103668212891 62.93475341796875 2.441390991210938 63.69579696655273 2.740840911865234 C 63.71470642089844 2.748203277587891 63.73324584960938 2.755943298339844 63.75163650512695 2.764320373535156 C 67.717529296875 4.547420501708984 69.91972351074219 5.8172607421875 71.37677001953125 6.657482147216797 C 73.27130126953125 7.750011444091797 73.9498291015625 8.141181945800781 76.01279449462891 8.321281433105469 L 76.01279449462891 7.956001281738281 C 76.01279449462891 7.255020141601562 76.58101654052734 6.686790466308594 77.28199768066406 6.686790466308594 L 80.8209228515625 6.686790466308594 L 80.8209228515625 5.590961456298828 C 80.8209228515625 4.889980316162109 81.38913726806641 4.321762084960938 82.09012603759766 4.321762084960938 L 89.63643646240234 4.321762084960938 C 90.33741760253906 4.321762084960938 90.9056396484375 4.889980316162109 90.9056396484375 5.590961456298828 L 90.9056396484375 21.59297180175781 C 90.9056396484375 22.2939510345459 90.33741760253906 22.8621826171875 89.63643646240234 22.8621826171875 L 77.888427734375 22.8621826171875 C 76.21041870117188 25.3414421081543 73.27727508544922 27.61611175537109 69.96135711669922 27.61611175537109 C 69.60051727294922 27.61611175537109 69.25238037109375 27.60050201416016 68.91693115234375 27.57156181335449 L 56.01355743408203 40.47480010986328 C 55.77806854248047 40.71023178100586 55.45484924316406 40.81001663208008 55.13790893554688 40.81001663208008 C 54.77702331542969 40.81001663208008 54.42427825927734 40.68062973022461 54.21852874755859 40.47480010986328 L 30.06720733642578 16.32348251342773 C 29.5223388671875 15.77862167358398 29.61003875732422 14.98574256896973 30.06720733642578 14.52845191955566 L 44.20081329345703 0.3949699401855469 C 44.44863128662109 0.14715576171875 44.77345275878906 0.02325057983398438 45.0982666015625 0.02325057983398438 Z M 45.09814453125 6.796451568603516 C 46.13686370849609 6.796451568603516 47.13102722167969 6.51190185546875 47.99091339111328 5.9801025390625 L 45.09814453125 3.087333679199219 L 42.20537567138672 5.9801025390625 C 43.06525421142578 6.512031555175781 44.05929565429688 6.796451568603516 45.09814453125 6.796451568603516 Z M 69.96134948730469 25.07744216918945 C 72.47666931152344 25.07744216918945 74.80971527099609 23.05903244018555 76.01266479492188 21.08694267272949 L 76.01266479492188 10.86451148986816 C 73.186279296875 10.63111114501953 72.18550109863281 10.05400085449219 70.10858154296875 8.856250762939453 C 68.61473083496094 7.994842529296875 66.57004547119141 6.815872192382812 62.73920440673828 5.092170715332031 C 62.14448547363281 4.860893249511719 61.00871658325195 4.507720947265625 59.62194442749023 4.507720947265625 C 58.64491271972656 4.507720947265625 57.54322052001953 4.683086395263672 56.41868591308594 5.199920654296875 C 56.40180206298828 5.207672119140625 56.38479614257812 5.215030670166016 56.36753845214844 5.222011566162109 C 56.36423492431641 5.223411560058594 56.35763549804688 5.225940704345703 56.35420227050781 5.227340698242188 C 56.34075164794922 5.232803344726562 56.32400512695312 5.239021301269531 56.3104248046875 5.243972778320312 L 52.28602600097656 6.685020446777344 L 56.96812438964844 11.36712265014648 C 56.9690055847168 11.36788177490234 56.96977615356445 11.36876106262207 56.97053527832031 11.36953163146973 L 57.04948425292969 11.44847106933594 L 66.09320068359375 14.3143424987793 C 66.76143646240234 14.52617263793945 67.13140869140625 15.23946189880371 66.91969299316406 15.90770149230957 C 66.7484130859375 16.44835472106934 66.2489013671875 16.79396629333496 65.71038055419922 16.79396629333496 C 65.58330535888672 16.79396629333496 65.45394897460938 16.77469444274902 65.32633972167969 16.73420143127441 L 53.95515441894531 13.13080215454102 C 53.73594665527344 13.07004165649414 53.51308441162109 13.03996276855469 53.29151153564453 13.03996658325195 C 52.87575531005859 13.03997230529785 52.46466064453125 13.14590072631836 52.09158325195312 13.35380172729492 C 51.51587677001953 13.67453193664551 51.09931182861328 14.19985198974609 50.91795349121094 14.83318138122559 C 50.91769409179688 14.83420181274414 50.91744232177734 14.83534240722656 50.91706848144531 14.83636093139648 C 50.91680908203125 14.83725166320801 50.91655731201172 14.83814239501953 50.91630554199219 14.83903121948242 C 50.52614593505859 16.21433258056641 51.37740325927734 17.59332084655762 52.98776245117188 18.19772148132324 L 63.07896423339844 21.62267112731934 C 63.38813400268555 21.72763252258301 63.63056564331055 21.94010162353516 63.77841567993164 22.2043514251709 C 63.79479598999023 22.22833251953125 63.90508651733398 22.37264251708984 63.93097686767578 22.41072273254395 C 64.41695404052734 23.02755165100098 65.89139556884766 24.58537101745605 68.63236999511719 24.9835205078125 C 68.63401794433594 24.9837818145752 68.63566589355469 24.98403167724609 68.63731384277344 24.98428153991699 C 69.0496826171875 25.04394149780273 69.49073791503906 25.07744216918945 69.96134948730469 25.07744216918945 Z M 88.36723327636719 20.32351112365723 L 88.36723327636719 6.860172271728516 L 83.35932922363281 6.860172271728516 L 83.35932922363281 20.32351112365723 L 88.36723327636719 20.32351112365723 Z M 45.0982666015625 9.334991455078125 C 43.37734222412109 9.334991455078125 41.74008178710938 8.799892425537109 40.376953125 7.808773040771484 L 37.48100280761719 10.70459175109863 C 38.47225189208984 12.06771087646484 39.00723266601562 13.70499229431152 39.00723266601562 15.42590141296387 C 39.00723266601562 17.14669227600098 38.47212219238281 18.78409194946289 37.48100280761719 20.1472225189209 L 50.39529418945312 33.06163024902344 C 51.79763793945312 32.04436111450195 53.45687103271484 31.53572654724121 55.11610412597656 31.53572654724121 C 56.77532958984375 31.53572654724121 58.4345588684082 32.04436111450195 59.83690643310547 33.06163024902344 L 62.73538589477539 30.16315078735352 C 61.40260696411133 28.31646156311035 60.90849685668945 25.96538162231445 61.39091491699219 23.73056221008301 L 57.10558700561523 22.27618217468262 C 56.78358459472656 23.50528144836426 56.14073181152344 24.63310241699219 55.22309875488281 25.55073165893555 C 53.8126220703125 26.96120071411133 51.9598388671875 27.6663703918457 50.10718536376953 27.6663703918457 C 48.25440216064453 27.6663703918457 46.4017333984375 26.9610710144043 44.99140167236328 25.55073165893555 C 42.17046356201172 22.72979164123535 42.17046356201172 18.13997268676758 44.99127197265625 15.31903266906738 C 46.031005859375 14.27943229675293 47.35643768310547 13.58631134033203 48.78810882568359 13.32118225097656 C 49.23258209228516 12.40278244018555 49.94637298583984 11.6436710357666 50.85613250732422 11.13675117492676 C 51.39478302001953 10.83658218383789 51.97240447998047 10.64138221740723 52.56474304199219 10.55393218994141 L 49.81957244873047 7.808773040771484 C 48.45645904541016 8.799892425537109 46.81918334960938 9.334991455078125 45.0982666015625 9.334991455078125 Z M 80.8209228515625 20.32351112365723 L 80.8209228515625 9.225202560424805 L 78.55120849609375 9.225202560424805 L 78.55120849609375 20.32351112365723 L 80.8209228515625 20.32351112365723 Z M 35.6524658203125 18.31880187988281 C 36.18439483642578 17.45879173278809 36.46881866455078 16.46462249755859 36.46881866455078 15.42590141296387 C 36.46881866455078 14.38719177246094 36.18426513671875 13.39302253723145 35.6524658203125 12.53313255310059 L 32.75969696044922 15.42590141296387 L 35.6524658203125 18.31880187988281 Z M 50.10708618164062 25.12913131713867 C 51.30975341796875 25.12913131713867 52.51258087158203 24.67129707336426 53.42818450927734 23.75582122802734 C 54.06659698486328 23.11728096008301 54.50028228759766 22.32200241088867 54.69193267822266 21.4570426940918 L 52.15402221679688 20.59563255310059 C 52.14272308349609 20.59182167053223 52.13156890869141 20.58776092529297 52.12039184570312 20.58370208740234 C 49.95551300048828 19.78029251098633 48.55164337158203 18.04237174987793 48.31735229492188 16.09262084960938 C 47.74938201904297 16.3267822265625 47.22811889648438 16.67214202880859 46.78643798828125 17.11407089233398 C 44.95522308349609 18.94528198242188 44.95522308349609 21.92474174499512 46.78643798828125 23.75582122802734 C 47.70191192626953 24.67142677307129 48.9044189453125 25.12913131713867 50.10708618164062 25.12913131713867 Z M 63.7532844543457 25.69478225708008 C 63.79708480834961 26.62473297119141 64.07427978515625 27.53589248657227 64.56419372558594 28.33422088623047 L 65.99166870117188 26.90675163269043 C 65.10423278808594 26.5649528503418 64.36124420166016 26.13431167602539 63.7532844543457 25.69478225708008 Z M 55.11609649658203 37.78231048583984 L 58.00823593139648 34.89005279541016 C 57.1252555847168 34.34518051147461 56.12061309814453 34.07274627685547 55.11598968505859 34.07274627685547 C 54.11136627197266 34.07274627685547 53.10675811767578 34.34518051147461 52.22383880615234 34.89005279541016 L 55.11609649658203 37.78231048583984 Z" stroke="none" fill="#1f1f1f"/>
          </g>
        </g>
      </g>
    </g>
  </g>
</svg>
