<svg xmlns="http://www.w3.org/2000/svg" width="258.713" height="258.689" viewBox="0 0 258.713 258.689">
  <g id="Group_944" data-name="Group 944" transform="translate(-299.686 -3383.85)">
    <path id="Path_1781" data-name="Path 1781" d="M877.125,1390.1c5.639,8.2,27.5,51.543,83.582,41.487s97.792-37.86,106.758-54.241,17.325-64.389-11.325-81.7-87.567-14.41-116.037-14.292-77.454,17.83-76.255,43.636S871.485,1381.9,877.125,1390.1Z" transform="translate(-540.837 2156.105)" fill="#e5dbc5" opacity="0.5"/>
    <g id="payment-method" transform="translate(299.686 3383.85)">
      <g id="Path_288" data-name="Path 288" transform="translate(-73.554 -187.895)" fill="none">
        <path d="M158.77,386.3a3.175,3.175,0,0,0-.173-.572,3.092,3.092,0,0,0-.28-.523,2.958,2.958,0,0,0-.839-.839,3,3,0,0,0-.526-.28,2.864,2.864,0,0,0-.569-.173,2.993,2.993,0,0,0-1.186,0,2.953,2.953,0,0,0-.572.173,3.085,3.085,0,0,0-.523.28,3.04,3.04,0,0,0-1.119,1.362,2.949,2.949,0,0,0-.173.572,2.919,2.919,0,0,0,0,1.186,2.856,2.856,0,0,0,.173.569,2.8,2.8,0,0,0,.28.526,2.95,2.95,0,0,0,.839.839,3.066,3.066,0,0,0,.523.28,2.954,2.954,0,0,0,.572.173,2.925,2.925,0,0,0,1.186,0,2.864,2.864,0,0,0,.569-.173,3,3,0,0,0,.526-.28,2.952,2.952,0,0,0,.839-.839,2.991,2.991,0,0,0,.28-.526,3.071,3.071,0,0,0,.173-.569,2.922,2.922,0,0,0,0-1.186Z" stroke="none"/>
        <path d="M 155.7894897460938 383.8569641113281 C 155.5907135009766 383.8569641113281 155.3923187255859 383.8767395019531 155.1977233886719 383.9162902832031 C 155.0030822753906 383.9528503417969 154.8115539550781 384.0136413574219 154.6260375976562 384.0896301269531 C 154.4436340332031 384.1656188964844 154.2672424316406 384.2598571777344 154.1030578613281 384.3692932128906 C 153.9358520507812 384.4787292480469 153.7807312011719 384.6064758300781 153.6408386230469 384.7464294433594 C 153.5010070800781 384.8861999511719 153.373291015625 385.0412902832031 153.2638549804688 385.2085266113281 C 153.1513671875 385.3728332519531 153.0601196289062 385.5491638183594 152.984130859375 385.7314758300781 C 152.9081420898438 385.9170227050781 152.8472900390625 386.1086730957031 152.8108215332031 386.3033142089844 C 152.7712707519531 386.4979553222656 152.7499694824219 386.6985168457031 152.7499694824219 386.8961486816406 C 152.7499694824219 387.0937805175781 152.7712707519531 387.2944641113281 152.8108215332031 387.4891052246094 C 152.8472595214844 387.6837463378906 152.9081420898438 387.8751525878906 152.984130859375 388.0577087402344 C 153.0601196289062 388.2432556152344 153.1513671875 388.4195861816406 153.2638549804688 388.5836486816406 C 153.373291015625 388.7510681152344 153.5010070800781 388.9061584472656 153.6408386230469 389.0459289550781 C 153.7807312011719 389.1858215332031 153.9358520507812 389.3133850097656 154.1030578613281 389.4228820800781 C 154.2672424316406 389.5326232910156 154.4436340332031 389.6269226074219 154.6260375976562 389.7029113769531 C 154.8115539550781 389.7789001464844 155.0030822753906 389.8398132324219 155.1977233886719 389.8763732910156 C 155.3922729492188 389.9159851074219 155.5930480957031 389.9371032714844 155.7906188964844 389.9371032714844 C 155.9882507324219 389.9371032714844 156.18896484375 389.9159851074219 156.3835754394531 389.8763732910156 C 156.5781555175781 389.8398132324219 156.7697448730469 389.7789001464844 156.9522094726562 389.7029113769531 C 157.1376342773438 389.6269226074219 157.31396484375 389.5324401855469 157.4781799316406 389.4228820800781 C 157.6454467773438 389.3133850097656 157.8004760742188 389.1858215332031 157.9403686523438 389.0459289550781 C 158.0802917480469 388.9061584472656 158.2079772949219 388.7510681152344 158.3174133300781 388.5836486816406 C 158.4268798828125 388.4195861816406 158.5211791992188 388.2432556152344 158.59716796875 388.0577087402344 C 158.6731567382812 387.8751525878906 158.73095703125 387.6837463378906 158.7704467773438 387.4891052246094 C 158.8099975585938 387.2944641113281 158.8312377929688 387.0937805175781 158.8312377929688 386.8961486816406 C 158.8312377929688 386.6985168457031 158.8099975585938 386.4979553222656 158.7704467773438 386.3033142089844 C 158.73095703125 386.1086730957031 158.6731567382812 385.9170227050781 158.59716796875 385.7314758300781 C 158.5211791992188 385.5491638183594 158.4268798828125 385.3728332519531 158.3174133300781 385.2085266113281 C 158.2079772949219 385.0412902832031 158.0802917480469 384.8861999511719 157.9403686523438 384.7464294433594 C 157.8004760742188 384.6064758300781 157.6454467773438 384.4787292480469 157.4781799316406 384.3692932128906 C 157.31396484375 384.2598571777344 157.1376342773438 384.1656188964844 156.9522094726562 384.0896301269531 C 156.7697448730469 384.0136413574219 156.5781555175781 383.9528503417969 156.3835754394531 383.9162902832031 C 156.1874389648438 383.8767395019531 155.98828125 383.8569641113281 155.7894897460938 383.8569641113281 M 155.7894897460938 381.8569641113281 C 156.1168518066406 381.8569641113281 156.4456176757812 381.8893737792969 156.7669067382812 381.9533386230469 C 157.0814208984375 382.0134887695312 157.4004211425781 382.1102294921875 157.7154083251953 382.240966796875 C 158.0170745849609 382.3649597167969 158.3081665039062 382.5195922851562 158.5808563232422 382.7007141113281 C 158.8563537597656 382.8817138671875 159.1167144775391 383.09423828125 159.3548889160156 383.33251953125 C 159.5917358398438 383.569091796875 159.8042144775391 383.829345703125 159.9855041503906 384.1051330566406 C 160.1646270751953 384.3747253417969 160.3186187744141 384.6630249023438 160.4432525634766 384.9620971679688 L 160.4456176757812 384.9677734375 L 160.4479675292969 384.9735107421875 C 160.5708160400391 385.2734680175781 160.6658782958984 385.5870971679688 160.7305145263672 385.9056396484375 C 160.7973022460938 386.234375 160.8312377929688 386.5678100585938 160.8312377929688 386.8961486816406 C 160.8312377929688 387.2245483398438 160.7973022460938 387.5580444335938 160.7303924560547 387.8873596191406 C 160.6652374267578 388.2084350585938 160.5695953369141 388.5223999023438 160.4461822509766 388.8200378417969 C 160.3221282958984 389.1221313476562 160.1672821044922 389.4136047363281 159.9858245849609 389.6865844726562 C 159.8045654296875 389.9625549316406 159.5919494628906 390.2230224609375 159.353759765625 390.4609375 C 159.1167755126953 390.6979675292969 158.8563385009766 390.9104309082031 158.5804138183594 391.0917663574219 C 158.307373046875 391.273193359375 158.0164031982422 391.4278564453125 157.7153930664062 391.5515747070312 C 157.4007263183594 391.6821899414062 157.0824127197266 391.77880859375 156.7688751220703 391.8389282226562 C 156.4442901611328 391.9040832519531 156.115234375 391.9371032714844 155.7906188964844 391.9371032714844 C 155.4664916992188 391.9371032714844 155.1380004882812 391.9042053222656 154.8139801025391 391.8392639160156 C 154.5041046142578 391.7799377441406 154.1859436035156 391.6838989257812 153.8680267333984 391.5537109375 L 153.8624572753906 391.5514221191406 L 153.8568878173828 391.5491027832031 C 153.5573120117188 391.4242858886719 153.2691345214844 391.2702941894531 153.0001220703125 391.09130859375 C 152.7243194580078 390.9099426269531 152.4641265869141 390.6976318359375 152.2266235351562 390.4601440429688 C 151.9917144775391 390.225341796875 151.7815399169922 389.9684143066406 151.6019439697266 389.6964416503906 C 151.4221496582031 389.4313354492188 151.2652587890625 389.1368713378906 151.1354370117188 388.82080078125 C 151.004638671875 388.5056457519531 150.9080047607422 388.1870422363281 150.8480682373047 387.8734436035156 C 150.7829742431641 387.5484619140625 150.7499694824219 387.2197265625 150.7499694824219 386.8961486816406 C 150.7499694824219 386.57275390625 150.782958984375 386.2441711425781 150.8480072021484 385.9192810058594 C 150.9072875976562 385.6092224121094 151.0032501220703 385.2911376953125 151.1333312988281 384.9735107421875 L 151.1356811523438 384.9677429199219 L 151.1380767822266 384.9620056152344 C 151.2687225341797 384.6485900878906 151.4247283935547 384.3572692871094 151.6019134521484 384.0957641601562 C 151.7816162109375 383.8238220214844 151.9918212890625 383.5669250488281 152.2269287109375 383.3319091796875 C 152.4647521972656 383.093994140625 152.7255706787109 382.8811950683594 153.0016479492188 382.6998901367188 C 153.2704467773438 382.5214538574219 153.5581359863281 382.3678894042969 153.8568878173828 382.2434387207031 L 153.8624572753906 382.2411193847656 L 153.8680267333984 382.2388305664062 C 154.1855316162109 382.1087951660156 154.5036468505859 382.0128173828125 154.8138275146484 381.9534301757812 C 155.1337738037109 381.889404296875 155.4619598388672 381.8569641113281 155.7894897460938 381.8569641113281 Z" stroke="none" fill="#1f1f1f"/>
      </g>
      <g id="Path_289" data-name="Path 289" transform="translate(0 -153.331)" fill="none">
        <path d="M232.434,352.9c-.02-.051-.04-.1-.061-.15-4.651-10.883-15.558-14.9-28.466-10.5l-35.2,9.735c-2.035-6.164-7.112-11.408-14.29-14.073l-.134-.047-38.7-13.134c-3.221-4.163-13.31-14.816-32.2-14.816-13.2,0-24.879,9.056-31.56,18.927H5.053A5.053,5.053,0,0,0,0,333.9v63.707a5.053,5.053,0,0,0,5.053,5.053H35.1a5.053,5.053,0,0,0,5.053-5.053v-4.363H54.239a5.053,5.053,0,0,0,5.053-5.053v-1.454c8.213.717,10.914,2.274,18.458,6.624a305.794,305.794,0,0,0,30.357,15.5c.073.033.148.064.222.094a45.356,45.356,0,0,0,16.257,3.065,40.274,40.274,0,0,0,16.741-3.585l77.811-27.86c.138-.05.275-.105.408-.167C226.982,376.987,238.064,367.345,232.434,352.9ZM30.044,392.555H10.106v-53.6H30.044Zm19.142-9.416H40.15V338.955h9.036Zm166.322-12-77.777,27.848c-.068.024-.161.061-.228.088s-.136.057-.2.088c-10.832,4.978-21.129,2-25.164.429A292.731,292.731,0,0,1,82.8,384.607c-8.269-4.768-12.253-7.066-23.506-8v-40.7c4.79-7.85,14.078-15.886,24.092-15.886,17.173,0,24.45,11.17,24.736,11.62a5.053,5.053,0,0,0,2.681,2.138l40.159,13.63c6.414,2.407,9.8,7.9,8.245,13.377a9.846,9.846,0,0,1-12.1,6.8l-45.271-14.346a5.053,5.053,0,1,0-3.053,9.634l45.35,14.371.145.043a19.832,19.832,0,0,0,15.168-1.762,19.818,19.818,0,0,0,9.479-11.972q.174-.614.309-1.228l37.939-10.51c5.479-1.872,12.672-2.546,15.875,4.83C226.363,365.308,217.747,370.072,215.508,371.14Z" stroke="none"/>
        <path d="M 83.38340759277344 311.9219970703125 C 80.42300415039062 311.9219970703125 77.41616821289062 312.4163818359375 74.44644165039062 313.3914489746094 C 71.66560363769531 314.3044738769531 68.90628051757812 315.6406555175781 66.24513244628906 317.3629150390625 C 63.74337768554688 318.9820251464844 61.34947204589844 320.9266052246094 59.1300048828125 323.1426696777344 C 57.02352905273438 325.2458190917969 55.12251281738281 327.5428771972656 53.47972106933594 329.9700317382812 L 52.88481140136719 330.8489990234375 L 51.82344055175781 330.8489990234375 L 5.053009033203125 330.8489990234375 C 3.36956787109375 330.8489990234375 2 332.2185363769531 2 333.9019165039062 L 2 397.6085815429688 C 2 399.2919616699219 3.36956787109375 400.6614990234375 5.053009033203125 400.6614990234375 L 35.09654235839844 400.6614990234375 C 36.77996826171875 400.6614990234375 38.1495361328125 399.2919616699219 38.1495361328125 397.6085815429688 L 38.1495361328125 393.2457885742188 L 38.1495361328125 391.2457885742188 L 40.1495361328125 391.2457885742188 L 54.23878479003906 391.2457885742188 C 55.92219543457031 391.2457885742188 57.291748046875 389.876220703125 57.291748046875 388.1928100585938 L 57.291748046875 386.7384643554688 L 57.291748046875 384.5563659667969 L 59.46556091308594 384.7460327148438 C 63.73703002929688 385.1186828613281 66.64207458496094 385.7202758789062 69.49259948730469 386.822509765625 C 72.28131103515625 387.9008483886719 74.85350036621094 389.3840637207031 78.74844360351562 391.6300354003906 C 84.51359558105469 394.9545593261719 93.22596740722656 399.9786376953125 108.9260711669922 407.0377807617188 C 108.968017578125 407.056640625 109.0130615234375 407.07568359375 109.0601043701172 407.0943908691406 C 111.8379440307617 408.1870727539062 117.5486602783203 410.0202026367188 124.5849761962891 410.0202026367188 C 130.1595153808594 410.0202026367188 135.5141906738281 408.8741760253906 140.5002899169922 406.6139526367188 L 140.5747833251953 406.5801696777344 L 140.6518249511719 406.5526123046875 L 218.4618835449219 378.6930541992188 C 218.5469360351562 378.6625366210938 218.629638671875 378.6288146972656 218.7098846435547 378.5917663574219 C 220.0331573486328 377.9829711914062 222.0654754638672 376.8902282714844 224.2328186035156 375.1417846679688 C 226.2642211914062 373.5030212402344 227.9385681152344 371.6734924316406 229.2093200683594 369.7041015625 C 232.364501953125 364.8141784667969 232.822509765625 359.4058227539062 230.5705108642578 353.6290893554688 C 230.5590057373047 353.5996398925781 230.5473480224609 353.5703430175781 230.53369140625 353.5385131835938 C 227.4912872314453 346.41943359375 221.5403747558594 342.4986267089844 213.7764434814453 342.4983825683594 C 210.8634033203125 342.4983825683594 207.7601318359375 343.0538635253906 204.5527496337891 344.1493225097656 L 204.4965972900391 344.1685180664062 L 204.4393768310547 344.184326171875 L 169.2361907958984 353.9192199707031 L 167.4010314941406 354.4266967773438 L 166.8040161132812 352.6186828613281 C 164.8989562988281 346.8497009277344 160.1312866210938 342.1763916015625 153.7228088378906 339.7962341308594 C 153.6945495605469 339.7860107421875 153.6662902832031 339.7756958007812 153.6360778808594 339.7654418945312 L 114.9397583007812 326.6316223144531 L 114.3693161010742 326.4380493164062 L 114.0006942749023 325.9615783691406 C 112.5651626586914 324.1060180664062 109.3995361328125 320.5369873046875 104.3269500732422 317.4819641113281 C 98.20115661621094 313.7926635742188 91.15472412109375 311.9219970703125 83.38340759277344 311.9219970703125 M 149.7484436035156 369.9500122070312 C 148.6812133789062 369.9500122070312 147.6132507324219 369.8042297363281 146.5742797851562 369.5167236328125 L 146.5386962890625 369.5068664550781 L 146.5034790039062 369.4957275390625 L 101.2323150634766 355.1493835449219 C 100.9304351806641 355.0537109375 100.6193542480469 355.0052185058594 100.3077239990234 355.0052185058594 C 98.97222900390625 355.0052185058594 97.80351257324219 355.8620300292969 97.39938354492188 357.1376342773438 C 97.15296936035156 357.9149169921875 97.22407531738281 358.7416076660156 97.59956359863281 359.4654235839844 C 97.97512817382812 360.1893615722656 98.61016845703125 360.7237548828125 99.38760375976562 360.9701843261719 L 144.7376403808594 375.3414611816406 L 144.7376403808594 375.3414611816406 C 144.7638549804688 375.3496704101562 144.7900695800781 375.3578796386719 144.8165893554688 375.3652954101562 L 144.8208770751953 375.3664855957031 L 144.8251953125 375.3677062988281 C 146.4426879882812 375.8278198242188 148.1043395996094 376.0610961914062 149.7640075683594 376.0610961914062 C 152.7853698730469 376.0610961914062 155.7967224121094 375.2729797363281 158.4726257324219 373.7819213867188 C 162.6611328125 371.4482421875 165.6899719238281 367.6229248046875 167.0010070800781 363.0111694335938 C 167.1062316894531 362.6405639648438 167.2000122070312 362.2676086425781 167.2797546386719 361.9026184082031 L 167.5372924804688 360.7242126464844 L 168.6997222900391 360.4021911621094 L 206.5830688476562 349.9075622558594 C 209.1776123046875 349.0267333984375 211.599853515625 348.5801696777344 213.7835083007812 348.5801696777344 C 218.9788513183594 348.5801696777344 222.8168182373047 351.0948791503906 224.8825073242188 355.8524475097656 L 224.9000701904297 355.8928527832031 L 224.9157867431641 355.9339599609375 C 226.5807800292969 360.2835083007812 225.8813171386719 364.465087890625 222.8929443359375 368.0267333984375 C 220.6116638183594 370.74560546875 217.5705108642578 372.3720397949219 216.3688507080078 372.9450988769531 L 216.2774658203125 372.9887084960938 L 216.18212890625 373.0228271484375 L 138.4012145996094 400.8720092773438 C 138.3763122558594 400.8808898925781 138.3173217773438 400.9035034179688 138.2573547363281 400.9279174804688 C 138.2135620117188 400.9457397460938 138.1722869873047 400.9635314941406 138.135009765625 400.9806518554688 C 133.8925018310547 402.930419921875 129.3208160400391 403.9190063476562 124.5469131469727 403.9190063476562 C 118.6285400390625 403.9190063476562 113.7765960693359 402.3760986328125 111.4111633300781 401.4564208984375 L 111.362663269043 401.4375610351562 L 111.3152236938477 401.4161987304688 C 95.97279357910156 394.5124816894531 87.78047180175781 389.7885131835938 81.79641723632812 386.337890625 C 73.6505126953125 381.6407165527344 69.93269348144531 379.4969177246094 59.12713623046875 378.6044616699219 L 57.291748046875 378.452880859375 L 57.291748046875 376.6112670898438 L 57.291748046875 335.9136047363281 L 57.291748046875 335.3516235351562 L 57.58444213867188 334.8719177246094 C 60.27865600585938 330.4561462402344 64.05354309082031 326.3823547363281 68.21372985839844 323.4009704589844 C 73.11909484863281 319.8855285644531 78.36485290527344 318.0273742675781 83.3839111328125 318.0273742675781 C 87.52757263183594 318.0273742675781 91.468505859375 318.6527099609375 95.09719848632812 319.8860778808594 C 98.03463745117188 320.8844604492188 100.7757873535156 322.2818298339844 103.2444458007812 324.0392761230469 C 107.5273742675781 327.0883483886719 109.5876617431641 330.2281799316406 109.8085021972656 330.576171875 L 109.8161315917969 330.5882263183594 L 109.8235931396484 330.600341796875 C 110.1955032348633 331.2052917480469 110.7706604003906 331.6641235351562 111.4432220458984 331.8923645019531 L 151.601806640625 345.522216796875 L 151.6320037841797 345.532470703125 L 151.6618499755859 345.543701171875 C 153.4298095703125 346.207275390625 155.0265655517578 347.0939025878906 156.4077758789062 348.178955078125 C 157.7834777832031 349.2596740722656 158.9158782958984 350.5129089355469 159.7735290527344 351.9038696289062 C 161.5557861328125 354.7943725585938 162.0368804931641 358.1457824707031 161.1282958984375 361.3404541015625 C 160.2631225585938 364.3837585449219 158.2644348144531 366.9079284667969 155.5002899169922 368.4480285644531 C 153.7365417480469 369.4306335449219 151.74755859375 369.9500122070312 149.7484436035156 369.9500122070312 M 32.04356384277344 394.5550231933594 L 30.04356384277344 394.5550231933594 L 10.10597229003906 394.5550231933594 L 8.105972290039062 394.5550231933594 L 8.105972290039062 392.5550231933594 L 8.105972290039062 338.9544372558594 L 8.105972290039062 336.9544372558594 L 10.10597229003906 336.9544372558594 L 30.04356384277344 336.9544372558594 L 32.04356384277344 336.9544372558594 L 32.04356384277344 338.9544372558594 L 32.04356384277344 392.5550231933594 L 32.04356384277344 394.5550231933594 M 51.185791015625 385.1392822265625 L 49.185791015625 385.1392822265625 L 40.1495361328125 385.1392822265625 L 38.1495361328125 385.1392822265625 L 38.1495361328125 383.1392822265625 L 38.1495361328125 338.9545593261719 L 38.1495361328125 336.9545593261719 L 40.1495361328125 336.9545593261719 L 49.185791015625 336.9545593261719 L 51.185791015625 336.9545593261719 L 51.185791015625 338.9545593261719 L 51.185791015625 383.1392822265625 L 51.185791015625 385.1392822265625 M 83.38340759277344 309.9219970703125 C 102.2730102539062 309.9219970703125 112.3617858886719 320.5745849609375 115.5825653076172 324.7377624511719 L 154.2788696289062 337.87158203125 C 154.3238525390625 337.8867797851562 154.3682861328125 337.9029235839844 154.4127502441406 337.9189758300781 C 161.5910339355469 340.5830993652344 166.6677856445312 345.8280029296875 168.703125 351.9915771484375 L 203.9063110351562 342.2566528320312 C 207.3681793212891 341.0742797851562 210.6852569580078 340.4982604980469 213.7771911621094 340.4983825683594 C 222.2142333984375 340.4986877441406 228.9693145751953 344.78857421875 232.3727874755859 352.7525634765625 C 232.39404296875 352.8020629882812 232.4142608642578 352.8522338867188 232.4339752197266 352.90283203125 C 238.0640106201172 367.3447265625 226.9822845458984 376.9873352050781 219.5458221435547 380.40869140625 C 219.4123840332031 380.4702758789062 219.2759399414062 380.5258178710938 219.1375122070312 380.5755004882812 L 141.3260040283203 408.435546875 C 135.4210968017578 411.1122436523438 129.6682891845703 412.0202026367188 124.5849761962891 412.0202026367188 C 117.2819137573242 412.0202026367188 111.3582534790039 410.1475830078125 108.3279724121094 408.95556640625 C 108.2536926269531 408.9261169433594 108.179443359375 408.8949584960938 108.1061553955078 408.8619995117188 C 92.31759643554688 401.7630615234375 83.55015563964844 396.7077026367188 77.74934387207031 393.3626098632812 C 70.20622253417969 389.012939453125 67.50491333007812 387.4550170898438 59.291748046875 386.7384643554688 L 59.291748046875 388.1928100585938 C 59.291748046875 390.9835815429688 57.029541015625 393.2457885742188 54.23878479003906 393.2457885742188 L 40.1495361328125 393.2457885742188 L 40.1495361328125 397.6085815429688 C 40.1495361328125 400.3992919921875 37.88731384277344 402.6614990234375 35.09654235839844 402.6614990234375 L 5.053009033203125 402.6614990234375 C 2.262222290039062 402.6614990234375 0 400.3992919921875 0 397.6085815429688 L 0 333.9019165039062 C 0 331.1111755371094 2.262222290039062 328.8489990234375 5.053009033203125 328.8489990234375 L 51.82344055175781 328.8489990234375 C 58.50450134277344 318.9779968261719 70.18251037597656 309.9219970703125 83.38340759277344 309.9219970703125 Z M 149.7484436035156 367.9500122070312 C 151.4038848876953 367.9500122070312 153.0410461425781 367.5286865234375 154.5269470214844 366.7008666992188 C 156.8240356445312 365.4210205078125 158.4854431152344 363.322998046875 159.2044982910156 360.7935791015625 C 160.7623596191406 355.3161010742188 157.3727874755859 349.823486328125 150.9590454101562 347.4161376953125 L 110.8004455566406 333.7862548828125 C 109.6852264404297 333.4077758789062 108.7367553710938 332.6513061523438 108.1198120117188 331.6477966308594 C 107.8338165283203 331.1971130371094 100.5570068359375 320.0273742675781 83.3839111328125 320.0273742675781 C 73.369873046875 320.0273742675781 64.08151245117188 328.0632629394531 59.291748046875 335.9136047363281 L 59.291748046875 376.6112670898438 C 70.54475402832031 377.5406494140625 74.52903747558594 379.838623046875 82.79779052734375 384.6066284179688 C 88.74513244628906 388.0360717773438 96.885009765625 392.7297973632812 112.1359100341797 399.5923461914062 C 114.5033264160156 400.5128173828125 119.0256805419922 401.9190063476562 124.5469207763672 401.9190063476562 C 128.4368286132812 401.9190063476562 132.8225860595703 401.2210083007812 137.2998199462891 399.1633911132812 C 137.3670349121094 399.1325073242188 137.4352569580078 399.1031799316406 137.5034484863281 399.075439453125 C 137.5706634521484 399.048095703125 137.6631317138672 399.0117797851562 137.7313537597656 398.987548828125 L 215.5079345703125 371.139892578125 C 217.7474365234375 370.0718383789062 226.36279296875 365.308349609375 223.0479736328125 356.6489868164062 C 221.0504913330078 352.0485229492188 217.5017242431641 350.5801696777344 213.7835235595703 350.5801696777344 C 211.5403747558594 350.5801696777344 209.23486328125 351.1151428222656 207.1730651855469 351.8194580078125 L 169.2336578369141 362.32958984375 C 169.1442260742188 362.7388916015625 169.0411682128906 363.1481323242188 168.9249420166016 363.5574340820312 C 167.4676513671875 368.6836547851562 164.1013793945312 372.9352722167969 159.446044921875 375.5290222167969 C 156.4354705810547 377.2066040039062 153.1181945800781 378.0610961914062 149.7640075683594 378.0610961914062 C 147.9317932128906 378.0610961914062 146.0884399414062 377.8063659667969 144.2779846191406 377.2913818359375 C 144.2294769287109 377.27783203125 144.1814422607422 377.2630615234375 144.1334533691406 377.248046875 L 98.78341674804688 362.8767700195312 C 96.12300109863281 362.033447265625 94.6495361328125 359.193603515625 95.49287414550781 356.5332641601562 C 96.17486572265625 354.380615234375 98.16328430175781 353.0052185058594 100.3077392578125 353.0052185058594 C 100.8135528564453 353.0052185058594 101.328369140625 353.0818176269531 101.8364105224609 353.2427978515625 L 147.107666015625 367.5891723632812 C 147.9797210693359 367.8304748535156 148.8666687011719 367.9500122070312 149.7484436035156 367.9500122070312 Z M 30.04356384277344 392.5550231933594 L 30.04356384277344 338.9544372558594 L 10.10597229003906 338.9544372558594 L 10.10597229003906 392.5550231933594 L 30.04356384277344 392.5550231933594 Z M 49.185791015625 383.1392822265625 L 49.185791015625 338.9545593261719 L 40.1495361328125 338.9545593261719 L 40.1495361328125 383.1392822265625 L 49.185791015625 383.1392822265625 Z" stroke="none" fill="#1f1f1f"/>
      </g>
      <g id="Path_290" data-name="Path 290" transform="translate(-165.805 -59.085)" fill="none">
        <path d="M345.254,125.936a2.949,2.949,0,0,0-.176-.57,2.988,2.988,0,0,0-1.115-1.358,3.069,3.069,0,0,0-.521-.279,3.019,3.019,0,0,0-1.752-.173,2.845,2.845,0,0,0-.567.173,2.984,2.984,0,0,0-.524.279,2.944,2.944,0,0,0-.837.836,3.08,3.08,0,0,0-.279.521,2.93,2.93,0,0,0-.173.57,2.909,2.909,0,0,0,0,1.182,2.841,2.841,0,0,0,.173.567,3,3,0,0,0,.279.524,2.943,2.943,0,0,0,.837.836,2.984,2.984,0,0,0,.524.279,3.062,3.062,0,0,0,.567.173,2.982,2.982,0,0,0,.591.061,3.036,3.036,0,0,0,.594-.061,3.21,3.21,0,0,0,.567-.173,3.069,3.069,0,0,0,.521-.279,2.944,2.944,0,0,0,.836-.836,2.8,2.8,0,0,0,.279-.524,2.858,2.858,0,0,0,.176-.567,3.066,3.066,0,0,0,0-1.182Z" stroke="none"/>
        <path d="M 342.2821655273438 123.4980010986328 C 342.0836791992188 123.4980010986328 341.8851623535156 123.5177001953125 341.6896362304688 123.5570983886719 C 341.4957275390625 123.5934753417969 341.3046875 123.654052734375 341.1228637695312 123.7298583984375 C 340.93798828125 123.8056488037109 340.76220703125 123.8995208740234 340.5986938476562 124.0086517333984 C 340.4318237304688 124.1177825927734 340.27734375 124.2450714111328 340.1378784179688 124.3844909667969 C 339.9985961914062 124.5238647460938 339.8712158203125 124.6784057617188 339.7620849609375 124.8451232910156 C 339.653076171875 125.0087738037109 339.55908203125 125.1845703125 339.4833374023438 125.3664169311523 C 339.4075317382812 125.5512771606445 339.346923828125 125.7422332763672 339.3106079101562 125.9361724853516 C 339.271240234375 126.1301116943359 339.2499389648438 126.3302154541016 339.2499389648438 126.5271911621094 C 339.2499389648438 126.72412109375 339.271240234375 126.9242172241211 339.3106079101562 127.1181411743164 C 339.346923828125 127.3120727539062 339.4075317382812 127.5030364990234 339.4833374023438 127.6848754882812 C 339.55908203125 127.8697357177734 339.653076171875 128.0455017089844 339.7620849609375 128.2092132568359 C 339.8712158203125 128.3758850097656 339.9985961914062 128.5304260253906 340.1378784179688 128.6698608398438 C 340.27734375 128.8092803955078 340.4318237304688 128.9365539550781 340.5986938476562 129.0456848144531 C 340.76220703125 129.15478515625 340.93798828125 129.2487335205078 341.1228637695312 129.3244934082031 C 341.3046875 129.4002227783203 341.4957275390625 129.4578552246094 341.6896362304688 129.4972076416016 C 341.8836059570312 129.5366516113281 342.0836181640625 129.5578460693359 342.2806396484375 129.5578460693359 C 342.4776000976562 129.5578460693359 342.6776123046875 129.5366516113281 342.8746337890625 129.4972076416016 C 343.0654907226562 129.4578552246094 343.2565307617188 129.4002227783203 343.44140625 129.3244934082031 C 343.6232299804688 129.2487335205078 343.7991333007812 129.15478515625 343.962646484375 129.0456848144531 C 344.12939453125 128.9365539550781 344.283935546875 128.8092803955078 344.42333984375 128.6698608398438 C 344.562744140625 128.5304260253906 344.6900024414062 128.3758850097656 344.799072265625 128.2092132568359 C 344.9113159179688 128.0455017089844 345.0021362304688 127.8697357177734 345.0780029296875 127.6848754882812 C 345.1568603515625 127.5030364990234 345.2142944335938 127.3120727539062 345.2537841796875 127.1181411743164 C 345.2931518554688 126.9242172241211 345.311279296875 126.72412109375 345.311279296875 126.5271911621094 C 345.311279296875 126.3302154541016 345.2931518554688 126.1301116943359 345.2537841796875 125.9361724853516 C 345.2142944335938 125.7422332763672 345.1568603515625 125.5512771606445 345.0780029296875 125.3664169311523 C 345.0021362304688 125.1845703125 344.9113159179688 125.0087738037109 344.799072265625 124.8451232910156 C 344.6900024414062 124.6784057617188 344.562744140625 124.5238647460938 344.42333984375 124.3844909667969 C 344.283935546875 124.2450714111328 344.12939453125 124.1177825927734 343.962646484375 124.0086517333984 C 343.7991333007812 123.8995208740234 343.6232299804688 123.8056488037109 343.44140625 123.7298583984375 C 343.2565307617188 123.654052734375 343.0654907226562 123.5934753417969 342.8746337890625 123.5570983886719 C 342.6791687011719 123.5177001953125 342.4806823730469 123.4980010986328 342.2821655273438 123.4980010986328 M 342.2821655273438 121.4980010986328 C 342.6096801757812 121.4980010986328 342.9384460449219 121.5304565429688 343.259521484375 121.5944671630859 C 343.5678405761719 121.6540222167969 343.8842468261719 121.7498474121094 344.2001037597656 121.8793487548828 L 344.2055053710938 121.8815612792969 L 344.2109069824219 121.8838195800781 C 344.510009765625 122.0084838867188 344.7974548339844 122.1620025634766 345.0654907226562 122.3401794433594 C 345.3404235839844 122.5208740234375 345.6001586914062 122.7328643798828 345.837646484375 122.9703826904297 C 346.0720520019531 123.2047119140625 346.2817687988281 123.4610900878906 346.4610290527344 123.7323760986328 C 346.6383972167969 123.9937438964844 346.7889709472656 124.2743377685547 346.9208374023438 124.5892333984375 C 347.0480346679688 124.8888854980469 347.1465148925781 125.2077789306641 347.2135925292969 125.537223815918 C 347.2784729003906 125.8569107055664 347.311279296875 126.1896362304688 347.311279296875 126.5271911621094 C 347.311279296875 126.8647232055664 347.2784729003906 127.1974258422852 347.2138061523438 127.5160522460938 C 347.146240234375 127.8478775024414 347.0478515625 128.1655883789062 346.9210205078125 128.4617309570312 C 346.7904968261719 128.7767639160156 346.6396789550781 129.0587158203125 346.4606628417969 129.3224792480469 C 346.2815856933594 129.5933837890625 346.0720825195312 129.8494720458984 345.8377685546875 130.0838775634766 C 345.6000061035156 130.3216705322266 345.3399658203125 130.5338287353516 345.0647277832031 130.7146301269531 C 344.7965698242188 130.892822265625 344.50927734375 131.0462036132812 344.2106628417969 131.170654296875 L 344.205078125 131.1729736328125 L 344.1995239257812 131.1752471923828 C 343.9032287597656 131.2966156005859 343.5933837890625 131.3910675048828 343.278564453125 131.4559936523438 L 343.27294921875 131.4571533203125 L 343.2673034667969 131.4582824707031 C 342.9373474121094 131.5243530273438 342.6053771972656 131.5578460693359 342.2806396484375 131.5578460693359 C 341.9527282714844 131.5578460693359 341.6197814941406 131.5239410400391 341.2910461425781 131.4570922851562 C 340.9697875976562 131.3918762207031 340.6557922363281 131.296142578125 340.3584899902344 131.1726684570312 C 340.0580139160156 131.049072265625 339.7681884765625 130.8950653076172 339.4968566894531 130.7148132324219 C 339.2218017578125 130.5342102050781 338.9617919921875 130.3221282958984 338.723876953125 130.0842895507812 C 338.4857482910156 129.8458862304688 338.2742004394531 129.5866394042969 338.093994140625 129.3126068115234 C 337.9131164550781 129.0402526855469 337.7587585449219 128.7497863769531 337.6351013183594 128.4490966796875 C 337.50439453125 128.1345520019531 337.40771484375 127.8159561157227 337.3477172851562 127.5018310546875 C 337.2828369140625 127.1774749755859 337.2499389648438 126.8496551513672 337.2499389648438 126.5271911621094 C 337.2499389648438 126.204704284668 337.2828369140625 125.876838684082 337.3477172851562 125.5524826049805 C 337.4069519042969 125.2424545288086 337.5028686523438 124.9246368408203 337.6329040527344 124.6075592041016 L 337.6349792480469 124.6024780273438 L 337.6370849609375 124.597412109375 C 337.7613220214844 124.2991180419922 337.9148254394531 124.0115966796875 338.0933532714844 123.7427062988281 C 338.2738037109375 123.4681091308594 338.4856567382812 123.2084350585938 338.7232055664062 122.9707336425781 C 338.9616088867188 122.7324066162109 339.2214050292969 122.5204315185547 339.4961853027344 122.3399505615234 C 339.7674865722656 122.1596374511719 340.0575561523438 122.0054779052734 340.3586120605469 121.8816223144531 C 340.6731872558594 121.7508850097656 340.9919738769531 121.6541900634766 341.3065490722656 121.5941009521484 C 341.6271057128906 121.5303344726562 341.9552612304688 121.4980010986328 342.2821655273438 121.4980010986328 Z" stroke="none" fill="#1f1f1f"/>
      </g>
      <g id="Path_291" data-name="Path 291" transform="translate(-14.688 -0.023)" fill="none">
        <path d="M268.348,17.137H238.3a5.053,5.053,0,0,0-5.053,5.053v4.363H219.162a5.053,5.053,0,0,0-5.053,5.053V33.06c-8.213-.717-10.914-2.274-18.457-6.624a305.76,305.76,0,0,0-30.357-15.5c-.073-.033-.147-.064-.222-.093-5.139-2.022-18.609-6-33,.519l-20.333,7.28L94.6,1.5a5.053,5.053,0,0,0-7.146,0L31.19,57.772a5.011,5.011,0,0,0,0,7.146l96.152,96.152a5.46,5.46,0,0,0,7.146,0L185.859,109.7c1.336.115,2.722.177,4.158.177,13.2,0,24.879-9.056,31.559-18.926h46.771A5.053,5.053,0,0,0,273.4,85.9V22.19A5.053,5.053,0,0,0,268.348,17.137ZM91.031,12.222l11.517,11.517a22.03,22.03,0,0,1-23.034,0ZM53.426,72.862,41.909,61.345,53.426,49.828a22.031,22.031,0,0,1,0,23.034Zm77.489,77.489L119.4,138.836a22,22,0,0,1,23.029,0Zm18.795-18.794a32.111,32.111,0,0,0-37.589,0L60.706,80.141a32.111,32.111,0,0,0,0-37.593L72.235,31.019a32.111,32.111,0,0,0,37.593,0l10.929,10.929a20.028,20.028,0,0,0-15.036,11.017,28.8,28.8,0,1,0,33.114,35.652l17.061,5.79a32.261,32.261,0,0,0,5.353,25.61ZM118.988,81.879l.134.048,10.1,3.429A18.7,18.7,0,1,1,103.848,64C104.78,71.761,110.369,78.68,118.988,81.879Zm49.542,30.857a22.1,22.1,0,0,1-3.228-10.508,39.289,39.289,0,0,0,8.911,4.825Zm45.579-28.853c-4.789,7.851-14.078,15.887-24.092,15.887a36.779,36.779,0,0,1-5.271-.371l-.02,0a28.942,28.942,0,0,1-18.717-10.243c-.1-.152-.542-.726-.607-.822a5.035,5.035,0,0,0-2.785-2.316L122.441,72.38c-6.411-2.406-9.8-7.9-8.247-13.372l0-.011a.119.119,0,0,0,0-.013,9.845,9.845,0,0,1,12.092-6.778l45.271,14.346a5.053,5.053,0,0,0,3.053-9.634L138.612,45.51,138.3,45.2l-.01-.01-18.64-18.64,16.022-5.737c.054-.02.121-.044.174-.066l.053-.021q.1-.042.2-.088c10.832-4.978,21.128-2,25.163-.429A292.7,292.7,0,0,1,190.6,35.189c8.269,4.769,12.253,7.066,23.505,8Zm19.143-3.039h-9.036V36.658h9.036Zm30.044,0H243.358v-53.6H263.3Z" stroke="none"/>
        <path d="M 91.0316162109375 2.023239135742188 C 90.21611022949219 2.023239135742188 89.44944763183594 2.340774536132812 88.87284851074219 2.917373657226562 L 32.60397338867188 59.18574523925781 C 32.05108642578125 59.73877716064453 31.71881103515625 60.50284576416016 31.69241333007812 61.28194427490234 C 31.67282104492188 61.86024475097656 31.81500244140625 62.71517944335938 32.60379028320312 63.50394439697266 L 128.7558135986328 159.6559753417969 C 129.1162414550781 160.0165100097656 129.9727478027344 160.404541015625 131.0016784667969 160.404541015625 C 131.4957733154297 160.404541015625 132.4219818115234 160.3072509765625 133.0736389160156 159.6557464599609 L 184.4448852539062 108.2850494384766 L 185.103271484375 107.6266479492188 L 186.0309448242188 107.7066802978516 C 187.3384094238281 107.8194427490234 188.6795806884766 107.8766479492188 190.0171813964844 107.8766479492188 C 192.9777221679688 107.8766479492188 195.984619140625 107.3822479248047 198.954345703125 106.4072113037109 C 201.7352142333984 105.4942169189453 204.4944763183594 104.1580123901367 207.1555786132812 102.4358139038086 C 209.6572418212891 100.8167419433594 212.0510559082031 98.87220764160156 214.2704467773438 96.65624237060547 C 216.3767700195312 94.55314636230469 218.2776794433594 92.25617980957031 219.9203491210938 89.82914733886719 L 220.5152435302734 88.95014953613281 L 221.5766448974609 88.95014953613281 L 268.3480834960938 88.95014953613281 C 270.031494140625 88.95014953613281 271.4010009765625 87.58058166503906 271.4010009765625 85.89717864990234 L 271.4010009765625 22.1895751953125 C 271.4010009765625 20.50614929199219 270.031494140625 19.13658142089844 268.3480834960938 19.13658142089844 L 238.3045349121094 19.13658142089844 C 236.6211547851562 19.13658142089844 235.2515869140625 20.50614929199219 235.2515869140625 22.1895751953125 L 235.2515869140625 26.55230712890625 L 235.2515869140625 28.55230712890625 L 233.2515869140625 28.55230712890625 L 219.1622772216797 28.55230712890625 C 217.4788818359375 28.55230712890625 216.1093139648438 29.921875 216.1093139648438 31.60531616210938 L 216.1093139648438 33.05958557128906 L 216.1093139648438 35.24178314208984 L 213.9353790283203 35.05200958251953 C 209.6635437011719 34.67904663085938 206.7584228515625 34.07737731933594 203.9080505371094 32.9752197265625 C 201.1186218261719 31.8966064453125 198.5465087890625 30.41337585449219 194.6531677246094 28.16818237304688 C 188.8874816894531 24.8433837890625 180.17431640625 19.81887817382812 164.4747467041016 12.76014709472656 L 164.4705505371094 12.75828552246094 L 164.4663391113281 12.75634765625 C 164.4298400878906 12.73974609375 164.3908843994141 12.72341918945312 164.3472747802734 12.70645141601562 L 164.3437805175781 12.705078125 L 164.3402404785156 12.70367431640625 C 161.5634155273438 11.611083984375 155.8539733886719 9.778106689453125 148.8153381347656 9.778106689453125 C 143.2419128417969 9.778106689453125 137.8880767822266 10.92375183105469 132.9025726318359 13.18318176269531 L 132.8281402587891 13.2169189453125 L 132.7512054443359 13.24444580078125 L 112.4180145263672 20.52481079101562 L 111.2253723144531 20.95184326171875 L 110.3296051025391 20.05610656738281 L 93.19038391113281 2.917343139648438 C 92.61378479003906 2.340774536132812 91.84710693359375 2.023239135742188 91.0316162109375 2.023239135742188 M 91.03111267089844 28.98890686035156 C 86.56187438964844 28.98890686035156 82.21560668945312 27.76161193847656 78.46220397949219 25.43968200683594 L 76.31401062011719 24.11074829101562 L 78.10017395019531 22.32461547851562 L 89.61691284179688 10.80784606933594 L 91.03111267089844 9.39361572265625 L 92.4453125 10.80784606933594 L 103.9621124267578 22.32461547851562 L 105.7485046386719 24.11097717285156 L 103.5999145507812 25.43977355957031 C 99.84564208984375 27.76164245605469 95.49940490722656 28.98890686035156 91.03111267089844 28.98890686035156 M 190.0171813964844 101.769645690918 C 188.1251220703125 101.769645690918 186.2552795410156 101.6379089355469 184.4595031738281 101.3781433105469 L 184.4521484375 101.3770751953125 L 184.4447784423828 101.3759460449219 L 184.4307861328125 101.3737945556641 C 172.8716278076172 99.69198608398438 166.5984802246094 93.13294219970703 164.4378814697266 90.39051055908203 L 164.3966827392578 90.33867645263672 L 164.3572845458984 90.28071594238281 C 164.3140411376953 90.21841430664062 164.1379089355469 89.98354339599609 164.0432739257812 89.85737609863281 C 163.8654174804688 89.62014770507812 163.7987518310547 89.53067779541016 163.7493133544922 89.45821380615234 L 163.6994171142578 89.38504791259766 L 163.6561737060547 89.30777740478516 C 163.2875823974609 88.64907836914062 162.6901397705078 88.15241241455078 161.9740142822266 87.90930938720703 L 121.7987060546875 74.27381134033203 L 121.7685852050781 74.26358032226562 L 121.7387390136719 74.25238037109375 C 119.9714508056641 73.58908081054688 118.3752136230469 72.70284271240234 116.994384765625 71.61827850341797 C 115.6190795898438 70.53807830810547 114.4868774414062 69.28541564941406 113.629150390625 67.89508056640625 C 111.8486785888672 65.00896453857422 111.3653564453125 61.66278839111328 112.2674560546875 58.47293090820312 L 112.2684783935547 58.46881103515625 L 112.2783813476562 58.43434906005859 C 113.1472473144531 55.40027618408203 115.1437835693359 52.88364410400391 117.9000396728516 51.34811401367188 C 119.6637420654297 50.36531066894531 121.6522827148438 49.84577941894531 123.6506805419922 49.84574890136719 C 124.7185516357422 49.84571075439453 125.7872467041016 49.99181365966797 126.8270721435547 50.28004455566406 L 126.8622436523438 50.28977966308594 L 126.8970489501953 50.30081176757812 L 172.1690826416016 64.64698028564453 C 172.4707183837891 64.74271392822266 172.7815856933594 64.79124450683594 173.0930480957031 64.79124450683594 C 174.4283142089844 64.79124450683594 175.5969543457031 63.93428039550781 176.0010375976562 62.65878295898438 C 176.5094757080078 61.05394744873047 175.6175842285156 59.33448028564453 174.0130157470703 58.82584381103516 L 138.0079040527344 47.41621398925781 L 137.5428466796875 47.26884460449219 L 137.1978759765625 46.92384338378906 L 136.9279479980469 46.65391540527344 L 136.9277038574219 46.65370941162109 L 136.8829193115234 46.60889434814453 L 136.879638671875 46.60564422607422 L 136.8778533935547 46.60382080078125 L 136.8739776611328 46.59994506835938 L 118.2335052490234 27.95944213867188 L 116.0008087158203 25.72677612304688 L 118.9734802246094 24.66230773925781 L 134.9921417236328 18.92637634277344 C 135.0562591552734 18.90290832519531 135.0829467773438 18.89237976074219 135.0895843505859 18.88967895507812 L 135.1311492919922 18.87307739257812 L 135.1343536376953 18.87181091308594 L 135.1468811035156 18.86671447753906 C 135.1863403320312 18.85073852539062 135.2265167236328 18.8333740234375 135.2655487060547 18.81547546386719 C 139.5080718994141 16.86561584472656 144.0797729492188 15.876953125 148.8536071777344 15.876953125 C 154.7722778320312 15.876953125 159.6238403320312 17.41998291015625 161.9890441894531 18.33978271484375 L 162.0374450683594 18.35858154296875 L 162.0848083496094 18.37991333007812 C 177.4300842285156 25.2845458984375 185.6213684082031 30.00794982910156 191.6024475097656 33.45687866210938 C 199.7490081787109 38.15491485595703 203.4671478271484 40.29914855957031 214.2733764648438 41.19154357910156 L 216.1087799072266 41.34310913085938 L 216.1087799072266 43.18474578857422 L 216.1087799072266 83.88254547119141 L 216.1087799072266 84.44438171386719 L 215.8162078857422 84.92404937744141 C 213.1224365234375 89.34014892578125 209.3477172851562 93.41431427001953 205.1873474121094 96.39594268798828 C 200.2821044921875 99.91144561767578 195.0363464355469 101.769645690918 190.0171813964844 101.769645690918 M 265.2951049804688 82.84314727783203 L 263.2951049804688 82.84314727783203 L 243.3575439453125 82.84314727783203 L 241.3575439453125 82.84314727783203 L 241.3575439453125 80.84314727783203 L 241.3575439453125 27.24258422851562 L 241.3575439453125 25.24258422851562 L 243.3575439453125 25.24258422851562 L 263.2951049804688 25.24258422851562 L 265.2951049804688 25.24258422851562 L 265.2951049804688 27.24258422851562 L 265.2951049804688 80.84314727783203 L 265.2951049804688 82.84314727783203 M 91.0316162109375 35.09538269042969 C 97.43597412109375 35.09538269042969 103.5290374755859 33.12648010253906 108.6521148681641 29.40158081054688 L 110.0341796875 28.39668273925781 L 111.2424468994141 29.60498046875 L 122.1715087890625 40.53408050537109 L 124.9835052490234 43.34604644775391 L 121.0494079589844 43.92684936523438 C 118.9078063964844 44.24298095703125 116.8484802246094 44.94577789306641 114.9284820556641 46.01571655273438 C 111.6844787597656 47.82328033447266 109.1233062744141 50.52767944335938 107.5219116210938 53.83657836914062 L 107.0810394287109 54.74758148193359 L 106.0858764648438 54.93187713623047 C 103.4407043457031 55.42174530029297 100.8913421630859 56.3048095703125 98.50865173339844 57.55654907226562 C 96.11590576171875 58.81357574462891 93.9327392578125 60.4207763671875 92.01988220214844 62.33338165283203 C 81.56944274902344 72.78430938720703 81.56967163085938 89.78897857666016 92.02041625976562 100.2396850585938 C 94.57453918457031 102.7938079833984 97.55520629882812 104.7712478637695 100.8796081542969 106.1170501708984 C 104.0918426513672 107.4174118041992 107.4878082275391 108.0767517089844 110.9732513427734 108.0767517089844 C 114.4586486816406 108.0767517089844 117.8545837402344 107.41748046875 121.0667724609375 106.1172180175781 C 124.3914794921875 104.7714462280273 127.3723449707031 102.7939453125 129.9266052246094 100.2396850585938 C 133.2919769287109 96.87431335449219 135.7035827636719 92.68004608154297 136.9007415771484 88.11034393310547 L 137.4448852539062 86.03321075439453 L 139.4782104492188 86.72328186035156 L 156.5390777587891 92.51351165771484 L 158.2275085449219 93.0865478515625 L 157.8512725830078 94.82941436767578 C 156.9556427001953 98.97840881347656 156.9451751708984 103.2016754150391 157.8201751708984 107.3818817138672 C 158.6939849853516 111.5565490722656 160.3932495117188 115.413818359375 162.8706817626953 118.8465423583984 L 163.8671417236328 120.2272109985352 L 162.6631469726562 121.4311828613281 L 151.1236419677734 132.9706726074219 L 149.9167175292969 134.1776428222656 L 148.5350799560547 133.1753845214844 C 145.9626159667969 131.3093109130859 143.12060546875 129.8727722167969 140.0880432128906 128.9057159423828 C 137.1245422363281 127.9606781005859 134.0382385253906 127.4815139770508 130.9148406982422 127.4815139770508 C 127.7914733886719 127.4815139770508 124.7051849365234 127.9606781005859 121.7416839599609 128.9057159423828 C 118.7091064453125 129.8727722167969 115.8671112060547 131.3093109130859 113.2946472167969 133.1753845214844 L 111.9130096435547 134.1776428222656 L 110.7060394287109 132.9706726074219 L 59.29135131835938 81.55551147460938 L 58.08308410644531 80.34721374511719 L 59.08798217773438 78.96514892578125 C 62.81291198730469 73.84210968017578 64.78181457519531 67.74904632568359 64.78181457519531 61.34468078613281 C 64.78181457519531 54.93964385986328 62.81294250488281 48.84664916992188 59.08804321289062 43.72434234619141 L 58.08297729492188 42.34221649169922 L 59.29141235351562 41.13384246826172 L 70.82084655761719 29.60494995117188 L 72.02911376953125 28.39668273925781 L 73.41117858886719 29.40158081054688 C 78.5341796875 33.12648010253906 84.62724304199219 35.09538269042969 91.0316162109375 35.09538269042969 M 235.2515869140625 82.84314727783203 L 233.2515869140625 82.84314727783203 L 224.2153015136719 82.84314727783203 L 222.2153015136719 82.84314727783203 L 222.2153015136719 80.84314727783203 L 222.2153015136719 36.65830993652344 L 222.2153015136719 34.65830993652344 L 224.2153015136719 34.65830993652344 L 233.2515869140625 34.65830993652344 L 235.2515869140625 34.65830993652344 L 235.2515869140625 36.65830993652344 L 235.2515869140625 80.84314727783203 L 235.2515869140625 82.84314727783203 M 53.7978515625 76.06257629394531 L 52.01155090332031 74.27614593505859 L 40.4947509765625 62.75884246826172 L 39.08056640625 61.34464263916016 L 40.49478149414062 59.93048095703125 L 52.01158142089844 48.41371154785156 L 53.79794311523438 46.62731170654297 L 55.12678527832031 48.77594757080078 C 57.44857788085938 52.53021240234375 58.67584228515625 56.87641143798828 58.67584228515625 61.34468078613281 C 58.67584228515625 65.81357574462891 57.44857788085938 70.15998077392578 55.12673950195312 73.91400909423828 L 53.7978515625 76.06257629394531 M 119.6757202148438 80.00086212158203 C 119.7041931152344 80.01121520996094 119.7327575683594 80.02176666259766 119.7650146484375 80.03264617919922 L 129.8689727783203 83.46211242675781 L 131.5666046142578 84.03831481933594 L 131.1787719726562 85.78861236572266 C 130.3291168212891 89.62348175048828 128.4031829833984 93.12754821777344 125.6089782714844 95.92230987548828 C 123.6365051269531 97.89447784423828 121.3331451416016 99.42198181152344 118.7628479003906 100.4623413085938 C 116.2824096679688 101.4663467407227 113.6614837646484 101.9754180908203 110.9728393554688 101.9754180908203 C 108.2841186523438 101.9754180908203 105.6634063720703 101.4664154052734 103.1834716796875 100.4625091552734 C 100.6135101318359 99.42218017578125 98.31044006347656 97.89454650878906 96.33840942382812 95.92224884033203 C 94.36595153808594 93.94991302490234 92.83827209472656 91.64671325683594 91.7978515625 89.07661437988281 C 90.79383850097656 86.59648132324219 90.28474426269531 83.97567749023438 90.28474426269531 81.28701019287109 C 90.28474426269531 78.59834289550781 90.79383850097656 75.97754669189453 91.7978515625 73.497314453125 C 92.83827209472656 70.92717742919922 94.36590576171875 68.62390899658203 96.33798217773438 66.65184783935547 C 98.278076171875 64.71060943603516 100.5481719970703 63.19597625732422 103.0851745605469 62.15000915527344 L 105.5191497802734 61.14651489257812 L 105.8332061767578 63.76041412353516 C 106.2499389648438 67.22821044921875 107.7150115966797 70.5504150390625 110.0700836181641 73.36774444580078 C 112.5009002685547 76.27571105957031 115.8223571777344 78.56928253173828 119.6757202148438 80.00086212158203 M 168.1513061523438 115.9425811767578 L 166.8252410888672 113.7816772460938 C 164.7123413085938 110.3386840820312 163.4946136474609 106.3758087158203 163.3036499023438 102.3215179443359 L 163.1083068847656 98.17391204833984 L 166.4732055664062 100.6066131591797 C 169.0693817138672 102.4835510253906 171.9152069091797 104.0243453979492 174.9317474365234 105.1861419677734 L 177.8021545410156 106.2917175292969 L 175.6271362304688 108.4667129516602 L 169.9440765380859 114.1498107910156 L 168.1513061523438 115.9425811767578 M 130.9148712158203 153.1790466308594 L 129.5006408691406 151.7647857666016 L 117.9859161376953 140.2500152587891 L 116.1977386474609 138.4618835449219 L 118.3497772216797 137.1338195800781 C 122.1151123046875 134.8101501464844 126.4598846435547 133.5819396972656 130.9144134521484 133.5819396972656 C 135.3689117431641 133.5819396972656 139.7138061523438 134.8101501464844 143.4793853759766 137.1337738037109 L 145.6314849853516 138.4617767333984 L 143.8433380126953 140.2499847412109 L 132.3290710449219 151.7647399902344 L 130.9148712158203 153.1790466308594 M 91.0316162109375 0.0232391357421875 C 92.32479858398438 0.0232391357421875 93.61798095703125 0.51654052734375 94.60458374023438 1.503143310546875 L 111.7438049316406 18.64187622070312 L 132.0770111083984 11.36151123046875 C 137.9820556640625 8.68536376953125 143.7318267822266 7.778091430664062 148.8153228759766 7.778091430664062 C 156.1166839599609 7.778091430664062 162.0426940917969 9.650421142578125 165.0725402832031 10.84257507324219 C 165.1478424072266 10.87187194824219 165.2216491699219 10.9027099609375 165.2948760986328 10.93605041503906 C 181.083984375 18.03501892089844 189.8514099121094 23.09051513671875 195.6522827148438 26.43560791015625 C 203.1948547363281 30.78521728515625 205.8961791992188 32.34254455566406 214.1093139648438 33.05958557128906 L 214.1093139648438 31.60531616210938 C 214.1093139648438 28.81454467773438 216.3715209960938 26.55230712890625 219.1622772216797 26.55230712890625 L 233.2515869140625 26.55230712890625 L 233.2515869140625 22.1895751953125 C 233.2515869140625 19.39881896972656 235.5137786865234 17.13658142089844 238.3045349121094 17.13658142089844 L 268.3480834960938 17.13658142089844 C 271.1388244628906 17.13658142089844 273.4010009765625 19.39881896972656 273.4010009765625 22.1895751953125 L 273.4010009765625 85.89717864990234 C 273.4010009765625 88.68791198730469 271.1388244628906 90.95014953613281 268.3480834960938 90.95014953613281 L 221.5766448974609 90.95014953613281 C 214.8960876464844 100.8206787109375 203.2185668945312 109.8766479492188 190.0171813964844 109.8766479492188 C 188.5806121826172 109.8766479492188 187.194580078125 109.8144836425781 185.8590698242188 109.6992797851562 L 134.4878387451172 161.0699768066406 C 133.55029296875 162.0072937011719 132.2635192871094 162.4045562744141 131.0016784667969 162.4045562744141 C 129.56494140625 162.4045562744141 128.1605682373047 161.8894348144531 127.3413848876953 161.0699768066406 L 31.1895751953125 64.91814422607422 C 29.02032470703125 62.74890899658203 29.36947631835938 59.59231567382812 31.1895751953125 57.77171325683594 L 87.45864868164062 1.503143310546875 C 88.44525146484375 0.51654052734375 89.73843383789062 0.0232391357421875 91.0316162109375 0.0232391357421875 Z M 91.03111267089844 26.98890686035156 C 95.16647338867188 26.98890686035156 99.12451171875 25.85604858398438 102.5479125976562 23.73881530761719 L 91.03111267089844 12.2220458984375 L 79.51437377929688 23.73881530761719 C 82.93771362304688 25.85655212402344 86.89524841308594 26.98890686035156 91.03111267089844 26.98890686035156 Z M 190.0171813964844 99.76964569091797 C 200.0311889648438 99.76964569091797 209.3196105957031 91.73384857177734 214.1087799072266 83.88254547119141 L 214.1087799072266 43.18474578857422 C 202.8562774658203 42.25551605224609 198.8720092773438 39.95791625976562 190.6033020019531 35.18941497802734 C 184.6559448242188 31.75994873046875 176.5155792236328 27.06620788574219 161.2641448974609 20.20378112792969 C 158.8964385986328 19.28302001953125 154.3746490478516 17.876953125 148.8535919189453 17.876953125 C 144.9638214111328 17.876953125 140.5777587890625 18.57510375976562 136.1007385253906 20.63275146484375 C 136.0335845947266 20.66357421875 135.9658050537109 20.69288635253906 135.8971099853516 20.72067260742188 C 135.8839721679688 20.72624206542969 135.8577117919922 20.73634338378906 135.8440399169922 20.74191284179688 C 135.7905120849609 20.76364135742188 135.7238159179688 20.78837585449219 135.6697082519531 20.80810546875 L 119.647705078125 26.54524230957031 L 138.2881774902344 45.18574523925781 C 138.2917175292969 45.18878173828125 138.2947845458984 45.19231414794922 138.2977752685547 45.19534301757812 L 138.6120758056641 45.5096435546875 L 174.6171875 56.91928100585938 C 177.2775421142578 57.76261138916016 178.7505187988281 60.60240936279297 177.9076538085938 63.26280975341797 C 177.2257232666016 65.41529083251953 175.2370300292969 66.79125213623047 173.0930633544922 66.79125213623047 C 172.5871429443359 66.79125213623047 172.0721588134766 66.71451568603516 171.5641479492188 66.55331420898438 L 126.2928771972656 52.20738220214844 C 125.4201507568359 51.96547698974609 124.5328674316406 51.84572601318359 123.6507568359375 51.84574127197266 C 121.9955444335938 51.84577178955078 120.3589019775391 52.26748657226562 118.8735809326172 53.09517669677734 C 116.58154296875 54.37207794189453 114.9231414794922 56.46351623535156 114.2010803222656 58.98494720458984 C 114.2000732421875 58.98898315429688 114.1990814208984 58.99351501464844 114.1975402832031 58.99758148193359 C 114.1965179443359 59.00111389160156 114.1955108642578 59.00464630126953 114.1945190429688 59.0081787109375 C 112.6412506103516 64.48361206054688 116.0302429199219 69.97367858886719 122.4415130615234 72.37991333007812 L 162.6168060302734 86.01541137695312 C 163.8477172851562 86.43328094482422 164.8128509521484 87.27914428710938 165.4015045166016 88.3311767578125 C 165.4666748046875 88.42671203613281 165.9057769775391 89.00121307373047 166.0088806152344 89.15280914306641 C 167.9436492919922 91.60858154296875 173.8137054443359 97.81061553955078 184.7261810302734 99.39571380615234 C 184.7327423095703 99.39674377441406 184.7393188476562 99.39775085449219 184.7458801269531 99.39874267578125 C 186.3875732421875 99.63624572753906 188.1435089111328 99.76964569091797 190.0171813964844 99.76964569091797 Z M 263.2951049804688 80.84314727783203 L 263.2951049804688 27.24258422851562 L 243.3575439453125 27.24258422851562 L 243.3575439453125 80.84314727783203 L 263.2951049804688 80.84314727783203 Z M 91.0316162109375 37.09538269042969 C 84.18028259277344 37.09538269042969 77.66191101074219 34.96504974365234 72.23501586914062 31.01918029785156 L 60.70558166503906 42.54808044433594 C 64.6519775390625 47.97498321533203 66.78181457519531 54.49334716796875 66.78181457519531 61.34468078613281 C 66.78181457519531 68.19551086425781 64.65147399902344 74.71437835693359 60.70558166503906 80.14131164550781 L 112.1202850341797 131.5564727783203 C 117.7033081054688 127.5065155029297 124.30908203125 125.4815292358398 130.9148559570312 125.4815292358398 C 137.5206298828125 125.4815292358398 144.1264038085938 127.5065155029297 149.7094421386719 131.5564727783203 L 161.2489471435547 120.0169830322266 C 155.9428100585938 112.6648788452148 153.9756774902344 103.3046798706055 155.8963165283203 94.40740966796875 L 138.83544921875 88.61717987060547 C 137.5535125732422 93.51051330566406 134.9941101074219 98.00057983398438 131.3408050537109 101.6538848876953 C 125.7254486083984 107.2693176269531 118.3490753173828 110.0767517089844 110.9732513427734 110.0767517089844 C 103.5968780517578 110.0767517089844 96.22103881835938 107.2687835693359 90.60617065429688 101.6538848876953 C 79.37538146972656 90.42311096191406 79.37538146972656 72.14997863769531 90.60565185546875 60.91921234130859 C 94.74504089355469 56.78031158447266 100.0218811035156 54.02088165283203 105.7216796875 52.96530914306641 C 107.4912414550781 49.30894470214844 110.3330383300781 46.28678131103516 113.9550170898438 44.26861572265625 C 116.0994720458984 43.07357788085938 118.3991088867188 42.29640960693359 120.7573089599609 41.94828033447266 L 109.8282470703125 31.01918029785156 C 104.4013061523438 34.96504974365234 97.88298034667969 37.09538269042969 91.0316162109375 37.09538269042969 Z M 233.2515869140625 80.84314727783203 L 233.2515869140625 36.65830993652344 L 224.2153015136719 36.65830993652344 L 224.2153015136719 80.84314727783203 L 233.2515869140625 80.84314727783203 Z M 53.42578125 72.86197662353516 C 55.54344177246094 69.43807983398438 56.67584228515625 65.48004913330078 56.67584228515625 61.34468078613281 C 56.67584228515625 57.20931243896484 55.54298400878906 53.25131225585938 53.42578125 49.82791137695312 L 41.90896606445312 61.34468078613281 L 53.42578125 72.86197662353516 Z M 110.9728546142578 99.97543334960938 C 115.7609558105469 99.97543334960938 120.5496673583984 98.15269470214844 124.1948852539062 94.50798034667969 C 126.7365417480469 91.96581268310547 128.4631500244141 88.79961395263672 129.2261505126953 85.35597991943359 L 119.1221771240234 81.926513671875 C 119.0772094726562 81.91134643554688 119.0327453613281 81.89517974853516 118.98828125 81.87901306152344 C 110.369384765625 78.68048095703125 104.7802734375 71.76141357421875 103.8475189208984 63.99901580810547 C 101.5863189697266 64.93128204345703 99.51101684570312 66.30621337890625 97.75257873535156 68.06564331054688 C 90.46214294433594 75.35614776611328 90.46214294433594 87.21800994873047 97.75257873535156 94.50798034667969 C 101.3972930908203 98.1531982421875 106.1847686767578 99.97543334960938 110.9728546142578 99.97543334960938 Z M 165.3014373779297 102.2274169921875 C 165.4758148193359 105.9297485351562 166.5793762207031 109.5572814941406 168.5298461914062 112.7356109619141 L 174.2129058837891 107.0525131225586 C 170.6798706054688 105.6917419433594 167.7218475341797 103.9772796630859 165.3014373779297 102.2274169921875 Z M 130.9148406982422 150.3505859375 L 142.4291076660156 138.8358154296875 C 138.9137420654297 136.6665802001953 134.9140472412109 135.5819702148438 130.9144134521484 135.5819702148438 C 126.9147796630859 135.5819702148438 122.9152069091797 136.6665802001953 119.4001159667969 138.8358154296875 L 130.9148406982422 150.3505859375 Z" stroke="none" fill="#1f1f1f"/>
      </g>
    </g>
  </g>
</svg>
