<svg xmlns="http://www.w3.org/2000/svg" width="80" height="80" viewBox="0 0 80 80">
  <g id="Group_1048" data-name="Group 1048" transform="translate(-415 -1111.496)">
    <rect id="Rectangle_145" data-name="Rectangle 145" width="80" height="80" transform="translate(415 1111.496)" fill="#fff" opacity="0.999"/>
    <g id="Group_1047" data-name="Group 1047" transform="translate(1.953 0.496)">
      <path id="Path_423" data-name="Path 423" d="M868.268,1317.506c1.884,2.738,9.188,17.218,27.921,13.859s32.668-12.647,35.663-18.119,5.787-21.509-3.783-27.293-29.252-4.814-38.762-4.774-25.874,5.956-25.473,14.577S866.385,1314.768,868.268,1317.506Z" transform="translate(-446.206 -155.48)" fill="#a0f886" opacity="0.508"/>
      <g id="Outline" transform="translate(418.543 1116.496)">
        <path id="Path_437" data-name="Path 437" d="M51.011,45.1,48.58,46.51A8.668,8.668,0,0,0,46.5,45.3V42.5H40v2.8a8.668,8.668,0,0,0-2.076,1.2l-.091-.052v-6.12C37.836,37.356,31.66,36,25.918,36S14,37.356,14,40.334v19.5c0,2.977,6.176,4.334,11.918,4.334,5.466,0,11.317-1.233,11.864-3.922l.145-.083A8.667,8.667,0,0,0,40,61.367v2.8h6.5v-2.8a8.668,8.668,0,0,0,2.076-1.2l2.431,1.409,3.25-5.634-2.428-1.4a8.24,8.24,0,0,0,0-2.4l2.428-1.4ZM35.5,45.1l-1.6,2.779A25.048,25.048,0,0,1,25.918,49c-6.339,0-9.589-1.582-9.751-2.167V42.97c.015.008.034.013.049.021q.391.193.838.363c.079.03.166.057.248.088.23.082.466.161.712.235.117.035.235.067.355.1q.352.1.723.183c.118.028.235.056.355.081q.464.1.947.182l.182.034q.579.094,1.181.167l.347.037c.294.033.588.062.887.086.14.012.28.023.42.033.291.02.584.037.878.05l.385.017c.416.014.831.023,1.245.023s.829-.009,1.245-.023l.385-.017c.294-.013.586-.03.878-.05.141-.01.281-.021.42-.033.3-.024.594-.053.887-.086l.347-.037q.6-.074,1.181-.167l.182-.034q.484-.083.947-.182c.12-.025.237-.053.355-.081q.371-.086.723-.183c.12-.033.238-.065.355-.1.246-.074.482-.153.712-.235.082-.03.169-.057.248-.088q.445-.169.838-.363c.015-.008.034-.013.049-.021V45.2Zm-9.578-6.934c.394,0,.777.007,1.148.017.131,0,.252.013.381.018.233.01.468.018.691.033.183.012.354.028.531.042.157.013.325.024.471.038.217.021.414.046.616.069.1.013.217.023.311.036.267.035.519.074.766.108l.087.012c3.008.5,4.587,1.363,4.742,1.784a.371.371,0,0,1-.028.054.469.469,0,0,1-.041.067c-.016.02-.04.04-.06.061a1.076,1.076,0,0,1-.086.083c-.035.029-.055.041-.082.062s-.082.063-.133.1c-.031.021-.072.042-.108.064-.057.035-.108.069-.18.108-.04.022-.089.043-.131.065-.074.038-.145.075-.229.108l-.153.065c-.09.038-.178.077-.277.116-.055.022-.119.043-.178.065-.108.039-.209.078-.325.116-.067.023-.143.044-.217.067-.118.037-.233.075-.36.108-.081.024-.171.046-.256.068-.128.035-.254.069-.39.1-.1.024-.2.046-.3.068-.135.031-.268.063-.411.092-.116.024-.242.044-.363.067-.141.026-.278.054-.426.078s-.284.042-.426.064-.282.044-.433.064-.325.038-.492.056c-.147.016-.289.035-.441.05-.184.017-.38.03-.572.046-.144.011-.282.025-.433.035-.242.015-.5.025-.749.035-.108,0-.217.012-.325.016-.372.011-.758.017-1.148.017-.792,0-1.536-.025-2.232-.069-4.854-.31-7.358-1.576-7.516-2.092C16.365,39.733,19.611,38.167,25.918,38.167Zm-9.751,11.3c2.3,1.163,6.113,1.7,9.751,1.7a31.889,31.889,0,0,0,6.429-.611l-.1.177,2.428,1.4a8.384,8.384,0,0,0-.088,1.2c0,.244.031.494.054.742A22.148,22.148,0,0,1,25.918,55.5c-6.339,0-9.589-1.582-9.751-2.167h0Zm0,10.372V55.971c2.307,1.156,6.117,1.7,9.751,1.7a30.8,30.8,0,0,0,6.908-.727l2.035,3.527C33.527,61.158,30.552,62,25.918,62,19.579,62,16.329,60.421,16.167,59.836Zm33.4-8.006a6.276,6.276,0,0,1,0,3.01l-.185.784L51.3,56.731l-1.083,1.877L48.3,57.5l-.587.553a6.516,6.516,0,0,1-2.6,1.509l-.777.23V62H42.17v-2.21l-.775-.23a6.516,6.516,0,0,1-2.6-1.509l-.587-.553-1.917,1.106-1.083-1.877,1.916-1.106-.185-.784a6.277,6.277,0,0,1,0-3.01l.185-.784L35.208,49.94l1.083-1.877,1.917,1.106.587-.553a6.516,6.516,0,0,1,2.6-1.509l.775-.23v-2.21h2.167v2.21l.775.23a6.516,6.516,0,0,1,2.6,1.509l.587.553,1.917-1.106L51.3,49.94l-1.913,1.106Z" transform="translate(1.002 2.838)" fill="#1f1f1f"/>
        <path id="Path_438" data-name="Path 438" d="M41.334,48a4.334,4.334,0,1,0,4.334,4.334A4.334,4.334,0,0,0,41.334,48Zm0,6.5A2.167,2.167,0,1,1,43.5,52.334,2.167,2.167,0,0,1,41.334,54.5Z" transform="translate(2.921 3.839)" fill="#1f1f1f"/>
        <path id="Path_439" data-name="Path 439" d="M39,2H26V23.669H39ZM36.835,4.167v13H28.167v-13ZM32.5,21.5H28.167V19.335h8.668V21.5Z" transform="translate(2.003)" fill="#1f1f1f"/>
        <path id="Path_440" data-name="Path 440" d="M33.167,19.083a1.138,1.138,0,0,0-.314-.769,1.1,1.1,0,0,0-.986-.293.689.689,0,0,0-.2.065.847.847,0,0,0-.2.1,1.842,1.842,0,0,0-.161.13,1.132,1.132,0,0,0-.314.769,1.083,1.083,0,1,0,2.167,0Z" transform="translate(2.42 1.335)" fill="#1f1f1f"/>
        <path id="Path_441" data-name="Path 441" d="M13.167,24H11v6.5H32.669v4.334h2.167V30.5H56.505V24H54.339v4.334h-19.5V24H32.669v4.334h-19.5Z" transform="translate(0.751 1.836)" fill="#1f1f1f"/>
        <path id="Path_442" data-name="Path 442" d="M8.5,21.5H6.334v2.167h13V21.5H17.168V19.335h6.5V2H2V19.335H8.5Zm6.5,0H10.668V19.335H15ZM4.167,4.167H21.5v8.668H4.167Zm0,13V15H21.5v2.167Z" fill="#1f1f1f"/>
        <path id="Path_443" data-name="Path 443" d="M42,23.669H63.669V2H42ZM61.5,21.5H44.167V10.668H61.5ZM44.167,4.167H61.5V8.5H44.167Z" transform="translate(3.339)" fill="#1f1f1f"/>
        <path id="Path_444" data-name="Path 444" d="M46.679,5.184a.615.615,0,0,0-.184-.1.66.66,0,0,0-.207-.065,1.083,1.083,0,0,0-.975.293,1.118,1.118,0,0,0-.228.358,1.073,1.073,0,0,0,.228,1.181,1.252,1.252,0,0,0,.358.228,1.021,1.021,0,0,0,.823,0,1.267,1.267,0,0,0,.358-.228,1.077,1.077,0,0,0,.315-.769,1.138,1.138,0,0,0-.314-.769,1.084,1.084,0,0,0-.173-.13Z" transform="translate(3.589 0.25)" fill="#1f1f1f"/>
        <path id="Path_445" data-name="Path 445" d="M49.853,5.313a1.134,1.134,0,0,0-1.539,0,1.118,1.118,0,0,0-.228.358A1.083,1.083,0,0,0,48,6.082a.908.908,0,0,0,.087.412,1.267,1.267,0,0,0,.228.358,1.073,1.073,0,0,0,1.181.228,1.267,1.267,0,0,0,.358-.228,1.267,1.267,0,0,0,.228-.358,1.021,1.021,0,0,0,0-.823,1.251,1.251,0,0,0-.228-.358Z" transform="translate(3.839 0.251)" fill="#1f1f1f"/>
        <path id="Path_446" data-name="Path 446" d="M52.853,5.314a1.267,1.267,0,0,0-.358-.228,1.028,1.028,0,0,0-.628-.065.689.689,0,0,0-.2.065.847.847,0,0,0-.2.1,1.842,1.842,0,0,0-.161.13,1.011,1.011,0,0,0-.228.358,1.022,1.022,0,0,0,0,.823,1.267,1.267,0,0,0,.228.358,1.251,1.251,0,0,0,.358.228,1.083,1.083,0,0,0,.412.087,1.119,1.119,0,0,0,.769-.314A1.267,1.267,0,0,0,53.08,6.5a1.12,1.12,0,0,0-.228-1.181Z" transform="translate(4.09 0.25)" fill="#1f1f1f"/>
      </g>
    </g>
  </g>
</svg>
