<svg xmlns="http://www.w3.org/2000/svg" width="80" height="80" viewBox="0 0 80 80">
  <g id="Group_1045" data-name="Group 1045" transform="translate(-413 -1111)">
    <rect id="Rectangle_143" data-name="Rectangle 143" width="80" height="80" transform="translate(413 1111)" fill="#fff" opacity="0.999"/>
    <g id="Group_1044" data-name="Group 1044" transform="translate(-1.284)">
      <path id="Path_423" data-name="Path 423" d="M868.268,1317.506c1.884,2.738,9.188,17.218,27.921,13.859s32.668-12.647,35.663-18.119,5.787-21.509-3.783-27.293-29.252-4.814-38.762-4.774-25.874,5.956-25.473,14.577S866.385,1314.768,868.268,1317.506Z" transform="translate(-446.206 -155.48)" fill="#a0f886" opacity="0.508"/>
      <g id="technical-support" transform="translate(423.999 1117.254)">
        <g id="Group_399" data-name="Group 399" transform="translate(0 0.313)">
          <path id="Path_424" data-name="Path 424" d="M407.516,37.252h-8.557a.981.981,0,0,0,0,1.961h8.557a.981.981,0,0,0,0-1.961Z" transform="translate(-345.939 -32.422)" fill="#1f1f1f"/>
          <path id="Path_425" data-name="Path 425" d="M361.8,39.213h1.043a.981.981,0,0,0,0-1.961H361.8a.981.981,0,0,0,0,1.961Z" transform="translate(-313.636 -32.422)" fill="#1f1f1f"/>
          <path id="Path_426" data-name="Path 426" d="M361.8,74.445h13.416a.981.981,0,0,0,0-1.961H361.8a.981.981,0,0,0,0,1.961Z" transform="translate(-313.636 -63.047)" fill="#1f1f1f"/>
          <path id="Path_427" data-name="Path 427" d="M51.707,82.792a17.912,17.912,0,0,0-3.69-10.866l.182-3.348a3.988,3.988,0,0,0-3.985-4.207H33.479a1.871,1.871,0,0,1-.793-1.528V60.1a11.111,11.111,0,0,0,3.691-3.765h1.9a3.986,3.986,0,0,0,3.982-3.982V45.034a3.159,3.159,0,0,0-1.783-2.844V37.05a4.249,4.249,0,0,0-4.244-4.244h-.11A.122.122,0,0,1,36,32.685a4.249,4.249,0,0,0-4.244-4.244H21.368a9.36,9.36,0,0,0-9.35,9.35v4.4a3.159,3.159,0,0,0-1.783,2.844v3.725A3.164,3.164,0,0,0,13.4,51.919h1.266a11.014,11.014,0,0,0,3.664,7.063,13.449,13.449,0,0,0,1.48,1.111v2.75a1.873,1.873,0,0,1-.8,1.528H8.278a3.988,3.988,0,0,0-3.985,4.207l.182,3.348A17.912,17.912,0,0,0,.785,82.792v3.694a3.087,3.087,0,0,0,2.3,5.144H49.4a3.087,3.087,0,0,0,2.3-5.144Zm-1.961,0V85.47a3.1,3.1,0,0,0-.343-.019H47.283l.554-10.2A15.935,15.935,0,0,1,49.746,82.792ZM40.195,44.555a1.193,1.193,0,0,1,.1.479v3.725a1.2,1.2,0,0,1-1.2,1.2H37.93v-3.7l.6-.211A2.889,2.889,0,0,0,40.195,44.555ZM33.647,55.918H31.186a.719.719,0,1,1,0-1.439h2.461a.719.719,0,1,1,0,1.439Zm4.628-1.539h-.991a11.543,11.543,0,0,0,.567-2.459H39.1a3.143,3.143,0,0,0,1.2-.237v.676A2.023,2.023,0,0,1,38.275,54.379ZM13.98,37.791A7.4,7.4,0,0,1,21.369,30.4H31.755a2.285,2.285,0,0,1,2.283,2.283,2.085,2.085,0,0,0,2.083,2.083h.11a2.285,2.285,0,0,1,2.282,2.283v6.272a.929.929,0,0,1-.623.877l-2.061.718a.126.126,0,0,1-.169-.12l0-3.9c.012-2.844-2.651-5.325-6.383-4.126a10.424,10.424,0,0,1-6.069,0c-3.693-1.187-6.394,1.25-6.383,4.123l0,3.9a.126.126,0,0,1-.169.12L14.6,44.2a.929.929,0,0,1-.623-.877V37.791ZM12.2,48.759V45.034a1.194,1.194,0,0,1,.1-.479,2.89,2.89,0,0,0,1.661,1.5l.6.21v3.7H13.4a1.2,1.2,0,0,1-1.2-1.2Zm4.345,2.028c-.033-1.289-.013-2.658-.018-3.911.06.005.121.008.181.008a2.089,2.089,0,0,0,2.089-2.091l0-3.9c-.007-1.592,1.422-3.022,3.821-2.25a12.346,12.346,0,0,0,7.27,0c2.286-.734,3.828.559,3.821,2.254l0,3.9a2.088,2.088,0,0,0,2.27,2.082v3.99a9.673,9.673,0,0,1-.4,2.461,2.671,2.671,0,0,0-1.917-.81H31.186a2.681,2.681,0,1,0,0,5.362h1.246A10.036,10.036,0,0,1,26.3,60.068a9.616,9.616,0,0,1-9.756-9.281Zm5.226,12.056V61.127a11.954,11.954,0,0,0,4.527.9h.022a11.967,11.967,0,0,0,4.407-.894v1.708a3.826,3.826,0,0,0,.318,1.528H21.448a3.817,3.817,0,0,0,.32-1.528ZM4.655,75.253l.155,2.853A.981.981,0,0,0,6.769,78l-.517-9.528a2.028,2.028,0,0,1,2.027-2.14H44.214a2.028,2.028,0,0,1,2.027,2.14l-.922,16.979H29.941a6.023,6.023,0,0,1,1.469-3.037l.028-.031a6.968,6.968,0,0,0-1.757-10.694,1.5,1.5,0,0,0-2.235,1.3v4.45a.37.37,0,0,1-.37.37h-1.66a.37.37,0,0,1-.37-.37v-4.45a1.5,1.5,0,0,0-2.235-1.3,6.967,6.967,0,0,0-1.754,10.7l.025.028a6.022,6.022,0,0,1,1.469,3.037H7.173l-.157-2.9a.981.981,0,1,0-1.958.106l.152,2.793H3.089a3.133,3.133,0,0,0-.343.019V82.792a15.937,15.937,0,0,1,1.909-7.539Zm19.877,10.2A7.973,7.973,0,0,0,22.54,81.1l-.024-.027a5,5,0,0,1,.568-7.205v3.565a2.334,2.334,0,0,0,2.331,2.331h1.66a2.334,2.334,0,0,0,2.331-2.331V73.87a5,5,0,0,1,.566,7.208l-.021.024a7.973,7.973,0,0,0-1.993,4.349ZM49.4,89.668H3.089a1.128,1.128,0,1,1,0-2.256H49.4a1.128,1.128,0,1,1,0,2.256Z" transform="translate(0 -24.763)" fill="#1f1f1f"/>
          <path id="Path_428" data-name="Path 428" d="M350.414,7.024a.981.981,0,0,0,.981-.981v-1.9A3.837,3.837,0,0,0,347.562.313H331.068a3.837,3.837,0,0,0-3.833,3.833v8.249a3.837,3.837,0,0,0,3.833,3.833.686.686,0,0,1,.685.685v5.1a1.619,1.619,0,0,0,3.008.833l3.77-6.286a.689.689,0,0,1,.587-.333h8.444a3.837,3.837,0,0,0,3.833-3.833V10.629a.981.981,0,1,0-1.961,0v1.766a1.873,1.873,0,0,1-1.871,1.871h-8.444a2.66,2.66,0,0,0-2.27,1.285l-3.134,5.226V16.913a2.649,2.649,0,0,0-2.646-2.646,1.873,1.873,0,0,1-1.871-1.871V4.146a1.873,1.873,0,0,1,1.871-1.871h16.494a1.873,1.873,0,0,1,1.871,1.871v1.9a.981.981,0,0,0,.981.981Z" transform="translate(-284.446 -0.313)" fill="#1f1f1f"/>
        </g>
      </g>
    </g>
  </g>
</svg>
