<svg xmlns="http://www.w3.org/2000/svg" width="80" height="80" viewBox="0 0 80 80">
  <g id="Group_1050" data-name="Group 1050" transform="translate(-413.001 -1111.116)">
    <rect id="Rectangle_146" data-name="Rectangle 146" width="80" height="80" transform="translate(413.001 1111.116)" fill="#fff" opacity="0.999"/>
    <g id="Group_1049" data-name="Group 1049" transform="translate(-0.047 0.003)">
      <path id="Path_423" data-name="Path 423" d="M868.268,1317.506c1.884,2.738,9.188,17.218,27.921,13.859s32.668-12.647,35.663-18.119,5.787-21.509-3.783-27.293-29.252-4.814-38.762-4.774-25.874,5.956-25.473,14.577S866.385,1314.768,868.268,1317.506Z" transform="translate(-446.205 -155.48)" fill="#a0f886" opacity="0.508"/>
      <g id="fast" transform="translate(403.523 1102.62)">
        <path id="Path_447" data-name="Path 447" d="M334.723,88a6.723,6.723,0,1,0,6.723,6.723A6.723,6.723,0,0,0,334.723,88Zm0,11.2a4.482,4.482,0,1,1,4.482-4.482A4.482,4.482,0,0,1,334.723,99.2Z" transform="translate(-266.58 -61.916)" fill="#1f1f1f"/>
        <path id="Path_448" data-name="Path 448" d="M225.31,245.24l1.313-1.313-1.584-1.585-1.313,1.313a16.612,16.612,0,0,0-3.256,4.6l2.022.965A14.376,14.376,0,0,1,225.31,245.24Z" transform="translate(-174.11 -194.642)" fill="#1f1f1f"/>
        <path id="Path_449" data-name="Path 449" d="M210.086,304.113l2.218.32a14.553,14.553,0,0,1,.458-2.08l-2.147-.641A16.778,16.778,0,0,0,210.086,304.113Z" transform="translate(-165.181 -245.695)" fill="#1f1f1f"/>
        <path id="Path_450" data-name="Path 450" d="M83.83,16H80.045a21.6,21.6,0,0,0-15.371,6.367A45.457,45.457,0,0,0,58.9,29.445H54.969a12.515,12.515,0,0,0-8.908,3.69,1.12,1.12,0,0,0,0,1.585L50.544,39.2a1.121,1.121,0,0,0,.792.328H53.9c-.06.171-.119.343-.177.515l-3.175,3.175A119.362,119.362,0,0,0,36.911,59.54a8.958,8.958,0,0,0-13.569,2.515A5.606,5.606,0,0,0,18,63.836l1.68,1.483A3.365,3.365,0,0,1,22.2,64.18c.094,0,.188,0,.281.012a8.95,8.95,0,0,0-.281,2.229h2.241a6.72,6.72,0,0,1,11.2-5.015q-.539.809-1.067,1.626l-.2.311a9.1,9.1,0,0,1-7.689,4.2v2.241a11.335,11.335,0,0,0,9.574-5.227l.2-.311A117.091,117.091,0,0,1,51.341,45.6l4.012,4.012-2.569,2.569a12.213,12.213,0,0,0,0,17.271l1.585-1.585a9.9,9.9,0,0,1-2.793-5.46,4.482,4.482,0,0,1,6.4,3.161,10.019,10.019,0,0,0-1.459.463l.841,2.077a7.849,7.849,0,0,1,10.784,7.274h2.241A10.1,10.1,0,0,0,60.3,65.3l-.095,0a6.725,6.725,0,0,0-8.723-5.271,9.9,9.9,0,0,1,2.887-6.264l6.536-6.536c.172-.058.344-.117.515-.177v2.56a1.121,1.121,0,0,0,.328.792l4.482,4.482a1.121,1.121,0,0,0,1.585,0,12.515,12.515,0,0,0,3.69-8.907V42.049a45.466,45.466,0,0,0,7.079-5.773A21.6,21.6,0,0,0,84.95,20.905V17.12A1.121,1.121,0,0,0,83.83,16Zm-1.12,2.241v2.665a19.6,19.6,0,0,1-.679,5.13,7.335,7.335,0,0,1-4.383-2.116l-.616-.616a7.335,7.335,0,0,1-2.116-4.383,19.6,19.6,0,0,1,5.13-.679ZM51.8,37.289l-3.319-3.319a10.279,10.279,0,0,1,6.489-2.283H57.51a45.692,45.692,0,0,0-2.763,5.6Zm1.121,6.723L54.7,42.235l4.018,4.018-1.777,1.777Zm16.343,1.969a10.278,10.278,0,0,1-2.283,6.489L63.661,49.15V46.2a45.69,45.69,0,0,0,5.6-2.763ZM77,34.692A43.483,43.483,0,0,1,60.6,44.967l-4.617-4.617a43.482,43.482,0,0,1,10.276-16.4,19.457,19.457,0,0,1,6.5-4.306,9.561,9.561,0,0,0,2.693,5.242l.616.616A9.561,9.561,0,0,0,81.3,28.2,19.46,19.46,0,0,1,77,34.692Z" transform="translate(0 0)" fill="#1f1f1f"/>
        <path id="Path_451" data-name="Path 451" d="M33.494,411.749a6.721,6.721,0,0,0-6.3.951l1.346,1.792a4.482,4.482,0,0,1,7.171,3.586h2.241a6.712,6.712,0,0,0-2.5-5.226,5.6,5.6,0,0,1,7.541-1.869l1.122-1.94a7.849,7.849,0,0,0-10.619,2.706Z" transform="translate(-7.902 -337.09)" fill="#1f1f1f"/>
        <path id="Path_452" data-name="Path 452" d="M191.894,400a7.83,7.83,0,0,0-5.229,2l1.494,1.67a5.6,5.6,0,0,1,9.019,6.044l2.113.747a7.848,7.848,0,0,0-7.4-10.458Z" transform="translate(-145.04 -330.217)" fill="#1f1f1f"/>
      </g>
    </g>
  </g>
</svg>
