<svg xmlns="http://www.w3.org/2000/svg" width="80" height="80" viewBox="0 0 80 80">
  <g id="Group_1065" data-name="Group 1065" transform="translate(-415 -1109)">
    <rect id="Rectangle_154" data-name="Rectangle 154" width="80" height="80" transform="translate(415 1109)" fill="#fff" opacity="0.999"/>
    <g id="Group_1064" data-name="Group 1064" transform="translate(0 -2)">
      <path id="Path_423" data-name="Path 423" d="M868.268,1317.506c1.884,2.738,9.188,17.218,27.921,13.859s32.668-12.647,35.663-18.119,5.787-21.509-3.783-27.293-29.252-4.814-38.762-4.774-25.874,5.956-25.473,14.577S866.385,1314.768,868.268,1317.506Z" transform="translate(-444.253 -155.48)" fill="#ffe5e5"/>
      <g id="sad" transform="translate(423.461 1119.462)">
        <g id="Group_938" data-name="Group 938" transform="translate(0 0)">
          <g id="Group_937" data-name="Group 937">
            <path id="Path_1777" data-name="Path 1777" d="M117.714,224a17.941,17.941,0,0,0-13.363,5.941,1.371,1.371,0,1,0,2.043,1.829,15.255,15.255,0,0,1,22.639,0,1.371,1.371,0,1,0,2.043-1.829A17.942,17.942,0,0,0,117.714,224Z" transform="translate(-86.176 -185.606)" fill="#1f1f1f"/>
            <path id="Path_1778" data-name="Path 1778" d="M31.538,0A31.538,31.538,0,1,0,63.076,31.538,31.573,31.573,0,0,0,31.538,0Zm0,60.334a28.8,28.8,0,1,1,28.8-28.8A28.828,28.828,0,0,1,31.538,60.334Z" transform="translate(0 0)" fill="#1f1f1f"/>
            <path id="Path_1779" data-name="Path 1779" d="M220.341,128a1.371,1.371,0,0,0-1.371,1.371,4.114,4.114,0,1,1-8.227,0,1.371,1.371,0,0,0-2.742,0,6.856,6.856,0,1,0,13.712,0A1.371,1.371,0,0,0,220.341,128Z" transform="translate(-172.348 -106.06)" fill="#1f1f1f"/>
            <path id="Path_1780" data-name="Path 1780" d="M93.712,129.371a1.371,1.371,0,0,0-2.742,0,4.114,4.114,0,1,1-8.227,0,1.371,1.371,0,0,0-2.742,0,6.856,6.856,0,1,0,13.712,0Z" transform="translate(-66.288 -106.06)" fill="#1f1f1f"/>
          </g>
        </g>
      </g>
    </g>
  </g>
</svg>
