<svg xmlns="http://www.w3.org/2000/svg" width="80" height="80" viewBox="0 0 80 80">
  <g id="Group_1056" data-name="Group 1056" transform="translate(-415 -1111)">
    <rect id="Rectangle_149" data-name="Rectangle 149" width="80" height="80" transform="translate(415 1111)" fill="#fff" opacity="0.999"/>
    <g id="Group_1055" data-name="Group 1055" transform="translate(2.172 0)">
      <path id="Path_420" data-name="Path 420" d="M868.268,1317.506c1.884,2.738,9.188,17.218,27.921,13.859s32.668-12.647,35.663-18.119,5.787-21.509-3.783-27.293-29.252-4.814-38.762-4.774-25.874,5.956-25.473,14.577S866.385,1314.768,868.268,1317.506Z" transform="translate(-446.426 -151.289)" fill="#ffcdcd" opacity="0.508"/>
      <g id="coding" transform="translate(315.546 1107.525)">
        <path id="Path_418" data-name="Path 418" d="M154.33,8H124.577A4.583,4.583,0,0,0,120,12.577V74.371a4.583,4.583,0,0,0,4.577,4.577H154.33a4.583,4.583,0,0,0,4.577-4.577V12.577A4.583,4.583,0,0,0,154.33,8Zm-9.521,2.289-.644,2.289h-9.539l-.572-2.289Zm11.809,64.082a2.292,2.292,0,0,1-2.289,2.289H124.577a2.292,2.292,0,0,1-2.289-2.289V12.577a2.292,2.292,0,0,1,2.289-2.289h7.116l.928,3.71a1.144,1.144,0,0,0,1.11.867h11.3a1.144,1.144,0,0,0,1.1-.834l1.053-3.743h7.143a2.292,2.292,0,0,1,2.289,2.289Z" fill="#1f1f1f"/>
        <path id="Icon_awesome-bug" data-name="Icon awesome-bug" d="M13.937,7.864a.883.883,0,0,1-.889.847H11.542v.436a3.9,3.9,0,0,1-.37,1.664l1.64,1.639a.871.871,0,0,1-1.232,1.232l-1.49-1.49a3.9,3.9,0,0,1-2.467.874V6.424A.327.327,0,0,0,7.3,6.1H6.642a.327.327,0,0,0-.327.327v6.642a3.9,3.9,0,0,1-2.467-.874l-1.49,1.49A.871.871,0,0,1,1.126,12.45l1.64-1.639A3.9,3.9,0,0,1,2.4,9.146V8.711H.889A.883.883,0,0,1,0,7.864a.871.871,0,0,1,.871-.9H2.4V5.37L1.126,4.1A.871.871,0,0,1,2.358,2.868L3.845,4.355h6.247l1.487-1.487A.871.871,0,1,1,12.811,4.1L11.542,5.37v1.6h1.524A.871.871,0,0,1,13.937,7.864ZM7,0A3.049,3.049,0,0,0,3.947,3.049h6.1A3.049,3.049,0,0,0,7,0Z" transform="translate(132.485 36.505)" fill="#1f1f1f"/>
      </g>
    </g>
  </g>
</svg>
