<svg xmlns="http://www.w3.org/2000/svg" width="80" height="80" viewBox="0 0 80 80">
  <g id="Group_1052" data-name="Group 1052" transform="translate(-414 -1110.729)">
    <rect id="Rectangle_147" data-name="Rectangle 147" width="80" height="80" transform="translate(414 1110.729)" fill="#fff" opacity="0.999"/>
    <g id="Group_1051" data-name="Group 1051" transform="translate(0.953 -0.271)">
      <path id="Path_423" data-name="Path 423" d="M868.268,1317.506c1.884,2.738,9.188,17.218,27.921,13.859s32.668-12.647,35.663-18.119,5.787-21.509-3.783-27.293-29.252-4.814-38.762-4.774-25.874,5.956-25.473,14.577S866.385,1314.768,868.268,1317.506Z" transform="translate(-446.206 -155.48)" fill="#a0f886" opacity="0.508"/>
      <g id="Group_407" data-name="Group 407" transform="translate(208.691 778.874)">
        <path id="Path_2" data-name="Path 2" d="M378.015,386.936v.751h-.188v-.563h-.063l.063-.188Z" transform="translate(-106.553 -18.189)" fill="#1f1f1f" fill-rule="evenodd"/>
        <path id="Path_3" data-name="Path 3" d="M379.513,387.011a.335.335,0,0,0,.313.313c.125,0,.188,0,.251-.063a.288.288,0,0,1-.438.125l-.063.188c.063.062.689.125.689-.438a.407.407,0,0,0-.438-.376v.125c.125,0,.251.063.251.125,0,.125-.125.188-.251.188-.062,0-.125-.062-.125-.187a.135.135,0,0,1,.125-.125v-.125c-.125,0-.313.125-.313.25Z" transform="translate(-107.675 -18.077)" fill="#1f1f1f" fill-rule="evenodd"/>
        <path id="Path_4" data-name="Path 4" d="M382.449,387.637a.479.479,0,0,1-.313-.125l.125-.125c0,.063.125.063.188.063,0,0,.125,0,.125-.063s-.063-.125-.188-.125v-.125c.188,0,.188-.063.188-.125s-.063-.063-.125-.063a.229.229,0,0,0-.187.063l-.125-.125a.478.478,0,0,1,.313-.125.286.286,0,0,1,.313.25c0,.063-.063.125-.125.188.062,0,.125.125.125.188a.286.286,0,0,1-.313.25Z" transform="translate(-109.36 -18.077)" fill="#1f1f1f" fill-rule="evenodd"/>
        <path id="Path_5" data-name="Path 5" d="M384.722,387.637c-.125,0-.25-.125-.313-.125l.125-.125a.229.229,0,0,0,.188.063c.063,0,.188,0,.188-.063s-.063-.125-.25-.125v-.125c.188,0,.25-.063.25-.125s-.063-.063-.188-.063a.194.194,0,0,0-.125.063l-.125-.125a.325.325,0,0,1,.25-.125.286.286,0,0,1,.313.25.23.23,0,0,1-.062.188c.062,0,.062.125.062.188a.286.286,0,0,1-.313.25Z" transform="translate(-110.819 -18.077)" fill="#1f1f1f" fill-rule="evenodd"/>
        <path id="Path_6" data-name="Path 6" d="M377.84,401.526v-.5h-.125v.563h.313V401.4h.125v.188h.313v-.563h.125c.188,0,.188.125.25.125.125,0,.125-.125.188-.125s.062.125.125.125c.125,0,.125-.125.188-.125s.063.125.125.125c.125,0,.188-.125.313-.125s.125.063.125.188a.346.346,0,0,0,.689,0v-.5a.4.4,0,0,0-.313-.313v.125a.2.2,0,0,1,.188.188.532.532,0,0,0,0,.5.2.2,0,0,1-.188.188.166.166,0,0,1-.187-.188.532.532,0,0,0,0-.5.166.166,0,0,1,.188-.188V400.4a.406.406,0,0,0-.375.313c0,.125,0,.188-.125.188s-.188-.125-.313-.125c-.062,0-.062.125-.125.125s-.063-.125-.188-.125c-.063,0-.063.125-.125.125s-.063-.125-.188-.125c-.063,0-.063.125-.25.125h-1v.125h.813v.5h-.125v-.25h-.313v.25Z" transform="translate(-106.44 -26.834)" fill="#1f1f1f" fill-rule="evenodd"/>
        <path id="Path_7" data-name="Path 7" d="M379.017,389.08a4.046,4.046,0,0,1-4.067,4V392.9a3.817,3.817,0,1,0-3.817-3.817,3.845,3.845,0,0,0,3.817,3.817v.188a4.036,4.036,0,1,1,4.067-4Z" transform="translate(-102.174 -16.954)" fill="#1f1f1f" fill-rule="evenodd"/>
        <path id="Path_8" data-name="Path 8" d="M378.805,388.743a4.161,4.161,0,1,0-4.192,4.13v.063a4.223,4.223,0,1,1,4.255-4.192,4.193,4.193,0,0,1-4.255,4.192v-.063a4.18,4.18,0,0,0,4.192-4.13Z" transform="translate(-101.837 -16.618)" fill="#1f1f1f" fill-rule="evenodd"/>
        <path id="Path_9" data-name="Path 9" d="M377.225,385.712a5.741,5.741,0,0,1-5.756,5.756v.188a5.944,5.944,0,1,0-5.944-5.944,6,6,0,0,0,5.944,5.944v-.188a5.756,5.756,0,1,1,5.756-5.756Z" transform="translate(-98.693 -13.586)" fill="#1f1f1f" fill-rule="evenodd"/>
        <path id="Path_10" data-name="Path 10" d="M377.662,386.273a5.631,5.631,0,0,0-11.262,0,5.688,5.688,0,0,0,5.631,5.631v-.125a5.537,5.537,0,0,1,0-11.075,5.537,5.537,0,1,1,0,11.075v.125a5.647,5.647,0,0,0,5.631-5.631Z" transform="translate(-99.255 -14.147)" fill="#1f1f1f" fill-rule="evenodd"/>
        <path id="Path_11" data-name="Path 11" d="M378.777,381.866l.438.751a.229.229,0,0,1-.188.063l-.125-.125-.25.063.063-.25h.125l-.125-.188v.188l-.063.25v.125c-.063,0-.125.063-.188.063l.063-.876.25-.063Z" transform="translate(-107.002 -14.933)" fill="#1f1f1f" fill-rule="evenodd"/>
        <path id="Path_12" data-name="Path 12" d="M391.616,386.062l-.25.25c-.063,0-.063.063-.063.125l.188.188-.063.125-.25-.313-.125.125.25.375h.188l.25-.25v-.063l-.188-.25.125-.063.25.25.125-.125-.313-.313a.193.193,0,0,0-.125-.063Z" transform="translate(-115.086 -17.628)" fill="#1f1f1f" fill-rule="evenodd"/>
        <path id="Path_13" data-name="Path 13" d="M369.549,389.611c-.062,0-.062.063-.125.125l-.751-.375.25-.5.188.125-.187.313.125.063.125-.25.188.063-.125.25.313.188Z" transform="translate(-100.714 -19.425)" fill="#1f1f1f" fill-rule="evenodd"/>
        <path id="Path_14" data-name="Path 14" d="M390.271,384.655c.063,0,.063.125,0,.125l-.375.5a.117.117,0,0,1-.187,0l-.125-.125c-.063,0-.125-.063-.187-.125-.063,0-.063-.063,0-.125l.375-.5a.117.117,0,0,1,.188,0l-.063.188-.313.375.188.125.313-.375-.188-.125.063-.187.313.25Z" transform="translate(-113.991 -16.533)" fill="#1f1f1f" fill-rule="evenodd"/>
        <path id="Path_15" data-name="Path 15" d="M375.88,383.128l-.125.063L375.63,383l.188-.063a.061.061,0,0,0,.062-.062l-.062-.063h-.063l-.188.063.063.125.125.188.125.313c-.062,0-.125.063-.188.063l-.375-.751.5-.25c.062,0,.125,0,.125.063l.125.25a.061.061,0,0,1-.063.062h0V383a.087.087,0,0,1,.125,0c0,.063.125.188.125.251a.061.061,0,0,0,.062.062h0c-.062,0-.125.063-.187.063s-.063,0-.063-.063a.627.627,0,0,1-.063-.187Z" transform="translate(-104.981 -15.382)" fill="#1f1f1f" fill-rule="evenodd"/>
        <path id="Path_16" data-name="Path 16" d="M381.475,382.392V382.2H381.1v-.688h-.188l.063.876Z" transform="translate(-108.574 -14.709)" fill="#1f1f1f" fill-rule="evenodd"/>
        <path id="Path_17" data-name="Path 17" d="M370.6,387.486l.125.125c-.063.125-.188.25-.313.438l-.688-.5.313-.438.188.125-.25.25.125.125.188-.25.188.062-.188.251.125.125.188-.313Z" transform="translate(-101.388 -18.301)" fill="#1f1f1f" fill-rule="evenodd"/>
        <path id="Path_18" data-name="Path 18" d="M371.746,386.28l-.626-.626.125-.063.188.063.313.375.188-.25-.313-.313-.187.188-.188-.063.25-.313a.117.117,0,0,1,.188,0l.438.438a.117.117,0,0,1,0,.188l-.125.125c-.062,0-.188.188-.25.25Z" transform="translate(-102.286 -17.095)" fill="#1f1f1f" fill-rule="evenodd"/>
        <path id="Path_19" data-name="Path 19" d="M374.032,384.29l.125.188a1.9,1.9,0,0,0-.438.313l-.5-.751.438-.25.125.125-.313.188.125.125.25-.187.063.188-.25.188.125.125.251-.25Z" transform="translate(-103.634 -16.168)" fill="#1f1f1f" fill-rule="evenodd"/>
        <path id="Path_20" data-name="Path 20" d="M383.535,382.392l.125-.876.125.063.063.188-.125.5h.313l.063-.438-.25-.062-.063-.188.438.063c.063,0,.063.063.063.125l-.125.625c0,.063-.063.125-.125.063h-.187a2.719,2.719,0,0,0-.313-.063Z" transform="translate(-110.258 -14.709)" fill="#1f1f1f" fill-rule="evenodd"/>
        <path id="Path_21" data-name="Path 21" d="M386.371,383.029l-.062.187a4.275,4.275,0,0,0-.5-.187l.313-.813.5.188-.063.188-.313-.125-.063.125.25.125-.063.188-.25-.125-.063.125.313.125Z" transform="translate(-111.718 -15.158)" fill="#1f1f1f" fill-rule="evenodd"/>
        <path id="Path_22" data-name="Path 22" d="M387.869,383.591l.125-.125.188.063c0,.063.063,0,.063,0V383.4l-.188-.063-.063.125-.125.125-.125.313c-.063,0-.125-.063-.188-.063l.438-.751.5.25a.087.087,0,0,1,0,.125l-.188.313s-.062.063-.062,0l-.375-.187Z" transform="translate(-112.84 -15.719)" fill="#1f1f1f" fill-rule="evenodd"/>
        <path id="Path_23" data-name="Path 23" d="M392.452,388.311l.688-.5.063.188-.688.438a.061.061,0,0,0-.063-.063v-.063Z" transform="translate(-115.984 -18.751)" fill="#1f1f1f" fill-rule="evenodd"/>
        <path id="Path_24" data-name="Path 24" d="M393.84,389.3l-.626.313v-.125a.061.061,0,0,1-.063-.063l.563-.313-.063-.125.188-.125.25.5-.188.062-.063-.125Z" transform="translate(-116.433 -19.425)" fill="#1f1f1f" fill-rule="evenodd"/>
        <path id="Path_25" data-name="Path 25" d="M368.174,392.182v.188l.25.125-.25.063v.188l-.125-.188-.25.063.125-.188-.063-.188.188.062.125-.125Z" transform="translate(-100.153 -21.558)" fill="#1f1f1f" fill-rule="evenodd"/>
        <path id="Path_26" data-name="Path 26" d="M395.15,392.182v.188l-.25.125.25.063v.188l.125-.188.25.063-.188-.188.125-.188-.188.062-.125-.125Z" transform="translate(-117.556 -21.558)" fill="#1f1f1f" fill-rule="evenodd"/>
        <path id="Path_27" data-name="Path 27" d="M375.883,408.081v.063l-.25-.125.188-.438.25.125v.063l.125.062.063-.125c0-.063,0-.125-.063-.125-.063-.063-.188-.063-.188-.125a.483.483,0,0,1-.188-.063c-.063,0-.125,0-.125.063l-.25.563c-.063.063,0,.125.063.188l.313.125a.12.12,0,0,0,.188-.063l.063-.062-.187-.125Z" transform="translate(-105.047 -31.326)" fill="#1f1f1f" fill-rule="evenodd"/>
        <path id="Path_28" data-name="Path 28" d="M368.325,395.4l-.876-.063v-.188l.876.063v.188Z" transform="translate(-99.928 -23.466)" fill="#1f1f1f" fill-rule="evenodd"/>
        <path id="Path_29" data-name="Path 29" d="M368.487,398.826l-.313.063c-.063,0-.063.063-.063.125l.063.251-.125.063-.125-.375-.125.062.062.438c.063.063.063.063.125.063l.375-.063c0-.063.063-.063,0-.125l-.063-.25.188-.063.062.375.188-.062-.125-.438c0-.063-.063-.063-.125-.063Z" transform="translate(-100.153 -25.824)" fill="#1f1f1f" fill-rule="evenodd"/>
        <path id="Path_30" data-name="Path 30" d="M367.824,396.941l.5-.063v.188l-.813.062V397l.5-.438-.563.063v-.188l.876-.063v.188l-.5.375Z" transform="translate(-99.928 -24.252)" fill="#1f1f1f" fill-rule="evenodd"/>
        <path id="Path_31" data-name="Path 31" d="M368.685,401.387c0,.063.063.063.125.063l.688-.313-.063-.125-.626.25-.125-.25.626-.25-.063-.188-.688.313c-.063,0-.063.062-.063.125l.188.375Z" transform="translate(-100.602 -26.947)" fill="#1f1f1f" fill-rule="evenodd"/>
        <path id="Path_32" data-name="Path 32" d="M371.246,405.509l.125-.063.188-.125.188-.063-.062.188-.125-.125-.188.125.188.188-.063.125.125.125.438-.751-.188-.188-.751.438.125.125Z" transform="translate(-102.286 -29.754)" fill="#1f1f1f" fill-rule="evenodd"/>
        <path id="Path_33" data-name="Path 33" d="M370.611,403.111c0,.063,0,.125-.063.125l-.187.188h-.125v.063a.473.473,0,0,1-.25.125c0,.063-.063.063,0,.125h0l-.125-.188v-.063c.063,0,.125-.063.188-.125,0,0,.062-.063,0-.063l-.063-.187.125-.063.125.125a.061.061,0,0,0,.063.062l.063-.062v-.063l-.125-.188-.125.125-.125.063-.313.25-.125-.188.751-.5a1.128,1.128,0,0,0,.313.438Z" transform="translate(-101.276 -28.295)" fill="#1f1f1f" fill-rule="evenodd"/>
        <path id="Path_34" data-name="Path 34" d="M378.1,408.406l.063-.187a1.937,1.937,0,0,1-.5-.125l-.25.813.563.125v-.125l-.313-.125.063-.125.25.062.063-.187-.313-.063.063-.125.313.063Z" transform="translate(-106.328 -31.775)" fill="#1f1f1f" fill-rule="evenodd"/>
        <path id="Path_35" data-name="Path 35" d="M373.669,406.683l.251-.375c.063,0,.063,0,.125.063h.063l-.5.751-.125-.125v-.625l-.313.438-.125-.125.5-.688a.061.061,0,0,0,.063.063.061.061,0,0,1,.062.062v.563Z" transform="translate(-103.521 -30.428)" fill="#1f1f1f" fill-rule="evenodd"/>
        <path id="Path_36" data-name="Path 36" d="M383.2,409.493c-.063,0-.125,0-.125-.062l-.063-.626c0-.063,0-.125.063-.125a.472.472,0,0,1,.25-.063h.188c.063,0,.125,0,.125.063l.062.626c0,.063,0,.125-.062.125l-.125-.125-.063-.5-.25.063.062.438h.25l.125.125-.438.062Z" transform="translate(-109.921 -32.112)" fill="#1f1f1f" fill-rule="evenodd"/>
        <path id="Path_37" data-name="Path 37" d="M387.882,406.869c.063,0,.063,0,.125.063l.125.313c.062.063.062.063,0,.125l-.313.188-.125-.187.188-.125c.063,0,.063,0,.063-.063h-.063a.061.061,0,0,0-.063-.063l-.188.125.063.125.125.188.125.251c-.063.063-.125.063-.188.125l-.376-.751a2.187,2.187,0,0,0,.5-.313Z" transform="translate(-112.728 -30.989)" fill="#1f1f1f" fill-rule="evenodd"/>
        <path id="Path_38" data-name="Path 38" d="M394.2,401.262l-.626-.313-.063.188-.188-.063a1.634,1.634,0,0,0,.188-.5l.187.063-.063.188.626.25-.063.188Z" transform="translate(-116.545 -26.947)" fill="#1f1f1f" fill-rule="evenodd"/>
        <path id="Path_39" data-name="Path 39" d="M381.238,409.418v.063l-.313-.063.063-.438h.25v.063h.188v-.125a.135.135,0,0,0-.125-.125h-.375c-.063,0-.125,0-.125.063l-.063.626a.134.134,0,0,0,.125.125l.438.063a.135.135,0,0,0,.125-.125v-.125Z" transform="translate(-108.461 -32.224)" fill="#1f1f1f" fill-rule="evenodd"/>
        <path id="Path_40" data-name="Path 40" d="M385.671,407.918a.061.061,0,0,1,.063.063l.125.25a.219.219,0,0,1-.063.125h0c.063,0,.063,0,.063.063.062.063.062.188.125.25a.061.061,0,0,0,.063.063h0l-.25.063v-.063a.308.308,0,0,1-.063-.187c0-.063-.063-.063-.125-.063l-.125.063-.062-.188.188-.063v-.125h-.063l-.187.063.063.125.062.188.063.313-.187.063-.25-.813.563-.188Z" transform="translate(-111.268 -31.663)" fill="#1f1f1f" fill-rule="evenodd"/>
        <path id="Path_41" data-name="Path 41" d="M389.959,406.584a.117.117,0,0,1-.187,0l-.375-.5c-.063-.063-.063-.125,0-.125.062-.063.188-.125.188-.187l.125-.125a.229.229,0,0,1,.188.063l.375.5c.063,0,.063.062,0,.125l-.187-.063-.313-.438-.188.187.313.375.188-.125.188.063-.313.25Z" transform="translate(-113.991 -30.203)" fill="#1f1f1f" fill-rule="evenodd"/>
        <path id="Path_42" data-name="Path 42" d="M391.428,403.988c0-.063.063-.063.063,0l.25.188v.063h.125c0,.063.125.188.125.188.063,0,.063.063.125,0h0l-.125.188c-.063,0-.063,0-.063-.063-.063,0-.125-.063-.188-.125h-.062l-.125.188-.125-.188.125-.125v-.063l-.063-.063a.061.061,0,0,0-.063.063l-.125.125.125.062.125.188.25.188-.125.125-.626-.563.375-.375Z" transform="translate(-115.086 -29.109)" fill="#1f1f1f" fill-rule="evenodd"/>
        <path id="Path_43" data-name="Path 43" d="M393.315,403.361l-.125-.125-.125-.125-.125-.188.25.063-.125.125.125.125.188-.188h.125l.125-.125-.876-.25-.125.188.563.688.125-.188Z" transform="translate(-116.096 -28.294)" fill="#1f1f1f" fill-rule="evenodd"/>
        <path id="Path_44" data-name="Path 44" d="M394.088,399.7l.814.25-.063.188-.813-.25c0-.063.062-.063.062-.125V399.7Z" transform="translate(-116.995 -26.385)" fill="#1f1f1f" fill-rule="evenodd"/>
        <path id="Path_45" data-name="Path 45" d="M395.051,395.167l-.438.063c0-.063,0-.063-.063-.125v-.063l.876-.063v.188l-.5.375h.5v.188h-.813v-.188l.438-.375Z" transform="translate(-117.331 -23.354)" fill="#1f1f1f" fill-rule="evenodd"/>
        <path id="Path_46" data-name="Path 46" d="M395.251,398.181c0,.063-.063.063-.125.063l-.626-.063c-.063-.062-.125-.125-.125-.187s.063-.125.063-.188v-.188c0-.063.063-.125.125-.063l.626.063a.135.135,0,0,1,.125.125l-.187.063-.5-.063-.063.25.5.063.063-.25.188-.063-.063.438Z" transform="translate(-117.219 -24.992)" fill="#1f1f1f" fill-rule="evenodd"/>
        <path id="Path_47" data-name="Path 47" d="M378.527,391.146a.134.134,0,0,0,.125-.125c0-.063-.063-.063-.125-.063s-.063,0-.063.063,0,.125.063.125Z" transform="translate(-107.002 -20.772)" fill="#1f1f1f" fill-rule="evenodd"/>
        <path id="Path_48" data-name="Path 48" d="M378.078,391.308l-.313,1.189h.063l.25-.876v.876h.063v-.876l.188.876h-.563a.344.344,0,0,0,.313.188.446.446,0,0,0,.375-.187l-.313-1.189Z" transform="translate(-106.553 -20.997)" fill="#1f1f1f" fill-rule="evenodd"/>
        <path id="Path_49" data-name="Path 49" d="M379.666,389.734l.188.063h0c-.125,0-.125.125-.125.25a.219.219,0,0,0,.125.063,2.689,2.689,0,0,1,.313-.063c.188,0,.375.063.5.063a.366.366,0,0,0,.25-.063.135.135,0,0,1,.125.125c0,.063-.063.063-.125.063a.366.366,0,0,0-.25-.063c-.125,0-.313.063-.5.063a2.689,2.689,0,0,1-.313-.063.135.135,0,0,0-.125.125l.063.062-.125.251-.125-.251.125-.062a.135.135,0,0,0-.125-.125,2.687,2.687,0,0,1-.313.063c-.188,0-.375-.063-.5-.063a1.274,1.274,0,0,0-.313.063s-.125,0-.125-.063.125-.125.125-.125a1.274,1.274,0,0,0,.313.063c.125,0,.313-.063.5-.063a2.687,2.687,0,0,1,.313.063.219.219,0,0,0,.125-.063c0-.125-.063-.25-.125-.25h0l.125-.063Z" transform="translate(-106.889 -19.986)" fill="#1f1f1f" fill-rule="evenodd"/>
        <path id="Path_50" data-name="Path 50" d="M385.583,391.146a.134.134,0,0,1-.125-.125c0-.063.063-.063.125-.063s.063,0,.063.063,0,.125-.063.125Z" transform="translate(-111.493 -20.772)" fill="#1f1f1f" fill-rule="evenodd"/>
        <path id="Path_51" data-name="Path 51" d="M385.134,391.308l.313,1.189h-.063l-.25-.876v.876h-.063v-.876l-.25.876h.626a.345.345,0,0,1-.313.188.446.446,0,0,1-.375-.187l.313-1.189Z" transform="translate(-111.044 -20.997)" fill="#1f1f1f" fill-rule="evenodd"/>
        <path id="Path_52" data-name="Path 52" d="M376.429,390.209c.063,0,.063,0,.063-.062s0-.063-.063-.063-.063,0-.063.063,0,.062.063.062Z" transform="translate(-105.654 -20.211)" fill="#1f1f1f" fill-rule="evenodd"/>
        <path id="Path_53" data-name="Path 53" d="M375.617,390.971a.219.219,0,0,0,.063-.125l-.063-.063a.219.219,0,0,0-.125.063.135.135,0,0,0,.125.125Z" transform="translate(-105.093 -20.659)" fill="#1f1f1f" fill-rule="evenodd"/>
        <path id="Path_54" data-name="Path 54" d="M377.19,390.971a.219.219,0,0,0,.063-.125l-.063-.063a.219.219,0,0,0-.125.063.135.135,0,0,0,.125.125Z" transform="translate(-106.103 -20.659)" fill="#1f1f1f" fill-rule="evenodd"/>
        <path id="Path_55" data-name="Path 55" d="M376.429,391.782c.063,0,.063,0,.063-.063s0-.063-.063-.063-.063,0-.063.063,0,.063.063.063Z" transform="translate(-105.654 -21.221)" fill="#1f1f1f" fill-rule="evenodd"/>
        <path id="Path_56" data-name="Path 56" d="M378,390.209c.063,0,.063,0,.063-.062s0-.063-.063-.063-.062,0-.062.063,0,.062.062.062Z" transform="translate(-106.665 -20.211)" fill="#1f1f1f" fill-rule="evenodd"/>
        <path id="Path_57" data-name="Path 57" d="M386.22,390.209c.063,0,.063,0,.063-.062s0-.063-.063-.063-.063,0-.063.063,0,.062.063.062Z" transform="translate(-111.942 -20.211)" fill="#1f1f1f" fill-rule="evenodd"/>
        <path id="Path_58" data-name="Path 58" d="M387.969,390.209c.063,0,.063,0,.063-.062s0-.063-.063-.063-.063,0-.063.063,0,.062.063.062Z" transform="translate(-113.065 -20.211)" fill="#1f1f1f" fill-rule="evenodd"/>
        <path id="Path_59" data-name="Path 59" d="M378,391.67a.061.061,0,0,0,.063-.063c0-.063,0-.125-.063-.125s-.062.063-.062.125a.061.061,0,0,0,.062.063Z" transform="translate(-106.665 -21.108)" fill="#1f1f1f" fill-rule="evenodd"/>
        <path id="Path_60" data-name="Path 60" d="M379.638,393.356a.062.062,0,1,0,0-.125c-.063,0-.125,0-.125.063s.063.062.125.062Z" transform="translate(-107.675 -22.231)" fill="#1f1f1f" fill-rule="evenodd"/>
        <path id="Path_61" data-name="Path 61" d="M380.512,394.055a.063.063,0,1,0,0-.125c-.063,0-.125,0-.125.063s.063.063.125.063Z" transform="translate(-108.237 -22.68)" fill="#1f1f1f" fill-rule="evenodd"/>
        <path id="Path_62" data-name="Path 62" d="M377.19,392.544a.219.219,0,0,0,.063-.125l-.063-.062a.219.219,0,0,0-.125.062.135.135,0,0,0,.125.125Z" transform="translate(-106.103 -21.67)" fill="#1f1f1f" fill-rule="evenodd"/>
        <path id="Path_63" data-name="Path 63" d="M376.429,393.244a.061.061,0,0,0,.063-.062c0-.063,0-.125-.063-.125s-.063.063-.063.125a.061.061,0,0,0,.063.062Z" transform="translate(-105.654 -22.119)" fill="#1f1f1f" fill-rule="evenodd"/>
        <path id="Path_64" data-name="Path 64" d="M377.19,394.118a.219.219,0,0,0,.063-.125.061.061,0,0,0-.063-.063c-.063,0-.125,0-.125.063a.135.135,0,0,0,.125.125Z" transform="translate(-106.103 -22.68)" fill="#1f1f1f" fill-rule="evenodd"/>
        <path id="Path_65" data-name="Path 65" d="M378.877,395.692a.061.061,0,0,0,.063-.062c0-.063,0-.125-.063-.125s-.063.063-.063.125a.061.061,0,0,0,.063.062Z" transform="translate(-107.226 -23.691)" fill="#1f1f1f" fill-rule="evenodd"/>
        <path id="Path_66" data-name="Path 66" d="M376.429,394.818a.061.061,0,0,0,.063-.063c0-.063,0-.125-.063-.125s-.063.062-.063.125a.061.061,0,0,0,.063.063Z" transform="translate(-105.654 -23.13)" fill="#1f1f1f" fill-rule="evenodd"/>
        <path id="Path_67" data-name="Path 67" d="M376.429,396.5c.063,0,.063,0,.063-.063s0-.063-.063-.063-.063,0-.063.063,0,.063.063.063Z" transform="translate(-105.654 -24.252)" fill="#1f1f1f" fill-rule="evenodd"/>
        <path id="Path_68" data-name="Path 68" d="M376.429,398.077c.063,0,.063,0,.063-.063s0-.063-.063-.063-.063,0-.063.063,0,.063.063.063Z" transform="translate(-105.654 -25.263)" fill="#1f1f1f" fill-rule="evenodd"/>
        <path id="Path_69" data-name="Path 69" d="M377.3,397.266c.063,0,.063-.063.063-.125a.063.063,0,0,0-.125,0c0,.063,0,.125.063.125Z" transform="translate(-106.216 -24.702)" fill="#1f1f1f" fill-rule="evenodd"/>
        <path id="Path_70" data-name="Path 70" d="M378.065,396.5a.063.063,0,1,0,0-.125c-.063,0-.125,0-.125.063s.062.063.125.063Z" transform="translate(-106.665 -24.252)" fill="#1f1f1f" fill-rule="evenodd"/>
        <path id="Path_71" data-name="Path 71" d="M377.3,395.692c.063,0,.063-.062.063-.125a.063.063,0,0,0-.125,0c0,.063,0,.125.063.125Z" transform="translate(-106.216 -23.691)" fill="#1f1f1f" fill-rule="evenodd"/>
        <path id="Path_72" data-name="Path 72" d="M375.617,398.839l.063-.063a.219.219,0,0,0-.063-.125.135.135,0,0,0-.125.125.219.219,0,0,0,.125.063Z" transform="translate(-105.093 -25.712)" fill="#1f1f1f" fill-rule="evenodd"/>
        <path id="Path_73" data-name="Path 73" d="M379.638,391.67l.063-.063a.219.219,0,0,0-.063-.125.135.135,0,0,0-.125.125.219.219,0,0,0,.125.063Z" transform="translate(-107.675 -21.108)" fill="#1f1f1f" fill-rule="evenodd"/>
        <path id="Path_74" data-name="Path 74" d="M380.45,392.544a.135.135,0,0,0,.125-.125.219.219,0,0,0-.125-.062.061.061,0,0,0-.063.062c0,.063,0,.125.063.125Z" transform="translate(-108.237 -21.67)" fill="#1f1f1f" fill-rule="evenodd"/>
        <path id="Path_75" data-name="Path 75" d="M381.325,393.244a.061.061,0,0,0,.063-.062c0-.063,0-.125-.063-.125s-.063.063-.063.125a.061.061,0,0,0,.063.062Z" transform="translate(-108.798 -22.119)" fill="#1f1f1f" fill-rule="evenodd"/>
        <path id="Path_76" data-name="Path 76" d="M381.325,391.67a.061.061,0,0,0,.063-.063c0-.063,0-.125-.063-.125s-.063.063-.063.125a.061.061,0,0,0,.063.063Z" transform="translate(-108.798 -21.108)" fill="#1f1f1f" fill-rule="evenodd"/>
        <path id="Path_77" data-name="Path 77" d="M382.086,392.544a.219.219,0,0,0,.063-.125l-.063-.062a.219.219,0,0,0-.125.062.135.135,0,0,0,.125.125Z" transform="translate(-109.247 -21.67)" fill="#1f1f1f" fill-rule="evenodd"/>
        <path id="Path_78" data-name="Path 78" d="M382.9,391.67a.061.061,0,0,0,.063-.063c0-.063,0-.125-.063-.125s-.063.063-.063.125a.061.061,0,0,0,.063.063Z" transform="translate(-109.809 -21.108)" fill="#1f1f1f" fill-rule="evenodd"/>
        <path id="Path_79" data-name="Path 79" d="M383.772,392.544a.135.135,0,0,0,.125-.125.219.219,0,0,0-.125-.062l-.063.062a.219.219,0,0,0,.063.125Z" transform="translate(-110.37 -21.67)" fill="#1f1f1f" fill-rule="evenodd"/>
        <path id="Path_80" data-name="Path 80" d="M384.647,391.782c.062,0,.062,0,.062-.063s0-.063-.062-.063-.063,0-.063.063,0,.063.063.063Z" transform="translate(-110.932 -21.221)" fill="#1f1f1f" fill-rule="evenodd"/>
        <path id="Path_81" data-name="Path 81" d="M382.96,393.356a.062.062,0,1,0,0-.125c-.063,0-.125,0-.125.063s.063.062.125.062Z" transform="translate(-109.809 -22.231)" fill="#1f1f1f" fill-rule="evenodd"/>
        <path id="Path_82" data-name="Path 82" d="M383.834,394.118l.063-.063a.219.219,0,0,0-.063-.125.135.135,0,0,0-.125.125.219.219,0,0,0,.125.063Z" transform="translate(-110.37 -22.68)" fill="#1f1f1f" fill-rule="evenodd"/>
        <path id="Path_83" data-name="Path 83" d="M384.647,393.356c.062,0,.125,0,.125-.062s-.063-.063-.125-.063-.063,0-.063.063,0,.062.063.062Z" transform="translate(-110.932 -22.231)" fill="#1f1f1f" fill-rule="evenodd"/>
        <path id="Path_84" data-name="Path 84" d="M387.095,390.971a.061.061,0,0,0,.062-.063c0-.063,0-.125-.062-.125s-.063.063-.063.125a.061.061,0,0,0,.063.063Z" transform="translate(-112.504 -20.659)" fill="#1f1f1f" fill-rule="evenodd"/>
        <path id="Path_85" data-name="Path 85" d="M388.668,390.908c.063,0,.125,0,.125-.063s-.063-.063-.125-.063a.063.063,0,1,0,0,.125Z" transform="translate(-113.514 -20.659)" fill="#1f1f1f" fill-rule="evenodd"/>
        <path id="Path_86" data-name="Path 86" d="M387.856,391.782a.063.063,0,0,0,0-.125c-.063,0-.125,0-.125.063s.063.063.125.063Z" transform="translate(-112.952 -21.221)" fill="#1f1f1f" fill-rule="evenodd"/>
        <path id="Path_87" data-name="Path 87" d="M386.982,392.544a.061.061,0,0,0,.062-.063c0-.063,0-.125-.062-.125a.134.134,0,0,0-.125.125.219.219,0,0,0,.125.063Z" transform="translate(-112.391 -21.67)" fill="#1f1f1f" fill-rule="evenodd"/>
        <path id="Path_88" data-name="Path 88" d="M386.982,394.118a.061.061,0,0,0,.062-.063c0-.063,0-.125-.062-.125a.135.135,0,0,0-.125.125.219.219,0,0,0,.125.063Z" transform="translate(-112.391 -22.68)" fill="#1f1f1f" fill-rule="evenodd"/>
        <path id="Path_89" data-name="Path 89" d="M387.856,393.418a.219.219,0,0,0,.063-.125l-.063-.063a.219.219,0,0,0-.125.063.135.135,0,0,0,.125.125Z" transform="translate(-112.952 -22.231)" fill="#1f1f1f" fill-rule="evenodd"/>
        <path id="Path_90" data-name="Path 90" d="M388.031,394.992a.219.219,0,0,0,.063-.125l-.063-.063a.219.219,0,0,0-.125.063.135.135,0,0,0,.125.125Z" transform="translate(-113.065 -23.241)" fill="#1f1f1f" fill-rule="evenodd"/>
        <path id="Path_91" data-name="Path 91" d="M387.157,395.8a.062.062,0,1,0,0-.125c-.062,0-.125,0-.125.063s.063.062.125.062Z" transform="translate(-112.504 -23.803)" fill="#1f1f1f" fill-rule="evenodd"/>
        <path id="Path_92" data-name="Path 92" d="M385.521,395.8c.063,0,.063,0,.063-.062s0-.063-.063-.063-.063,0-.063.063,0,.062.063.062Z" transform="translate(-111.493 -23.803)" fill="#1f1f1f" fill-rule="evenodd"/>
        <path id="Path_93" data-name="Path 93" d="M386.395,396.566a.061.061,0,0,0,.063-.063c0-.063,0-.125-.063-.125s-.063.063-.063.125a.061.061,0,0,0,.063.063Z" transform="translate(-112.054 -24.252)" fill="#1f1f1f" fill-rule="evenodd"/>
        <path id="Path_94" data-name="Path 94" d="M387.095,397.266a.061.061,0,0,0,.062-.063c0-.063,0-.125-.062-.125s-.063.062-.063.125a.061.061,0,0,0,.063.063Z" transform="translate(-112.504 -24.702)" fill="#1f1f1f" fill-rule="evenodd"/>
        <path id="Path_95" data-name="Path 95" d="M387.969,398.14a.134.134,0,0,0,.125-.125.219.219,0,0,0-.125-.063l-.063.063a.217.217,0,0,0,.063.125Z" transform="translate(-113.065 -25.263)" fill="#1f1f1f" fill-rule="evenodd"/>
        <path id="Path_96" data-name="Path 96" d="M377.128,402.448c.063,0,.125,0,.125-.063s-.063-.063-.125-.063a.063.063,0,1,0,0,.125Z" transform="translate(-106.103 -28.07)" fill="#1f1f1f" fill-rule="evenodd"/>
        <path id="Path_97" data-name="Path 97" d="M378.764,400.762a.219.219,0,0,0,.063-.125l-.063-.063a.219.219,0,0,0-.125.063.135.135,0,0,0,.125.125Z" transform="translate(-107.114 -26.947)" fill="#1f1f1f" fill-rule="evenodd"/>
        <path id="Path_98" data-name="Path 98" d="M379.576,400c.063,0,.063,0,.063-.063s0-.063-.063-.063-.063,0-.063.063,0,.063.063.063Z" transform="translate(-107.675 -26.498)" fill="#1f1f1f" fill-rule="evenodd"/>
        <path id="Path_99" data-name="Path 99" d="M380.45,399.189c.063,0,.063-.063.063-.125a.063.063,0,0,0-.125,0c0,.062,0,.125.063.125Z" transform="translate(-108.237 -25.937)" fill="#1f1f1f" fill-rule="evenodd"/>
        <path id="Path_100" data-name="Path 100" d="M381.212,398.315l.063-.063a.219.219,0,0,0-.063-.125.135.135,0,0,0-.125.125.219.219,0,0,0,.125.063Z" transform="translate(-108.686 -25.375)" fill="#1f1f1f" fill-rule="evenodd"/>
        <path id="Path_101" data-name="Path 101" d="M382.024,397.552c.063,0,.063,0,.063-.063s0-.063-.063-.063-.063,0-.063.063,0,.063.063.063Z" transform="translate(-109.247 -24.926)" fill="#1f1f1f" fill-rule="evenodd"/>
        <path id="Path_102" data-name="Path 102" d="M382.9,398.315a.061.061,0,0,0,.063-.063c0-.062,0-.125-.063-.125s-.063.063-.063.125a.061.061,0,0,0,.063.063Z" transform="translate(-109.809 -25.375)" fill="#1f1f1f" fill-rule="evenodd"/>
        <path id="Path_103" data-name="Path 103" d="M383.772,399.126c.063,0,.063,0,.063-.062s0-.063-.063-.063-.063,0-.063.063,0,.062.063.062Z" transform="translate(-110.37 -25.937)" fill="#1f1f1f" fill-rule="evenodd"/>
        <path id="Path_104" data-name="Path 104" d="M384.472,399.888a.217.217,0,0,0,.125-.063.134.134,0,0,0-.125-.125.219.219,0,0,0-.063.125l.063.063Z" transform="translate(-110.819 -26.385)" fill="#1f1f1f" fill-rule="evenodd"/>
        <path id="Path_105" data-name="Path 105" d="M382.9,400c.063,0,.063,0,.063-.063s0-.063-.063-.063-.063,0-.063.063,0,.063.063.063Z" transform="translate(-109.809 -26.498)" fill="#1f1f1f" fill-rule="evenodd"/>
        <path id="Path_106" data-name="Path 106" d="M382.024,399.189a.135.135,0,0,0,.125-.125.219.219,0,0,0-.125-.063l-.063.063a.219.219,0,0,0,.063.125Z" transform="translate(-109.247 -25.937)" fill="#1f1f1f" fill-rule="evenodd"/>
        <path id="Path_107" data-name="Path 107" d="M381.212,400a.063.063,0,0,0,0-.125c-.063,0-.125,0-.125.063s.063.063.125.063Z" transform="translate(-108.686 -26.498)" fill="#1f1f1f" fill-rule="evenodd"/>
        <path id="Path_108" data-name="Path 108" d="M380.45,400.762a.061.061,0,0,0,.063-.063c0-.063,0-.125-.063-.125s-.063.063-.063.125a.061.061,0,0,0,.063.063Z" transform="translate(-108.237 -26.947)" fill="#1f1f1f" fill-rule="evenodd"/>
        <path id="Path_109" data-name="Path 109" d="M382.024,400.762a.219.219,0,0,0,.125-.063.135.135,0,0,0-.125-.125.219.219,0,0,0-.063.125l.063.063Z" transform="translate(-109.247 -26.947)" fill="#1f1f1f" fill-rule="evenodd"/>
        <path id="Path_110" data-name="Path 110" d="M383.6,400.762a.219.219,0,0,0,.125-.063.135.135,0,0,0-.125-.125.219.219,0,0,0-.062.125l.062.063Z" transform="translate(-110.258 -26.947)" fill="#1f1f1f" fill-rule="evenodd"/>
        <path id="Path_111" data-name="Path 111" d="M386.108,401.462a.061.061,0,0,0,.063-.063.219.219,0,0,0-.063-.125.134.134,0,0,0-.125.125c0,.063.062.063.125.063Z" transform="translate(-111.83 -27.396)" fill="#1f1f1f" fill-rule="evenodd"/>
        <path id="Path_112" data-name="Path 112" d="M386.982,402.336a.219.219,0,0,0,.062-.125.061.061,0,0,0-.062-.063c-.063,0-.125,0-.125.063a.135.135,0,0,0,.125.125Z" transform="translate(-112.391 -27.957)" fill="#1f1f1f" fill-rule="evenodd"/>
        <path id="Path_113" data-name="Path 113" d="M386.22,403.147c.063,0,.063,0,.063-.063s0-.063-.063-.063-.063,0-.063.063,0,.063.063.063Z" transform="translate(-111.942 -28.519)" fill="#1f1f1f" fill-rule="evenodd"/>
        <path id="Path_114" data-name="Path 114" d="M382.9,403.147c.063,0,.125,0,.125-.063s-.063-.063-.125-.063-.063,0-.063.063,0,.063.063.063Z" transform="translate(-109.809 -28.519)" fill="#1f1f1f" fill-rule="evenodd"/>
        <path id="Path_115" data-name="Path 115" d="M381.212,403.147a.063.063,0,0,0,0-.125c-.063,0-.125,0-.125.063s.063.063.125.063Z" transform="translate(-108.686 -28.519)" fill="#1f1f1f" fill-rule="evenodd"/>
        <path id="Path_116" data-name="Path 116" d="M383.66,403.91l.063-.062a.219.219,0,0,0-.063-.125.134.134,0,0,0-.125.125.218.218,0,0,0,.125.062Z" transform="translate(-110.258 -28.968)" fill="#1f1f1f" fill-rule="evenodd"/>
        <path id="Path_117" data-name="Path 117" d="M382.024,403.91a.219.219,0,0,0,.125-.062.135.135,0,0,0-.125-.125.219.219,0,0,0-.063.125l.063.062Z" transform="translate(-109.247 -28.968)" fill="#1f1f1f" fill-rule="evenodd"/>
        <path id="Path_118" data-name="Path 118" d="M380.45,403.91a.061.061,0,0,0,.063-.062c0-.063,0-.125-.063-.125s-.063.063-.063.125a.061.061,0,0,0,.063.062Z" transform="translate(-108.237 -28.968)" fill="#1f1f1f" fill-rule="evenodd"/>
        <path id="Path_119" data-name="Path 119" d="M379.252,390.073c.125.062.375.313.251.5-.563-.187-.689.251-.689.5,0,.626.438.876.438,1.94a2.12,2.12,0,0,1-1.814,2.065,2.861,2.861,0,0,0-1.314.563v-.125a3.905,3.905,0,0,1,1.439-.563,2.1,2.1,0,0,0,1.627-1.94c0-.751-.313-1.314-.626-1.314-.125,0-.063.125,0,.25.063.063.063.125,0,.125-.125,0-.25,0-.25.125h.188c.125,0,.251.063.251.125,0,.125-.125.063-.125.125s.375.313.375.688c0,.063-.063.063-.063,0a.283.283,0,0,0-.187-.188c-.063,0-.063.063-.063.125.063,0,.125.188.125.438a1.311,1.311,0,0,1-.25.688c-.063.063-.063,0-.063,0-.063-.062-.063-.125-.125-.125s0,.438-1.064.751a2.819,2.819,0,0,0-1.189.5,2.66,2.66,0,0,0-1.126-.5c-1.064-.313-1-.751-1.064-.751a.134.134,0,0,0-.125.125s0,.063-.063,0a1.388,1.388,0,0,1-.313-.688c0-.25.125-.438.188-.438,0-.063,0-.125-.125-.125-.062,0-.125.125-.125.188-.063.063-.063.063-.063,0,0-.375.375-.625.375-.688s-.125,0-.125-.125c0-.063.125-.125.25-.125H374c0-.125-.125-.125-.25-.125s-.063-.063,0-.125c.063-.125.125-.25,0-.25-.313,0-.626.563-.626,1.314a2.1,2.1,0,0,0,1.627,1.94,3.706,3.706,0,0,1,1.377.563v.125a2.444,2.444,0,0,0-1.251-.563,2.052,2.052,0,0,1-1.815-2.065c0-1.064.438-1.314.438-1.94,0-.25-.125-.688-.688-.5-.125-.187.125-.438.25-.5-.062-.125.376-.689,1.126-.689.438,0,.813.251,1.251.251a1.261,1.261,0,0,0,.688-.188v.063a1.311,1.311,0,0,1-.688.25c-.438,0-.813-.25-1.251-.25a1.081,1.081,0,0,0-.813.313h.125c.063.063,0,.125,0,.063-.062,0-.125-.063-.187-.063,0,.063-.063.063-.063.125h.25c.063.063,0,.125-.062.063-.063,0-.125-.063-.25,0v.188c-.063,0-.313.063-.25.25.063-.063.625-.063.625.563,0,.125.063.063.063.063a.674.674,0,0,0-.375-.688c-.063-.063-.063-.125.063-.063a.687.687,0,0,1,.375.625v.251a.76.76,0,0,0,.063-.313.686.686,0,0,0-.563-.688v-.125a.777.777,0,0,1,.688.876,1.4,1.4,0,0,1-.187.626c.125,0,.375,0,.188.375.313.063.25.375.125.375s-.125-.063-.25-.063c-.063,0-.125.063-.063.063.063.063.125.063.125.125,0,.125-.188.063-.375.438h.125c.063,0,.125,0,.125.062,0,.125-.125.188-.125.563a1.194,1.194,0,0,0,.188.5.229.229,0,0,1,.188-.063c.188,0,.125.125.125.188a1.328,1.328,0,0,0,.876.563,2.545,2.545,0,0,1,1.189.5,3.105,3.105,0,0,1,1.251-.5,1.329,1.329,0,0,0,.876-.563c0-.063-.063-.188.125-.188a.23.23,0,0,1,.188.063,4.3,4.3,0,0,0,.188-.5c0-.375-.125-.438-.125-.563,0-.062.063-.062.125-.062h.125c-.188-.375-.375-.313-.375-.438,0-.063.063-.063.125-.125.063,0,0-.063-.063-.063-.125,0-.125.063-.25.063s-.188-.313.125-.375c-.187-.375.063-.375.188-.375a1.4,1.4,0,0,1-.188-.626.921.921,0,0,1,.375-.813l-.062-.062c-.063-.063,0-.125,0-.063.062,0,.062.063.125.125a.061.061,0,0,0,.063-.062l-.063-.063c-.063-.063-.063-.125,0-.063.063,0,.063,0,.125.125h.125v.125a.686.686,0,0,0-.563.688.76.76,0,0,0,.063.313v-.251a.687.687,0,0,1,.375-.625c.125-.063.125,0,.063.063a.674.674,0,0,0-.375.688s.063.063.063-.063c0-.626.563-.626.625-.563.063-.188-.188-.25-.25-.25v-.125a1.046,1.046,0,0,0-1-.563c-.438,0-.813.25-1.251.25a1.776,1.776,0,0,1-.751-.25v-.063a1.664,1.664,0,0,0,.751.188c.438,0,.813-.251,1.251-.251a1.24,1.24,0,0,1,1.126.689Z" transform="translate(-103.348 -19.761)" fill="#1f1f1f" fill-rule="evenodd"/>
        <path id="Path_120" data-name="Path 120" d="M383.085,404.859a3.887,3.887,0,0,1,1-.438c.188,0,.125.063,0,.063-.438.125-.939.375-1,.375,0,.063-.125.063,0,0Z" transform="translate(-109.933 -29.417)" fill="#1f1f1f" fill-rule="evenodd"/>
        <path id="Path_121" data-name="Path 121" d="M379.647,405.1a3.052,3.052,0,0,0-1-.375c-.125-.063-.125,0,0,0a3.579,3.579,0,0,1,.939.375c.063.063.125.063.063,0Z" transform="translate(-107.058 -29.592)" fill="#1f1f1f" fill-rule="evenodd"/>
        <path id="Path_122" data-name="Path 122" d="M377.42,393.356l2.628,2.565c.062,0,0-.063,0-.125l-2.628-2.565-2.565,2.565a.194.194,0,0,0-.063.125l2.628-2.565Z" transform="translate(-104.644 -22.231)" fill="#1f1f1f" fill-rule="evenodd"/>
        <path id="Path_123" data-name="Path 123" d="M378.318,396.566l2.127,2.065.063-.125-2.19-2.127-2.127,2.127.063.125,2.065-2.065Z" transform="translate(-105.542 -24.252)" fill="#1f1f1f" fill-rule="evenodd"/>
        <path id="Path_124" data-name="Path 124" d="M377.532,394.743l2.315,2.19c.188.125.313-.313.313-.438l-2.628-2.565-2.565,2.565.25.188v-.125l-.063-.125.125-.063.063-.063.063.063.188-.063v-.125l-.063-.125.125-.063.063-.063.063.063.188-.063v-.125l-.063-.125h.125l.062-.125.063.125.188-.125v-.125l-.063-.063.125-.063.063-.125.062.125.188-.063v-.125l-.125-.125.125-.063.125-.063.062.063.188-.063v-.125l-.125-.125.125-.063.125-.063.063.063.125-.063v-.125l-.062-.125h.125l.063-.125.125.125h.125l-.125.125v.125l.063.125.125-.063.063-.063.125.063.125.063-.125.125v.125l.188.063.063-.063.063.063.125.063-.063.125v.125l.188.063.063-.125.063.125.125.063-.063.063v.125l.188.125.063-.125.063.125h.125l-.063.125v.125l.188.063.062-.063.063.063.125.063-.063.125v.125l.188.063.063-.063.062.063.125.063-.063.125v.125l-.125-.062-.125.062v-.125l-.063-.125.125-.063-.188-.063-.125-.063-.125.063v-.125l-.063-.125.125-.063-.188-.063h-.25v-.125l-.063-.125h.125l-.188-.125h-.25v-.125l-.062-.063.125-.063-.187-.063-.125-.063-.125.063v-.125l-.063-.125.125-.063-.187-.063-.125-.063-.125.063v-.125l-.062-.125-.063-.125-.125-.063-.125.063-.125.063.125.063-.062.125v.125l-.125-.063-.125.063-.188.063.125.063-.063.125v.125l-.125-.063-.125.063-.188.063.125.063-.063.063v.125h-.25l-.188.125h.125l-.063.125v.125h-.25l-.188.063.125.063-.063.125v.125l-.125-.063-.125.063-.188.063.125.063-.063.125v.125l-.125-.062-.125.062-.25-.187c0,.125.125.563.313.438l2.253-2.19Z" transform="translate(-104.756 -22.68)" fill="#1f1f1f" fill-rule="evenodd"/>
        <path id="Path_125" data-name="Path 125" d="M218.529,366.166v4.317h7.32v5.631h-7.32v10.073h-6.695V360.534H226.6v5.631Z" transform="translate(0 -1.235)" fill="#1f1f1f" fill-rule="evenodd"/>
        <path id="Path_126" data-name="Path 126" d="M256.6,360.534v25.653h6.632V366.165h1.564c4.317,0,7.321,2.565,7.321,7.2,0,5.006-3.379,7.133-7.383,7.133h-1.5v5.694h2.816a12.828,12.828,0,1,0,0-25.653Z" transform="translate(-28.744 -1.235)" fill="#1f1f1f" fill-rule="evenodd"/>
        <path id="Path_127" data-name="Path 127" d="M321.988,386.187h6.695V360.534h-6.695v25.653Z" transform="translate(-70.736 -1.235)" fill="#1f1f1f" fill-rule="evenodd"/>
        <path id="Path_128" data-name="Path 128" d="M362.791,367.871a7.323,7.323,0,0,0-5.881-2.816c-4.067,0-6.82,3.129-6.82,7.133a6.635,6.635,0,0,0,6.945,6.945,7.742,7.742,0,0,0,5.756-2.69v8.009a20.479,20.479,0,0,1-5.881,1.189,14.185,14.185,0,0,1-9.636-3.817,12.6,12.6,0,0,1-4.13-9.7,13.468,13.468,0,0,1,3.817-9.385,13.89,13.89,0,0,1,9.761-4.13,15.8,15.8,0,0,1,6.069,1.314v7.946Z" transform="translate(-84.321 0)" fill="#1f1f1f" fill-rule="evenodd"/>
      </g>
    </g>
  </g>
</svg>
