<svg xmlns="http://www.w3.org/2000/svg" width="536" height="592" viewBox="0 0 536 592">
  <g id="Group_1097" data-name="Group 1097" transform="translate(-691 -1516)">
    <rect id="Rectangle_134" data-name="Rectangle 134" width="536" height="592" rx="10" transform="translate(691 1516)" fill="#fff"/>
    <g id="Group_1007" data-name="Group 1007" transform="translate(-71.344 -1928.75)">
      <path id="Path_1781" data-name="Path 1781" d="M877.125,1390.1c5.639,8.2,27.5,51.543,83.582,41.487s97.792-37.86,106.758-54.241,17.325-64.389-11.325-81.7-87.567-14.41-116.037-14.292-77.454,17.83-76.255,43.636S871.485,1381.9,877.125,1390.1Z" transform="translate(49.965 2383.66)" fill="#e5dbc5" opacity="0.5"/>
      <g id="tax" transform="translate(901 3609.81)">
        <g id="Path_1792" data-name="Path 1792" fill="none">
          <path d="M19.831,245.88h195.4a30.651,30.651,0,0,0,7.663-60.332v-.97h3.831a3.831,3.831,0,0,0,3.831-3.831V165.422a3.831,3.831,0,0,0-3.831-3.831h-3.831v-7.663h3.831a3.831,3.831,0,0,0,3.831-3.831V134.772a3.831,3.831,0,0,0-3.831-3.831H192.242V27.494a3.831,3.831,0,0,0-3.831-3.831H168.273l.819-2.73A3.831,3.831,0,0,0,165.422,16H150.1a3.831,3.831,0,0,0-3.635,2.62l-1.681,5.043H63.461L61.78,18.62A3.831,3.831,0,0,0,58.145,16H42.819a3.831,3.831,0,0,0-3.67,4.933l.819,2.73H19.831A3.831,3.831,0,0,0,16,27.494V242.049A3.831,3.831,0,0,0,19.831,245.88Zm149.422-22.988V215.23h15.325a30.613,30.613,0,0,0,.97,7.663Zm0-30.651v-7.663H215.23a30.516,30.516,0,0,0-20.241,7.663ZM188.7,199.9a30.466,30.466,0,0,0-3.154,7.663h-8.632V199.9Zm-19.449-38.313v-7.663H215.23v7.663Zm0-15.325h-3.831a3.831,3.831,0,0,0-3.831,3.831v15.325a3.831,3.831,0,0,0,3.831,3.831h3.831v7.663h-3.831a3.831,3.831,0,0,0-3.831,3.831v15.325a3.831,3.831,0,0,0,3.831,3.831h3.831v7.663h-3.831a3.831,3.831,0,0,0-3.831,3.831v11.494H38.988V54.313H49.164l1.479,4.933a3.831,3.831,0,0,0,3.67,2.73h99.615a3.831,3.831,0,0,0,3.67-2.73l1.48-4.933h10.176Zm7.663,91.952v-7.663H188.7a30.861,30.861,0,0,0,6.286,7.663Zm61.3-22.988a22.988,22.988,0,1,1-22.988-22.988,22.988,22.988,0,0,1,22.988,22.988Zm-15.325-38.313H176.916v-7.663h45.976Zm0-38.313v7.663H176.916V138.6ZM165.974,31.325h18.6V130.94h-7.663V50.482a3.831,3.831,0,0,0-3.831-3.831H161.377Zm-23.748,0-2.554,7.663h-71.1l-2.554-7.663ZM55.383,23.663l6.79,20.368a3.831,3.831,0,0,0,3.634,2.62h76.627a3.831,3.831,0,0,0,3.635-2.62l6.789-20.368h7.415l-9.2,30.651H57.162l-9.2-30.651ZM23.663,31.325h18.6l4.6,15.325H35.157a3.831,3.831,0,0,0-3.831,3.831V226.724a3.831,3.831,0,0,0,3.831,3.831h134.1v7.663H23.663Z" stroke="none"/>
          <path d="M 215.2458801269531 243.8803863525391 C 222.2231903076172 243.8803863525391 228.9488372802734 241.3401031494141 234.1839141845703 236.7274475097656 C 239.4190368652344 232.1147918701172 242.786376953125 225.7620697021484 243.6655883789062 218.8395690917969 C 244.5450592041016 211.9150085449219 242.8711547851562 204.9203796386719 238.9522552490234 199.1441345214844 C 235.0333099365234 193.3678894042969 229.1525573730469 189.2274475097656 222.3932189941406 187.4854736328125 L 220.8923492431641 187.0986938476562 L 220.8923492431641 185.5487670898438 L 220.8923492431641 184.5789489746094 L 220.8923492431641 182.5789489746094 L 222.8923492431641 182.5789489746094 L 226.7236938476562 182.5789489746094 C 227.7335052490234 182.5789489746094 228.5550384521484 181.7574157714844 228.5550384521484 180.7476043701172 L 228.5550384521484 165.4222259521484 C 228.5550384521484 164.4124145507812 227.7335052490234 163.5908813476562 226.7236938476562 163.5908813476562 L 222.8923492431641 163.5908813476562 L 220.8923492431641 163.5908813476562 L 220.8923492431641 161.5908813476562 L 220.8923492431641 153.92822265625 L 220.8923492431641 151.92822265625 L 222.8923492431641 151.92822265625 L 226.7236938476562 151.92822265625 C 227.7335052490234 151.92822265625 228.5550384521484 151.1067047119141 228.5550384521484 150.0968933105469 L 228.5550384521484 134.7715454101562 C 228.5550384521484 133.7617340087891 227.7335052490234 132.9402008056641 226.7236938476562 132.9402008056641 L 192.2416229248047 132.9402008056641 L 190.2416229248047 132.9402008056641 L 190.2416229248047 130.9402008056641 L 190.2416229248047 27.49401092529297 C 190.2416229248047 26.48419952392578 189.4200897216797 25.66266822814941 188.4102783203125 25.66266822814941 L 168.2732543945312 25.66266822814941 L 165.5851593017578 25.66266822814941 L 166.3575897216797 23.08794784545898 L 167.1766510009766 20.35788536071777 C 167.34228515625 19.80601119995117 167.23583984375 19.20051193237305 166.8919372558594 18.73822975158691 C 166.5479736328125 18.27591705322266 165.9986267089844 17.99994850158691 165.4222564697266 18.0000114440918 L 150.0969085693359 18.0000114440918 C 149.3071899414062 18.0000114440918 148.6088714599609 18.50326156616211 148.3592224121094 19.25241661071777 L 146.6782836914062 24.29513549804688 L 146.222412109375 25.66266822814941 L 144.7809143066406 25.66266822814941 L 63.46072006225586 25.66266822814941 L 62.01918792724609 25.66266822814941 L 61.5633430480957 24.29513549804688 L 59.88237380981445 19.25216674804688 C 59.63268661499023 18.5031681060791 58.9344367980957 17.99994850158691 58.14475250244141 18.0000114440918 L 42.81937408447266 18.0000114440918 C 42.24293899536133 18.0000114440918 41.69350051879883 18.27604293823242 41.3494987487793 18.73851203918457 C 41.00568771362305 19.20060539245605 40.89934539794922 19.80598068237305 41.06500244140625 20.35785484313965 L 41.88443756103516 23.08766746520996 L 42.65740585327148 25.66266822814941 L 39.96887588500977 25.66266822814941 L 19.83134460449219 25.66266822814941 C 18.82153129577637 25.66266822814941 18 26.48419952392578 18 27.49401092529297 L 18 242.0490417480469 C 18 243.0588531494141 18.82153129577637 243.8803863525391 19.83134460449219 243.8803863525391 L 215.2296600341797 243.8803863525391 L 215.2449035644531 243.8803863525391 L 215.2458801269531 243.8803863525391 M 174.9162750244141 228.5550384521484 L 176.9162750244141 228.5550384521484 L 188.7024383544922 228.5550384521484 L 189.854248046875 228.5550384521484 L 190.4323120117188 229.5513000488281 C 191.9959716796875 232.2461395263672 193.9739074707031 234.6571655273438 196.3111877441406 236.7173919677734 L 200.2822265625 240.2177276611328 L 194.9886932373047 240.2177276611328 L 176.9162750244141 240.2176971435547 L 174.9162750244141 240.2176971435547 L 174.9162750244141 238.2176971435547 L 174.9162750244141 230.5550384521484 L 174.9162750244141 228.5550384521484 M 215.2296600341797 190.2416381835938 L 215.2307891845703 190.2416381835938 L 215.2319030761719 190.2416381835938 C 218.6026916503906 190.2454223632812 221.8734130859375 190.9088287353516 224.9532470703125 192.21337890625 C 227.92724609375 193.4731750488281 230.5980377197266 195.2747344970703 232.8913116455078 197.5680084228516 C 235.1846313476562 199.861328125 236.9861907958984 202.5320739746094 238.2459411621094 205.506103515625 C 239.550537109375 208.5859222412109 240.2139129638672 211.8566741943359 240.2176818847656 215.2296600341797 C 240.2176818847656 218.6021423339844 239.5567169189453 221.8748168945312 238.2531890869141 224.9567565917969 C 236.9945373535156 227.9325408935547 235.1930999755859 230.6046600341797 232.8988800048828 232.8988800048828 C 230.6046600341797 235.1930694580078 227.9325561523438 236.9945373535156 224.9567565917969 238.2532043457031 C 221.8748168945312 239.5567321777344 218.6021575927734 240.2176971435547 215.2296600341797 240.2176971435547 C 211.8571929931641 240.2176971435547 208.5845031738281 239.5567321777344 205.5025634765625 238.2532043457031 C 202.5267791748047 236.9945373535156 199.8546600341797 235.1930694580078 197.5604400634766 232.8988800048828 C 195.2662506103516 230.6046600341797 193.4647827148438 227.9325408935547 192.2061309814453 224.9567565917969 C 190.902587890625 221.8748168945312 190.2416229248047 218.6021423339844 190.2416229248047 215.2296600341797 C 190.2416229248047 211.8571624755859 190.902587890625 208.5845184326172 192.2061309814453 205.5025787353516 C 193.4647827148438 202.5267639160156 195.2662506103516 199.8546600341797 197.5604400634766 197.5604553222656 C 199.8546600341797 195.2662353515625 202.5267791748047 193.4647979736328 205.5025634765625 192.2061309814453 C 208.5845031738281 190.9026031494141 211.8571929931641 190.2416381835938 215.2296600341797 190.2416381835938 M 21.66268730163574 29.32535552978516 L 23.66268730163574 29.32535552978516 L 42.26765823364258 29.32535552978516 L 43.75571823120117 29.32535552978516 L 44.18331146240234 30.75066757202148 L 48.78093719482422 46.07604217529297 L 49.5533447265625 48.65073013305664 L 46.86528015136719 48.65073013305664 L 35.15668869018555 48.65073013305664 C 34.14690780639648 48.65073013305664 33.32537460327148 49.47225952148438 33.32537460327148 50.48207473754883 L 33.32537460327148 226.7236633300781 C 33.32537460327148 227.7334747314453 34.14690780639648 228.5550384521484 35.15668869018555 228.5550384521484 L 169.2536010742188 228.5550384521484 L 171.2536010742188 228.5550384521484 L 171.2536010742188 230.5550384521484 L 171.2536010742188 238.2176971435547 L 171.2536010742188 240.2176971435547 L 169.2536010742188 240.2176971435547 L 23.66268730163574 240.2176971435547 L 21.66268730163574 240.2176971435547 L 21.66268730163574 238.2176971435547 L 21.66268730163574 31.32535552978516 L 21.66268730163574 29.32535552978516 M 167.2536010742188 213.2296600341797 L 169.2536010742188 213.2296600341797 L 184.5789337158203 213.2296600341797 L 186.5801239013672 213.2296600341797 L 186.5789337158203 215.2308502197266 C 186.5774993896484 217.645263671875 186.8824768066406 220.0549163818359 187.4854125976562 222.3929138183594 L 188.1299438476562 224.8923187255859 L 185.5487518310547 224.8923187255859 L 169.2536010742188 224.8923187255859 L 167.2536010742188 224.8923187255859 L 167.2536010742188 222.8923187255859 L 167.2536010742188 215.2296600341797 L 167.2536010742188 213.2296600341797 M 36.98803329467773 52.31341934204102 L 38.98803329467773 52.31341934204102 L 49.16409301757812 52.31341934204102 L 50.65231323242188 52.31341934204102 L 51.07981491088867 53.73891830444336 L 52.55900192260742 58.67123031616211 C 52.79331207275391 59.4517936706543 53.49828338623047 59.97616577148438 54.31340789794922 59.97607421875 L 153.92822265625 59.97607421875 C 154.7433776855469 59.97607421875 155.4484405517578 59.45163726806641 155.6826324462891 58.67123031616211 L 157.1623687744141 53.73873138427734 L 157.5899658203125 52.31341934204102 L 159.0780334472656 52.31341934204102 L 169.2536010742188 52.31341934204102 L 171.2536010742188 52.31341934204102 L 171.2536010742188 54.31341934204102 L 171.2536010742188 146.2655487060547 L 171.2536010742188 148.2655487060547 L 169.2536010742188 148.2655487060547 L 165.4222564697266 148.2655487060547 C 164.4124450683594 148.2655487060547 163.5909118652344 149.0870666503906 163.5909118652344 150.0968933105469 L 163.5909118652344 165.4222259521484 C 163.5909118652344 166.4320373535156 164.4124450683594 167.2535705566406 165.4222564697266 167.2535705566406 L 169.2536010742188 167.2535705566406 L 171.2536010742188 167.2535705566406 L 171.2536010742188 169.2535705566406 L 171.2536010742188 176.916259765625 L 171.2536010742188 178.916259765625 L 169.2536010742188 178.916259765625 L 165.4222564697266 178.916259765625 C 164.4124450683594 178.916259765625 163.5909118652344 179.73779296875 163.5909118652344 180.7476043701172 L 163.5909118652344 196.0729827880859 C 163.5909118652344 197.0827941894531 164.4124450683594 197.9043273925781 165.4222564697266 197.9043273925781 L 169.2536010742188 197.9043273925781 L 171.2536010742188 197.9043273925781 L 171.2536010742188 199.9043273925781 L 171.2536010742188 207.5669860839844 L 171.2536010742188 209.5669860839844 L 169.2536010742188 209.5669860839844 L 165.4222564697266 209.5669860839844 C 164.4124450683594 209.5669860839844 163.5909118652344 210.3885040283203 163.5909118652344 211.3983306884766 L 163.5909118652344 222.8923187255859 L 163.5909118652344 224.8923187255859 L 161.5909118652344 224.8923187255859 L 38.98803329467773 224.8923187255859 L 36.98803329467773 224.8923187255859 L 36.98803329467773 222.8923187255859 L 36.98803329467773 54.31341934204102 L 36.98803329467773 52.31341934204102 M 174.9162750244141 197.9043273925781 L 176.9162750244141 197.9043273925781 L 188.7024383544922 197.9043273925781 L 192.1795959472656 197.9043273925781 L 190.4312133789062 200.9099426269531 C 189.1275634765625 203.1511383056641 188.1361541748047 205.5599822998047 187.4845886230469 208.069580078125 L 187.0958404541016 209.5669860839844 L 185.5487823486328 209.5669860839844 L 176.9162750244141 209.5669860839844 L 174.9162750244141 209.5669860839844 L 174.9162750244141 207.5669860839844 L 174.9162750244141 199.9043273925781 L 174.9162750244141 197.9043273925781 M 167.2536010742188 182.5789489746094 L 169.2536010742188 182.5789489746094 L 215.1956329345703 182.5789489746094 L 215.2112121582031 182.5789489746094 L 215.2296600341797 182.5789489746094 L 215.2296600341797 186.5789489746094 L 215.1965637207031 186.5789489746094 C 208.2344665527344 186.5822296142578 201.5285339355469 189.1251983642578 196.3140563964844 193.7394104003906 L 195.7465362548828 194.2416381835938 L 194.9886932373047 194.2416381835938 L 169.2536010742188 194.2416381835938 L 167.2536010742188 194.2416381835938 L 167.2536010742188 192.2416381835938 L 167.2536010742188 184.5789489746094 L 167.2536010742188 182.5789489746094 M 174.9162750244141 167.2535705566406 L 176.9162750244141 167.2535705566406 L 222.8923492431641 167.2535705566406 L 224.8923492431641 167.2535705566406 L 224.8923492431641 169.2535705566406 L 224.8923492431641 176.916259765625 L 224.8923492431641 178.916259765625 L 222.8923492431641 178.916259765625 L 176.9162750244141 178.916259765625 L 174.9162750244141 178.916259765625 L 174.9162750244141 176.916259765625 L 174.9162750244141 169.2535705566406 L 174.9162750244141 167.2535705566406 M 167.2536010742188 151.92822265625 L 169.2536010742188 151.92822265625 L 215.2296600341797 151.92822265625 L 217.2296600341797 151.92822265625 L 217.2296600341797 153.92822265625 L 217.2296600341797 161.5908813476562 L 217.2296600341797 163.5908813476562 L 215.2296600341797 163.5908813476562 L 169.2536010742188 163.5908813476562 L 167.2536010742188 163.5908813476562 L 167.2536010742188 161.5908813476562 L 167.2536010742188 153.92822265625 L 167.2536010742188 151.92822265625 M 174.9162750244141 136.6028900146484 L 176.9162750244141 136.6028900146484 L 222.8923492431641 136.6028900146484 L 224.8923492431641 136.6028900146484 L 224.8923492431641 138.6028900146484 L 224.8923492431641 146.2655487060547 L 224.8923492431641 148.2655487060547 L 222.8923492431641 148.2655487060547 L 176.9162750244141 148.2655487060547 L 174.9162750244141 148.2655487060547 L 174.9162750244141 146.2655487060547 L 174.9162750244141 138.6028900146484 L 174.9162750244141 136.6028900146484 M 164.4864044189453 29.32535552978516 L 165.9744720458984 29.32535552978516 L 184.5789337158203 29.32535552978516 L 186.5789337158203 29.32535552978516 L 186.5789337158203 31.32535552978516 L 186.5789337158203 130.9402008056641 L 186.5789337158203 132.9402008056641 L 184.5789337158203 132.9402008056641 L 176.9162750244141 132.9402008056641 L 174.9162750244141 132.9402008056641 L 174.9162750244141 130.9402008056641 L 174.9162750244141 50.48207473754883 C 174.9162750244141 49.47225952148438 174.0947570800781 48.65073013305664 173.0849456787109 48.65073013305664 L 161.3768463134766 48.65073013305664 L 158.6887817382812 48.65073013305664 L 159.461181640625 46.07604217529297 L 164.0588073730469 30.75066757202148 L 164.4864044189453 29.32535552978516 M 45.27872085571289 21.66266822814941 L 47.96678161621094 21.66266822814941 L 55.3833122253418 21.66266822814941 L 56.82481384277344 21.66266822814941 L 57.28068923950195 23.03019905090332 L 64.07025146484375 43.39854431152344 C 64.31990814208984 44.14748001098633 65.01806640625 44.65069961547852 65.80740356445312 44.65073013305664 L 142.4342193603516 44.65073013305664 C 143.2239379882812 44.65073013305664 143.9222564697266 44.14748001098633 144.1719055175781 43.39835357666016 L 150.9609680175781 23.03022956848145 L 151.4168090820312 21.66266822814941 L 152.8583374023438 21.66266822814941 L 160.2729034423828 21.66266822814941 L 162.9609680175781 21.66266822814941 L 162.1885681152344 24.23735427856445 L 152.9933776855469 54.88810348510742 L 152.5657806396484 56.31341934204102 L 151.0777130126953 56.31341934204102 L 57.1619987487793 56.31341934204102 L 55.6739387512207 56.31341934204102 L 55.24634552001953 54.88810348510742 L 46.05112457275391 24.23735427856445 L 45.27872085571289 21.66266822814941 M 63.2400016784668 29.32535552978516 L 66.01477813720703 29.32535552978516 L 142.2268371582031 29.32535552978516 L 145.0016326904297 29.32535552978516 L 144.1242218017578 31.95776176452637 L 141.5701599121094 39.62044906616211 L 141.1143493652344 40.98804092407227 L 139.6727752685547 40.98804092407227 L 68.56884765625 40.98804092407227 L 67.12728118896484 40.98804092407227 L 66.67147064208984 39.62044906616211 L 64.11740875244141 31.95776176452637 L 63.2400016784668 29.32535552978516 M 215.2433929443359 245.8803863525391 C 215.2396240234375 245.8803863525391 215.2334289550781 245.8803863525391 215.2296600341797 245.8803863525391 L 19.83134460449219 245.8803863525391 C 17.7153434753418 245.8803863525391 16 244.1650390625 16 242.0490417480469 L 16 27.49401092529297 C 16 25.37804222106934 17.7153434753418 23.66266822814941 19.83134460449219 23.66266822814941 L 39.96887588500977 23.66266822814941 L 39.14943695068359 20.9328556060791 C 38.80118942260742 19.7726993560791 39.02206420898438 18.5162296295166 39.74487686157227 17.54469871520996 C 40.46781158447266 16.57279205322266 41.60774993896484 16.0000114440918 42.81937408447266 16.0000114440918 L 58.14475250244141 16.0000114440918 C 59.79393768310547 15.99988651275635 61.25815582275391 17.05513572692871 61.77972030639648 18.61966705322266 L 63.46072006225586 23.66266822814941 L 144.7809143066406 23.66266822814941 L 146.4618377685547 18.61994934082031 C 146.9832763671875 17.05535507202148 148.4474029541016 16.0000114440918 150.0969085693359 16.0000114440918 L 165.4222564697266 16.0000114440918 C 166.6335296630859 15.99988651275635 167.7734985351562 16.57257461547852 168.4965362548828 17.54438591003418 C 169.2195587158203 18.5162296295166 169.4404449462891 19.7726993560791 169.0922241210938 20.9328556060791 L 168.2732543945312 23.66266822814941 L 188.4102783203125 23.66266822814941 C 190.5262756347656 23.66266822814941 192.2416229248047 25.37804222106934 192.2416229248047 27.49401092529297 L 192.2416229248047 130.9402008056641 L 226.7236938476562 130.9402008056641 C 228.8396606445312 130.9402008056641 230.5550384521484 132.6555480957031 230.5550384521484 134.7715454101562 L 230.5550384521484 150.0968933105469 C 230.5550384521484 152.212890625 228.8396606445312 153.92822265625 226.7236938476562 153.92822265625 L 222.8923492431641 153.92822265625 L 222.8923492431641 161.5908813476562 L 226.7236938476562 161.5908813476562 C 228.8396606445312 161.5908813476562 230.5550384521484 163.3062286376953 230.5550384521484 165.4222259521484 L 230.5550384521484 180.7476043701172 C 230.5550384521484 182.8635711669922 228.8396606445312 184.5789489746094 226.7236938476562 184.5789489746094 L 222.8923492431641 184.5789489746094 L 222.8923492431641 185.5487670898438 C 237.84375 189.4019165039062 247.5950012207031 203.7747039794922 245.649658203125 219.0915679931641 C 243.7047271728516 234.4047393798828 230.6783905029297 245.881591796875 215.2433929443359 245.8803863525391 Z M 194.9886932373047 238.2177276611328 C 192.4941253662109 236.0188598632812 190.371337890625 233.4312896728516 188.7024383544922 230.5550384521484 L 176.9162750244141 230.5550384521484 L 176.9162750244141 238.2176971435547 L 194.9886932373047 238.2177276611328 Z M 215.2296600341797 192.2416381835938 C 202.5337219238281 192.2416381835938 192.2416229248047 202.53369140625 192.2416229248047 215.2296600341797 C 192.2416229248047 227.9255981445312 202.5337219238281 238.2176971435547 215.2296600341797 238.2176971435547 C 227.9256286621094 238.2176971435547 238.2176818847656 227.9255981445312 238.2176818847656 215.2296600341797 L 238.2177581787109 215.2296600341797 C 238.2034759521484 202.5396423339844 227.9197235107422 192.2558898925781 215.2296600341797 192.2416381835938 Z M 23.66268730163574 31.32535552978516 L 23.66268730163574 238.2176971435547 L 169.2536010742188 238.2176971435547 L 169.2536010742188 230.5550384521484 L 35.15668869018555 230.5550384521484 C 33.04071807861328 230.5550384521484 31.32537651062012 228.8396606445312 31.32537651062012 226.7236633300781 L 31.32537651062012 50.48207473754883 C 31.32537651062012 48.36607360839844 33.04071807861328 46.65073013305664 35.15668869018555 46.65073013305664 L 46.86528015136719 46.65073013305664 L 42.26765823364258 31.32535552978516 L 23.66268730163574 31.32535552978516 Z M 185.5487518310547 222.8923187255859 C 184.9032745361328 220.3892974853516 184.5774078369141 217.8145751953125 184.5789337158203 215.2296600341797 L 169.2536010742188 215.2296600341797 L 169.2536010742188 222.8923187255859 L 185.5487518310547 222.8923187255859 Z M 38.98803329467773 54.31341934204102 L 38.98803329467773 222.8923187255859 L 161.5909118652344 222.8923187255859 L 161.5909118652344 211.3983306884766 C 161.5909118652344 209.2823181152344 163.3062438964844 207.5669860839844 165.4222564697266 207.5669860839844 L 169.2536010742188 207.5669860839844 L 169.2536010742188 199.9043273925781 L 165.4222564697266 199.9043273925781 C 163.3062438964844 199.9043273925781 161.5909118652344 198.1889495849609 161.5909118652344 196.0729827880859 L 161.5909118652344 180.7476043701172 C 161.5909118652344 178.6316070556641 163.3062438964844 176.916259765625 165.4222564697266 176.916259765625 L 169.2536010742188 176.916259765625 L 169.2536010742188 169.2535705566406 L 165.4222564697266 169.2535705566406 C 163.3062438964844 169.2535705566406 161.5909118652344 167.5382232666016 161.5909118652344 165.4222259521484 L 161.5909118652344 150.0968933105469 C 161.5909118652344 147.9808807373047 163.3062438964844 146.2655487060547 165.4222564697266 146.2655487060547 L 169.2536010742188 146.2655487060547 L 169.2536010742188 54.31341934204102 L 159.0780334472656 54.31341934204102 L 157.5982818603516 59.24591827392578 C 157.1119995117188 60.86638641357422 155.6204376220703 61.97607421875 153.92822265625 61.97607421875 L 54.31340789794922 61.97607421875 C 52.62153244018555 61.97626113891602 51.12987518310547 60.86666870117188 50.64343643188477 59.24626159667969 L 49.16409301757812 54.31341934204102 L 38.98803329467773 54.31341934204102 Z M 176.9162750244141 199.9043273925781 L 176.9162750244141 207.5669860839844 L 185.5487823486328 207.5669860839844 C 186.2461242675781 204.8810424804688 187.3071594238281 202.302978515625 188.7024383544922 199.9043273925781 L 176.9162750244141 199.9043273925781 Z M 169.2536010742188 184.5789489746094 L 169.2536010742188 192.2416381835938 L 194.9886932373047 192.2416381835938 C 200.564697265625 187.3074645996094 207.7507476806641 184.5824432373047 215.1956329345703 184.5789489746094 L 215.2296600341797 184.5789489746094 C 215.2237396240234 184.5789489746094 215.2171325683594 184.5789489746094 215.2112274169922 184.5789489746094 C 215.2062225341797 184.5789489746094 215.2006378173828 184.5789489746094 215.1956329345703 184.5789489746094 L 169.2536010742188 184.5789489746094 Z M 176.9162750244141 169.2535705566406 L 176.9162750244141 176.916259765625 L 222.8923492431641 176.916259765625 L 222.8923492431641 169.2535705566406 L 176.9162750244141 169.2535705566406 Z M 169.2536010742188 153.92822265625 L 169.2536010742188 161.5908813476562 L 215.2296600341797 161.5908813476562 L 215.2296600341797 153.92822265625 L 169.2536010742188 153.92822265625 Z M 176.9162750244141 138.6028900146484 L 176.9162750244141 146.2655487060547 L 222.8923492431641 146.2655487060547 L 222.8923492431641 138.6028900146484 L 176.9162750244141 138.6028900146484 Z M 165.9744720458984 31.32535552978516 L 161.3768463134766 46.65073013305664 L 173.0849456787109 46.65073013305664 C 175.2009429931641 46.65073013305664 176.9162750244141 48.36607360839844 176.9162750244141 50.48207473754883 L 176.9162750244141 130.9402008056641 L 184.5789337158203 130.9402008056641 L 184.5789337158203 31.32535552978516 L 165.9744720458984 31.32535552978516 Z M 47.96678161621094 23.66266822814941 L 57.1619987487793 54.31341934204102 L 151.0777130126953 54.31341934204102 L 160.2729034423828 23.66266822814941 L 152.8583374023438 23.66266822814941 L 146.0692749023438 44.03079223632812 C 145.5478515625 45.59535598754883 144.0836944580078 46.65073013305664 142.4342193603516 46.65073013305664 L 65.80740356445312 46.65073013305664 C 64.15840911865234 46.650634765625 62.69440841674805 45.59541702270508 62.17290496826172 44.03104400634766 L 55.3833122253418 23.66266822814941 L 47.96678161621094 23.66266822814941 Z M 66.01477813720703 31.32535552978516 L 68.56884765625 38.98804092407227 L 139.6727752685547 38.98804092407227 L 142.2268371582031 31.32535552978516 L 66.01477813720703 31.32535552978516 Z" stroke="none" fill="#1f1f1f"/>
        </g>
        <g id="Path_1793" data-name="Path 1793" transform="translate(-41.687 -70.867)" fill="none">
          <path d="M126.651,155.831A3.831,3.831,0,0,0,122.819,152H99.831a3.831,3.831,0,1,0,0,7.663h7.663v26.819a3.831,3.831,0,1,0,7.663,0V159.663h7.663A3.831,3.831,0,0,0,126.651,155.831Z" stroke="none"/>
          <path d="M 99.83133697509766 154 C 98.82152557373047 154 97.99998474121094 154.821533203125 97.99998474121094 155.8313293457031 C 97.99998474121094 156.8411407470703 98.82152557373047 157.6626892089844 99.83133697509766 157.6626892089844 L 107.494010925293 157.6626892089844 L 109.494010925293 157.6626892089844 L 109.494010925293 159.6626892089844 L 109.494010925293 186.4820556640625 C 109.494010925293 187.4918823242188 110.315544128418 188.3134155273438 111.3253555297852 188.3134155273438 C 112.3351593017578 188.3134155273438 113.1567001342773 187.4918823242188 113.1567001342773 186.4820556640625 L 113.1567001342773 159.6626892089844 L 113.1567001342773 157.6626892089844 L 115.1567001342773 157.6626892089844 L 122.8193817138672 157.6626892089844 C 123.8291778564453 157.6626892089844 124.6507110595703 156.8411407470703 124.6507110595703 155.8313293457031 C 124.6507110595703 154.821533203125 123.8291778564453 154 122.8193817138672 154 L 99.83133697509766 154 M 99.83133697509766 152 L 122.8193817138672 152 C 124.9353713989258 152 126.6507110595703 153.7153625488281 126.6507110595703 155.8313293457031 C 126.6507110595703 157.9473266601562 124.9353713989258 159.6626892089844 122.8193817138672 159.6626892089844 L 115.1567001342773 159.6626892089844 L 115.1567001342773 186.4820556640625 C 115.1567001342773 188.5980529785156 113.4413452148438 190.3134155273438 111.3253555297852 190.3134155273438 C 109.209358215332 190.3134155273438 107.494010925293 188.5980529785156 107.494010925293 186.4820556640625 L 107.494010925293 159.6626892089844 L 99.83133697509766 159.6626892089844 C 97.71534729003906 159.6626892089844 95.99998474121094 157.9473266601562 95.99998474121094 155.8313293457031 C 95.99998474121094 153.7153625488281 97.71534729003906 152 99.83133697509766 152 Z" stroke="none" fill="#1f1f1f"/>
        </g>
        <g id="Path_1794" data-name="Path 1794" transform="translate(-79.205 -70.868)" fill="none">
          <path d="M171.831,190.314a3.831,3.831,0,0,0,3.831-3.831v-3.831h15.325v3.831a3.831,3.831,0,1,0,7.663,0V178.82a3.829,3.829,0,0,0-.4-1.714l-11.494-22.988a3.831,3.831,0,0,0-6.853,0L168.4,177.106a3.827,3.827,0,0,0-.4,1.714v7.663A3.831,3.831,0,0,0,171.831,190.314ZM183.325,164.4l5.295,10.589H178.03Z" stroke="none"/>
          <path d="M 194.8193664550781 188.3136901855469 C 195.8291931152344 188.3136901855469 196.6507263183594 187.4921569824219 196.6507263183594 186.4823455810547 L 196.6507263183594 178.8196716308594 C 196.6507263183594 178.5368041992188 196.5838623046875 178.2536773681641 196.4569549560547 178.0001678466797 L 184.9632720947266 155.0126953125 C 184.6510162353516 154.3883819580078 184.0234069824219 154.0005493164062 183.3253479003906 154.0005493164062 C 182.6273040771484 154.0005493164062 181.9996795654297 154.3883972167969 181.6875305175781 155.0124969482422 L 170.1931762695312 178.001220703125 C 170.0667114257812 178.2538909912109 169.9999084472656 178.5367736816406 169.9999694824219 178.8196868896484 L 170 186.4823455810547 C 170 187.4921569824219 170.821533203125 188.3136901855469 171.8313293457031 188.3136901855469 C 172.8411254882812 188.3136901855469 173.6626586914062 187.4921569824219 173.6626586914062 186.4823455810547 L 173.6626586914062 182.6510009765625 L 173.6626586914062 180.6510009765625 L 175.6626586914062 180.6510009765625 L 190.988037109375 180.6510009765625 L 192.988037109375 180.6510009765625 L 192.988037109375 182.6510009765625 L 192.988037109375 186.4823455810547 C 192.988037109375 187.4921569824219 193.8095703125 188.3136901855469 194.8193664550781 188.3136901855469 M 183.3253326416016 159.9270172119141 L 185.1141815185547 163.5045318603516 L 190.4091033935547 174.0938873291016 L 191.8563995361328 176.9883422851562 L 188.6202697753906 176.9883422851562 L 178.0304565429688 176.9883422851562 L 174.7943267822266 176.9883422851562 L 176.2416229248047 174.0938873291016 L 181.5365142822266 163.5045318603516 L 183.3253326416016 159.9270172119141 M 194.8193664550781 190.3136901855469 C 192.7033996582031 190.3136901855469 190.988037109375 188.5983428955078 190.988037109375 186.4823455810547 L 190.988037109375 182.6510009765625 L 175.6626586914062 182.6510009765625 L 175.6626586914062 186.4823455810547 C 175.6626586914062 188.5983428955078 173.9473266601562 190.3136901855469 171.8313293457031 190.3136901855469 C 169.71533203125 190.3136901855469 168 188.5983428955078 168 186.4823455810547 L 167.9999694824219 178.8196868896484 C 167.9998474121094 178.2248077392578 168.138427734375 177.6380767822266 168.4046630859375 177.1061096191406 L 179.898681640625 154.1180725097656 C 180.5477905273438 152.8202819824219 181.8743286132812 152.0005493164062 183.3253479003906 152.0005493164062 C 184.7763977050781 152.0005493164062 186.1029357910156 152.8202819824219 186.7520141601562 154.1180725097656 L 198.2458190917969 177.1057434082031 C 198.5120849609375 177.6377105712891 198.6507263183594 178.2243804931641 198.6507263183594 178.8196716308594 L 198.6507263183594 186.4823455810547 C 198.6507263183594 188.5983428955078 196.9353637695312 190.3136901855469 194.8193664550781 190.3136901855469 Z M 188.6202697753906 174.9883422851562 L 183.3253479003906 164.3989868164062 L 178.0304565429688 174.9883422851562 L 188.6202697753906 174.9883422851562 Z" stroke="none" fill="#1f1f1f"/>
        </g>
        <g id="Path_1795" data-name="Path 1795" transform="translate(-120.891 -70.867)" fill="none">
          <path d="M273.018,152.582a3.831,3.831,0,0,0-5.28,1.218l-6.329,10.127L255.08,153.8a3.831,3.831,0,0,0-6.5,4.061l8.309,13.295-8.309,13.295a3.831,3.831,0,1,0,6.5,4.061l6.329-10.124,6.329,10.127a3.831,3.831,0,0,0,6.5-4.061l-8.309-13.3,8.309-13.295A3.831,3.831,0,0,0,273.018,152.582Z" stroke="none"/>
          <path d="M 251.8271179199219 153.9989013671875 C 251.4864501953125 153.9989013671875 251.152099609375 154.0953369140625 250.8601684570312 154.2777862548828 C 250.0038452148438 154.8129730224609 249.7425842285156 155.945068359375 250.2778015136719 156.8013763427734 L 258.5870056152344 170.0961303710938 L 259.24951171875 171.1561279296875 L 258.5870056152344 172.2161254882812 L 250.2778015136719 185.5108489990234 C 249.7425842285156 186.3671722412109 250.0038452148438 187.4992523193359 250.8601684570312 188.0344543457031 C 251.152099609375 188.2169036865234 251.4864501953125 188.3133392333984 251.8271179199219 188.3133392333984 C 252.4647827148438 188.3133392333984 253.0466918945312 187.9913787841797 253.3838806152344 187.4518890380859 L 259.7132568359375 177.3275909423828 L 261.4093322753906 174.6145935058594 L 263.1051025390625 177.3277740478516 L 269.4345092773438 187.4544982910156 C 269.7715454101562 187.9937744140625 270.3534545898438 188.3157348632812 270.9910888671875 188.3157348632812 C 271.331787109375 188.3157348632812 271.6661376953125 188.2192993164062 271.9580688476562 188.0368499755859 C 272.8143920898438 187.5016632080078 273.0756225585938 186.3695678710938 272.5403747558594 185.5131225585938 L 264.2311401367188 172.2159881591797 L 263.5687866210938 171.1560211181641 L 264.2312316894531 170.0961303710938 L 272.5404357910156 156.8014068603516 C 273.0756225585938 155.945068359375 272.8143920898438 154.81298828125 271.9580688476562 154.2777862548828 C 271.6661987304688 154.0953674316406 271.331787109375 153.9989318847656 270.9907836914062 153.9989013671875 C 270.3533325195312 153.9989013671875 269.7715454101562 154.3208618164062 269.4344787597656 154.8601837158203 L 263.1051025390625 164.9868927001953 L 261.4091186523438 167.7003936767578 L 259.713134765625 164.9868927001953 L 253.3837585449219 154.8601379394531 C 253.0466918945312 154.3208618164062 252.4647827148438 153.9989013671875 251.8271179199219 153.9989013671875 M 251.8271179199219 151.9989013671875 C 253.1043090820312 151.9989013671875 254.3529663085938 152.6372833251953 255.0797424316406 153.8001403808594 L 261.4091186523438 163.9268646240234 L 267.7384948730469 153.8001556396484 C 268.46533203125 152.6371765136719 269.7137756347656 151.9988098144531 270.9910888671875 151.9989013671875 C 271.6845092773438 151.9989624023438 272.3866882324219 152.1871795654297 273.01806640625 152.5818023681641 C 274.8124389648438 153.7032623291016 275.35791015625 156.0670166015625 274.2364501953125 157.8613891601562 L 265.9272155761719 171.1561279296875 L 274.2364501953125 184.4532623291016 C 275.35791015625 186.2476348876953 274.8124389648438 188.6113739013672 273.01806640625 189.7328491210938 C 272.3865966796875 190.1275329589844 271.6846313476562 190.3157348632812 270.9910888671875 190.3157348632812 C 269.7138977050781 190.3157348632812 268.4652709960938 189.6773529052734 267.7384948730469 188.5144958496094 L 261.4091186523438 178.3877868652344 L 255.0797424316406 188.5120849609375 C 254.3528747558594 189.6750640869141 253.1044311523438 190.3133392333984 251.8271179199219 190.3133392333984 C 251.1336669921875 190.3133392333984 250.4315490722656 190.1250610351562 249.8001708984375 189.7304534912109 C 248.0057983398438 188.6089782714844 247.4603271484375 186.2452392578125 248.581787109375 184.4508666992188 L 256.8910217285156 171.1561279296875 L 248.581787109375 157.8613739013672 C 247.4603271484375 156.0670166015625 248.0057983398438 153.7032623291016 249.8001708984375 152.581787109375 C 250.431640625 152.1871032714844 251.1335754394531 151.9989013671875 251.8271179199219 151.9989013671875 Z" stroke="none" fill="#1f1f1f"/>
        </g>
        <g id="Path_1796" data-name="Path 1796" transform="translate(-70.868 -129.228)" fill="none">
          <path d="M200.566,265a3.831,3.831,0,0,0-5.412.235L153.01,311.216a3.832,3.832,0,1,0,5.648,5.18L200.8,270.42A3.831,3.831,0,0,0,200.566,265Z" stroke="none"/>
          <path d="M 197.9786529541016 265.99853515625 C 197.4588775634766 265.99853515625 196.9793090820312 266.2093200683594 196.6286773681641 266.5915832519531 L 154.4836883544922 312.5679016113281 C 154.1529846191406 312.9285278320312 153.9825286865234 313.3963623046875 154.0036926269531 313.8851928710938 C 154.0248565673828 314.3740234375 154.2351226806641 314.8253784179688 154.5957489013672 315.1560363769531 C 154.9345245361328 315.4666748046875 155.3738250732422 315.6377563476562 155.8327484130859 315.6377563476562 C 156.3529205322266 315.6377563476562 156.832763671875 315.4268798828125 157.1836547851562 315.0442504882812 L 199.3284759521484 269.0680847167969 C 199.6591644287109 268.7073669433594 199.8295135498047 268.2394714355469 199.8081665039062 267.7505798339844 C 199.7868041992188 267.2616882324219 199.5762939453125 266.8104248046875 199.2150421142578 266.4796142578125 C 198.87646484375 266.1694030761719 198.4374389648438 265.9985656738281 197.9788360595703 265.99853515625 L 197.9786529541016 265.99853515625 M 197.9789123535156 263.99853515625 C 198.9033966064453 263.9985961914062 199.8307952880859 264.3312683105469 200.5661315917969 265.0049743652344 C 202.1272430419922 266.4346008300781 202.2331695556641 268.8592834472656 200.8027038574219 270.4196166992188 L 158.6579742431641 316.3956909179688 C 157.9022369384766 317.2198181152344 156.8692321777344 317.6377563476562 155.8327484130859 317.6377563476562 C 154.9076080322266 317.6377563476562 153.9796600341797 317.3046569824219 153.2440490722656 316.630126953125 C 151.6842956542969 315.1998596191406 151.5793304443359 312.7759399414062 153.0096282958984 311.2161865234375 L 195.1543731689453 265.2401428222656 C 195.9099884033203 264.4163208007812 196.9426574707031 263.9984741210938 197.9789123535156 263.99853515625 Z" stroke="none" fill="#1f1f1f"/>
        </g>
        <g id="Path_1797" data-name="Path 1797" transform="translate(-66.699 -129.228)" fill="none">
          <path d="M166.988,275.494a11.494,11.494,0,1,0-11.494,11.494A11.494,11.494,0,0,0,166.988,275.494Zm-15.325,0a3.831,3.831,0,1,1,3.831,3.831,3.831,3.831,0,0,1-3.831-3.831Z" stroke="none"/>
          <path d="M 155.4940338134766 266 C 150.2590026855469 266 146 270.2590026855469 146 275.4940185546875 C 146 280.7290344238281 150.2590026855469 284.988037109375 155.4918060302734 284.988037109375 C 158.0271453857422 284.9851989746094 160.4107513427734 283.9963073730469 162.2035217285156 282.2035217285156 C 163.9962921142578 280.4107360839844 164.9851837158203 278.0271301269531 164.988037109375 275.4940185546875 C 164.988037109375 270.2590026855469 160.7290496826172 266 155.4940338134766 266 M 155.4940338134766 281.3253784179688 L 155.4929046630859 281.3253784179688 L 155.4917602539062 281.3253784179688 C 152.2811737060547 281.3217163085938 149.666259765625 278.706787109375 149.6626892089844 275.4940185546875 C 149.6626892089844 272.2785949707031 152.2786254882812 269.6626892089844 155.4940338134766 269.6626892089844 C 158.7094421386719 269.6626892089844 161.3253631591797 272.2785949707031 161.3253631591797 275.4940185546875 C 161.3253631591797 278.7094421386719 158.7094421386719 281.3253784179688 155.4940338134766 281.3253784179688 M 155.4940338134766 264 C 161.8419952392578 264 166.988037109375 269.1460571289062 166.988037109375 275.4940185546875 C 166.9809112548828 281.8390197753906 161.8390350341797 286.9809265136719 155.4940338134766 286.988037109375 C 149.1460418701172 286.988037109375 144 281.8420104980469 144 275.4940185546875 C 144 269.1460571289062 149.1460418701172 264 155.4940338134766 264 Z M 155.4940338134766 279.3253784179688 C 157.6100158691406 279.3253784179688 159.3253631591797 277.6100158691406 159.3253631591797 275.4940185546875 C 159.3253631591797 273.3780212402344 157.6100158691406 271.6626892089844 155.4940338134766 271.6626892089844 C 153.3780212402344 271.6626892089844 151.6626892089844 273.3780212402344 151.6626892089844 275.4940185546875 C 151.6626892089844 275.4939880371094 151.6626892089844 275.4939880371094 151.6626892089844 275.4939880371094 L 151.6626892089844 275.4940185546875 C 151.6650390625 277.6090087890625 153.3790130615234 279.3229675292969 155.4940338134766 279.3253784179688 Z" stroke="none" fill="#1f1f1f"/>
        </g>
        <g id="Path_1798" data-name="Path 1798" transform="translate(-100.048 -162.578)" fill="none">
          <path d="M219.494,328a11.494,11.494,0,1,0,11.494,11.494A11.494,11.494,0,0,0,219.494,328Zm0,15.325a3.831,3.831,0,1,1,3.831-3.831A3.831,3.831,0,0,1,219.494,343.325Z" stroke="none"/>
          <path d="M 219.4922180175781 330 C 214.2580718994141 330.0010375976562 209.9999847412109 334.2596435546875 209.9999847412109 339.4940185546875 C 209.9999847412109 344.7290649414062 214.2589874267578 348.9880676269531 219.4940185546875 348.9880676269531 C 224.7290344238281 348.9880676269531 228.9880218505859 344.7290649414062 228.9880218505859 339.4962463378906 C 228.9851837158203 336.9608764648438 227.9962921142578 334.5772705078125 226.2035217285156 332.7845153808594 C 224.4108581542969 330.9918518066406 222.0274200439453 330.0029602050781 219.4922180175781 330 M 219.4962768554688 345.3253784179688 L 219.4951477050781 345.3253784179688 L 219.4940185546875 345.3253784179688 C 216.2786102294922 345.3253784179688 213.6626739501953 342.7094421386719 213.6626739501953 339.4940185546875 C 213.6626739501953 336.2785949707031 216.2786102294922 333.6626892089844 219.4940185546875 333.6626892089844 C 222.7094268798828 333.6626892089844 225.3253326416016 336.2785949707031 225.3253326416016 339.4962463378906 C 225.3217620849609 342.7068176269531 222.7068634033203 345.32177734375 219.4962768554688 345.3253784179688 M 219.4939880371094 328 L 219.4940185546875 328 C 219.4939880371094 328 219.4939880371094 328 219.4939880371094 328 Z M 219.4939880371094 328 C 225.8390197753906 328.0071105957031 230.9809265136719 333.1489868164062 230.9880218505859 339.4940185546875 C 230.9880218505859 345.8420104980469 225.8419952392578 350.9880676269531 219.4940185546875 350.9880676269531 C 213.1460418701172 350.9880676269531 207.9999847412109 345.8420104980469 207.9999847412109 339.4940185546875 C 207.9999847412109 333.1460571289062 213.1460418701172 328 219.4940185546875 328 Z M 219.4940185546875 343.3253784179688 C 221.6090240478516 343.322998046875 223.3229827880859 341.6090393066406 223.3253326416016 339.4940185546875 C 223.3253326416016 337.3780517578125 221.6100006103516 335.6626892089844 219.4940185546875 335.6626892089844 C 217.3780059814453 335.6626892089844 215.6626739501953 337.3780517578125 215.6626739501953 339.4940185546875 C 215.6626739501953 341.6100158691406 217.3780059814453 343.3253784179688 219.4940185546875 343.3253784179688 Z" stroke="none" fill="#1f1f1f"/>
        </g>
        <g id="Path_1799" data-name="Path 1799" transform="translate(-208.432 -200.096)" fill="none">
          <path d="M419.83,403.831v1.037a7.656,7.656,0,0,0,3.831,14.288H419.83a6.058,6.058,0,1,0,7.663,7.663v-1.037a7.656,7.656,0,0,0-3.831-14.289h3.831a6.058,6.058,0,1,0-7.663-7.663Z" stroke="none"/>
          <path d="M 423.6613159179688 402 C 422.6514892578125 402 421.8299560546875 402.821533203125 421.8299560546875 403.8313293457031 L 421.8299560546875 404.8682250976562 L 421.8299560546875 406.0237121582031 L 420.8289489746094 406.6008605957031 C 418.6134948730469 407.8782043457031 417.5287475585938 410.4954833984375 418.1910400390625 412.965576171875 C 418.8520812988281 415.4308471679688 421.0965270996094 417.154296875 423.6472473144531 417.1567077636719 L 423.6613159179688 417.1567077636719 L 423.6613159179688 421.1567077636719 L 423.6540222167969 421.1567077636719 L 423.6472473144531 421.1567077636719 L 419.8299560546875 421.1567077636719 C 418.8201904296875 421.1567077636719 417.9986572265625 421.9782409667969 417.9986572265625 422.9880676269531 C 417.9986572265625 423.9978637695312 418.8201904296875 424.8193969726562 419.8299560546875 424.8193969726562 L 421.8299560546875 424.8193969726562 L 421.8299560546875 426.8193969726562 C 421.8299560546875 427.8292236328125 422.6514892578125 428.6507568359375 423.6613159179688 428.6507568359375 C 424.6710815429688 428.6507568359375 425.4926147460938 427.8292236328125 425.4926147460938 426.8193969726562 L 425.4926147460938 425.7825317382812 L 425.4926147460938 424.6270446777344 L 426.4936218261719 424.0498962402344 C 428.7091369628906 422.7725219726562 429.7938842773438 420.1552429199219 429.1315307617188 417.6851501464844 C 428.4704895019531 415.2198791503906 426.2261352539062 413.4963989257812 423.6755676269531 413.4940185546875 L 423.6686706542969 413.4940185546875 L 423.6613159179688 413.4940185546875 L 423.6613159179688 409.4940185546875 L 423.6755676269531 409.4940185546875 L 427.4926147460938 409.4940185546875 C 428.50244140625 409.4940185546875 429.323974609375 408.6724853515625 429.323974609375 407.6626892089844 C 429.323974609375 406.6528625488281 428.50244140625 405.8313293457031 427.4926147460938 405.8313293457031 L 425.4926147460938 405.8313293457031 L 425.4926147460938 403.8313293457031 C 425.4926147460938 402.821533203125 424.6710815429688 402 423.6613159179688 402 M 423.6613159179688 400 C 425.7772827148438 400 427.4926147460938 401.7153625488281 427.4926147460938 403.8313293457031 C 429.608642578125 403.8313293457031 431.323974609375 405.5466918945312 431.323974609375 407.6626892089844 C 431.323974609375 409.7786560058594 429.608642578125 411.4940185546875 427.4926147460938 411.4940185546875 L 423.675537109375 411.4940185546875 C 423.6732177734375 411.4940185546875 423.6710205078125 411.4940185546875 423.6686706542969 411.4940185546875 C 423.6661376953125 411.4940185546875 423.6638488769531 411.4940185546875 423.6613159179688 411.4940185546875 L 423.675537109375 411.4940185546875 C 427.1367492675781 411.4972534179688 430.1665344238281 413.8228149414062 431.0632934570312 417.1671752929688 C 431.9613037109375 420.5161437988281 430.4964599609375 424.0506286621094 427.4926147460938 425.7825317382812 L 427.4926147460938 426.8193969726562 C 427.4926147460938 428.9353942871094 425.7772827148438 430.6507568359375 423.6613159179688 430.6507568359375 C 421.5452880859375 430.6507568359375 419.8299560546875 428.9353942871094 419.8299560546875 426.8193969726562 C 417.7139892578125 426.8193969726562 415.9986572265625 425.1040344238281 415.9986572265625 422.9880676269531 C 415.9986572265625 420.8720397949219 417.7139892578125 419.1567077636719 419.8299560546875 419.1567077636719 L 423.6472473144531 419.1567077636719 C 423.6495666503906 419.1567077636719 423.6517028808594 419.1567077636719 423.654052734375 419.1567077636719 C 423.6565856933594 419.1567077636719 423.6587829589844 419.1567077636719 423.6613159179688 419.1567077636719 L 423.6472473144531 419.1567077636719 C 420.1859741210938 419.1534423828125 417.1560363769531 416.827880859375 416.25927734375 413.4835815429688 C 415.361328125 410.134521484375 416.826171875 406.60009765625 419.8299560546875 404.8682250976562 L 419.8299560546875 403.8313293457031 C 419.8299560546875 401.7153625488281 421.5452880859375 400 423.6613159179688 400 Z" stroke="none" fill="#1f1f1f"/>
        </g>
      </g>
    </g>
  </g>
</svg>
