<svg xmlns="http://www.w3.org/2000/svg" width="536" height="592" viewBox="0 0 536 592">
  <g id="Group_1098" data-name="Group 1098" transform="translate(-139 -1516)">
    <rect id="Rectangle_133" data-name="Rectangle 133" width="536" height="592" rx="10" transform="translate(139 1516)" fill="#fff"/>
    <g id="Group_1011" data-name="Group 1011" transform="translate(18.156 -1824.595)">
      <path id="Path_1781" data-name="Path 1781" d="M877.125,1390.1c5.639,8.2,27.5,51.543,83.582,41.487s97.792-37.86,106.758-54.241,17.325-64.389-11.325-81.7-87.567-14.41-116.037-14.292-77.454,17.83-76.255,43.636S871.485,1381.9,877.125,1390.1Z" transform="translate(-581.035 2279.505)" fill="#e5dbc5" opacity="0.5"/>
      <g id="credit-card" transform="translate(272.066 3494.427)">
        <g id="Group_971" data-name="Group 971" transform="translate(-1 46.014)">
          <g id="Group_970" data-name="Group 970">
            <g id="Path_1800" data-name="Path 1800" transform="translate(-141.869 -152.013)" fill="none">
              <path d="M267.458,285.452h62.795a3.708,3.708,0,0,0,3.925-3.925V246.206a3.708,3.708,0,0,0-3.925-3.925H267.458a3.708,3.708,0,0,0-3.924,3.925v35.322A3.708,3.708,0,0,0,267.458,285.452Zm3.925-35.322h54.946V277.6H271.383Z" stroke="none"/>
              <path d="M 330.2530822753906 283.4520874023438 C 331.5121154785156 283.4520874023438 332.1776123046875 282.7865905761719 332.1776123046875 281.5275573730469 L 332.1776123046875 246.2055206298828 C 332.1776123046875 244.9464874267578 331.5121154785156 244.281005859375 330.2530822753906 244.281005859375 L 267.45849609375 244.281005859375 C 266.1994934082031 244.281005859375 265.5339965820312 244.9464874267578 265.5339965820312 246.2055206298828 L 265.5339965820312 281.5279235839844 C 265.533935546875 281.9554443359375 265.6194458007812 282.5506591796875 266.0272827148438 282.95849609375 C 266.4352111816406 283.366455078125 267.0307312011719 283.4520874023438 267.45849609375 283.4520874023438 L 330.2530822753906 283.4520874023438 M 269.383056640625 248.1300201416016 L 271.383056640625 248.1300201416016 L 326.3285827636719 248.1300201416016 L 328.3285827636719 248.1300201416016 L 328.3285827636719 250.1300201416016 L 328.3285827636719 277.6025390625 L 328.3285827636719 279.6025390625 L 326.3285827636719 279.6025390625 L 271.383056640625 279.6025390625 L 269.383056640625 279.6025390625 L 269.383056640625 277.6025390625 L 269.383056640625 250.1300201416016 L 269.383056640625 248.1300201416016 M 330.2530822753906 285.4520874023438 L 267.45849609375 285.4520874023438 C 265.1036987304688 285.4520874023438 263.5335693359375 283.8818969726562 263.5339965820312 281.5275573730469 L 263.5339965820312 246.2055206298828 C 263.5339965820312 243.8507080078125 265.1036987304688 242.281005859375 267.45849609375 242.281005859375 L 330.2530822753906 242.281005859375 C 332.6078796386719 242.281005859375 334.1776123046875 243.8507080078125 334.1776123046875 246.2055206298828 L 334.1776123046875 281.5275573730469 C 334.1776123046875 283.8823852539062 332.6078796386719 285.4520874023438 330.2530822753906 285.4520874023438 Z M 271.383056640625 250.1300201416016 L 271.383056640625 277.6025390625 L 326.3285827636719 277.6025390625 L 326.3285827636719 250.1300201416016 L 271.383056640625 250.1300201416016 Z" stroke="none" fill="#1f1f1f"/>
            </g>
            <g id="Path_1801" data-name="Path 1801" transform="translate(-17.435 -133.578)" fill="none">
              <path d="M37.059,216h31.4a3.925,3.925,0,0,0,0-7.849h-31.4a3.925,3.925,0,0,0,0,7.849Z" stroke="none"/>
              <path d="M 68.45603179931641 213.9960327148438 C 69.71505737304688 213.9960327148438 70.38055419921875 213.3305358886719 70.38055419921875 212.0715026855469 C 70.38055419921875 210.8124694824219 69.71505737304688 210.1469879150391 68.45603179931641 210.1469879150391 L 37.05852127075195 210.1469879150391 C 35.79949188232422 210.1469879150391 35.13400268554688 210.8124694824219 35.13400268554688 212.0715026855469 C 35.13400268554688 213.3305358886719 35.79949188232422 213.9960327148438 37.05852127075195 213.9960327148438 L 68.45603179931641 213.9960327148438 M 68.45603179931641 215.9960327148438 L 37.05852127075195 215.9960327148438 C 34.70371246337891 215.9960327148438 33.13400268554688 214.4263153076172 33.13400268554688 212.0715026855469 C 33.13400268554688 209.7167053222656 34.70371246337891 208.1469879150391 37.05852127075195 208.1469879150391 L 68.45603179931641 208.1469879150391 C 70.81082916259766 208.1469879150391 72.38055419921875 209.7167053222656 72.38055419921875 212.0715026855469 C 72.38055419921875 214.4263153076172 70.81084442138672 215.9960327148438 68.45603179931641 215.9960327148438 Z" stroke="none" fill="#1f1f1f"/>
            </g>
            <g id="Path_1802" data-name="Path 1802" transform="translate(-72.739 -133.578)" fill="none">
              <path d="M139.458,216h31.4a3.925,3.925,0,0,0,0-7.849h-31.4a3.925,3.925,0,0,0,0,7.849Z" stroke="none"/>
              <path d="M 170.8560333251953 213.9960327148438 C 172.1150665283203 213.9960327148438 172.7805480957031 213.3305358886719 172.7805480957031 212.0715026855469 C 172.7805480957031 210.8124694824219 172.1150665283203 210.1469879150391 170.8560333251953 210.1469879150391 L 139.45849609375 210.1469879150391 C 138.1994781494141 210.1469879150391 137.5339965820312 210.8124694824219 137.5339965820312 212.0715026855469 C 137.5339965820312 213.3305358886719 138.1994781494141 213.9960327148438 139.45849609375 213.9960327148438 L 170.8560333251953 213.9960327148438 M 170.8560333251953 215.9960327148438 L 139.45849609375 215.9960327148438 C 137.1037292480469 215.9960327148438 135.5339965820312 214.4263153076172 135.5339965820312 212.0715026855469 C 135.5339965820312 209.7167053222656 137.1037292480469 208.1469879150391 139.45849609375 208.1469879150391 L 170.8560333251953 208.1469879150391 C 173.2108459472656 208.1469879150391 174.7805480957031 209.7167053222656 174.7805480957031 212.0715026855469 C 174.7805480957031 214.4263153076172 173.2108154296875 215.9960327148438 170.8560333251953 215.9960327148438 Z" stroke="none" fill="#1f1f1f"/>
            </g>
            <g id="Path_1803" data-name="Path 1803" transform="translate(-17.435 -152.013)" fill="none">
              <path d="M37.059,250.13H88.079a3.925,3.925,0,1,0,0-7.849H37.059a3.925,3.925,0,1,0,0,7.849Z" stroke="none"/>
              <path d="M 88.07909393310547 248.1300048828125 C 89.33811950683594 248.1300048828125 90.00360870361328 247.4645233154297 90.00360870361328 246.2055206298828 C 90.00360870361328 244.9464874267578 89.33811950683594 244.2809753417969 88.07909393310547 244.2809753417969 L 37.05852127075195 244.2809753417969 C 35.79949188232422 244.2809753417969 35.13400268554688 244.9464874267578 35.13400268554688 246.2055206298828 C 35.13400268554688 247.4645233154297 35.79949188232422 248.1300048828125 37.05852127075195 248.1300048828125 L 88.07909393310547 248.1300048828125 M 88.07909393310547 250.1300048828125 L 37.05852127075195 250.1300048828125 C 34.70371246337891 250.1300048828125 33.13400268554688 248.5603179931641 33.13400268554688 246.2055206298828 C 33.13400268554688 243.8506774902344 34.70371246337891 242.2809753417969 37.05852127075195 242.2809753417969 L 88.07909393310547 242.2809753417969 C 90.43389129638672 242.2809753417969 92.00360870361328 243.8506774902344 92.00360870361328 246.2055206298828 C 92.00360870361328 248.5603179931641 90.43388366699219 250.1300048828125 88.07909393310547 250.1300048828125 Z" stroke="none" fill="#1f1f1f"/>
            </g>
            <g id="Path_1804" data-name="Path 1804" transform="translate(-95.782 -152.013)" fill="none">
              <path d="M193.9,242.28H182.124a3.925,3.925,0,0,0,0,7.849H193.9a3.925,3.925,0,1,0,0-7.849Z" stroke="none"/>
              <path d="M 182.1244964599609 244.2799987792969 C 180.8654632568359 244.2799987792969 180.1999816894531 244.9454803466797 180.1999816894531 246.2045135498047 C 180.1999816894531 247.4635467529297 180.8654632568359 248.1290435791016 182.1244964599609 248.1290435791016 L 193.8985137939453 248.1290435791016 C 195.1575622558594 248.1290435791016 195.8230438232422 247.4635467529297 195.8230438232422 246.2045135498047 C 195.8230438232422 244.9454803466797 195.1575622558594 244.2799987792969 193.8985137939453 244.2799987792969 L 182.1244964599609 244.2799987792969 M 182.1244964599609 242.2799987792969 L 193.8985137939453 242.2799987792969 C 196.2533111572266 242.2799987792969 197.8230438232422 243.8497009277344 197.8230438232422 246.2045135498047 C 197.8230438232422 248.559326171875 196.2533111572266 250.1290435791016 193.8985137939453 250.1290435791016 L 182.1244964599609 250.1290435791016 C 179.7696838378906 250.1290435791016 178.1999816894531 248.559326171875 178.1999816894531 246.2045135498047 C 178.1999816894531 243.8497009277344 179.7697143554688 242.2799987792969 182.1244964599609 242.2799987792969 Z" stroke="none" fill="#1f1f1f"/>
            </g>
            <g id="Path_1805" data-name="Path 1805" transform="translate(1 -46.014)" fill="none">
              <path d="M230.948,87.615a14.622,14.622,0,0,0-10.6-5.887l-9.419-1.142V61.713a15.745,15.745,0,0,0-15.7-15.7H14.7A15.744,15.744,0,0,0-1,61.713V187.3A15.759,15.759,0,0,0,10.246,202.35a15.274,15.274,0,0,0,13.872,15.565l181.32,20.408h1.57c7.849,0,14.914-5.887,15.7-13.344L234.48,99A15.255,15.255,0,0,0,230.948,87.615ZM6.849,73.487H203.083V97.035H6.849ZM14.7,53.863H195.233a7.872,7.872,0,0,1,7.849,7.849v3.925H6.849V61.713A7.872,7.872,0,0,1,14.7,53.863ZM6.849,187.3V104.884H203.083V187.3a7.872,7.872,0,0,1-7.849,7.849H14.7A7.872,7.872,0,0,1,6.849,187.3ZM226.631,97.427,214.857,223.409a7.917,7.917,0,0,1-8.634,7.064L25.3,210.065A7.934,7.934,0,0,1,18.231,203h177a15.745,15.745,0,0,0,15.7-15.7V88.008l9.027.785a6.708,6.708,0,0,1,5.1,2.747A7.948,7.948,0,0,1,226.631,97.427Z" stroke="none"/>
              <path d="M 14.69764709472656 48.01399230957031 C 11.05636596679688 48.01399230957031 7.621429443359375 49.44367980957031 5.025558471679688 52.03965759277344 C 2.429611206054688 54.63571166992188 0.9999847412109375 58.07093811035156 0.9999847412109375 61.7125244140625 L 0.9999847412109375 69.56202697753906 L 0.9999847412109375 100.9595642089844 L 0.9999847412109375 187.3021545410156 C 0.9999847412109375 190.2998962402344 1.962921142578125 193.1519927978516 3.784652709960938 195.5501098632812 C 5.54974365234375 197.8735961914062 8.047393798828125 199.6077423095703 10.81755065917969 200.4331512451172 L 12.28392028808594 200.8700561523438 L 12.24583435058594 202.3996887207031 C 12.16242980957031 205.7489624023438 13.34733581542969 208.9839935302734 15.58230590820312 211.5088806152344 C 17.83036804199219 214.0485229492188 20.92611694335938 215.6160888671875 24.29930114746094 215.9228057861328 L 24.32061767578125 215.9247436523438 L 24.34185791015625 215.9271545410156 L 205.5500640869141 236.32275390625 L 207.0076751708984 236.32275390625 C 213.8934326171875 236.32275390625 220.0408630371094 231.1451416015625 220.7161865234375 224.7790679931641 L 232.4889221191406 98.81092834472656 L 232.4895172119141 98.80451965332031 L 232.4901428222656 98.79812622070312 C 232.8487091064453 95.21087646484375 231.7095489501953 91.52275085449219 229.4429016113281 88.932373046875 L 229.4048004150391 88.88883972167969 L 229.3692779541016 88.84318542480469 C 226.9550476074219 85.73899841308594 223.9460906982422 84.06321716308594 220.1704254150391 83.72012329101562 L 220.1405792236328 83.71743774414062 L 220.1108093261719 83.71380615234375 L 210.6915588378906 82.57228088378906 L 208.9321746826172 82.35905456542969 L 208.9321746826172 80.58680725097656 L 208.9321746826172 69.56155395507812 L 208.9321746826172 61.7125244140625 C 208.9321746826172 58.07090759277344 207.5024871826172 54.63568115234375 204.9065246582031 52.03968811035156 C 202.3105163574219 49.44367980957031 198.8753051757812 48.01399230957031 195.2336730957031 48.01399230957031 L 14.69815063476562 48.01399230957031 L 14.69770812988281 48.01399230957031 L 14.69764709472656 48.01399230957031 M 205.0827026367188 67.63702392578125 L 203.0827026367188 67.63702392578125 L 6.8494873046875 67.63702392578125 L 4.8494873046875 67.63702392578125 L 4.8494873046875 65.63702392578125 L 4.8494873046875 61.7125244140625 C 4.8494873046875 56.281494140625 9.267745971679688 51.86302185058594 14.69851684570312 51.86302185058594 L 195.2332458496094 51.86302185058594 C 200.6642456054688 51.86302185058594 205.0827026367188 56.281494140625 205.0827026367188 61.7125244140625 L 205.0827026367188 65.63702392578125 L 205.0827026367188 67.63702392578125 M 205.0831451416016 99.03459167480469 L 203.0831451416016 99.03459167480469 L 6.8494873046875 99.03459167480469 L 4.8494873046875 99.03459167480469 L 4.8494873046875 97.03459167480469 L 4.8494873046875 73.48652648925781 L 4.8494873046875 71.48652648925781 L 6.8494873046875 71.48652648925781 L 203.0831451416016 71.48652648925781 L 205.0831451416016 71.48652648925781 L 205.0831451416016 73.48652648925781 L 205.0831451416016 83.69084167480469 L 205.0831451416016 97.03459167480469 L 205.0831451416016 99.03459167480469 M 220.0527648925781 86.79339599609375 C 222.5159149169922 86.82705688476562 225.0400238037109 88.17941284179688 226.6602783203125 90.33949279785156 C 228.2785949707031 92.4962158203125 229.03857421875 95.37443542480469 228.6131896972656 97.70777893066406 L 216.8481597900391 223.5938415527344 C 216.6234436035156 226.0554504394531 215.4699249267578 228.3238830566406 213.5998077392578 229.9815673828125 C 211.7629852294922 231.6096801757812 209.4018707275391 232.50634765625 206.9514312744141 232.50634765625 C 206.6493072509766 232.50634765625 206.3431701660156 232.492431640625 206.0416107177734 232.4650268554688 L 206.0199890136719 232.4630889892578 L 205.9984283447266 232.4606475830078 L 25.08297729492188 212.0538940429688 C 22.73271179199219 211.8158569335938 20.62831115722656 210.7933959960938 18.9967041015625 209.0965881347656 C 17.46476745605469 207.5034027099609 16.48680114746094 205.4169311523438 16.24293518066406 203.2214965820312 L 15.99624633789062 201.0007171630859 L 18.230712890625 201.0007171630859 L 195.2332458496094 201.0007171630859 C 198.8748626708984 201.0007171630859 202.31005859375 199.5710296630859 204.9060516357422 196.9750366210938 C 207.5020446777344 194.3790283203125 208.9317321777344 190.9438171386719 208.9317321777344 187.3021850585938 L 208.9317321777344 100.9590911865234 L 208.9317321777344 88.0076904296875 L 208.9317321777344 85.82618713378906 L 211.1050262451172 86.01521301269531 L 220.0527648925781 86.79339599609375 M 195.2336730957031 197.1511840820312 L 15.09130859375 197.1511840820312 L 14.69898986816406 197.1511840820312 C 9.267959594726562 197.1511840820312 4.8494873046875 192.7327117919922 4.8494873046875 187.3016815185547 L 4.8494873046875 104.8836212158203 L 4.8494873046875 102.8836212158203 L 6.8494873046875 102.8836212158203 L 203.0831451416016 102.8836212158203 L 205.0831451416016 102.8836212158203 L 205.0831451416016 104.8836212158203 L 205.0831451416016 187.3016815185547 C 205.0831451416016 192.7327117919922 200.6646728515625 197.1511840820312 195.2336730957031 197.1511840820312 M 14.69851684570312 46.01399230957031 L 195.2336730957031 46.01399230957031 C 203.8677978515625 46.01399230957031 210.9321746826172 53.07839965820312 210.9321746826172 61.7125244140625 L 210.9321746826172 69.56155395507812 L 210.9321746826172 80.58680725097656 L 220.3514251708984 81.72833251953125 C 224.668701171875 82.12065124511719 228.200927734375 84.08314514160156 230.9480285644531 87.61534118652344 C 233.6951446533203 90.75477600097656 234.87255859375 95.07205200195312 234.4802398681641 98.99702453613281 L 222.7062072753906 224.97900390625 C 221.9215850830078 232.4357452392578 214.857177734375 238.32275390625 207.0076751708984 238.32275390625 C 206.6154022216797 238.32275390625 205.8303070068359 238.32275390625 205.43798828125 238.32275390625 L 24.11817932128906 217.9145812988281 C 16.05574035644531 217.1814575195312 10.0487060546875 210.2890625 10.2464599609375 202.3498687744141 C 3.763397216796875 200.418212890625 -1.000015258789062 194.3909301757812 -1.000015258789062 187.3021545410156 L -1.000015258789062 100.9595642089844 L -1.000015258789062 69.56202697753906 L -1.000015258789062 61.7125244140625 C -1.000015258789062 53.07792663574219 6.06439208984375 46.01351928710938 14.69851684570312 46.01399230957031 Z M 203.0827026367188 65.63702392578125 L 203.0827026367188 61.7125244140625 C 203.0827026367188 57.39521789550781 199.5504913330078 53.86302185058594 195.2332458496094 53.86302185058594 L 14.69851684570312 53.86302185058594 C 10.3817138671875 53.86302185058594 6.8494873046875 57.39521789550781 6.8494873046875 61.7125244140625 L 6.8494873046875 65.63702392578125 L 203.0827026367188 65.63702392578125 Z M 203.0831451416016 97.03459167480469 L 203.0831451416016 83.69084167480469 L 203.0831451416016 73.48652648925781 L 6.8494873046875 73.48652648925781 L 6.8494873046875 97.03459167480469 L 203.0831451416016 97.03459167480469 Z M 206.9514312744141 230.50634765625 C 210.9723663330078 230.50634765625 214.4866485595703 227.4815826416016 214.8567352294922 223.4088439941406 L 226.6307373046875 97.42686462402344 C 227.0234832763672 95.46440124511719 226.2384338378906 93.10958862304688 225.060546875 91.53987121582031 C 223.8831481933594 89.97015380859375 221.921142578125 88.79273986816406 219.9586181640625 88.79273986816406 L 210.9317321777344 88.0076904296875 L 210.9317321777344 100.9590911865234 L 210.9317321777344 187.3021850585938 C 210.9317321777344 195.9363098144531 203.8673400878906 203.0007171630859 195.2332458496094 203.0007171630859 L 18.230712890625 203.0007171630859 C 18.623046875 206.5328979492188 21.37062072753906 209.6727752685547 25.29515075683594 210.0651245117188 L 206.2226104736328 230.4732360839844 C 206.4671173095703 230.4954681396484 206.7100067138672 230.50634765625 206.9514312744141 230.50634765625 Z M 195.2336730957031 195.1511840820312 C 199.5509643554688 195.1511840820312 203.0831451416016 191.6189880371094 203.0831451416016 187.3016815185547 L 203.0831451416016 104.8836212158203 L 6.8494873046875 104.8836212158203 L 6.8494873046875 187.3016815185547 C 6.8494873046875 191.6189880371094 10.3817138671875 195.1511840820312 14.69898986816406 195.1511840820312 L 15.09130859375 195.1511840820312 L 195.2336730957031 195.1511840820312 Z" stroke="none" fill="#1f1f1f"/>
            </g>
          </g>
        </g>
      </g>
    </g>
  </g>
</svg>
