<svg xmlns="http://www.w3.org/2000/svg" width="536" height="592" viewBox="0 0 536 592">
  <g id="Group_1096" data-name="Group 1096" transform="translate(-139 -1516)">
    <rect id="Rectangle_133" data-name="Rectangle 133" width="536" height="592" rx="10" transform="translate(139 1516)" fill="#fff"/>
    <g id="Group_944" data-name="Group 944" transform="translate(-22.198 -1701.195)">
      <path id="Path_1781" data-name="Path 1781" d="M877.125,1390.1c5.639,8.2,27.5,51.543,83.582,41.487s97.792-37.86,106.758-54.241,17.325-64.389-11.325-81.7-87.567-14.41-116.037-14.292-77.454,17.83-76.255,43.636S871.485,1381.9,877.125,1390.1Z" transform="translate(-540.837 2156.105)" fill="#e5dbc5" opacity="0.5"/>
      <g id="analytics" transform="translate(331.397 3414.446)">
        <g id="Group_951" data-name="Group 951" transform="translate(-13.491)">
          <g id="Group_950" data-name="Group 950">
            <path id="Path_1782" data-name="Path 1782" d="M207.4,169.918c8.37,0,15.18-6.042,15.18-13.469V19.287C222.584,8.652,212.833,0,200.847,0H21.737C9.751,0,0,8.652,0,19.287V156.449c0,7.427,6.81,13.469,15.18,13.469H20v19.865H4.347a3.885,3.885,0,1,0,0,7.715H218.237a3.885,3.885,0,1,0,0-7.715h-15.65V169.918ZM8.695,19.287c0-6.381,5.851-11.572,13.042-11.572H200.847c7.191,0,13.042,5.191,13.042,11.572v8.486H9.131c-.147,0-.293.007-.436.02Zm39.126,170.5H28.692V155.067H47.821Zm48.69,0H77.383V112.416H96.511Zm48.69,0H126.073V145.037H145.2Zm53.038-90.841H170.416a4.125,4.125,0,0,0-4.347,3.857v19.479a4.378,4.378,0,0,0,8.695,0V106.656h19.128v83.126H174.763V148.22a4.378,4.378,0,0,0-8.695,0v41.563H153.9v-48.6a4.125,4.125,0,0,0-4.347-3.857H121.726a4.125,4.125,0,0,0-4.347,3.857v48.6H105.206V108.559a4.125,4.125,0,0,0-4.347-3.857H73.035a4.125,4.125,0,0,0-4.347,3.857v81.224H56.515V151.209a4.125,4.125,0,0,0-4.347-3.857H24.345A4.125,4.125,0,0,0,20,151.209V162.2H15.18c-3.576,0-6.485-2.581-6.485-5.754V35.468c.143.013.289.02.436.02H213.889V156.449c0,3.173-2.909,5.754-6.485,5.754h-4.818V102.8A4.125,4.125,0,0,0,198.239,98.942Z" fill="none" stroke="#1f1f1f" stroke-width="2"/>
          </g>
        </g>
        <g id="Group_953" data-name="Group 953" transform="translate(80.854 13.887)">
          <g id="Group_952" data-name="Group 952">
            <path id="Path_1783" data-name="Path 1783" d="M303.074,36H215.922a3.857,3.857,0,0,0,0,7.715h87.152a3.857,3.857,0,0,0,0-7.715Z" transform="translate(-212.065 -36)" fill="none" stroke="#1f1f1f" stroke-width="2"/>
          </g>
        </g>
        <g id="Group_955" data-name="Group 955" transform="translate(35.312 13.887)">
          <g id="Group_954" data-name="Group 954">
            <path id="Path_1784" data-name="Path 1784" d="M100.585,37.13a3.855,3.855,0,1,0,1.13,2.727A3.887,3.887,0,0,0,100.585,37.13Z" transform="translate(-94 -36)" fill="none" stroke="#1f1f1f" stroke-width="2"/>
          </g>
        </g>
        <g id="Group_957" data-name="Group 957" transform="translate(19.882 13.887)">
          <g id="Group_956" data-name="Group 956">
            <path id="Path_1785" data-name="Path 1785" d="M60.585,37.13a3.855,3.855,0,1,0,1.13,2.727A3.887,3.887,0,0,0,60.585,37.13Z" transform="translate(-54 -36)" fill="none" stroke="#1f1f1f" stroke-width="2"/>
          </g>
        </g>
        <g id="Group_959" data-name="Group 959" transform="translate(50.741 13.887)">
          <g id="Group_958" data-name="Group 958">
            <path id="Path_1786" data-name="Path 1786" d="M140.585,37.13a3.855,3.855,0,1,0,1.13,2.727A3.88,3.88,0,0,0,140.585,37.13Z" transform="translate(-134 -36)" fill="none" stroke="#1f1f1f" stroke-width="2"/>
          </g>
        </g>
        <g id="Group_961" data-name="Group 961" transform="translate(146.404 132.169)">
          <g id="Group_960" data-name="Group 960">
            <path id="Path_1787" data-name="Path 1787" d="M388.585,343.77a3.855,3.855,0,1,0,1.13,2.727A3.87,3.87,0,0,0,388.585,343.77Z" transform="translate(-382 -342.64)" fill="none" stroke="#1f1f1f" stroke-width="2"/>
          </g>
        </g>
        <g id="Group_963" data-name="Group 963" transform="translate(18.855 52.437)">
          <g id="Group_962" data-name="Group 962">
            <path id="Path_1788" data-name="Path 1788" d="M195.087,135.939a13.876,13.876,0,0,0-11.236,22.033l-25.623,25.623a13.853,13.853,0,0,0-12.806-.312l-26.754-26.754a13.887,13.887,0,1,0-23.964.6L71.924,179.9a13.9,13.9,0,1,0,5.455,5.455l23.051-23.051a13.855,13.855,0,0,0,12.781-.325L139.7,188.475a13.886,13.886,0,1,0,23.979.574l26.309-26.309a13.885,13.885,0,1,0,5.094-26.8ZM65.223,198.233a6.172,6.172,0,1,1,6.172-6.172A6.179,6.179,0,0,1,65.223,198.233ZM106.51,156a6.172,6.172,0,1,1,6.172-6.172A6.179,6.179,0,0,1,106.51,156Zm45.016,45.926a6.172,6.172,0,1,1,6.172-6.172A6.179,6.179,0,0,1,151.526,201.923ZM195.087,156a6.172,6.172,0,1,1,6.172-6.172A6.179,6.179,0,0,1,195.087,156Z" transform="translate(-51.336 -135.939)" fill="none" stroke="#1f1f1f" stroke-width="2"/>
          </g>
        </g>
        <g id="Group_965" data-name="Group 965" transform="translate(49.684 48.611)">
          <g id="Group_964" data-name="Group 964">
            <path id="Path_1789" data-name="Path 1789" d="M137.845,127.151a3.855,3.855,0,1,0,1.13,2.727A3.894,3.894,0,0,0,137.845,127.151Z" transform="translate(-131.26 -126.02)" fill="none" stroke="#1f1f1f" stroke-width="2"/>
          </g>
        </g>
        <g id="Group_967" data-name="Group 967" transform="translate(16.796 48.611)">
          <g id="Group_966" data-name="Group 966">
            <path id="Path_1790" data-name="Path 1790" d="M68.373,126.021H49.857a3.857,3.857,0,0,0,0,7.715H68.373a3.857,3.857,0,0,0,0-7.715Z" transform="translate(-46 -126.021)" fill="none" stroke="#1f1f1f" stroke-width="2"/>
          </g>
        </g>
        <g id="Group_969" data-name="Group 969" transform="translate(16.796 67.126)">
          <g id="Group_968" data-name="Group 968">
            <path id="Path_1791" data-name="Path 1791" d="M68.373,174.021H49.857a3.857,3.857,0,0,0,0,7.715H68.373a3.857,3.857,0,0,0,0-7.715Z" transform="translate(-46 -174.021)" fill="none" stroke="#1f1f1f" stroke-width="2"/>
          </g>
        </g>
      </g>
    </g>
  </g>
</svg>
