<svg xmlns="http://www.w3.org/2000/svg" width="80" height="80" viewBox="0 0 80 80">
  <g id="Group_1078" data-name="Group 1078" transform="translate(-275 -5145)">
    <rect id="Rectangle_158" data-name="Rectangle 158" width="80" height="80" transform="translate(275 5145)" fill="#fff"/>
    <circle id="Ellipse_40" data-name="Ellipse 40" cx="29" cy="29" r="29" transform="translate(286 5156.096)" fill="rgba(232,176,52,0.4)"/>
    <g id="transparency" transform="translate(284.176 5154.272)">
      <path id="Path_1825" data-name="Path 1825" d="M81.946,180.734a1.2,1.2,0,1,0,1.2,1.2A1.2,1.2,0,0,0,81.946,180.734Zm0,0" transform="translate(-71.019 -158.973)" fill="#1f1f1f"/>
      <path id="Path_1826" data-name="Path 1826" d="M44.66,36.148a1.2,1.2,0,0,0-.851-.353,1.216,1.216,0,0,0-.851.353L42.107,37l-2.766-2.766a21.671,21.671,0,1,0-5.109,5.108L37,42.107l-.851.851a1.2,1.2,0,0,0,0,1.7l15.221,15.22a6.019,6.019,0,1,0,8.512-8.511ZM38.7,40.4l-2.578-2.578c.3-.269.593-.544.876-.828s.559-.576.828-.875L40.4,38.7ZM8.056,35.3a19.262,19.262,0,1,1,27.241,0A19.251,19.251,0,0,1,8.056,35.3ZM43.809,38.7l3.4,3.405-5.107,5.107-3.405-3.4ZM58.178,58.179a3.606,3.606,0,0,1-5.106,0l-9.263-9.262,5.107-5.107,9.262,9.263A3.606,3.606,0,0,1,58.178,58.179Zm0,0" transform="translate(0 0)" fill="#1f1f1f"/>
      <path id="Path_1827" data-name="Path 1827" d="M68.868,44.957a16.855,16.855,0,1,0,0,23.836A16.85,16.85,0,0,0,68.868,44.957Zm-1.7,22.133a14.447,14.447,0,1,1,0-20.43A14.438,14.438,0,0,1,67.165,67.09Zm0,0" transform="translate(-35.274 -35.198)" fill="#1f1f1f"/>
      <path id="Path_1828" data-name="Path 1828" d="M96.319,80.043a12.035,12.035,0,0,0-11.393,8.15,1.2,1.2,0,0,0,2.28.774,9.625,9.625,0,0,1,9.113-6.516,1.2,1.2,0,1,0,0-2.408Zm0,0" transform="translate(-74.643 -70.404)" fill="#1f1f1f"/>
    </g>
  </g>
</svg>
