<svg xmlns="http://www.w3.org/2000/svg" width="77.715" height="86.499" viewBox="0 0 77.715 86.499">
  <g id="Group_1039" data-name="Group 1039" transform="translate(-137.143 -28.5)">
    <g id="Group_412" data-name="Group 412" transform="translate(-139 -6751.25)">
      <circle id="Ellipse_40" data-name="Ellipse 40" cx="29" cy="29" r="29" transform="translate(286 6794)" fill="rgba(232,176,52,0.4)"/>
    </g>
    <g id="shield" transform="translate(111.144 28.501)">
      <g id="Group_414" data-name="Group 414" transform="translate(25.999 0)">
        <g id="Group_413" data-name="Group 413" transform="translate(0)">
          <path id="Path_457" data-name="Path 457" d="M102.448,14.972A157.572,157.572,0,0,1,65.68.214a1.689,1.689,0,0,0-1.648,0A153.261,153.261,0,0,1,27.264,14.972,1.69,1.69,0,0,0,26,16.607v18.65A52.273,52.273,0,0,0,43.177,74.393C51.583,82.188,61.331,86.5,64.856,86.5s13.273-4.311,21.68-12.106a52.273,52.273,0,0,0,17.178-39.135V16.607A1.69,1.69,0,0,0,102.448,14.972ZM84.238,71.916a55.132,55.132,0,0,1-12.155,8.569c-3.771,1.934-6.388,2.636-7.227,2.636s-3.456-.7-7.227-2.636a55.138,55.138,0,0,1-12.155-8.569,48.969,48.969,0,0,1-16.1-36.658V17.909A156.382,156.382,0,0,0,64.857,3.621a161.252,161.252,0,0,0,35.478,14.288V35.258h0A48.969,48.969,0,0,1,84.238,71.916Z" transform="translate(-25.999 0)"/>
        </g>
      </g>
      <g id="Group_416" data-name="Group 416" transform="translate(31.912 6.734)">
        <g id="Group_415" data-name="Group 415">
          <path id="Path_458" data-name="Path 458" d="M125.669,52.62A162.937,162.937,0,0,1,94.737,40.062a1.689,1.689,0,0,0-1.588,0A161.016,161.016,0,0,1,62.218,52.623,1.689,1.689,0,0,0,61,54.246V68.387a46.967,46.967,0,0,0,3.718,18.621A47.485,47.485,0,0,0,75.6,102.54a53.312,53.312,0,0,0,11.381,8.348,30.569,30.569,0,0,0,6.657,2.774,1.68,1.68,0,0,0,.613,0,30.575,30.575,0,0,0,6.657-2.774,53.316,53.316,0,0,0,11.381-8.348,47.483,47.483,0,0,0,10.881-15.531,46.957,46.957,0,0,0,3.719-18.621V54.242A1.69,1.69,0,0,0,125.669,52.62Zm-2.161,15.767A42.516,42.516,0,0,1,109.945,100.1,49.888,49.888,0,0,1,99.3,107.916a30,30,0,0,1-5.355,2.354,29.963,29.963,0,0,1-5.355-2.354A49.877,49.877,0,0,1,77.939,100.1,42.516,42.516,0,0,1,64.377,68.387V55.511A164.466,164.466,0,0,0,93.945,43.464a166.371,166.371,0,0,0,29.562,12.041Z" transform="translate(-60.998 -39.864)"/>
        </g>
      </g>
      <g id="Group_418" data-name="Group 418" transform="translate(47.868 59.946)">
        <g id="Group_417" data-name="Group 417" transform="translate(0)">
          <path id="Path_459" data-name="Path 459" d="M158.412,355.417l-.041-.044a1.689,1.689,0,0,0-2.48,2.294l.021.022a1.69,1.69,0,0,0,2.5-2.273Z" transform="translate(-155.441 -354.831)"/>
        </g>
      </g>
      <g id="Group_420" data-name="Group 420" transform="translate(51.311 63.371)">
        <g id="Group_419" data-name="Group 419">
          <path id="Path_460" data-name="Path 460" d="M184.465,379.934a44,44,0,0,1-5.824-4.4,1.69,1.69,0,0,0-2.252,2.519,47.392,47.392,0,0,0,6.273,4.739,1.69,1.69,0,0,0,1.8-2.858Z" transform="translate(-175.825 -375.104)"/>
        </g>
      </g>
      <g id="Group_422" data-name="Group 422" transform="translate(48.516 28.086)">
        <g id="Group_421" data-name="Group 421">
          <path id="Path_461" data-name="Path 461" d="M190.414,167.788a5.3,5.3,0,0,0-7.479,0L172.2,178.523l-3.9-3.9a5.288,5.288,0,0,0-7.479,7.479l7.635,7.634a5.3,5.3,0,0,0,7.479,0l14.473-14.473a5.3,5.3,0,0,0,0-7.479Zm-2.389,5.09-14.473,14.473a1.92,1.92,0,0,1-2.7,0l-7.634-7.634a1.909,1.909,0,0,1,2.7-2.7l5.09,5.09a1.69,1.69,0,0,0,2.389,0l11.929-11.929a1.909,1.909,0,0,1,2.7,2.7Z" transform="translate(-159.281 -166.244)"/>
        </g>
      </g>
    </g>
  </g>
</svg>
