<svg xmlns="http://www.w3.org/2000/svg" width="536" height="592" viewBox="0 0 536 592">
  <g id="Group_1072" data-name="Group 1072" transform="translate(-691 -1516)">
    <rect id="Rectangle_134" data-name="Rectangle 134" width="536" height="592" rx="10" transform="translate(691 1516)" fill="#fff"/>
    <g id="Group_1013" data-name="Group 1013" transform="translate(-62.289 -2556.749)">
      <path id="Path_1781" data-name="Path 1781" d="M877.125,1390.1c5.639,8.2,27.5,51.543,83.582,41.487s97.792-37.86,106.758-54.241,17.325-64.389-11.325-81.7-87.567-14.41-116.037-14.292-77.454,17.83-76.255,43.636S871.485,1381.9,877.125,1390.1Z" transform="translate(49.965 3017.66)" fill="#e5dbc5" opacity="0.5"/>
      <g id="credit-card2" transform="translate(901 4251.325)">
        <g id="Path_1806" data-name="Path 1806" transform="translate(-58.112 -254.8)" fill="none">
          <path d="M151.768,464H123.53a3.53,3.53,0,1,0,0,7.06h28.239a3.53,3.53,0,1,0,0-7.06Z" stroke="none"/>
          <path d="M 123.5298156738281 466 C 122.6862640380859 466 122 466.6862487792969 122 467.52978515625 C 122 468.3733520507812 122.6862640380859 469.0596313476562 123.5298156738281 469.0596313476562 L 151.7683563232422 469.0596313476562 C 152.6119079589844 469.0596313476562 153.2981719970703 468.3733520507812 153.2981719970703 467.52978515625 C 153.2981719970703 466.6862487792969 152.6119079589844 466 151.7683563232422 466 L 123.5298156738281 466 M 123.5298156738281 464 L 151.7683563232422 464 C 153.7178192138672 464 155.2981719970703 465.5803527832031 155.2981719970703 467.52978515625 C 155.2981719970703 469.4792785644531 153.7178192138672 471.0596313476562 151.7683563232422 471.0596313476562 L 123.5298156738281 471.0596313476562 C 121.5803527832031 471.0596313476562 120 469.4792785644531 120 467.52978515625 C 120 465.5803527832031 121.5803527832031 464 123.5298156738281 464 Z" stroke="none" fill="#1f1f1f"/>
        </g>
        <g id="Path_1807" data-name="Path 1807" fill="none">
          <path d="M215.435,75.067H143.073V20.354A12.368,12.368,0,0,0,130.719,8H28.354A12.368,12.368,0,0,0,16,20.354v194.14a12.368,12.368,0,0,0,12.354,12.354H130.719a12.368,12.368,0,0,0,12.354-12.354V163.312h72.361a12.368,12.368,0,0,0,12.354-12.354V87.421a12.368,12.368,0,0,0-12.354-12.354ZM96.193,15.06l-1.765,7.06H64.645L62.88,15.06Zm39.821,199.435a5.3,5.3,0,0,1-5.295,5.295H28.354a5.3,5.3,0,0,1-5.295-5.295V20.354a5.3,5.3,0,0,1,5.295-5.295H55.6l2.864,11.445a3.53,3.53,0,0,0,3.424,2.674h35.3a3.53,3.53,0,0,0,3.424-2.673l2.864-11.446h27.246a5.3,5.3,0,0,1,5.295,5.295Zm7.06-86.481h10.589v14.119H143.073Zm77.656,22.944a5.3,5.3,0,0,1-5.295,5.295H143.073v-7.06h14.119a3.53,3.53,0,0,0,3.53-3.53V124.484a3.53,3.53,0,0,0-3.53-3.53H143.073V110.365h77.656Zm0-47.653H143.073v-7.06h77.656Zm0-14.119H143.073v-7.06h72.361a5.3,5.3,0,0,1,5.295,5.295Z" stroke="none"/>
          <path d="M 28.35435485839844 10 L 28.3565673828125 10 C 25.59150695800781 10.0030517578125 22.99192810058594 11.08149719238281 21.03671264648438 13.03669738769531 C 19.08151245117188 14.99191284179688 18.00306701660156 17.59149169921875 18.00001525878906 20.35433959960938 L 18.00001525878906 214.4921112060547 C 18.00306701660156 217.2571716308594 19.08151245117188 219.8567657470703 21.03671264648438 221.8119659423828 C 22.99192810058594 223.7671661376953 25.59150695800781 224.8456115722656 28.35435485839844 224.8486633300781 L 130.7168579101562 224.8486938476562 C 133.4819183349609 224.8456420898438 136.0815124511719 223.7671661376953 138.0367126464844 221.8119659423828 C 139.9919128417969 219.8567657470703 141.0703887939453 217.2571716308594 141.0734558105469 214.4943237304688 L 141.0734558105469 163.3119964599609 L 141.0734558105469 161.3119964599609 L 143.0734558105469 161.3119964599609 L 215.4325103759766 161.3119964599609 C 218.1975708007812 161.3089294433594 220.797119140625 160.23046875 222.7523345947266 158.2752685546875 C 224.7075347900391 156.3200531005859 225.7859802246094 153.720458984375 225.7890319824219 150.9575805664062 L 225.7890625 87.42311096191406 C 225.7860107421875 84.65802001953125 224.7075347900391 82.05844116210938 222.7523345947266 80.10322570800781 C 220.797119140625 78.14802551269531 218.1975708007812 77.069580078125 215.4347229003906 77.0665283203125 L 143.0734558105469 77.0665283203125 L 141.0734558105469 77.0665283203125 L 141.0734558105469 75.0665283203125 L 141.0734558105469 20.35655212402344 C 141.0703887939453 17.59149169921875 139.9919128417969 14.99191284179688 138.0367126464844 13.03669738769531 C 136.0815124511719 11.08149719238281 133.4819488525391 10.0030517578125 130.7190704345703 10 L 28.35435485839844 10 M 97.18580627441406 27.17890930175781 C 97.88868713378906 27.17890930175781 98.49874877929688 26.70246887207031 98.66938781738281 26.02017211914062 L 101.5330963134766 14.57423400878906 L 101.9120330810547 13.05964660644531 L 103.4732971191406 13.05964660644531 L 130.7207336425781 13.05964660644531 C 134.7388000488281 13.06298828125 138.0104827880859 16.33464050292969 138.0138244628906 20.35433959960938 L 138.0137939453125 214.4959716796875 C 138.0104827880859 218.5140533447266 134.7388305664062 221.7857360839844 130.7190704345703 221.7890777587891 L 28.35272216796875 221.7890472412109 C 24.33465576171875 221.7857360839844 21.06297302246094 218.5140838623047 21.05963134765625 214.4943542480469 L 21.05963134765625 20.35267639160156 C 21.06297302246094 16.33464050292969 24.33462524414062 13.06298828125 28.35435485839844 13.05964660644531 L 55.60012817382812 13.05964660644531 L 57.16139221191406 13.05964660644531 L 57.54032897949219 14.57423400878906 L 60.40397644042969 26.02001953125 C 60.57450866699219 26.70225524902344 61.18473815917969 27.17881774902344 61.88763427734375 27.17890930175781 L 97.18580627441406 27.17890930175781 M 95.98971557617188 24.1192626953125 L 94.42816162109375 24.1192626953125 L 64.64530944824219 24.1192626953125 L 63.083740234375 24.1192626953125 L 62.70501708984375 22.60432434082031 L 60.94009399414062 15.54469299316406 L 60.31883239746094 13.05964660644531 L 62.88038635253906 13.05964660644531 L 96.19303894042969 13.05964660644531 L 98.75459289550781 13.05964660644531 L 98.13333129882812 15.54469299316406 L 96.36845397949219 22.60432434082031 L 95.98971557617188 24.1192626953125 M 222.7294158935547 91.18582153320312 L 220.7294158935547 91.18582153320312 L 143.0734558105469 91.18582153320312 L 141.0734558105469 91.18582153320312 L 141.0734558105469 89.18582153320312 L 141.0734558105469 82.12617492675781 L 141.0734558105469 80.12617492675781 L 143.0734558105469 80.12617492675781 L 215.4363861083984 80.12617492675781 C 219.4544219970703 80.12954711914062 222.72607421875 83.40122985839844 222.7294158935547 87.4208984375 L 222.7294158935547 89.18582153320312 L 222.7294158935547 91.18582153320312 M 222.7294158935547 105.3050842285156 L 220.7294158935547 105.3050842285156 L 143.0734558105469 105.3050842285156 L 141.0734558105469 105.3050842285156 L 141.0734558105469 103.3050842285156 L 141.0734558105469 96.24546813964844 L 141.0734558105469 94.24546813964844 L 143.0734558105469 94.24546813964844 L 220.7294158935547 94.24546813964844 L 222.7294158935547 94.24546813964844 L 222.7294158935547 96.24546813964844 L 222.7294158935547 103.3050842285156 L 222.7294158935547 105.3050842285156 M 215.4363861083984 158.2523498535156 L 215.435546875 158.2523498535156 L 215.4347229003906 158.2523498535156 L 143.0734558105469 158.2523498535156 L 141.0734558105469 158.2523498535156 L 141.0734558105469 156.2523498535156 L 141.0734558105469 149.1927032470703 L 141.0734558105469 147.1927032470703 L 143.0734558105469 147.1927032470703 L 157.1927185058594 147.1927032470703 C 158.0362548828125 147.1927032470703 158.7225036621094 146.5064392089844 158.7225036621094 145.6628723144531 L 158.7225036621094 124.4839935302734 C 158.7225036621094 123.6404342651367 158.0362548828125 122.9541702270508 157.1927185058594 122.9541702270508 L 143.0734558105469 122.9541702270508 L 141.0734558105469 122.9541702270508 L 141.0734558105469 120.9541702270508 L 141.0734558105469 110.3647308349609 L 141.0734558105469 108.3647308349609 L 143.0734558105469 108.3647308349609 L 220.7294158935547 108.3647308349609 L 222.7294158935547 108.3647308349609 L 222.7294158935547 110.3647308349609 L 222.7294158935547 150.9592895507812 C 222.72607421875 154.9773559570312 219.4544219970703 158.2489929199219 215.4363861083984 158.2523498535156 M 155.6629028320312 144.1330871582031 L 153.6629028320312 144.1330871582031 L 143.0734558105469 144.1330871582031 L 141.0734558105469 144.1330871582031 L 141.0734558105469 142.1330871582031 L 141.0734558105469 128.0137939453125 L 141.0734558105469 126.013786315918 L 143.0734558105469 126.013786315918 L 153.6629028320312 126.013786315918 L 155.6629028320312 126.013786315918 L 155.6629028320312 128.0137939453125 L 155.6629028320312 142.1330871582031 L 155.6629028320312 144.1330871582031 M 28.35435485839844 8 L 130.7190704345703 8 C 137.5390930175781 8.007522583007812 143.0658874511719 13.53434753417969 143.0734558105469 20.35433959960938 L 143.0734558105469 75.0665283203125 L 215.4347229003906 75.0665283203125 C 222.2546844482422 75.07405090332031 227.7815093994141 80.60087585449219 227.7890625 87.4208984375 L 227.7890319824219 150.9575805664062 C 227.7815093994141 157.7776184082031 222.2547149658203 163.304443359375 215.4347229003906 163.3119964599609 L 143.0734558105469 163.3119964599609 L 143.0734558105469 214.4943237304688 C 143.0658874511719 221.3143157958984 137.5390625 226.8411407470703 130.7190704345703 226.8486938476562 L 28.35435485839844 226.8486633300781 C 21.53436279296875 226.8411407470703 16.00753784179688 221.3143157958984 16.00001525878906 214.4943237304688 L 16.00001525878906 20.35433959960938 C 16.00753784179688 13.53434753417969 21.53436279296875 8.007522583007812 28.35435485839844 8 Z M 97.18580627441406 29.17890930175781 L 61.88763427734375 29.17890930175781 C 60.26803588867188 29.17866516113281 58.8564453125 28.0762939453125 58.46368408203125 26.50505065917969 L 55.60012817382812 15.05964660644531 L 28.35435485839844 15.05964660644531 C 25.43115234375 15.06208801269531 23.06207275390625 17.43116760253906 23.05963134765625 20.35433959960938 L 23.05963134765625 214.4943542480469 C 23.06207275390625 217.4175262451172 25.43115234375 219.7866363525391 28.35435485839844 219.7890472412109 L 130.7190704345703 219.7890777587891 C 133.6422729492188 219.7866363525391 136.0113830566406 217.4175262451172 136.0137939453125 214.4943237304688 L 136.0138244628906 20.35433959960938 C 136.0113830566406 17.43116760253906 133.6422729492188 15.06208801269531 130.7190704345703 15.05964660644531 L 103.4732971191406 15.05964660644531 L 100.6096038818359 26.50558471679688 C 100.2166290283203 28.07675170898438 98.80485534667969 29.17890930175781 97.18580627441406 29.17890930175781 Z M 62.88038635253906 15.05964660644531 L 64.64530944824219 22.1192626953125 L 94.42816162109375 22.1192626953125 L 96.19303894042969 15.05964660644531 L 62.88038635253906 15.05964660644531 Z M 220.7294158935547 89.18582153320312 L 220.7294158935547 87.4208984375 C 220.7269744873047 84.49769592285156 218.3578948974609 82.12864685058594 215.4347229003906 82.12617492675781 L 143.0734558105469 82.12617492675781 L 143.0734558105469 89.18582153320312 L 220.7294158935547 89.18582153320312 Z M 220.7294158935547 103.3050842285156 L 220.7294158935547 96.24546813964844 L 143.0734558105469 96.24546813964844 L 143.0734558105469 103.3050842285156 L 220.7294158935547 103.3050842285156 Z M 215.4347229003906 156.2523498535156 C 218.3578948974609 156.2499084472656 220.7269744873047 153.8807983398438 220.7294158935547 150.9576110839844 L 220.7294158935547 110.3647308349609 L 143.0734558105469 110.3647308349609 L 143.0734558105469 120.9541702270508 L 157.1927185058594 120.9541702270508 C 159.1421813964844 120.9541702270508 160.7225036621094 122.5345230102539 160.7225036621094 124.4839935302734 L 160.7225036621094 145.6628723144531 C 160.7225036621094 147.6123504638672 159.1421813964844 149.1927032470703 157.1927185058594 149.1927032470703 L 143.0734558105469 149.1927032470703 L 143.0734558105469 156.2523498535156 L 215.4347229003906 156.2523498535156 Z M 153.6629028320312 142.1330871582031 L 153.6629028320312 128.0137939453125 L 143.0734558105469 128.0137939453125 L 143.0734558105469 142.1330871582031 L 153.6629028320312 142.1330871582031 Z" stroke="none" fill="#1f1f1f"/>
        </g>
        <g id="Path_1808" data-name="Path 1808" transform="translate(-201.158 -143.046)" fill="none">
          <path d="M411.3,264H379.53a3.53,3.53,0,0,0,0,7.06H411.3a3.53,3.53,0,0,0,0-7.06Z" stroke="none"/>
          <path d="M 379.5298156738281 266 C 378.686279296875 266 378 266.686279296875 378 267.5298156738281 C 378 268.3733520507812 378.686279296875 269.0596313476562 379.5298156738281 269.0596313476562 L 411.2981872558594 269.0596313476562 C 412.1417236328125 269.0596313476562 412.8280029296875 268.3733520507812 412.8280029296875 267.5298156738281 C 412.8280029296875 266.686279296875 412.1417236328125 266 411.2981872558594 266 L 379.5298156738281 266 M 379.5298156738281 264 L 411.2981872558594 264 C 413.2476501464844 264 414.8280029296875 265.5803527832031 414.8280029296875 267.5298156738281 C 414.8280029296875 269.4792785644531 413.2476501464844 271.0596313476562 411.2981872558594 271.0596313476562 L 379.5298156738281 271.0596313476562 C 377.5803527832031 271.0596313476562 376 269.4792785644531 376 267.5298156738281 C 376 265.5803527832031 377.5803527832031 264 379.5298156738281 264 Z" stroke="none" fill="#1f1f1f"/>
        </g>
        <g id="Path_1809" data-name="Path 1809" transform="translate(-201.158 -156.456)" fill="none">
          <path d="M411.3,288H379.53a3.53,3.53,0,0,0,0,7.06H411.3a3.53,3.53,0,1,0,0-7.06Z" stroke="none"/>
          <path d="M 379.5298156738281 290 C 378.686279296875 290 378 290.686279296875 378 291.5298156738281 C 378 292.3733520507812 378.686279296875 293.0596313476562 379.5298156738281 293.0596313476562 L 411.2981872558594 293.0596313476562 C 412.1417236328125 293.0596313476562 412.8280029296875 292.3733520507812 412.8280029296875 291.5298156738281 C 412.8280029296875 290.686279296875 412.1417236328125 290 411.2981872558594 290 L 379.5298156738281 290 M 379.5298156738281 288 L 411.2981872558594 288 C 413.2476501464844 288 414.8280029296875 289.5803527832031 414.8280029296875 291.5298156738281 C 414.8280029296875 293.4792785644531 413.2476501464844 295.0596313476562 411.2981872558594 295.0596313476562 L 379.5298156738281 295.0596313476562 C 377.5803527832031 295.0596313476562 376 293.4792785644531 376 291.5298156738281 C 376 289.5803527832031 377.5803527832031 288 379.5298156738281 288 Z" stroke="none" fill="#1f1f1f"/>
        </g>
        <g id="Path_1810" data-name="Path 1810" transform="translate(-223.509 -169.867)" fill="none">
          <path d="M433.649,312H419.53a3.53,3.53,0,0,0,0,7.06h14.119a3.53,3.53,0,1,0,0-7.06Z" stroke="none"/>
          <path d="M 419.5298156738281 314 C 418.686279296875 314 418 314.686279296875 418 315.5298156738281 C 418 316.3733520507812 418.686279296875 317.0596313476562 419.5298156738281 317.0596313476562 L 433.6490783691406 317.0596313476562 C 434.4926452636719 317.0596313476562 435.1789245605469 316.3733520507812 435.1789245605469 315.5298156738281 C 435.1789245605469 314.686279296875 434.4926452636719 314 433.6490783691406 314 L 419.5298156738281 314 M 419.5298156738281 312 L 433.6490783691406 312 C 435.5985717773438 312 437.1789245605469 313.5803527832031 437.1789245605469 315.5298156738281 C 437.1789245605469 317.4792785644531 435.5985717773438 319.0596313476562 433.6490783691406 319.0596313476562 L 419.5298156738281 319.0596313476562 C 417.5803527832031 319.0596313476562 416 317.4792785644531 416 315.5298156738281 C 416 313.5803527832031 417.5803527832031 312 419.5298156738281 312 Z" stroke="none" fill="#1f1f1f"/>
        </g>
        <g id="Path_1811" data-name="Path 1811" transform="translate(-26.821 -84.933)" fill="none">
          <path d="M106.358,160a42.358,42.358,0,1,0,42.358,42.358A42.358,42.358,0,0,0,106.358,160Zm0,77.656a35.3,35.3,0,1,1,35.3-35.3,35.3,35.3,0,0,1-35.3,35.3Z" stroke="none"/>
          <path d="M 106.3555603027344 162 L 106.3558502197266 162 C 100.9074020385742 162.0002593994141 95.62296295166016 163.0670318603516 90.64934539794922 165.1707000732422 C 85.84381103515625 167.2032623291016 81.52755737304688 170.1134948730469 77.82052612304688 173.8205261230469 C 74.11347961425781 177.5275726318359 71.20326232910156 181.8438110351562 69.17070007324219 186.6493377685547 C 67.0667724609375 191.6235656738281 66 196.9086761474609 66 202.3578186035156 C 66 207.8069610595703 67.0667724609375 213.0920562744141 69.17070007324219 218.0662841796875 C 71.20327758789062 222.871826171875 74.11349487304688 227.1880645751953 77.82054138183594 230.8951110839844 C 81.52757263183594 234.6021423339844 85.84381103515625 237.5123748779297 90.64934539794922 239.5449371337891 C 95.62357330322266 241.6488494873047 100.9086761474609 242.7156372070312 106.3578262329102 242.7156372070312 C 111.8069763183594 242.7156372070312 117.0920639038086 241.6488494873047 122.0662841796875 239.5449371337891 C 126.871826171875 237.5123748779297 131.1880645751953 234.6021423339844 134.8950958251953 230.8951110839844 C 138.6021423339844 227.1880645751953 141.5123596191406 222.871826171875 143.544921875 218.0662841796875 C 145.6488494873047 213.0920562744141 146.7156219482422 207.8069610595703 146.7156219482422 202.3600616455078 C 146.7095031738281 196.9128875732422 145.6386260986328 191.6301727294922 143.53271484375 186.6585998535156 C 141.4980621337891 181.855224609375 138.5872497558594 177.5405578613281 134.8811645507812 173.8344573974609 C 131.1750640869141 170.1283569335938 126.8603973388672 167.2175445556641 122.057014465332 165.1828918457031 C 117.0854644775391 163.0769958496094 111.802734375 162.006103515625 106.3555603027344 162 M 106.3600769042969 239.6559753417969 L 106.3589630126953 239.6559753417969 L 106.3578262329102 239.6559753417969 C 101.323486328125 239.6559753417969 96.43865966796875 238.6695556640625 91.83907318115234 236.7240905761719 C 87.39738464355469 234.8454132080078 83.40876770019531 232.1563720703125 79.98402404785156 228.7316131591797 C 76.55926513671875 225.3068542480469 73.87019348144531 221.3182373046875 71.99153137207031 216.8765716552734 C 70.04606628417969 212.2769622802734 69.05963134765625 207.3921508789062 69.05963134765625 202.3578186035156 C 69.05963134765625 197.323486328125 70.04606628417969 192.4386749267578 71.99153137207031 187.8390655517578 C 73.87020874023438 183.3973999023438 76.55928039550781 179.4087829589844 79.98402404785156 175.9840240478516 C 83.40876770019531 172.5592803955078 87.39739990234375 169.8702239990234 91.83907318115234 167.9915466308594 C 96.43867492675781 166.0460968017578 101.323486328125 165.0596618652344 106.3578262329102 165.0596618652344 C 111.3921585083008 165.0596618652344 116.276969909668 166.0460968017578 120.8765640258789 167.9915618896484 C 125.3182373046875 169.8702239990234 129.3068542480469 172.5592803955078 132.7315979003906 175.9840393066406 C 136.1563720703125 179.4087982177734 138.8454132080078 183.3973999023438 140.7240905761719 187.8390808105469 C 142.6695556640625 192.4386749267578 143.6559753417969 197.323486328125 143.6559753417969 202.3600921630859 C 143.6502685546875 207.3920135498047 142.6601257324219 212.2740325927734 140.7130432128906 216.8705749511719 C 138.8326416015625 221.3097076416016 136.1433410644531 225.29638671875 132.7198638916016 228.7198791503906 C 129.2963714599609 232.1433715820312 125.309684753418 234.8326568603516 120.8705596923828 236.7130584716797 C 116.2740097045898 238.6601257324219 111.3919830322266 239.6502685546875 106.3600769042969 239.6559753417969 M 106.3578109741211 160 L 106.3578262329102 160 C 106.3578109741211 160 106.3578109741211 160 106.3578109741211 160 Z M 106.3578109741211 160 C 129.7405090332031 160.0262603759766 148.6893463134766 178.9751281738281 148.7156219482422 202.3578186035156 C 148.7156219482422 225.7513885498047 129.7513885498047 244.7156372070312 106.3578262329102 244.7156372070312 C 82.96424865722656 244.7156372070312 64 225.7513885498047 64 202.3578186035156 C 64 178.9642486572266 82.9642333984375 160 106.3578262329102 160 Z M 106.3578109741211 237.6559753417969 C 125.8432769775391 237.6338806152344 141.6338500976562 221.8432922363281 141.6559753417969 202.3578186035156 C 141.6559753417969 182.8631896972656 125.8524475097656 167.0596618652344 106.3578262329102 167.0596618652344 C 86.86317443847656 167.0596618652344 71.05963134765625 182.8631744384766 71.05963134765625 202.3578186035156 C 71.05963134765625 221.8524627685547 86.8631591796875 237.656005859375 106.3578262329102 237.6559753417969 C 106.3578109741211 237.6559753417969 106.3578109741211 237.6559753417969 106.3578109741211 237.6559753417969 L 106.3578262329102 237.6559753417969 Z" stroke="none" fill="#1f1f1f"/>
        </g>
        <g id="Path_1812" data-name="Path 1812" transform="translate(-53.642 -120.695)" fill="none">
          <path d="M151.862,225.034l-22.544,22.544-11.67-8.753a3.53,3.53,0,0,0-4.236,5.648l14.119,10.589a3.53,3.53,0,0,0,4.614-.328l24.709-24.709a3.53,3.53,0,1,0-4.992-4.992Z" stroke="none"/>
          <path d="M 154.3572387695312 225.9997711181641 C 153.9487762451172 225.9997711181641 153.564697265625 226.1589202880859 153.2757263183594 226.4478912353516 L 130.731689453125 248.9919586181641 L 129.5051422119141 250.218505859375 L 128.1174621582031 249.177734375 L 116.4474639892578 240.4251251220703 C 116.1100311279297 240.1720733642578 115.7635345458984 240.1189422607422 115.5322570800781 240.1189422607422 C 115.0445251464844 240.1189422607422 114.5974731445312 240.3420715332031 114.3056945800781 240.7310943603516 C 114.0605163574219 241.0579986572266 113.9573211669922 241.4608001708984 114.0150909423828 241.8653106689453 C 114.0728912353516 242.2698364257812 114.2847595214844 242.6276397705078 114.6116638183594 242.8728332519531 L 128.7309722900391 253.4622955322266 C 128.9979095458984 253.6625061035156 129.3149719238281 253.7683258056641 129.6478881835938 253.7683258056641 C 130.0571441650391 253.7683258056641 130.4416656494141 253.6091918945312 130.7306213378906 253.3202209472656 L 155.4393615722656 228.6114959716797 C 156.0358581542969 228.0149841308594 156.0358581542969 227.0443725585938 155.4393920898438 226.4478912353516 C 155.1504364013672 226.1589508056641 154.7661743164062 225.9998168945312 154.3574066162109 225.9997711181641 L 154.3572387695312 225.9997711181641 M 154.3575439453125 223.9997711181641 C 155.2608337402344 223.9998626708984 156.1643981933594 224.344482421875 156.8535766601562 225.0336608886719 C 158.2320861816406 226.4121856689453 158.2320861816406 228.6471862792969 156.8535766601562 230.0257110595703 L 132.1448364257812 254.7344360351562 C 131.4606170654297 255.4186553955078 130.5568084716797 255.7683258056641 129.6478881835938 255.7683258056641 C 128.90673828125 255.7683258056641 128.1621246337891 255.5356903076172 127.5309295654297 255.062255859375 L 113.4116668701172 244.4728240966797 C 111.8520812988281 243.3031311035156 111.5360107421875 241.0906524658203 112.7057037353516 239.5310821533203 C 113.3992004394531 238.6064147949219 114.4590301513672 238.1189422607422 115.5322570800781 238.1189422607422 C 116.2691802978516 238.1189422607422 117.0125274658203 238.3489379882812 117.6474456787109 238.8251190185547 L 129.3174743652344 247.5777435302734 L 151.8615112304688 225.0336761474609 C 152.5508728027344 224.3443298339844 153.4540710449219 223.9996948242188 154.3575439453125 223.9997711181641 Z" stroke="none" fill="#1f1f1f"/>
        </g>
      </g>
    </g>
  </g>
</svg>
