<svg xmlns="http://www.w3.org/2000/svg" width="80" height="80" viewBox="0 0 80 80">
  <g id="Group_1079" data-name="Group 1079" transform="translate(-275 -5145)">
    <rect id="Rectangle_158" data-name="Rectangle 158" width="80" height="80" transform="translate(275 5145)" fill="#fff"/>
    <circle id="Ellipse_40" data-name="Ellipse 40" cx="29" cy="29" r="29" transform="translate(286 5156.096)" fill="rgba(232,176,52,0.4)"/>
    <g id="snap" transform="translate(201.618 5149.251)">
      <path id="Path_1829" data-name="Path 1829" d="M130.527,29.606a1.95,1.95,0,0,1-.188-1.009l1.007-12.169a4.507,4.507,0,0,0-5.1-4.836,8.448,8.448,0,0,0-2.979,1c-.073-.1-.147-.2-.227-.293a5.357,5.357,0,0,0-7.537-.665l-8.19,6.854V16.956a.562.562,0,0,1,.1-.319l1.7-2.486a1.046,1.046,0,0,0-1.727-1.18l-1.7,2.486a2.646,2.646,0,0,0-.463,1.5V20.24L98.7,25.694v-9.85a5.553,5.553,0,0,1,.972-3.146l5.982-8.754a3.259,3.259,0,0,1,5.381,3.677l-1.1,1.606a1.046,1.046,0,1,0,1.727,1.18l1.1-1.606a5.35,5.35,0,0,0-8.835-6.037l-5.982,8.754a7.638,7.638,0,0,0-1.337,4.326v11.6L93.473,30.07a9.118,9.118,0,0,0-3.232,7.694l.666,8.465a1.046,1.046,0,0,0,1.041.964q.041,0,.083,0a1.046,1.046,0,0,0,.961-1.124L92.326,37.6a7.022,7.022,0,0,1,2.489-5.926l22.027-18.435a3.259,3.259,0,1,1,4.186,5l-11.466,9.609a4.7,4.7,0,0,0-1.985,1.029l-5.6,4.878a1.046,1.046,0,1,0,1.373,1.578l5.6-4.878a2.576,2.576,0,0,1,3.381-.019l8.476,7.21a3.255,3.255,0,0,1-1.191,5.605l-5.93-5.044a4.656,4.656,0,0,0-6.11.035l-5.6,4.878a1.046,1.046,0,1,0,1.373,1.578l5.6-4.878a2.576,2.576,0,0,1,3.381-.019L120.809,47a3.259,3.259,0,1,1-4.223,4.964l-5.247-4.463a1.046,1.046,0,0,0-1.417.057l-1.557,1.557a1.046,1.046,0,1,0,1.479,1.479l.875-.875,4.512,3.838a5.31,5.31,0,0,0,3.458,1.275c.146,0,.292-.006.439-.018a5.35,5.35,0,0,0,3.036-9.409l-.78-.663a5.347,5.347,0,0,0,.78-8.7l-3.758-3.2,2.271-11.593,1.7-1.421a5.356,5.356,0,0,0,1.771-5.334,6.342,6.342,0,0,1,2.384-.839,2.415,2.415,0,0,1,2.735,2.592l-1.007,12.169a4.043,4.043,0,0,0,.389,2.092l1.862,3.852a18.155,18.155,0,0,1,.218,15.374l-1.2,2.667a1.046,1.046,0,1,0,1.908.857l1.2-2.667a20.242,20.242,0,0,0-.243-17.141ZM116.579,31.3l-2.891-2.459a4.744,4.744,0,0,0-1.177-.736l5.617-4.707Z" transform="translate(0 -0.37)"/>
      <path id="Path_1830" data-name="Path 1830" d="M343.274,398.166a1.046,1.046,0,0,0-1.382.526l-2.678,5.965a1.046,1.046,0,0,0-.092.428v7.932a1.046,1.046,0,0,0,2.092,0v-7.708l2.587-5.76A1.046,1.046,0,0,0,343.274,398.166Z" transform="translate(-214.2 -342.566)"/>
      <path id="Path_1831" data-name="Path 1831" d="M318.9,6.508a1.046,1.046,0,0,0,1.046-1.046V1.046a1.046,1.046,0,0,0-2.092,0V5.462A1.046,1.046,0,0,0,318.9,6.508Z" transform="translate(-195.902)"/>
      <path id="Path_1832" data-name="Path 1832" d="M354.062,18.226a1.046,1.046,0,0,0,1.423-.4l2.149-3.859a1.046,1.046,0,1,0-1.827-1.018L353.657,16.8A1.046,1.046,0,0,0,354.062,18.226Z" transform="translate(-226.595 -10.677)"/>
      <path id="Path_1833" data-name="Path 1833" d="M386.283,48.6a1.046,1.046,0,0,0-1.44-.338l-3.755,2.325a1.046,1.046,0,1,0,1.1,1.778l3.755-2.325A1.046,1.046,0,0,0,386.283,48.6Z" transform="translate(-249.889 -41.395)"/>
      <path id="Path_1834" data-name="Path 1834" d="M102.957,360.833a14.5,14.5,0,0,1-3.029-7.152,1.046,1.046,0,1,0-2.074.27,16.586,16.586,0,0,0,3.466,8.184l4.315,5.423v6.4a1.046,1.046,0,0,0,2.092,0v-6.77a1.046,1.046,0,0,0-.227-.651Z" transform="translate(-6.568 -303.579)"/>
    </g>
  </g>
</svg>
