<svg xmlns="http://www.w3.org/2000/svg" width="103.555" height="41.809" viewBox="0 0 103.555 41.809">
  <g id="Group_979" data-name="Group 979" transform="translate(-1186.223 -5374.084)">
    <path id="Path_318" data-name="Path 318" d="M296.31,5157.212l.414,24.36s14.253,3.175,16.175-3.288,1.878-15.85,1.878-15.85L301,5155.8Z" transform="translate(923 226)" fill="#e5dbc5"/>
    <g id="Group_1" data-name="Group 1" transform="translate(974.389 5015.473)">
      <path id="Path_2" data-name="Path 2" d="M378.152,386.936V388.1h-.29v-.871h-.1l.1-.29Z" transform="translate(-74.085 -12.647)" fill="#313131" fill-rule="evenodd"/>
      <path id="Path_3" data-name="Path 3" d="M379.513,387.148a.519.519,0,0,0,.484.484c.194,0,.291,0,.387-.1a.446.446,0,0,1-.678.194l-.1.291c.1.1,1.065.193,1.065-.678a.63.63,0,0,0-.678-.581v.194c.194,0,.387.1.387.194,0,.194-.194.29-.387.29-.1,0-.193-.1-.193-.29a.208.208,0,0,1,.193-.194v-.194c-.193,0-.484.194-.484.387Z" transform="translate(-74.866 -12.569)" fill="#313131" fill-rule="evenodd"/>
      <path id="Path_4" data-name="Path 4" d="M382.62,388.116a.742.742,0,0,1-.484-.193l.194-.194c0,.1.193.1.29.1,0,0,.194,0,.194-.1s-.1-.194-.291-.194v-.193c.291,0,.291-.1.291-.194s-.1-.1-.194-.1a.355.355,0,0,0-.29.1l-.194-.194a.74.74,0,0,1,.484-.194.443.443,0,0,1,.484.387c0,.1-.1.194-.193.29.1,0,.193.194.193.291a.442.442,0,0,1-.484.387Z" transform="translate(-76.037 -12.569)" fill="#313131" fill-rule="evenodd"/>
      <path id="Path_5" data-name="Path 5" d="M384.893,388.116c-.194,0-.387-.193-.484-.193l.194-.194a.354.354,0,0,0,.29.1c.1,0,.291,0,.291-.1s-.1-.194-.387-.194v-.193c.291,0,.387-.1.387-.194s-.1-.1-.291-.1a.3.3,0,0,0-.194.1l-.193-.194a.5.5,0,0,1,.387-.194.443.443,0,0,1,.484.387.355.355,0,0,1-.1.29c.1,0,.1.194.1.291a.442.442,0,0,1-.484.387Z" transform="translate(-77.052 -12.569)" fill="#313131" fill-rule="evenodd"/>
      <path id="Path_6" data-name="Path 6" d="M377.977,402.141v-.774h-.193v.871h.484v-.291h.194v.291h.484v-.871h.193c.291,0,.291.194.387.194.194,0,.194-.194.291-.194s.1.194.193.194c.194,0,.194-.194.291-.194s.1.194.193.194c.194,0,.291-.194.484-.194s.194.1.194.291a.535.535,0,0,0,1.065,0v-.774a.622.622,0,0,0-.484-.484v.194a.309.309,0,0,1,.291.291.822.822,0,0,0,0,.774.309.309,0,0,1-.291.29.257.257,0,0,1-.29-.29.822.822,0,0,0,0-.774.257.257,0,0,1,.29-.291V400.4a.628.628,0,0,0-.581.484c0,.193,0,.29-.194.29s-.29-.193-.484-.193c-.1,0-.1.193-.193.193s-.1-.193-.291-.193c-.1,0-.1.193-.193.193s-.1-.193-.291-.193c-.1,0-.1.193-.387.193H377.59v.194h1.258v.774h-.194v-.387h-.484v.387Z" transform="translate(-74.007 -18.658)" fill="#313131" fill-rule="evenodd"/>
      <path id="Path_7" data-name="Path 7" d="M383.431,391.3a6.258,6.258,0,0,1-6.291,6.194v-.29a5.9,5.9,0,1,0-5.9-5.9,5.948,5.948,0,0,0,5.9,5.9v.29a6.242,6.242,0,1,1,6.291-6.194Z" transform="translate(-71.041 -11.788)" fill="#313131" fill-rule="evenodd"/>
      <path id="Path_8" data-name="Path 8" d="M383.39,391.07a6.436,6.436,0,1,0-6.484,6.388v.1a6.533,6.533,0,1,1,6.581-6.484,6.485,6.485,0,0,1-6.581,6.484v-.1a6.465,6.465,0,0,0,6.484-6.388Z" transform="translate(-70.807 -11.554)" fill="#313131" fill-rule="evenodd"/>
      <path id="Path_9" data-name="Path 9" d="M383.623,388.962a8.881,8.881,0,0,1-8.9,8.9v.291a9.194,9.194,0,1,0-9.194-9.194,9.273,9.273,0,0,0,9.194,9.194v-.291a8.9,8.9,0,1,1,8.9-8.9Z" transform="translate(-68.621 -9.446)" fill="#313131" fill-rule="evenodd"/>
      <path id="Path_10" data-name="Path 10" d="M383.82,389.352a8.71,8.71,0,0,0-17.42,0,8.8,8.8,0,0,0,8.71,8.71v-.193a8.565,8.565,0,0,1,0-17.13,8.565,8.565,0,1,1,0,17.13v.193a8.735,8.735,0,0,0,8.71-8.71Z" transform="translate(-69.011 -9.837)" fill="#313131" fill-rule="evenodd"/>
      <path id="Path_11" data-name="Path 11" d="M378.948,381.866l.678,1.161a.355.355,0,0,1-.29.1l-.194-.194-.387.1.1-.387h.193l-.193-.291v.291l-.1.387v.194c-.1,0-.194.1-.291.1l.1-1.355.387-.1Z" transform="translate(-74.398 -10.383)" fill="#313131" fill-rule="evenodd"/>
      <path id="Path_12" data-name="Path 12" d="M391.924,386.062l-.387.387c-.1,0-.1.1-.1.194l.291.291-.1.193-.387-.484-.194.194.387.581h.291l.387-.387v-.1l-.29-.387.194-.1.387.387.194-.194-.484-.484a.3.3,0,0,0-.193-.1Z" transform="translate(-80.018 -12.256)" fill="#313131" fill-rule="evenodd"/>
      <path id="Path_13" data-name="Path 13" d="M370.027,390.021c-.1,0-.1.1-.193.194l-1.161-.581.387-.774.29.193-.29.484.194.1.193-.387.291.1-.194.387.484.291Z" transform="translate(-70.026 -13.506)" fill="#313131" fill-rule="evenodd"/>
      <path id="Path_14" data-name="Path 14" d="M390.776,384.817c.1,0,.1.194,0,.194l-.581.774a.181.181,0,0,1-.29,0l-.194-.193c-.1,0-.194-.1-.29-.194-.1,0-.1-.1,0-.194l.581-.774a.181.181,0,0,1,.29,0l-.1.29-.484.581.291.194.484-.581-.291-.194.1-.29.484.387Z" transform="translate(-79.258 -11.496)" fill="#313131" fill-rule="evenodd"/>
      <path id="Path_15" data-name="Path 15" d="M376.188,383.436l-.193.1-.194-.291.291-.1a.094.094,0,0,0,.1-.1l-.1-.1h-.1l-.291.1.1.193.194.291.193.484c-.1,0-.193.1-.29.1l-.581-1.161.774-.387c.1,0,.193,0,.193.1l.194.387a.1.1,0,0,1-.1.1h0v.1a.134.134,0,0,1,.194,0c0,.1.194.291.194.387a.094.094,0,0,0,.1.1h0c-.1,0-.193.1-.29.1s-.1,0-.1-.1a.97.97,0,0,1-.1-.29Z" transform="translate(-72.993 -10.695)" fill="#313131" fill-rule="evenodd"/>
      <path id="Path_16" data-name="Path 16" d="M381.783,382.871v-.29H381.2v-1.065h-.291l.1,1.355Z" transform="translate(-75.491 -10.227)" fill="#313131" fill-rule="evenodd"/>
      <path id="Path_17" data-name="Path 17" d="M371.077,387.692l.193.194c-.1.194-.29.387-.484.677l-1.064-.774.484-.678.29.194-.387.387.194.194.29-.387.291.1-.291.387.194.194.291-.484Z" transform="translate(-70.494 -12.725)" fill="#313131" fill-rule="evenodd"/>
      <path id="Path_18" data-name="Path 18" d="M372.088,386.853l-.968-.968.194-.1.291.1.484.581.291-.387-.484-.484-.29.291-.291-.1.387-.484a.181.181,0,0,1,.29,0l.678.678a.181.181,0,0,1,0,.29l-.194.194c-.1,0-.29.29-.387.387Z" transform="translate(-71.119 -11.886)" fill="#313131" fill-rule="evenodd"/>
      <path id="Path_19" data-name="Path 19" d="M374.477,384.563l.193.29a2.938,2.938,0,0,0-.677.484l-.774-1.161.677-.387.193.194-.484.29.194.194.387-.29.1.29-.387.291.193.193.387-.387Z" transform="translate(-72.056 -11.242)" fill="#313131" fill-rule="evenodd"/>
      <path id="Path_20" data-name="Path 20" d="M383.535,382.871l.193-1.355.194.1.1.291-.194.774h.484l.1-.678-.387-.1-.1-.291.678.1c.1,0,.1.1.1.194l-.194.968c0,.1-.1.194-.194.1h-.29a4.206,4.206,0,0,0-.484-.1Z" transform="translate(-76.662 -10.227)" fill="#313131" fill-rule="evenodd"/>
      <path id="Path_21" data-name="Path 21" d="M386.679,383.474l-.1.29a6.6,6.6,0,0,0-.774-.29l.484-1.258.774.29-.1.291-.484-.194-.1.194.387.193-.1.291-.387-.194-.1.194.484.194Z" transform="translate(-77.677 -10.539)" fill="#313131" fill-rule="evenodd"/>
      <path id="Path_22" data-name="Path 22" d="M388.04,383.864l.193-.194.291.1c0,.1.1,0,.1,0v-.194l-.291-.1-.1.194-.193.194-.194.484c-.1,0-.194-.1-.291-.1l.677-1.161.774.387a.134.134,0,0,1,0,.194l-.291.484s-.1.1-.1,0l-.581-.29Z" transform="translate(-78.457 -10.93)" fill="#313131" fill-rule="evenodd"/>
      <path id="Path_23" data-name="Path 23" d="M392.452,388.585l1.064-.774.1.29-1.064.678a.1.1,0,0,0-.1-.1v-.1Z" transform="translate(-80.643 -13.037)" fill="#313131" fill-rule="evenodd"/>
      <path id="Path_24" data-name="Path 24" d="M394.216,389.538l-.968.484v-.194a.1.1,0,0,1-.1-.1l.871-.484-.1-.194.291-.193.387.774-.29.1-.1-.193Z" transform="translate(-80.955 -13.506)" fill="#313131" fill-rule="evenodd"/>
      <path id="Path_25" data-name="Path 25" d="M368.379,392.182v.29l.387.194-.387.1v.29l-.194-.29-.387.1.193-.29-.1-.29.29.1.194-.193Z" transform="translate(-69.636 -14.989)" fill="#313131" fill-rule="evenodd"/>
      <path id="Path_26" data-name="Path 26" d="M395.287,392.182v.29l-.387.194.387.1v.29l.194-.29.387.1-.29-.29.194-.29-.29.1-.194-.193Z" transform="translate(-81.736 -14.989)" fill="#313131" fill-rule="evenodd"/>
      <path id="Path_27" data-name="Path 27" d="M376.137,408.458v.1l-.387-.194.291-.677.387.194v.1l.194.1.1-.193c0-.1,0-.194-.1-.194-.1-.1-.291-.1-.291-.194a.747.747,0,0,1-.29-.1c-.1,0-.194,0-.194.1l-.387.871c-.1.1,0,.194.1.291l.484.193a.185.185,0,0,0,.29-.1l.1-.1-.29-.194Z" transform="translate(-73.038 -21.78)" fill="#313131" fill-rule="evenodd"/>
      <path id="Path_28" data-name="Path 28" d="M368.8,395.541l-1.354-.1v-.291l1.354.1v.291Z" transform="translate(-69.48 -16.316)" fill="#313131" fill-rule="evenodd"/>
      <path id="Path_29" data-name="Path 29" d="M368.863,398.826l-.484.1c-.1,0-.1.1-.1.193l.1.387-.194.1-.194-.581-.193.1.1.677c.1.1.1.1.194.1l.581-.1c0-.1.1-.1,0-.193l-.1-.387.291-.1.1.581.291-.1-.194-.677c0-.1-.1-.1-.193-.1Z" transform="translate(-69.636 -17.955)" fill="#313131" fill-rule="evenodd"/>
      <path id="Path_30" data-name="Path 30" d="M368.03,397.249l.774-.1v.291l-1.258.1v-.193l.774-.678-.871.1v-.291l1.354-.1v.291l-.774.581Z" transform="translate(-69.48 -16.862)" fill="#313131" fill-rule="evenodd"/>
      <path id="Path_31" data-name="Path 31" d="M368.788,401.832c0,.1.1.1.194.1l1.064-.484-.1-.194-.968.387-.194-.387.968-.387-.1-.291-1.064.484c-.1,0-.1.1-.1.193l.29.581Z" transform="translate(-69.948 -18.736)" fill="#313131" fill-rule="evenodd"/>
      <path id="Path_32" data-name="Path 32" d="M371.314,405.817l.194-.1.29-.193.29-.1-.1.29-.194-.193-.29.193.29.29-.1.193.194.194.678-1.161-.29-.29-1.161.678.194.193Z" transform="translate(-71.119 -20.688)" fill="#313131" fill-rule="evenodd"/>
      <path id="Path_33" data-name="Path 33" d="M371.192,403.351c0,.1,0,.193-.1.193l-.29.291h-.194v.1a.732.732,0,0,1-.387.193c0,.1-.1.1,0,.194h0l-.194-.29v-.1c.1,0,.194-.1.291-.194,0,0,.1-.1,0-.1l-.1-.29.193-.1.194.194a.1.1,0,0,0,.1.1l.1-.1v-.1l-.194-.291-.194.194-.193.1-.484.387-.193-.29,1.161-.774a1.744,1.744,0,0,0,.484.678Z" transform="translate(-70.416 -19.673)" fill="#313131" fill-rule="evenodd"/>
      <path id="Path_34" data-name="Path 34" d="M378.479,408.577l.1-.29a3,3,0,0,1-.774-.194l-.387,1.258.871.194v-.194l-.484-.194.1-.193.387.1.1-.29-.484-.1.1-.194.484.1Z" transform="translate(-73.929 -22.093)" fill="#313131" fill-rule="evenodd"/>
      <path id="Path_35" data-name="Path 35" d="M374.012,407.059l.387-.581c.1,0,.1,0,.193.1h.1l-.774,1.161-.194-.194v-.967l-.484.677-.194-.194.774-1.064a.1.1,0,0,0,.1.1.094.094,0,0,1,.1.1v.871Z" transform="translate(-71.978 -21.156)" fill="#313131" fill-rule="evenodd"/>
      <path id="Path_36" data-name="Path 36" d="M383.3,409.972c-.1,0-.194,0-.194-.1l-.1-.968c0-.1,0-.194.1-.194a.731.731,0,0,1,.387-.1h.291c.1,0,.194,0,.194.1l.1.968c0,.1,0,.194-.1.194l-.194-.194-.1-.774-.387.1.1.677h.387l.194.194-.677.1Z" transform="translate(-76.427 -22.327)" fill="#313131" fill-rule="evenodd"/>
      <path id="Path_37" data-name="Path 37" d="M388.155,406.869c.1,0,.1,0,.194.1l.194.484c.1.1.1.1,0,.194l-.484.29-.193-.29.29-.194c.1,0,.1,0,.1-.1h-.1a.1.1,0,0,0-.1-.1l-.29.194.1.194.193.29.194.387c-.1.1-.194.1-.29.193l-.581-1.161a3.379,3.379,0,0,0,.774-.484Z" transform="translate(-78.379 -21.547)" fill="#313131" fill-rule="evenodd"/>
      <path id="Path_38" data-name="Path 38" d="M394.681,401.639l-.968-.484-.1.291-.291-.1a2.529,2.529,0,0,0,.291-.774l.29.1-.1.291.968.387-.1.291Z" transform="translate(-81.033 -18.736)" fill="#313131" fill-rule="evenodd"/>
      <path id="Path_39" data-name="Path 39" d="M381.511,409.76v.1l-.484-.1.1-.678h.387v.1h.291v-.194a.208.208,0,0,0-.194-.194h-.581c-.1,0-.194,0-.194.1l-.1.968a.208.208,0,0,0,.194.193l.678.1a.208.208,0,0,0,.194-.193v-.194Z" transform="translate(-75.412 -22.405)" fill="#313131" fill-rule="evenodd"/>
      <path id="Path_40" data-name="Path 40" d="M385.979,407.918a.1.1,0,0,1,.1.1l.194.387a.338.338,0,0,1-.1.194h0c.1,0,.1,0,.1.1.1.1.1.29.193.387a.1.1,0,0,0,.1.1h0l-.387.1v-.1a.477.477,0,0,1-.1-.29c0-.1-.1-.1-.194-.1l-.194.1-.1-.291.29-.1V408.3h-.1l-.29.1.1.194.1.291.1.484-.29.1-.387-1.258.871-.291Z" transform="translate(-77.364 -22.015)" fill="#313131" fill-rule="evenodd"/>
      <path id="Path_41" data-name="Path 41" d="M390.292,407.1a.181.181,0,0,1-.29,0l-.581-.774c-.1-.1-.1-.194,0-.194.1-.1.29-.193.29-.29l.194-.194a.355.355,0,0,1,.29.1l.581.774c.1,0,.1.1,0,.193l-.29-.1-.484-.677-.291.29.484.581.291-.194.29.1-.484.387Z" transform="translate(-79.258 -21)" fill="#313131" fill-rule="evenodd"/>
      <path id="Path_42" data-name="Path 42" d="M391.634,404.013c0-.1.1-.1.1,0l.387.29v.1h.194c0,.1.194.29.194.29.1,0,.1.1.194,0h0l-.194.291c-.1,0-.1,0-.1-.1-.1,0-.194-.1-.291-.194h-.1l-.194.291-.194-.291.194-.193v-.1l-.1-.1a.1.1,0,0,0-.1.1l-.194.194.194.1.194.291.387.29-.193.194-.968-.871.581-.581Z" transform="translate(-80.018 -20.239)" fill="#313131" fill-rule="evenodd"/>
      <path id="Path_43" data-name="Path 43" d="M393.691,403.737l-.193-.194-.194-.193-.193-.29.387.1-.194.194.194.193.29-.29h.194l.194-.194-1.355-.387-.194.29.871,1.065.193-.29Z" transform="translate(-80.721 -19.673)" fill="#313131" fill-rule="evenodd"/>
      <path id="Path_44" data-name="Path 44" d="M394.122,399.7l1.259.387-.1.291-1.258-.387c0-.1.1-.1.1-.194v-.1Z" transform="translate(-81.346 -18.346)" fill="#313131" fill-rule="evenodd"/>
      <path id="Path_45" data-name="Path 45" d="M395.324,395.27l-.677.1c0-.1,0-.1-.1-.194v-.1l1.355-.1v.291l-.774.581h.774v.291h-1.258v-.291l.677-.581Z" transform="translate(-81.58 -16.238)" fill="#313131" fill-rule="evenodd"/>
      <path id="Path_46" data-name="Path 46" d="M395.73,398.537c0,.1-.1.1-.193.1l-.968-.1c-.1-.1-.194-.193-.194-.29s.1-.194.1-.29v-.291c0-.1.1-.194.194-.1l.968.1a.208.208,0,0,1,.194.194l-.29.1-.774-.1-.1.387.774.1.1-.387.29-.1-.1.677Z" transform="translate(-81.502 -17.377)" fill="#313131" fill-rule="evenodd"/>
      <path id="Path_47" data-name="Path 47" d="M378.561,391.248a.208.208,0,0,0,.194-.193c0-.1-.1-.1-.194-.1s-.1,0-.1.1,0,.193.1.193Z" transform="translate(-74.398 -14.442)" fill="#313131" fill-rule="evenodd"/>
      <path id="Path_48" data-name="Path 48" d="M378.249,391.308l-.484,1.839h.1l.387-1.355v1.355h.1v-1.355l.29,1.355h-.871a.532.532,0,0,0,.484.29.69.69,0,0,0,.581-.29l-.484-1.839Z" transform="translate(-74.086 -14.599)" fill="#313131" fill-rule="evenodd"/>
      <path id="Path_49" data-name="Path 49" d="M380.418,389.734l.291.1h0c-.194,0-.194.194-.194.387a.338.338,0,0,0,.194.1,4.158,4.158,0,0,1,.484-.1c.29,0,.581.1.774.1a.566.566,0,0,0,.387-.1.208.208,0,0,1,.194.194c0,.1-.1.1-.194.1a.566.566,0,0,0-.387-.1c-.193,0-.484.1-.774.1a4.157,4.157,0,0,1-.484-.1.208.208,0,0,0-.194.194l.1.1-.194.388-.194-.388.194-.1a.208.208,0,0,0-.194-.194,4.158,4.158,0,0,1-.484.1c-.291,0-.581-.1-.774-.1a1.97,1.97,0,0,0-.484.1s-.194,0-.194-.1.194-.194.194-.194a1.971,1.971,0,0,0,.484.1c.194,0,.484-.1.774-.1a4.159,4.159,0,0,1,.484.1.338.338,0,0,0,.194-.1c0-.193-.1-.387-.194-.387h0l.194-.1Z" transform="translate(-74.32 -13.896)" fill="#313131" fill-rule="evenodd"/>
      <path id="Path_50" data-name="Path 50" d="M385.652,391.248a.208.208,0,0,1-.194-.193c0-.1.1-.1.194-.1s.1,0,.1.1,0,.193-.1.193Z" transform="translate(-77.52 -14.442)" fill="#313131" fill-rule="evenodd"/>
      <path id="Path_51" data-name="Path 51" d="M385.34,391.308l.484,1.839h-.1l-.387-1.355v1.355h-.1v-1.355l-.387,1.355h.968a.533.533,0,0,1-.484.29.69.69,0,0,1-.581-.29l.484-1.839Z" transform="translate(-77.208 -14.599)" fill="#313131" fill-rule="evenodd"/>
      <path id="Path_52" data-name="Path 52" d="M376.463,390.277c.1,0,.1,0,.1-.1s0-.1-.1-.1-.1,0-.1.1,0,.1.1.1Z" transform="translate(-73.461 -14.052)" fill="#313131" fill-rule="evenodd"/>
      <path id="Path_53" data-name="Path 53" d="M375.685,391.074a.338.338,0,0,0,.1-.194l-.1-.1a.338.338,0,0,0-.193.1.208.208,0,0,0,.193.194Z" transform="translate(-73.071 -14.364)" fill="#313131" fill-rule="evenodd"/>
      <path id="Path_54" data-name="Path 54" d="M377.259,391.074a.338.338,0,0,0,.1-.194l-.1-.1a.338.338,0,0,0-.194.1.208.208,0,0,0,.194.194Z" transform="translate(-73.773 -14.364)" fill="#313131" fill-rule="evenodd"/>
      <path id="Path_55" data-name="Path 55" d="M376.463,391.851c.1,0,.1,0,.1-.1s0-.1-.1-.1-.1,0-.1.1,0,.1.1.1Z" transform="translate(-73.461 -14.755)" fill="#313131" fill-rule="evenodd"/>
      <path id="Path_56" data-name="Path 56" d="M378.036,390.277c.1,0,.1,0,.1-.1s0-.1-.1-.1-.1,0-.1.1,0,.1.1.1Z" transform="translate(-74.164 -14.052)" fill="#313131" fill-rule="evenodd"/>
      <path id="Path_57" data-name="Path 57" d="M386.254,390.277c.1,0,.1,0,.1-.1s0-.1-.1-.1-.1,0-.1.1,0,.1.1.1Z" transform="translate(-77.832 -14.052)" fill="#313131" fill-rule="evenodd"/>
      <path id="Path_58" data-name="Path 58" d="M388,390.277c.1,0,.1,0,.1-.1s0-.1-.1-.1-.1,0-.1.1,0,.1.1.1Z" transform="translate(-78.613 -14.052)" fill="#313131" fill-rule="evenodd"/>
      <path id="Path_59" data-name="Path 59" d="M378.036,391.773a.1.1,0,0,0,.1-.1c0-.1,0-.194-.1-.194s-.1.1-.1.194a.1.1,0,0,0,.1.1Z" transform="translate(-74.164 -14.676)" fill="#313131" fill-rule="evenodd"/>
      <path id="Path_60" data-name="Path 60" d="M379.707,393.424a.1.1,0,1,0,0-.193c-.1,0-.194,0-.194.1s.1.1.194.1Z" transform="translate(-74.866 -15.457)" fill="#313131" fill-rule="evenodd"/>
      <path id="Path_61" data-name="Path 61" d="M380.581,394.124a.1.1,0,1,0,0-.194c-.1,0-.194,0-.194.1s.1.1.194.1Z" transform="translate(-75.256 -15.769)" fill="#313131" fill-rule="evenodd"/>
      <path id="Path_62" data-name="Path 62" d="M377.259,392.647a.338.338,0,0,0,.1-.194l-.1-.1a.339.339,0,0,0-.194.1.208.208,0,0,0,.194.194Z" transform="translate(-73.773 -15.067)" fill="#313131" fill-rule="evenodd"/>
      <path id="Path_63" data-name="Path 63" d="M376.463,393.346a.094.094,0,0,0,.1-.1c0-.1,0-.194-.1-.194s-.1.1-.1.194a.094.094,0,0,0,.1.1Z" transform="translate(-73.461 -15.379)" fill="#313131" fill-rule="evenodd"/>
      <path id="Path_64" data-name="Path 64" d="M377.259,394.221a.338.338,0,0,0,.1-.194.1.1,0,0,0-.1-.1c-.1,0-.194,0-.194.1a.208.208,0,0,0,.194.194Z" transform="translate(-73.773 -15.769)" fill="#313131" fill-rule="evenodd"/>
      <path id="Path_65" data-name="Path 65" d="M378.911,395.794a.1.1,0,0,0,.1-.1c0-.1,0-.194-.1-.194s-.1.1-.1.194a.1.1,0,0,0,.1.1Z" transform="translate(-74.554 -16.472)" fill="#313131" fill-rule="evenodd"/>
      <path id="Path_66" data-name="Path 66" d="M376.463,394.92a.1.1,0,0,0,.1-.1c0-.1,0-.193-.1-.193s-.1.1-.1.193a.1.1,0,0,0,.1.1Z" transform="translate(-73.461 -16.082)" fill="#313131" fill-rule="evenodd"/>
      <path id="Path_67" data-name="Path 67" d="M376.463,396.572c.1,0,.1,0,.1-.1s0-.1-.1-.1-.1,0-.1.1,0,.1.1.1Z" transform="translate(-73.461 -16.862)" fill="#313131" fill-rule="evenodd"/>
      <path id="Path_68" data-name="Path 68" d="M376.463,398.146c.1,0,.1,0,.1-.1s0-.1-.1-.1-.1,0-.1.1,0,.1.1.1Z" transform="translate(-73.461 -17.565)" fill="#313131" fill-rule="evenodd"/>
      <path id="Path_69" data-name="Path 69" d="M377.337,397.368c.1,0,.1-.1.1-.194a.1.1,0,0,0-.194,0c0,.1,0,.194.1.194Z" transform="translate(-73.851 -17.175)" fill="#313131" fill-rule="evenodd"/>
      <path id="Path_70" data-name="Path 70" d="M378.133,396.572a.1.1,0,0,0,0-.194c-.1,0-.193,0-.193.1s.1.1.193.1Z" transform="translate(-74.164 -16.862)" fill="#313131" fill-rule="evenodd"/>
      <path id="Path_71" data-name="Path 71" d="M377.337,395.794c.1,0,.1-.1.1-.193a.1.1,0,0,0-.194,0c0,.1,0,.193.1.193Z" transform="translate(-73.851 -16.472)" fill="#313131" fill-rule="evenodd"/>
      <path id="Path_72" data-name="Path 72" d="M375.685,398.942l.1-.1a.338.338,0,0,0-.1-.194.208.208,0,0,0-.193.194.338.338,0,0,0,.193.1Z" transform="translate(-73.071 -17.877)" fill="#313131" fill-rule="evenodd"/>
      <path id="Path_73" data-name="Path 73" d="M379.707,391.773l.1-.1a.338.338,0,0,0-.1-.194.208.208,0,0,0-.194.194.338.338,0,0,0,.194.1Z" transform="translate(-74.866 -14.676)" fill="#313131" fill-rule="evenodd"/>
      <path id="Path_74" data-name="Path 74" d="M380.484,392.647a.208.208,0,0,0,.194-.194.339.339,0,0,0-.194-.1.094.094,0,0,0-.1.1c0,.1,0,.194.1.194Z" transform="translate(-75.256 -15.067)" fill="#313131" fill-rule="evenodd"/>
      <path id="Path_75" data-name="Path 75" d="M381.359,393.346a.094.094,0,0,0,.1-.1c0-.1,0-.194-.1-.194s-.1.1-.1.194a.094.094,0,0,0,.1.1Z" transform="translate(-75.647 -15.379)" fill="#313131" fill-rule="evenodd"/>
      <path id="Path_76" data-name="Path 76" d="M381.359,391.773a.1.1,0,0,0,.1-.1c0-.1,0-.194-.1-.194s-.1.1-.1.194a.1.1,0,0,0,.1.1Z" transform="translate(-75.647 -14.676)" fill="#313131" fill-rule="evenodd"/>
      <path id="Path_77" data-name="Path 77" d="M382.155,392.647a.338.338,0,0,0,.1-.194l-.1-.1a.339.339,0,0,0-.194.1.208.208,0,0,0,.194.194Z" transform="translate(-75.959 -15.067)" fill="#313131" fill-rule="evenodd"/>
      <path id="Path_78" data-name="Path 78" d="M382.932,391.773a.1.1,0,0,0,.1-.1c0-.1,0-.194-.1-.194s-.1.1-.1.194a.1.1,0,0,0,.1.1Z" transform="translate(-76.349 -14.676)" fill="#313131" fill-rule="evenodd"/>
      <path id="Path_79" data-name="Path 79" d="M383.806,392.647a.208.208,0,0,0,.194-.194.339.339,0,0,0-.194-.1l-.1.1a.338.338,0,0,0,.1.194Z" transform="translate(-76.739 -15.067)" fill="#313131" fill-rule="evenodd"/>
      <path id="Path_80" data-name="Path 80" d="M384.681,391.851c.1,0,.1,0,.1-.1s0-.1-.1-.1-.1,0-.1.1,0,.1.1.1Z" transform="translate(-77.13 -14.755)" fill="#313131" fill-rule="evenodd"/>
      <path id="Path_81" data-name="Path 81" d="M383.029,393.424a.1.1,0,1,0,0-.193c-.1,0-.194,0-.194.1s.1.1.194.1Z" transform="translate(-76.349 -15.457)" fill="#313131" fill-rule="evenodd"/>
      <path id="Path_82" data-name="Path 82" d="M383.9,394.221l.1-.1a.338.338,0,0,0-.1-.194.208.208,0,0,0-.194.194.338.338,0,0,0,.194.1Z" transform="translate(-76.739 -15.769)" fill="#313131" fill-rule="evenodd"/>
      <path id="Path_83" data-name="Path 83" d="M384.681,393.424c.1,0,.193,0,.193-.1s-.1-.1-.193-.1-.1,0-.1.1,0,.1.1.1Z" transform="translate(-77.13 -15.457)" fill="#313131" fill-rule="evenodd"/>
      <path id="Path_84" data-name="Path 84" d="M387.129,391.074a.1.1,0,0,0,.1-.1c0-.1,0-.194-.1-.194s-.1.1-.1.194a.1.1,0,0,0,.1.1Z" transform="translate(-78.223 -14.364)" fill="#313131" fill-rule="evenodd"/>
      <path id="Path_85" data-name="Path 85" d="M388.7,390.977c.1,0,.194,0,.194-.1s-.1-.1-.194-.1a.1.1,0,1,0,0,.194Z" transform="translate(-78.925 -14.364)" fill="#313131" fill-rule="evenodd"/>
      <path id="Path_86" data-name="Path 86" d="M387.925,391.851a.1.1,0,1,0,0-.194c-.1,0-.194,0-.194.1s.1.1.194.1Z" transform="translate(-78.535 -14.755)" fill="#313131" fill-rule="evenodd"/>
      <path id="Path_87" data-name="Path 87" d="M387.051,392.647a.1.1,0,0,0,.1-.1c0-.1,0-.193-.1-.193a.208.208,0,0,0-.194.193.338.338,0,0,0,.194.1Z" transform="translate(-78.145 -15.067)" fill="#313131" fill-rule="evenodd"/>
      <path id="Path_88" data-name="Path 88" d="M387.051,394.221a.1.1,0,0,0,.1-.1c0-.1,0-.194-.1-.194a.208.208,0,0,0-.194.194.338.338,0,0,0,.194.1Z" transform="translate(-78.145 -15.769)" fill="#313131" fill-rule="evenodd"/>
      <path id="Path_89" data-name="Path 89" d="M387.925,393.521a.338.338,0,0,0,.1-.193l-.1-.1a.338.338,0,0,0-.194.1.208.208,0,0,0,.194.193Z" transform="translate(-78.535 -15.457)" fill="#313131" fill-rule="evenodd"/>
      <path id="Path_90" data-name="Path 90" d="M388.1,395.095a.338.338,0,0,0,.1-.194l-.1-.1a.338.338,0,0,0-.194.1.208.208,0,0,0,.194.194Z" transform="translate(-78.613 -16.16)" fill="#313131" fill-rule="evenodd"/>
      <path id="Path_91" data-name="Path 91" d="M387.225,395.872a.1.1,0,1,0,0-.193c-.1,0-.193,0-.193.1s.1.1.193.1Z" transform="translate(-78.223 -16.55)" fill="#313131" fill-rule="evenodd"/>
      <path id="Path_92" data-name="Path 92" d="M385.555,395.872c.1,0,.1,0,.1-.1s0-.1-.1-.1-.1,0-.1.1,0,.1.1.1Z" transform="translate(-77.52 -16.55)" fill="#313131" fill-rule="evenodd"/>
      <path id="Path_93" data-name="Path 93" d="M386.429,396.669a.1.1,0,0,0,.1-.1c0-.1,0-.194-.1-.194s-.1.1-.1.194a.1.1,0,0,0,.1.1Z" transform="translate(-77.911 -16.862)" fill="#313131" fill-rule="evenodd"/>
      <path id="Path_94" data-name="Path 94" d="M387.129,397.368a.1.1,0,0,0,.1-.1c0-.1,0-.193-.1-.193s-.1.1-.1.193a.1.1,0,0,0,.1.1Z" transform="translate(-78.223 -17.175)" fill="#313131" fill-rule="evenodd"/>
      <path id="Path_95" data-name="Path 95" d="M388,398.242a.208.208,0,0,0,.194-.193.338.338,0,0,0-.194-.1l-.1.1a.336.336,0,0,0,.1.193Z" transform="translate(-78.613 -17.565)" fill="#313131" fill-rule="evenodd"/>
      <path id="Path_96" data-name="Path 96" d="M377.162,402.517c.1,0,.194,0,.194-.1s-.1-.1-.194-.1a.1.1,0,0,0,0,.194Z" transform="translate(-73.773 -19.517)" fill="#313131" fill-rule="evenodd"/>
      <path id="Path_97" data-name="Path 97" d="M378.833,400.865a.338.338,0,0,0,.1-.194l-.1-.1a.338.338,0,0,0-.194.1.208.208,0,0,0,.194.194Z" transform="translate(-74.476 -18.736)" fill="#313131" fill-rule="evenodd"/>
      <path id="Path_98" data-name="Path 98" d="M379.61,400.069c.1,0,.1,0,.1-.1s0-.1-.1-.1-.1,0-.1.1,0,.1.1.1Z" transform="translate(-74.866 -18.424)" fill="#313131" fill-rule="evenodd"/>
      <path id="Path_99" data-name="Path 99" d="M380.484,399.291c.1,0,.1-.1.1-.193a.1.1,0,0,0-.194,0c0,.1,0,.193.1.193Z" transform="translate(-75.256 -18.034)" fill="#313131" fill-rule="evenodd"/>
      <path id="Path_100" data-name="Path 100" d="M381.281,398.417l.1-.1a.338.338,0,0,0-.1-.193.208.208,0,0,0-.194.193.338.338,0,0,0,.194.1Z" transform="translate(-75.569 -17.643)" fill="#313131" fill-rule="evenodd"/>
      <path id="Path_101" data-name="Path 101" d="M382.058,397.621c.1,0,.1,0,.1-.1s0-.1-.1-.1-.1,0-.1.1,0,.1.1.1Z" transform="translate(-75.959 -17.331)" fill="#313131" fill-rule="evenodd"/>
      <path id="Path_102" data-name="Path 102" d="M382.932,398.417a.1.1,0,0,0,.1-.1c0-.1,0-.193-.1-.193s-.1.1-.1.193a.1.1,0,0,0,.1.1Z" transform="translate(-76.349 -17.643)" fill="#313131" fill-rule="evenodd"/>
      <path id="Path_103" data-name="Path 103" d="M383.806,399.194c.1,0,.1,0,.1-.1s0-.1-.1-.1-.1,0-.1.1,0,.1.1.1Z" transform="translate(-76.739 -18.034)" fill="#313131" fill-rule="evenodd"/>
      <path id="Path_104" data-name="Path 104" d="M384.506,399.991a.336.336,0,0,0,.193-.1.208.208,0,0,0-.193-.194.338.338,0,0,0-.1.194l.1.1Z" transform="translate(-77.052 -18.346)" fill="#313131" fill-rule="evenodd"/>
      <path id="Path_105" data-name="Path 105" d="M382.932,400.069c.1,0,.1,0,.1-.1s0-.1-.1-.1-.1,0-.1.1,0,.1.1.1Z" transform="translate(-76.349 -18.424)" fill="#313131" fill-rule="evenodd"/>
      <path id="Path_106" data-name="Path 106" d="M382.058,399.291a.208.208,0,0,0,.194-.193.338.338,0,0,0-.194-.1l-.1.1a.338.338,0,0,0,.1.193Z" transform="translate(-75.959 -18.034)" fill="#313131" fill-rule="evenodd"/>
      <path id="Path_107" data-name="Path 107" d="M381.281,400.069a.1.1,0,1,0,0-.194c-.1,0-.194,0-.194.1s.1.1.194.1Z" transform="translate(-75.569 -18.424)" fill="#313131" fill-rule="evenodd"/>
      <path id="Path_108" data-name="Path 108" d="M380.484,400.865a.1.1,0,0,0,.1-.1c0-.1,0-.194-.1-.194s-.1.1-.1.194a.1.1,0,0,0,.1.1Z" transform="translate(-75.256 -18.736)" fill="#313131" fill-rule="evenodd"/>
      <path id="Path_109" data-name="Path 109" d="M382.058,400.865a.338.338,0,0,0,.194-.1.208.208,0,0,0-.194-.194.338.338,0,0,0-.1.194l.1.1Z" transform="translate(-75.959 -18.736)" fill="#313131" fill-rule="evenodd"/>
      <path id="Path_110" data-name="Path 110" d="M383.631,400.865a.338.338,0,0,0,.194-.1.208.208,0,0,0-.194-.194.339.339,0,0,0-.1.194l.1.1Z" transform="translate(-76.662 -18.736)" fill="#313131" fill-rule="evenodd"/>
      <path id="Path_111" data-name="Path 111" d="M386.176,401.564a.1.1,0,0,0,.1-.1.338.338,0,0,0-.1-.193.208.208,0,0,0-.193.193c0,.1.1.1.193.1Z" transform="translate(-77.755 -19.048)" fill="#313131" fill-rule="evenodd"/>
      <path id="Path_112" data-name="Path 112" d="M387.051,402.439a.339.339,0,0,0,.1-.194.094.094,0,0,0-.1-.1c-.1,0-.194,0-.194.1a.208.208,0,0,0,.194.194Z" transform="translate(-78.145 -19.439)" fill="#313131" fill-rule="evenodd"/>
      <path id="Path_113" data-name="Path 113" d="M386.254,403.216c.1,0,.1,0,.1-.1s0-.1-.1-.1-.1,0-.1.1,0,.1.1.1Z" transform="translate(-77.832 -19.829)" fill="#313131" fill-rule="evenodd"/>
      <path id="Path_114" data-name="Path 114" d="M382.932,403.216c.1,0,.194,0,.194-.1s-.1-.1-.194-.1-.1,0-.1.1,0,.1.1.1Z" transform="translate(-76.349 -19.829)" fill="#313131" fill-rule="evenodd"/>
      <path id="Path_115" data-name="Path 115" d="M381.281,403.216a.1.1,0,1,0,0-.194c-.1,0-.194,0-.194.1s.1.1.194.1Z" transform="translate(-75.569 -19.829)" fill="#313131" fill-rule="evenodd"/>
      <path id="Path_116" data-name="Path 116" d="M383.728,404.012l.1-.1a.338.338,0,0,0-.1-.194.208.208,0,0,0-.193.194.337.337,0,0,0,.193.1Z" transform="translate(-76.662 -20.141)" fill="#313131" fill-rule="evenodd"/>
      <path id="Path_117" data-name="Path 117" d="M382.058,404.012a.339.339,0,0,0,.194-.1.208.208,0,0,0-.194-.194.338.338,0,0,0-.1.194l.1.1Z" transform="translate(-75.959 -20.141)" fill="#313131" fill-rule="evenodd"/>
      <path id="Path_118" data-name="Path 118" d="M380.484,404.012a.1.1,0,0,0,.1-.1c0-.1,0-.194-.1-.194s-.1.1-.1.194a.1.1,0,0,0,.1.1Z" transform="translate(-75.256 -20.141)" fill="#313131" fill-rule="evenodd"/>
      <path id="Path_119" data-name="Path 119" d="M382.795,390.449c.194.1.581.484.387.774-.871-.29-1.065.387-1.065.774,0,.968.677,1.355.677,3a3.279,3.279,0,0,1-2.806,3.194,4.425,4.425,0,0,0-2.033.871v-.194a6.04,6.04,0,0,1,2.226-.871,3.242,3.242,0,0,0,2.516-3c0-1.161-.484-2.032-.968-2.032-.194,0-.1.193,0,.387.1.1.1.194,0,.194-.194,0-.387,0-.387.193h.29c.194,0,.387.1.387.194,0,.194-.194.1-.194.194s.581.484.581,1.064c0,.1-.1.1-.1,0a.437.437,0,0,0-.29-.291c-.1,0-.1.1-.1.194.1,0,.193.291.193.678a2.027,2.027,0,0,1-.387,1.064c-.1.1-.1,0-.1,0-.1-.1-.1-.193-.193-.193s0,.677-1.646,1.161a4.36,4.36,0,0,0-1.839.774,4.114,4.114,0,0,0-1.742-.774c-1.646-.484-1.549-1.161-1.646-1.161a.208.208,0,0,0-.193.193s0,.1-.1,0a2.146,2.146,0,0,1-.484-1.064c0-.387.193-.678.29-.678,0-.1,0-.194-.194-.194-.1,0-.193.194-.193.291-.1.1-.1.1-.1,0,0-.581.581-.967.581-1.064s-.194,0-.194-.194c0-.1.194-.194.387-.194h.29c0-.193-.194-.193-.387-.193s-.1-.1,0-.194c.1-.194.193-.387,0-.387-.484,0-.968.871-.968,2.032a3.242,3.242,0,0,0,2.516,3,5.731,5.731,0,0,1,2.129.871v.194a3.78,3.78,0,0,0-1.936-.871c-2.71-.677-2.807-2.613-2.807-3.194,0-1.645.678-2.032.678-3,0-.387-.193-1.064-1.064-.774-.194-.29.194-.677.387-.774-.1-.194.581-1.065,1.742-1.065.678,0,1.258.387,1.936.387a1.95,1.95,0,0,0,1.064-.291v.1a2.028,2.028,0,0,1-1.064.387c-.677,0-1.258-.387-1.936-.387a1.673,1.673,0,0,0-1.258.484h.193c.1.1,0,.194,0,.1-.1,0-.193-.1-.29-.1,0,.1-.1.1-.1.194h.387c.1.1,0,.194-.1.1-.1,0-.194-.1-.387,0v.29c-.1,0-.484.1-.387.387.1-.1.968-.1.968.871,0,.194.1.1.1.1a1.043,1.043,0,0,0-.581-1.064c-.1-.1-.1-.194.1-.1a1.062,1.062,0,0,1,.581.968v.387a1.175,1.175,0,0,0,.1-.484,1.061,1.061,0,0,0-.871-1.064v-.193a1.2,1.2,0,0,1,1.064,1.354,2.162,2.162,0,0,1-.29.968c.194,0,.581,0,.29.581.484.1.387.581.194.581s-.194-.1-.387-.1c-.1,0-.194.1-.1.1.1.1.194.1.194.194,0,.194-.291.1-.581.677h.193c.1,0,.194,0,.194.1,0,.194-.194.291-.194.871a1.847,1.847,0,0,0,.291.774.355.355,0,0,1,.29-.1c.291,0,.194.194.194.291a2.054,2.054,0,0,0,1.355.871,3.936,3.936,0,0,1,1.839.774,4.8,4.8,0,0,1,1.936-.774,2.056,2.056,0,0,0,1.355-.871c0-.1-.1-.291.194-.291a.355.355,0,0,1,.29.1,6.661,6.661,0,0,0,.291-.774c0-.581-.194-.678-.194-.871,0-.1.1-.1.194-.1h.193c-.29-.581-.581-.484-.581-.677,0-.1.1-.1.194-.194.1,0,0-.1-.1-.1-.194,0-.194.1-.387.1s-.291-.484.193-.581c-.29-.581.1-.581.291-.581a2.163,2.163,0,0,1-.291-.968,1.425,1.425,0,0,1,.581-1.258l-.1-.1c-.1-.1,0-.194,0-.1.1,0,.1.1.193.193a.094.094,0,0,0,.1-.1l-.1-.1c-.1-.1-.1-.194,0-.1.1,0,.1,0,.194.194h.194v.193a1.061,1.061,0,0,0-.871,1.064,1.175,1.175,0,0,0,.1.484V391.8a1.062,1.062,0,0,1,.581-.968c.194-.1.194,0,.1.1a1.042,1.042,0,0,0-.581,1.064s.1.1.1-.1c0-.968.871-.968.968-.871.1-.291-.291-.387-.387-.387v-.193a1.618,1.618,0,0,0-1.549-.871c-.678,0-1.258.387-1.936.387a2.748,2.748,0,0,1-1.161-.387v-.1a2.575,2.575,0,0,0,1.161.291c.678,0,1.258-.387,1.936-.387a1.918,1.918,0,0,1,1.742,1.065Z" transform="translate(-71.857 -13.74)" fill="#313131" fill-rule="evenodd"/>
      <path id="Path_120" data-name="Path 120" d="M383.116,405.1a6.013,6.013,0,0,1,1.549-.677c.29,0,.193.1,0,.1-.677.194-1.452.581-1.549.581,0,.1-.194.1,0,0Z" transform="translate(-76.436 -20.454)" fill="#313131" fill-rule="evenodd"/>
      <path id="Path_121" data-name="Path 121" d="M380.246,405.317a4.719,4.719,0,0,0-1.549-.581c-.194-.1-.194,0,0,0a5.535,5.535,0,0,1,1.452.581c.1.1.193.1.1,0Z" transform="translate(-74.437 -20.575)" fill="#313131" fill-rule="evenodd"/>
      <path id="Path_122" data-name="Path 122" d="M378.857,393.424l4.065,3.968c.1,0,0-.1,0-.194l-4.065-3.968-3.968,3.968a.3.3,0,0,0-.1.194l4.065-3.968Z" transform="translate(-72.758 -15.457)" fill="#313131" fill-rule="evenodd"/>
      <path id="Path_123" data-name="Path 123" d="M379.482,396.669l3.291,3.194.1-.194-3.387-3.29-3.291,3.29.1.194,3.194-3.194Z" transform="translate(-73.383 -16.863)" fill="#313131" fill-rule="evenodd"/>
      <path id="Path_124" data-name="Path 124" d="M378.935,395.188l3.581,3.388c.291.194.484-.484.484-.678l-4.065-3.968-3.968,3.968.387.29v-.193l-.1-.194.193-.1.1-.1.1.1.291-.1v-.193l-.1-.194.193-.1.1-.1.1.1.291-.1v-.193l-.1-.194h.194l.1-.194.1.194.291-.194v-.193l-.1-.1.194-.1.1-.194.1.194.291-.1v-.194l-.194-.193.194-.1.194-.1.1.1.291-.1v-.194l-.194-.193.194-.1.194-.1.1.1.193-.1v-.194l-.1-.194h.193l.1-.193.194.193h.193l-.193.194v.194l.1.194.193-.1.1-.1.194.1.193.1-.193.193v.194l.29.1.1-.1.1.1.194.1-.1.193v.194l.29.1.1-.194.1.194.194.1-.1.1v.193l.29.194.1-.194.1.194h.194l-.1.194v.193l.291.1.1-.1.1.1.194.1-.1.194v.193l.291.1.1-.1.1.1.194.1-.1.194v.193l-.193-.1-.194.1v-.193l-.1-.194.194-.1-.291-.1-.194-.1-.193.1v-.193l-.1-.194.194-.1-.291-.1h-.387v-.193l-.1-.194h.193l-.29-.194h-.387v-.193l-.1-.1.193-.1-.29-.1-.194-.1-.194.1v-.194l-.1-.193.194-.1-.29-.1-.194-.1-.194.1v-.194l-.1-.193-.1-.194-.194-.1-.194.1-.193.1.193.1-.1.193v.194l-.194-.1-.194.1-.291.1.194.1-.1.193v.194l-.193-.1-.194.1-.291.1.194.1-.1.1v.193H377.1l-.291.194H377l-.1.194v.193h-.387l-.291.1.194.1-.1.194v.193l-.194-.1-.193.1-.291.1.194.1-.1.194v.193l-.194-.1-.193.1-.387-.29c0,.194.194.871.484.678l3.484-3.388Z" transform="translate(-72.836 -15.769)" fill="#313131" fill-rule="evenodd"/>
      <path id="Path_125" data-name="Path 125" d="M222.19,369.245v6.678h11.323v8.71H222.19v15.582H211.835v-39.68h22.84v8.71Z" transform="translate(0 -0.859)" fill="#313131" fill-rule="evenodd"/>
      <path id="Path_126" data-name="Path 126" d="M256.6,360.534v39.68h10.258v-30.97h2.419c6.678,0,11.324,3.968,11.324,11.129,0,7.743-5.226,11.033-11.42,11.033h-2.323v8.807h4.356a19.842,19.842,0,1,0,0-39.68Z" transform="translate(-19.985 -0.859)" fill="#313131" fill-rule="evenodd"/>
      <path id="Path_127" data-name="Path 127" d="M321.988,400.214h10.356v-39.68H321.988v39.68Z" transform="translate(-49.182 -0.859)" fill="#313131" fill-rule="evenodd"/>
      <path id="Path_128" data-name="Path 128" d="M373.534,372.935a11.328,11.328,0,0,0-9.1-4.356c-6.291,0-10.549,4.839-10.549,11.033,0,6.291,4.355,10.743,10.743,10.743a11.976,11.976,0,0,0,8.9-4.161v12.388c-3.388.968-5.9,1.839-9.1,1.839a21.942,21.942,0,0,1-14.9-5.9,19.487,19.487,0,0,1-6.388-15,20.832,20.832,0,0,1,5.9-14.517,21.485,21.485,0,0,1,15.1-6.388,24.44,24.44,0,0,1,9.388,2.032v12.291Z" transform="translate(-58.628 0)" fill="#313131" fill-rule="evenodd"/>
    </g>
  </g>
</svg>
