<svg xmlns="http://www.w3.org/2000/svg" width="80" height="80" viewBox="0 0 80 80">
  <g id="Group_1082" data-name="Group 1082" transform="translate(-275 -5145)">
    <rect id="Rectangle_158" data-name="Rectangle 158" width="80" height="80" transform="translate(275 5145)" fill="#fff"/>
    <circle id="Ellipse_40" data-name="Ellipse 40" cx="29" cy="29" r="29" transform="translate(286 5156.096)" fill="rgba(232,176,52,0.4)"/>
    <g id="problem-solving" transform="translate(273.681 5149.443)">
      <path id="Path_1835" data-name="Path 1835" d="M59.772,344.429,49.518,349.7a4.882,4.882,0,0,0-3.474-1.45H38.978a2.323,2.323,0,0,1-.464-.028c-.064-.043-.224-.194-.353-.316l-.068-.064c-5.751-5.416-10.611-5.072-16.138-2.891a3.651,3.651,0,0,1-1.739.381l-1.557,0a3.546,3.546,0,0,0-3.338-2.367h-5.2a3.546,3.546,0,0,0-3.54,3.544v13.635a3.544,3.544,0,0,0,3.54,3.54h5.2a3.546,3.546,0,0,0,3.339-2.365h2.859a4.049,4.049,0,0,1,.947.2L35.91,365.11c.589.16,1.129.317,1.652.469a17.027,17.027,0,0,0,4.717.928,10.354,10.354,0,0,0,5.884-2.12l.035-.024,16.576-11.8a4.774,4.774,0,0,0-5-8.131Zm-43.7,15.714a.765.765,0,0,1-.755.755h-5.2a.765.765,0,0,1-.755-.755V346.508a.767.767,0,0,1,.755-.759h5.2a.767.767,0,0,1,.755.759Zm47.081-9.85L46.6,362.083c-3.37,2.243-4.8,1.826-8.261.822-.534-.155-1.087-.316-1.7-.483l-13.447-3.6a6.672,6.672,0,0,0-1.668-.292H18.861V348.118l1.482-.006a6.2,6.2,0,0,0,2.634-.573c4.791-1.891,8.487-2.116,13.208,2.329l.067.063a3.25,3.25,0,0,0,2.726,1.1h7.066a2.111,2.111,0,1,1,0,4.222H34.589a1.393,1.393,0,0,0,0,2.785H46.044a4.9,4.9,0,0,0,4.8-5.89L61.046,346.9a2,2,0,1,1,2.111,3.387Z" transform="translate(0 -295.202)"/>
      <path id="Path_1836" data-name="Path 1836" d="M190.976,32.939a4.519,4.519,0,0,0,.483,8.334v2.074a4.609,4.609,0,0,0,4.6,4.606h6.17a4.611,4.611,0,0,0,4.606-4.606V41.273a4.519,4.519,0,0,0,.482-8.334,17,17,0,0,1,3.146-5.722c2-2.722,4.267-5.807,4.262-11.242,0-.485-.02-.983-.06-1.48a1.393,1.393,0,1,0-2.776.221c.034.424.051.847.051,1.26,0,4.521-1.806,6.984-3.721,9.591a18.979,18.979,0,0,0-3.663,6.917h-10.82a18.974,18.974,0,0,0-3.663-6.916c-1.917-2.607-3.727-5.07-3.721-9.591a13.033,13.033,0,0,1,3.8-9.57,12.616,12.616,0,0,1,8.971-3.621h.04A12.612,12.612,0,0,1,206.8,5.265a1.393,1.393,0,1,0,1.656-2.24,15.8,15.8,0,0,0-20.256,1.4,15.828,15.828,0,0,0-4.634,11.551c-.007,5.437,2.261,8.522,4.262,11.244a16.99,16.99,0,0,1,3.147,5.721Zm13.075,10.408a1.823,1.823,0,0,1-1.821,1.821h-6.17a1.821,1.821,0,0,1-1.817-1.821V41.527h9.807Zm-11.1-8.077h12.395a1.736,1.736,0,1,1,0,3.472H192.95a1.736,1.736,0,1,1,0-3.472Z" transform="translate(-152.338 0)"/>
      <path id="Path_1837" data-name="Path 1837" d="M288.225,64.444a1.393,1.393,0,0,0-2.785,0v8.637a1.393,1.393,0,0,0,2.785,0Z" transform="translate(-240.023 -54.27)"/>
      <path id="Path_1838" data-name="Path 1838" d="M286.833,170.311a1.393,1.393,0,0,0-1.393,1.393v.008a1.393,1.393,0,1,0,1.393-1.4Z" transform="translate(-240.023 -146.593)"/>
      <path id="Path_1839" data-name="Path 1839" d="M451.874,114.64h-5.656a1.393,1.393,0,0,0,0,2.785h5.656a1.393,1.393,0,1,0,0-2.785Z" transform="translate(-377.212 -98.675)"/>
      <path id="Path_1840" data-name="Path 1840" d="M429.408,13.541a1.386,1.386,0,0,0,.775-.236l4.693-3.15a1.393,1.393,0,1,0-1.552-2.313l-4.693,3.15a1.393,1.393,0,0,0,.777,2.549Z" transform="translate(-362.742 -6.546)"/>
      <path id="Path_1841" data-name="Path 1841" d="M434.877,202.44l-4.693-3.15a1.393,1.393,0,1,0-1.552,2.313l4.693,3.15a1.393,1.393,0,0,0,1.552-2.313Z" transform="translate(-362.743 -171.333)"/>
      <path id="Path_1842" data-name="Path 1842" d="M86.831,117.425h5.653a1.393,1.393,0,1,0,0-2.785H86.831a1.393,1.393,0,1,0,0,2.785Z" transform="translate(-67.874 -98.675)"/>
      <path id="Path_1843" data-name="Path 1843" d="M109.779,10.155l4.693,3.15a1.393,1.393,0,0,0,1.552-2.313l-4.693-3.15a1.393,1.393,0,0,0-1.552,2.313Z" transform="translate(-88.294 -6.547)"/>
      <path id="Path_1844" data-name="Path 1844" d="M114.473,199.29l-4.693,3.15a1.393,1.393,0,1,0,1.552,2.313l4.693-3.15a1.393,1.393,0,0,0-1.552-2.313Z" transform="translate(-88.295 -171.333)"/>
      <path id="Path_1845" data-name="Path 1845" d="M374.912,54.519a1.393,1.393,0,1,0,0-1.973,1.384,1.384,0,0,0,0,1.973Z" transform="translate(-316.681 -44.876)"/>
    </g>
  </g>
</svg>
