<svg xmlns="http://www.w3.org/2000/svg" width="80" height="80" viewBox="0 0 80 80">
  <g id="Group_1060" data-name="Group 1060" transform="translate(-415 -1110.572)">
    <rect id="Rectangle_152" data-name="Rectangle 152" width="80" height="80" transform="translate(415 1110.572)" fill="#fff" opacity="0.999"/>
    <g id="Group_1059" data-name="Group 1059" transform="translate(1.953 -0.427)">
      <path id="Path_423" data-name="Path 423" d="M868.268,1317.506c1.884,2.738,9.188,17.218,27.921,13.859s32.668-12.647,35.663-18.119,5.787-21.509-3.783-27.293-29.252-4.814-38.762-4.774-25.874,5.956-25.473,14.577S866.385,1314.768,868.268,1317.506Z" transform="translate(-446.206 -155.48)" fill="#ffe5e5"/>
      <g id="chatbot" transform="translate(401.619 1101.572)">
        <path id="Path_429" data-name="Path 429" d="M16,207.8a7.808,7.808,0,0,0,7.8,7.8H48.313a1.114,1.114,0,0,0,.669-2.006L47.2,212.257A5.6,5.6,0,0,1,44.97,207.8a7.808,7.808,0,0,0-7.8-7.8H23.8A7.808,7.808,0,0,0,16,207.8Zm7.8-5.571H37.171a5.577,5.577,0,0,1,5.571,5.571,7.844,7.844,0,0,0,2.342,5.571H23.8a5.571,5.571,0,1,1,0-11.142Z" transform="translate(0 -158.373)" fill="#1f1f1f"/>
        <path id="Path_430" data-name="Path 430" d="M298.742,203.142A11.155,11.155,0,0,0,287.6,192h-4.457A11.155,11.155,0,0,0,272,203.142a7.808,7.808,0,0,0,7.8,7.8h11.142A7.809,7.809,0,0,0,298.742,203.142Zm-7.8,5.571H279.8a5.577,5.577,0,0,1-5.571-5.571,8.924,8.924,0,0,1,8.914-8.914H287.6a8.924,8.924,0,0,1,8.914,8.914A5.578,5.578,0,0,1,290.942,208.714Z" transform="translate(-220.344 -151.487)" fill="#1f1f1f"/>
        <path id="Path_431" data-name="Path 431" d="M317.371,232h-8.914a4.457,4.457,0,0,0,0,8.914h8.914a4.457,4.457,0,0,0,0-8.914Zm0,6.685h-8.914a2.228,2.228,0,0,1,0-4.457h8.914a2.228,2.228,0,1,1,0,4.457Z" transform="translate(-247.887 -185.916)" fill="#1f1f1f"/>
        <path id="Path_432" data-name="Path 432" d="M307.588,344H297.556a5.571,5.571,0,0,0-5.533,6.222l1.411,12a3.343,3.343,0,0,0,3.32,2.952H308.39a3.343,3.343,0,0,0,3.32-2.952l1.411-12A5.571,5.571,0,0,0,307.588,344Zm3.32,5.962-1.411,12a1.114,1.114,0,0,1-1.107.984H296.754a1.114,1.114,0,0,1-1.107-.984l-1.411-12a3.343,3.343,0,0,1,3.32-3.733h10.032a3.343,3.343,0,0,1,3.32,3.733Z" transform="translate(-237.546 -282.316)" fill="#1f1f1f"/>
        <path id="Path_433" data-name="Path 433" d="M240,363.343v4.248a12.27,12.27,0,0,0,.34,2.867l1.624,6.745c.008.031.016.061.026.091a2.41,2.41,0,0,0,4.7-.762v-13.19a3.343,3.343,0,0,0-6.685,0Zm4.457,0v13.19a.181.181,0,0,1-.342.081l-1.608-6.675a10.037,10.037,0,0,1-.279-2.348v-4.248a1.114,1.114,0,1,1,2.228,0Z" transform="translate(-192.801 -296.088)" fill="#1f1f1f"/>
        <path id="Path_434" data-name="Path 434" d="M451.343,360A3.346,3.346,0,0,0,448,363.343v13.19a2.41,2.41,0,0,0,4.695.762c.01-.03.019-.061.026-.092l1.624-6.743a12.275,12.275,0,0,0,.341-2.87v-4.248A3.346,3.346,0,0,0,451.343,360Zm1.114,7.591a10.033,10.033,0,0,1-.278,2.347l-1.608,6.676a.181.181,0,0,1-.342-.081v-13.19a1.114,1.114,0,1,1,2.228,0Z" transform="translate(-371.831 -296.088)" fill="#1f1f1f"/>
        <circle id="Ellipse_38" data-name="Ellipse 38" cx="1.113" cy="1.113" r="1.113" transform="translate(59.445 49.427)" fill="#1f1f1f"/>
        <circle id="Ellipse_39" data-name="Ellipse 39" cx="1.113" cy="1.113" r="1.113" transform="translate(68.35 49.427)" fill="#1f1f1f"/>
        <path id="Path_435" data-name="Path 435" d="M27.142,16A11.142,11.142,0,1,0,38.285,27.142,11.142,11.142,0,0,0,27.142,16ZM23.8,35.4v-2.69a3.343,3.343,0,0,1,6.685,0V35.4a8.885,8.885,0,0,1-6.685,0Zm1.114-10.49a2.228,2.228,0,1,1,2.228,2.228A2.228,2.228,0,0,1,24.914,24.914Zm7.8,9.18v-1.38A5.57,5.57,0,0,0,30.258,28.1a4.457,4.457,0,1,0-6.231,0,5.57,5.57,0,0,0-2.456,4.617v1.38a8.914,8.914,0,1,1,11.142,0Z" transform="translate(0 0)" fill="#1f1f1f"/>
        <path id="Path_436" data-name="Path 436" d="M226.541,16H204.256a7.808,7.808,0,0,0-7.8,7.8,5.6,5.6,0,0,1-2.228,4.457l-1.783,1.337a1.114,1.114,0,0,0,.669,2.006h33.427a7.8,7.8,0,1,0,0-15.6Zm0,13.371h-30.2a7.844,7.844,0,0,0,2.342-5.571,5.577,5.577,0,0,1,5.571-5.571h22.285a5.571,5.571,0,1,1,0,11.142Z" transform="translate(-151.486 0)" fill="#1f1f1f"/>
      </g>
    </g>
  </g>
</svg>
