<svg xmlns="http://www.w3.org/2000/svg" width="80" height="80" viewBox="0 0 80 80">
  <g id="Group_1041" data-name="Group 1041" transform="translate(-415 -1106)">
    <rect id="Rectangle_141" data-name="Rectangle 141" width="80" height="80" transform="translate(415 1106)" fill="#fff" opacity="0.999"/>
    <path id="Path_423" data-name="Path 423" d="M868.268,1317.506c1.884,2.738,9.188,17.218,27.921,13.859s32.668-12.647,35.663-18.119,5.787-21.509-3.783-27.293-29.252-4.814-38.762-4.774-25.874,5.956-25.473,14.577S866.385,1314.768,868.268,1317.506Z" transform="translate(-445.253 -160.48)" fill="#a0f886" opacity="0.508"/>
    <g id="Application" transform="translate(418.479 1108.526)">
      <path id="Path_410" data-name="Path 410" d="M25,44H41.555v2.365H25Z" transform="translate(4.197 7.664)" fill="#1f1f1f"/>
      <path id="Path_411" data-name="Path 411" d="M21,44h2.365v2.365H21Z" transform="translate(3.467 7.664)" fill="#1f1f1f"/>
      <path id="Path_412" data-name="Path 412" d="M71.766,6.73H55.211V5.547A3.558,3.558,0,0,0,51.664,2H23.284a3.558,3.558,0,0,0-3.547,3.547v4.73H3.182A1.182,1.182,0,0,0,2,11.46v14.19a1.182,1.182,0,0,0,1.182,1.182H19.737V29.2a5.912,5.912,0,0,0-5.912,5.912v4.836L16.19,64.718v7.048a1.182,1.182,0,0,0,1.182,1.182H43.386a1.182,1.182,0,0,0,1.182-1.182V65.049l4.4-6.291h2.7a3.558,3.558,0,0,0,3.547-3.547V54.029h1.182a4.712,4.712,0,0,0,3.1-8.277,4.672,4.672,0,0,0,0-7.095,4.672,4.672,0,0,0,0-7.095,4.712,4.712,0,0,0-3.1-8.277H55.211V20.92H71.766a1.182,1.182,0,0,0,1.182-1.182V7.912A1.182,1.182,0,0,0,71.766,6.73ZM46.6,4.365l-.367,1.466a1.182,1.182,0,0,1-1.147.9H29.859a1.182,1.182,0,0,1-1.147-.9l-.367-1.466ZM4.365,24.467V12.642H25.649V24.467ZM42.2,70.583H18.555v-4.73H42.2Zm.568-7.095H18.448L16.19,39.839v-4.73a3.558,3.558,0,0,1,3.547-3.547h8.277a3.547,3.547,0,0,1,0,7.095H20.92a1.182,1.182,0,0,0-1.182,1.182V55.211a3.558,3.558,0,0,0,3.547,3.547h22.8Zm10.075-8.277a1.182,1.182,0,0,1-1.182,1.182H23.284A1.182,1.182,0,0,1,22.1,55.211V41.022h5.912a5.912,5.912,0,0,0,0-11.825H22.1V26.832h4.73a1.182,1.182,0,0,0,1.182-1.182V11.46a1.182,1.182,0,0,0-1.182-1.182H22.1V5.547a1.182,1.182,0,0,1,1.182-1.182H25.91l.508,2.046a3.547,3.547,0,0,0,3.441,2.684h15.23A3.547,3.547,0,0,0,48.53,6.41l.508-2.045h2.625a1.182,1.182,0,0,1,1.182,1.182V6.73H50.481A1.182,1.182,0,0,0,49.3,7.912V19.737a1.182,1.182,0,0,0,1.182,1.182h2.365v2.365H51.664a4.712,4.712,0,0,0-3.1,8.277,4.672,4.672,0,0,0,0,7.095,4.672,4.672,0,0,0,0,7.095,4.712,4.712,0,0,0,3.1,8.277h1.182Zm3.547-3.547h-4.73a2.365,2.365,0,0,1,0-4.73h4.73a2.365,2.365,0,1,1,0,4.73Zm0-7.095h-4.73a2.365,2.365,0,0,1,0-4.73h4.73a2.365,2.365,0,1,1,0,4.73Zm0-7.095h-4.73a2.365,2.365,0,1,1,0-4.73h4.73a2.365,2.365,0,1,1,0,4.73Zm0-11.825a2.365,2.365,0,1,1,0,4.73h-4.73a2.365,2.365,0,0,1,0-4.73Zm14.19-7.095H51.664V9.095h18.92Z" fill="#1f1f1f"/>
      <path id="Path_413" data-name="Path 413" d="M6,13H8.365v2.365H6Z" transform="translate(0.73 2.007)" fill="#1f1f1f"/>
      <path id="Path_414" data-name="Path 414" d="M10,13H21.825v2.365H10Z" transform="translate(1.46 2.007)" fill="#1f1f1f"/>
      <path id="Path_415" data-name="Path 415" d="M6,17H22.555v2.365H6Z" transform="translate(0.73 2.737)" fill="#1f1f1f"/>
      <path id="Path_416" data-name="Path 416" d="M46,11h4.73v2.365H46Z" transform="translate(8.029 1.642)" fill="#1f1f1f"/>
      <path id="Path_417" data-name="Path 417" d="M52,11h7.095v2.365H52Z" transform="translate(9.124 1.642)" fill="#1f1f1f"/>
    </g>
  </g>
</svg>
